M48
;DRILL file {KiCad (5.0.1)-3} date 23/12/2019 10:28:01
;FORMAT={-:-/ absolute / inch / decimal}
FMAT,2
INCH,TZ
T1C0.0200
T2C0.0236
T3C0.0315
T4C0.0394
T5C0.0433
T6C0.0472
T7C0.0512
T8C0.0598
T9C0.1693
%
G90
G05
M72
T1
X0.0394Y1.6142
X0.0394Y1.5354
X0.0394Y1.4567
X0.0394Y1.378
X0.0394Y1.2992
X0.0394Y1.2205
X0.0394Y1.1417
X0.0394Y1.063
X0.0394Y0.9843
X0.0394Y0.9055
X0.0394Y0.8268
X0.0394Y0.748
X0.0394Y0.6693
X0.0394Y0.5906
X0.0394Y0.5118
X0.0394Y0.4331
X0.0394Y0.3543
X0.3543Y1.9291
X0.3543Y0.0394
X0.4331Y1.9291
X0.4331Y0.0394
X0.5118Y1.9291
X0.5118Y0.8268
X0.5118Y0.0394
X0.5906Y1.9291
X0.5906Y0.0394
X0.6299Y0.8661
X0.6693Y0.0394
X0.7087Y0.4724
X0.7087Y0.315
X0.748Y0.0394
X0.7874Y1.063
X0.8268Y0.8268
X0.8268Y0.0394
X0.9055Y1.378
X0.9055Y0.8268
X0.9055Y0.0394
X0.9843Y1.378
X0.9843Y0.0394
X1.063Y1.6929
X1.063Y0.748
X1.063Y0.0394
X1.1417Y0.6693
X1.1417Y0.5906
X1.1417Y0.0394
X1.1811Y1.1811
X1.2205Y1.9291
X1.2205Y1.4173
X1.2205Y0.0394
X1.2992Y1.9291
X1.2992Y0.0394
X1.378Y1.9291
X1.378Y0.0394
X1.4567Y1.9291
X1.4567Y0.0394
X1.5354Y1.9291
X1.5354Y0.0394
X1.6142Y1.4173
X1.6142Y1.1024
X1.6142Y0.7874
X1.6142Y0.0394
X1.6929Y1.6929
X1.6929Y1.4173
X1.6929Y0.0394
X1.7717Y1.2598
X1.7717Y0.0394
X1.8504Y0.0394
X1.9291Y0.5118
X1.9291Y0.0394
X1.9685Y1.2205
X2.0079Y0.5118
X2.0079Y0.0394
X2.0866Y0.0394
X2.1654Y1.9291
X2.1654Y0.0394
X2.2441Y1.9291
X2.2441Y0.0394
X2.3228Y1.9291
X2.3228Y0.0394
X2.4016Y1.9291
X2.4016Y0.0394
X2.7165Y1.6142
X2.7165Y1.5354
X2.7165Y1.4567
X2.7165Y1.378
X2.7165Y1.2992
X2.7165Y1.2205
X2.7165Y1.1417
X2.7165Y1.063
X2.7165Y0.9843
X2.7165Y0.9055
X2.7165Y0.8268
X2.7165Y0.748
X2.7165Y0.6693
X2.7165Y0.5906
X2.7165Y0.5118
X2.7165Y0.4331
X2.7165Y0.3543
T2
X2.4321Y0.1969
X2.4693Y0.2866
X2.4693Y0.1071
X2.5591Y0.3238
X2.5591Y0.0699
X2.6488Y0.2866
X2.6488Y0.1071
X2.686Y0.1969
X2.4321Y1.7717
X2.4693Y1.8614
X2.4693Y1.6819
X2.5591Y1.8986
X2.5591Y1.6447
X2.6488Y1.8614
X2.6488Y1.6819
X2.686Y1.7717
X0.0699Y0.1969
X0.1071Y0.2866
X0.1071Y0.1071
X0.1969Y0.3238
X0.1969Y0.0699
X0.2866Y0.2866
X0.2866Y0.1071
X0.3238Y0.1969
X0.0699Y1.7717
X0.1071Y1.8614
X0.1071Y1.6819
X0.1969Y1.8986
X0.1969Y1.6447
X0.2866Y1.8614
X0.2866Y1.6819
X0.3238Y1.7717
T3
X1.6929Y0.7874
X1.7913Y0.7874
X0.5906Y0.6299
X0.5906Y0.5315
X0.6693Y1.4567
X0.6693Y1.3583
X1.2205Y1.0677
X1.2205Y0.7677
X1.3205Y1.0677
X1.3205Y0.7677
X1.4205Y1.0677
X1.4205Y0.7677
X1.5205Y1.0677
X1.5205Y0.7677
X1.6929Y0.5512
X1.7913Y0.5512
X1.278Y1.2598
X1.378Y1.2598
X1.478Y1.2598
X1.8504Y1.4567
X1.8504Y1.3583
X0.8268Y0.6299
X0.8268Y0.5315
X1.063Y0.6299
X1.063Y0.5315
X1.6929Y1.0236
X1.7913Y1.0236
T4
X0.7874Y1.1811
X0.8874Y1.1811
X0.9874Y1.1811
T5
X1.8346Y1.6535
X1.9016Y1.7992
X1.9685Y1.6535
X2.0354Y1.7992
X2.1024Y1.6535
X0.6535Y1.6535
X0.7205Y1.7992
X0.7874Y1.6535
X0.8543Y1.7992
X0.9213Y1.6535
T6
X0.2165Y0.9843
X0.5118Y0.9843
X2.2441Y0.9843
X2.5394Y0.9843
T7
X0.5906Y0.1575
X0.7874Y0.1575
X0.9843Y0.1575
T8
X2.0079Y0.315
X2.2079Y0.315
X1.2795Y1.7323
X1.4795Y1.7323
X1.2961Y0.315
X1.4961Y0.315
T9
X0.1969Y0.1969
X0.1969Y1.7717
X2.5591Y0.1969
X2.5591Y1.7717
T0
M30
