G04 #@! TF.GenerationSoftware,KiCad,Pcbnew,(5.0.1)-3*
G04 #@! TF.CreationDate,2019-12-23T10:27:59+01:00*
G04 #@! TF.ProjectId,TDA2050 64W,54444132303530203634572E6B696361,rev?*
G04 #@! TF.SameCoordinates,PX68e7780PY7365040*
G04 #@! TF.FileFunction,Legend,Bot*
G04 #@! TF.FilePolarity,Positive*
%FSLAX46Y46*%
G04 Gerber Fmt 4.6, Leading zero omitted, Abs format (unit mm)*
G04 Created by KiCad (PCBNEW (5.0.1)-3) date 23/12/2019 10:27:59*
%MOMM*%
%LPD*%
G01*
G04 APERTURE LIST*
%ADD10C,0.200000*%
%ADD11C,0.120000*%
%ADD12C,0.150000*%
G04 APERTURE END LIST*
D10*
X66261904Y16547620D02*
X66452380Y16547620D01*
X66547619Y16500000D01*
X66595238Y16452381D01*
X66690476Y16309524D01*
X66738095Y16119048D01*
X66738095Y15738096D01*
X66690476Y15642858D01*
X66642857Y15595239D01*
X66547619Y15547620D01*
X66357142Y15547620D01*
X66261904Y15595239D01*
X66214285Y15642858D01*
X66166666Y15738096D01*
X66166666Y15976191D01*
X66214285Y16071429D01*
X66261904Y16119048D01*
X66357142Y16166667D01*
X66547619Y16166667D01*
X66642857Y16119048D01*
X66690476Y16071429D01*
X66738095Y15976191D01*
X65309523Y16214286D02*
X65309523Y15547620D01*
X65547619Y16595239D02*
X65785714Y15880953D01*
X65166666Y15880953D01*
X64880952Y16547620D02*
X64642857Y15547620D01*
X64452380Y16261905D01*
X64261904Y15547620D01*
X64023809Y16547620D01*
X62309523Y15642858D02*
X62357142Y15595239D01*
X62500000Y15547620D01*
X62595238Y15547620D01*
X62738095Y15595239D01*
X62833333Y15690477D01*
X62880952Y15785715D01*
X62928571Y15976191D01*
X62928571Y16119048D01*
X62880952Y16309524D01*
X62833333Y16404762D01*
X62738095Y16500000D01*
X62595238Y16547620D01*
X62500000Y16547620D01*
X62357142Y16500000D01*
X62309523Y16452381D01*
X61738095Y15547620D02*
X61833333Y15595239D01*
X61880952Y15690477D01*
X61880952Y16547620D01*
X60928571Y15547620D02*
X60928571Y16071429D01*
X60976190Y16166667D01*
X61071428Y16214286D01*
X61261904Y16214286D01*
X61357142Y16166667D01*
X60928571Y15595239D02*
X61023809Y15547620D01*
X61261904Y15547620D01*
X61357142Y15595239D01*
X61404761Y15690477D01*
X61404761Y15785715D01*
X61357142Y15880953D01*
X61261904Y15928572D01*
X61023809Y15928572D01*
X60928571Y15976191D01*
X60500000Y15595239D02*
X60404761Y15547620D01*
X60214285Y15547620D01*
X60119047Y15595239D01*
X60071428Y15690477D01*
X60071428Y15738096D01*
X60119047Y15833334D01*
X60214285Y15880953D01*
X60357142Y15880953D01*
X60452380Y15928572D01*
X60500000Y16023810D01*
X60500000Y16071429D01*
X60452380Y16166667D01*
X60357142Y16214286D01*
X60214285Y16214286D01*
X60119047Y16166667D01*
X59690476Y15595239D02*
X59595238Y15547620D01*
X59404761Y15547620D01*
X59309523Y15595239D01*
X59261904Y15690477D01*
X59261904Y15738096D01*
X59309523Y15833334D01*
X59404761Y15880953D01*
X59547619Y15880953D01*
X59642857Y15928572D01*
X59690476Y16023810D01*
X59690476Y16071429D01*
X59642857Y16166667D01*
X59547619Y16214286D01*
X59404761Y16214286D01*
X59309523Y16166667D01*
X58119047Y15833334D02*
X57642857Y15833334D01*
X58214285Y15547620D02*
X57880952Y16547620D01*
X57547619Y15547620D01*
X56880952Y16071429D02*
X56738095Y16023810D01*
X56690476Y15976191D01*
X56642857Y15880953D01*
X56642857Y15738096D01*
X56690476Y15642858D01*
X56738095Y15595239D01*
X56833333Y15547620D01*
X57214285Y15547620D01*
X57214285Y16547620D01*
X56880952Y16547620D01*
X56785714Y16500000D01*
X56738095Y16452381D01*
X56690476Y16357143D01*
X56690476Y16261905D01*
X56738095Y16166667D01*
X56785714Y16119048D01*
X56880952Y16071429D01*
X57214285Y16071429D01*
X55500000Y15833334D02*
X55023809Y15833334D01*
X55595238Y15547620D02*
X55261904Y16547620D01*
X54928571Y15547620D01*
X54595238Y15547620D02*
X54595238Y16214286D01*
X54595238Y16119048D02*
X54547619Y16166667D01*
X54452380Y16214286D01*
X54309523Y16214286D01*
X54214285Y16166667D01*
X54166666Y16071429D01*
X54166666Y15547620D01*
X54166666Y16071429D02*
X54119047Y16166667D01*
X54023809Y16214286D01*
X53880952Y16214286D01*
X53785714Y16166667D01*
X53738095Y16071429D01*
X53738095Y15547620D01*
X53261904Y16214286D02*
X53261904Y15214286D01*
X53261904Y16166667D02*
X53166666Y16214286D01*
X52976190Y16214286D01*
X52880952Y16166667D01*
X52833333Y16119048D01*
X52785714Y16023810D01*
X52785714Y15738096D01*
X52833333Y15642858D01*
X52880952Y15595239D01*
X52976190Y15547620D01*
X53166666Y15547620D01*
X53261904Y15595239D01*
X52214285Y15547620D02*
X52309523Y15595239D01*
X52357142Y15690477D01*
X52357142Y16547620D01*
X51833333Y15547620D02*
X51833333Y16214286D01*
X51833333Y16547620D02*
X51880952Y16500000D01*
X51833333Y16452381D01*
X51785714Y16500000D01*
X51833333Y16547620D01*
X51833333Y16452381D01*
X51500000Y16214286D02*
X51119047Y16214286D01*
X51357142Y15547620D02*
X51357142Y16404762D01*
X51309523Y16500000D01*
X51214285Y16547620D01*
X51119047Y16547620D01*
X50785714Y15547620D02*
X50785714Y16214286D01*
X50785714Y16547620D02*
X50833333Y16500000D01*
X50785714Y16452381D01*
X50738095Y16500000D01*
X50785714Y16547620D01*
X50785714Y16452381D01*
X49928571Y15595239D02*
X50023809Y15547620D01*
X50214285Y15547620D01*
X50309523Y15595239D01*
X50357142Y15690477D01*
X50357142Y16071429D01*
X50309523Y16166667D01*
X50214285Y16214286D01*
X50023809Y16214286D01*
X49928571Y16166667D01*
X49880952Y16071429D01*
X49880952Y15976191D01*
X50357142Y15880953D01*
X49452380Y15547620D02*
X49452380Y16214286D01*
X49452380Y16023810D02*
X49404761Y16119048D01*
X49357142Y16166667D01*
X49261904Y16214286D01*
X49166666Y16214286D01*
D11*
G04 #@! TO.C,C3*
X17258578Y30710000D02*
X16741422Y30710000D01*
X17258578Y29290000D02*
X16741422Y29290000D01*
G04 #@! TO.C,C5*
X35290000Y13241422D02*
X35290000Y13758578D01*
X36710000Y13241422D02*
X36710000Y13758578D01*
G04 #@! TO.C,C8*
X30710000Y38741422D02*
X30710000Y39258578D01*
X29290000Y38741422D02*
X29290000Y39258578D01*
G04 #@! TO.C,C9*
X39290000Y38741422D02*
X39290000Y39258578D01*
X40710000Y38741422D02*
X40710000Y39258578D01*
G04 #@! TO.C,C12*
X21758578Y40710000D02*
X21241422Y40710000D01*
X21758578Y39290000D02*
X21241422Y39290000D01*
G04 #@! TO.C,C13*
X28710000Y26258578D02*
X28710000Y25741422D01*
X27290000Y26258578D02*
X27290000Y25741422D01*
G04 #@! TO.C,C14*
X51758578Y40710000D02*
X51241422Y40710000D01*
X51758578Y39290000D02*
X51241422Y39290000D01*
G04 #@! TO.C,D2*
X50600000Y2350000D02*
X50600000Y5650000D01*
X50600000Y5650000D02*
X56000000Y5650000D01*
X50600000Y2350000D02*
X56000000Y2350000D01*
G04 #@! TO.C,R1*
X32602064Y23410000D02*
X31397936Y23410000D01*
X32602064Y21590000D02*
X31397936Y21590000D01*
G04 #@! TO.C,R2*
X28397936Y31090000D02*
X29602064Y31090000D01*
X28397936Y32910000D02*
X29602064Y32910000D01*
G04 #@! TO.C,R3*
X35602064Y5910000D02*
X34397936Y5910000D01*
X35602064Y4090000D02*
X34397936Y4090000D01*
G04 #@! TO.C,R5*
X31897936Y15590000D02*
X33102064Y15590000D01*
X31897936Y17410000D02*
X33102064Y17410000D01*
G04 #@! TO.C,R6*
X31897936Y12090000D02*
X33102064Y12090000D01*
X31897936Y13910000D02*
X33102064Y13910000D01*
G04 #@! TO.C,R7*
X36897936Y17410000D02*
X38102064Y17410000D01*
X36897936Y15590000D02*
X38102064Y15590000D01*
G04 #@! TO.C,R8*
X40397936Y31910000D02*
X41602064Y31910000D01*
X40397936Y30090000D02*
X41602064Y30090000D01*
G04 #@! TO.C,R9*
X12590000Y36897936D02*
X12590000Y38102064D01*
X14410000Y36897936D02*
X14410000Y38102064D01*
G04 #@! TO.C,R10*
X44410000Y36897936D02*
X44410000Y38102064D01*
X42590000Y36897936D02*
X42590000Y38102064D01*
G04 #@! TO.C,R11*
X20602064Y47090000D02*
X19397936Y47090000D01*
X20602064Y48910000D02*
X19397936Y48910000D01*
G04 #@! TO.C,R12*
X33410000Y40102064D02*
X33410000Y38897936D01*
X31590000Y40102064D02*
X31590000Y38897936D01*
G04 #@! TO.C,R13*
X38410000Y40102064D02*
X38410000Y38897936D01*
X36590000Y40102064D02*
X36590000Y38897936D01*
G04 #@! TO.C,R14*
X50602064Y47090000D02*
X49397936Y47090000D01*
X50602064Y48910000D02*
X49397936Y48910000D01*
G04 #@! TO.C,R15*
X44602064Y8910000D02*
X43397936Y8910000D01*
X44602064Y7090000D02*
X43397936Y7090000D01*
G04 #@! TO.C,R17*
X20910000Y34897936D02*
X20910000Y36102064D01*
X19090000Y34897936D02*
X19090000Y36102064D01*
G04 #@! TO.C,R18*
X38102064Y35410000D02*
X36897936Y35410000D01*
X38102064Y33590000D02*
X36897936Y33590000D01*
G04 #@! TO.C,R19*
X50910000Y34897936D02*
X50910000Y36102064D01*
X49090000Y34897936D02*
X49090000Y36102064D01*
G04 #@! TO.C,R20*
X43397936Y11910000D02*
X44602064Y11910000D01*
X43397936Y10090000D02*
X44602064Y10090000D01*
G04 #@! TO.C,C3*
D12*
X17166666Y31292858D02*
X17214285Y31245239D01*
X17357142Y31197620D01*
X17452380Y31197620D01*
X17595238Y31245239D01*
X17690476Y31340477D01*
X17738095Y31435715D01*
X17785714Y31626191D01*
X17785714Y31769048D01*
X17738095Y31959524D01*
X17690476Y32054762D01*
X17595238Y32150000D01*
X17452380Y32197620D01*
X17357142Y32197620D01*
X17214285Y32150000D01*
X17166666Y32102381D01*
X16833333Y32197620D02*
X16214285Y32197620D01*
X16547619Y31816667D01*
X16404761Y31816667D01*
X16309523Y31769048D01*
X16261904Y31721429D01*
X16214285Y31626191D01*
X16214285Y31388096D01*
X16261904Y31292858D01*
X16309523Y31245239D01*
X16404761Y31197620D01*
X16690476Y31197620D01*
X16785714Y31245239D01*
X16833333Y31292858D01*
G04 #@! TO.C,C5*
X38357142Y13166667D02*
X38404761Y13214286D01*
X38452380Y13357143D01*
X38452380Y13452381D01*
X38404761Y13595239D01*
X38309523Y13690477D01*
X38214285Y13738096D01*
X38023809Y13785715D01*
X37880952Y13785715D01*
X37690476Y13738096D01*
X37595238Y13690477D01*
X37500000Y13595239D01*
X37452380Y13452381D01*
X37452380Y13357143D01*
X37500000Y13214286D01*
X37547619Y13166667D01*
X37452380Y12261905D02*
X37452380Y12738096D01*
X37928571Y12785715D01*
X37880952Y12738096D01*
X37833333Y12642858D01*
X37833333Y12404762D01*
X37880952Y12309524D01*
X37928571Y12261905D01*
X38023809Y12214286D01*
X38261904Y12214286D01*
X38357142Y12261905D01*
X38404761Y12309524D01*
X38452380Y12404762D01*
X38452380Y12642858D01*
X38404761Y12738096D01*
X38357142Y12785715D01*
G04 #@! TO.C,C8*
X30357142Y36166667D02*
X30404761Y36214286D01*
X30452380Y36357143D01*
X30452380Y36452381D01*
X30404761Y36595239D01*
X30309523Y36690477D01*
X30214285Y36738096D01*
X30023809Y36785715D01*
X29880952Y36785715D01*
X29690476Y36738096D01*
X29595238Y36690477D01*
X29500000Y36595239D01*
X29452380Y36452381D01*
X29452380Y36357143D01*
X29500000Y36214286D01*
X29547619Y36166667D01*
X29880952Y35595239D02*
X29833333Y35690477D01*
X29785714Y35738096D01*
X29690476Y35785715D01*
X29642857Y35785715D01*
X29547619Y35738096D01*
X29500000Y35690477D01*
X29452380Y35595239D01*
X29452380Y35404762D01*
X29500000Y35309524D01*
X29547619Y35261905D01*
X29642857Y35214286D01*
X29690476Y35214286D01*
X29785714Y35261905D01*
X29833333Y35309524D01*
X29880952Y35404762D01*
X29880952Y35595239D01*
X29928571Y35690477D01*
X29976190Y35738096D01*
X30071428Y35785715D01*
X30261904Y35785715D01*
X30357142Y35738096D01*
X30404761Y35690477D01*
X30452380Y35595239D01*
X30452380Y35404762D01*
X30404761Y35309524D01*
X30357142Y35261905D01*
X30261904Y35214286D01*
X30071428Y35214286D01*
X29976190Y35261905D01*
X29928571Y35309524D01*
X29880952Y35404762D01*
G04 #@! TO.C,C9*
X42007142Y39166667D02*
X42054761Y39214286D01*
X42102380Y39357143D01*
X42102380Y39452381D01*
X42054761Y39595239D01*
X41959523Y39690477D01*
X41864285Y39738096D01*
X41673809Y39785715D01*
X41530952Y39785715D01*
X41340476Y39738096D01*
X41245238Y39690477D01*
X41150000Y39595239D01*
X41102380Y39452381D01*
X41102380Y39357143D01*
X41150000Y39214286D01*
X41197619Y39166667D01*
X42102380Y38690477D02*
X42102380Y38500000D01*
X42054761Y38404762D01*
X42007142Y38357143D01*
X41864285Y38261905D01*
X41673809Y38214286D01*
X41292857Y38214286D01*
X41197619Y38261905D01*
X41150000Y38309524D01*
X41102380Y38404762D01*
X41102380Y38595239D01*
X41150000Y38690477D01*
X41197619Y38738096D01*
X41292857Y38785715D01*
X41530952Y38785715D01*
X41626190Y38738096D01*
X41673809Y38690477D01*
X41721428Y38595239D01*
X41721428Y38404762D01*
X41673809Y38309524D01*
X41626190Y38261905D01*
X41530952Y38214286D01*
G04 #@! TO.C,C12*
X25642857Y39642858D02*
X25690476Y39595239D01*
X25833333Y39547620D01*
X25928571Y39547620D01*
X26071428Y39595239D01*
X26166666Y39690477D01*
X26214285Y39785715D01*
X26261904Y39976191D01*
X26261904Y40119048D01*
X26214285Y40309524D01*
X26166666Y40404762D01*
X26071428Y40500000D01*
X25928571Y40547620D01*
X25833333Y40547620D01*
X25690476Y40500000D01*
X25642857Y40452381D01*
X24690476Y39547620D02*
X25261904Y39547620D01*
X24976190Y39547620D02*
X24976190Y40547620D01*
X25071428Y40404762D01*
X25166666Y40309524D01*
X25261904Y40261905D01*
X24309523Y40452381D02*
X24261904Y40500000D01*
X24166666Y40547620D01*
X23928571Y40547620D01*
X23833333Y40500000D01*
X23785714Y40452381D01*
X23738095Y40357143D01*
X23738095Y40261905D01*
X23785714Y40119048D01*
X24357142Y39547620D01*
X23738095Y39547620D01*
G04 #@! TO.C,C13*
X26357142Y26642858D02*
X26404761Y26690477D01*
X26452380Y26833334D01*
X26452380Y26928572D01*
X26404761Y27071429D01*
X26309523Y27166667D01*
X26214285Y27214286D01*
X26023809Y27261905D01*
X25880952Y27261905D01*
X25690476Y27214286D01*
X25595238Y27166667D01*
X25500000Y27071429D01*
X25452380Y26928572D01*
X25452380Y26833334D01*
X25500000Y26690477D01*
X25547619Y26642858D01*
X26452380Y25690477D02*
X26452380Y26261905D01*
X26452380Y25976191D02*
X25452380Y25976191D01*
X25595238Y26071429D01*
X25690476Y26166667D01*
X25738095Y26261905D01*
X25452380Y25357143D02*
X25452380Y24738096D01*
X25833333Y25071429D01*
X25833333Y24928572D01*
X25880952Y24833334D01*
X25928571Y24785715D01*
X26023809Y24738096D01*
X26261904Y24738096D01*
X26357142Y24785715D01*
X26404761Y24833334D01*
X26452380Y24928572D01*
X26452380Y25214286D01*
X26404761Y25309524D01*
X26357142Y25357143D01*
G04 #@! TO.C,C14*
X55642857Y39642858D02*
X55690476Y39595239D01*
X55833333Y39547620D01*
X55928571Y39547620D01*
X56071428Y39595239D01*
X56166666Y39690477D01*
X56214285Y39785715D01*
X56261904Y39976191D01*
X56261904Y40119048D01*
X56214285Y40309524D01*
X56166666Y40404762D01*
X56071428Y40500000D01*
X55928571Y40547620D01*
X55833333Y40547620D01*
X55690476Y40500000D01*
X55642857Y40452381D01*
X54690476Y39547620D02*
X55261904Y39547620D01*
X54976190Y39547620D02*
X54976190Y40547620D01*
X55071428Y40404762D01*
X55166666Y40309524D01*
X55261904Y40261905D01*
X53833333Y40214286D02*
X53833333Y39547620D01*
X54071428Y40595239D02*
X54309523Y39880953D01*
X53690476Y39880953D01*
G04 #@! TO.C,D2*
X54738095Y1047620D02*
X54738095Y2047620D01*
X54500000Y2047620D01*
X54357142Y2000000D01*
X54261904Y1904762D01*
X54214285Y1809524D01*
X54166666Y1619048D01*
X54166666Y1476191D01*
X54214285Y1285715D01*
X54261904Y1190477D01*
X54357142Y1095239D01*
X54500000Y1047620D01*
X54738095Y1047620D01*
X53785714Y1952381D02*
X53738095Y2000000D01*
X53642857Y2047620D01*
X53404761Y2047620D01*
X53309523Y2000000D01*
X53261904Y1952381D01*
X53214285Y1857143D01*
X53214285Y1761905D01*
X53261904Y1619048D01*
X53833333Y1047620D01*
X53214285Y1047620D01*
G04 #@! TO.C,R1*
X32166666Y23867620D02*
X32500000Y24343810D01*
X32738095Y23867620D02*
X32738095Y24867620D01*
X32357142Y24867620D01*
X32261904Y24820000D01*
X32214285Y24772381D01*
X32166666Y24677143D01*
X32166666Y24534286D01*
X32214285Y24439048D01*
X32261904Y24391429D01*
X32357142Y24343810D01*
X32738095Y24343810D01*
X31214285Y23867620D02*
X31785714Y23867620D01*
X31500000Y23867620D02*
X31500000Y24867620D01*
X31595238Y24724762D01*
X31690476Y24629524D01*
X31785714Y24581905D01*
G04 #@! TO.C,R2*
X29166666Y29727620D02*
X29500000Y30203810D01*
X29738095Y29727620D02*
X29738095Y30727620D01*
X29357142Y30727620D01*
X29261904Y30680000D01*
X29214285Y30632381D01*
X29166666Y30537143D01*
X29166666Y30394286D01*
X29214285Y30299048D01*
X29261904Y30251429D01*
X29357142Y30203810D01*
X29738095Y30203810D01*
X28785714Y30632381D02*
X28738095Y30680000D01*
X28642857Y30727620D01*
X28404761Y30727620D01*
X28309523Y30680000D01*
X28261904Y30632381D01*
X28214285Y30537143D01*
X28214285Y30441905D01*
X28261904Y30299048D01*
X28833333Y29727620D01*
X28214285Y29727620D01*
G04 #@! TO.C,R3*
X35166666Y2547620D02*
X35500000Y3023810D01*
X35738095Y2547620D02*
X35738095Y3547620D01*
X35357142Y3547620D01*
X35261904Y3500000D01*
X35214285Y3452381D01*
X35166666Y3357143D01*
X35166666Y3214286D01*
X35214285Y3119048D01*
X35261904Y3071429D01*
X35357142Y3023810D01*
X35738095Y3023810D01*
X34833333Y3547620D02*
X34214285Y3547620D01*
X34547619Y3166667D01*
X34404761Y3166667D01*
X34309523Y3119048D01*
X34261904Y3071429D01*
X34214285Y2976191D01*
X34214285Y2738096D01*
X34261904Y2642858D01*
X34309523Y2595239D01*
X34404761Y2547620D01*
X34690476Y2547620D01*
X34785714Y2595239D01*
X34833333Y2642858D01*
G04 #@! TO.C,R5*
X29166666Y15547620D02*
X29500000Y16023810D01*
X29738095Y15547620D02*
X29738095Y16547620D01*
X29357142Y16547620D01*
X29261904Y16500000D01*
X29214285Y16452381D01*
X29166666Y16357143D01*
X29166666Y16214286D01*
X29214285Y16119048D01*
X29261904Y16071429D01*
X29357142Y16023810D01*
X29738095Y16023810D01*
X28261904Y16547620D02*
X28738095Y16547620D01*
X28785714Y16071429D01*
X28738095Y16119048D01*
X28642857Y16166667D01*
X28404761Y16166667D01*
X28309523Y16119048D01*
X28261904Y16071429D01*
X28214285Y15976191D01*
X28214285Y15738096D01*
X28261904Y15642858D01*
X28309523Y15595239D01*
X28404761Y15547620D01*
X28642857Y15547620D01*
X28738095Y15595239D01*
X28785714Y15642858D01*
G04 #@! TO.C,R6*
X29166666Y12547620D02*
X29500000Y13023810D01*
X29738095Y12547620D02*
X29738095Y13547620D01*
X29357142Y13547620D01*
X29261904Y13500000D01*
X29214285Y13452381D01*
X29166666Y13357143D01*
X29166666Y13214286D01*
X29214285Y13119048D01*
X29261904Y13071429D01*
X29357142Y13023810D01*
X29738095Y13023810D01*
X28309523Y13547620D02*
X28500000Y13547620D01*
X28595238Y13500000D01*
X28642857Y13452381D01*
X28738095Y13309524D01*
X28785714Y13119048D01*
X28785714Y12738096D01*
X28738095Y12642858D01*
X28690476Y12595239D01*
X28595238Y12547620D01*
X28404761Y12547620D01*
X28309523Y12595239D01*
X28261904Y12642858D01*
X28214285Y12738096D01*
X28214285Y12976191D01*
X28261904Y13071429D01*
X28309523Y13119048D01*
X28404761Y13166667D01*
X28595238Y13166667D01*
X28690476Y13119048D01*
X28738095Y13071429D01*
X28785714Y12976191D01*
G04 #@! TO.C,R7*
X39166666Y14227620D02*
X39500000Y14703810D01*
X39738095Y14227620D02*
X39738095Y15227620D01*
X39357142Y15227620D01*
X39261904Y15180000D01*
X39214285Y15132381D01*
X39166666Y15037143D01*
X39166666Y14894286D01*
X39214285Y14799048D01*
X39261904Y14751429D01*
X39357142Y14703810D01*
X39738095Y14703810D01*
X38833333Y15227620D02*
X38166666Y15227620D01*
X38595238Y14227620D01*
G04 #@! TO.C,R8*
X41166666Y28727620D02*
X41500000Y29203810D01*
X41738095Y28727620D02*
X41738095Y29727620D01*
X41357142Y29727620D01*
X41261904Y29680000D01*
X41214285Y29632381D01*
X41166666Y29537143D01*
X41166666Y29394286D01*
X41214285Y29299048D01*
X41261904Y29251429D01*
X41357142Y29203810D01*
X41738095Y29203810D01*
X40595238Y29299048D02*
X40690476Y29346667D01*
X40738095Y29394286D01*
X40785714Y29489524D01*
X40785714Y29537143D01*
X40738095Y29632381D01*
X40690476Y29680000D01*
X40595238Y29727620D01*
X40404761Y29727620D01*
X40309523Y29680000D01*
X40261904Y29632381D01*
X40214285Y29537143D01*
X40214285Y29489524D01*
X40261904Y29394286D01*
X40309523Y29346667D01*
X40404761Y29299048D01*
X40595238Y29299048D01*
X40690476Y29251429D01*
X40738095Y29203810D01*
X40785714Y29108572D01*
X40785714Y28918096D01*
X40738095Y28822858D01*
X40690476Y28775239D01*
X40595238Y28727620D01*
X40404761Y28727620D01*
X40309523Y28775239D01*
X40261904Y28822858D01*
X40214285Y28918096D01*
X40214285Y29108572D01*
X40261904Y29203810D01*
X40309523Y29251429D01*
X40404761Y29299048D01*
G04 #@! TO.C,R9*
X11452380Y37666667D02*
X10976190Y38000000D01*
X11452380Y38238096D02*
X10452380Y38238096D01*
X10452380Y37857143D01*
X10500000Y37761905D01*
X10547619Y37714286D01*
X10642857Y37666667D01*
X10785714Y37666667D01*
X10880952Y37714286D01*
X10928571Y37761905D01*
X10976190Y37857143D01*
X10976190Y38238096D01*
X11452380Y37190477D02*
X11452380Y37000000D01*
X11404761Y36904762D01*
X11357142Y36857143D01*
X11214285Y36761905D01*
X11023809Y36714286D01*
X10642857Y36714286D01*
X10547619Y36761905D01*
X10500000Y36809524D01*
X10452380Y36904762D01*
X10452380Y37095239D01*
X10500000Y37190477D01*
X10547619Y37238096D01*
X10642857Y37285715D01*
X10880952Y37285715D01*
X10976190Y37238096D01*
X11023809Y37190477D01*
X11071428Y37095239D01*
X11071428Y36904762D01*
X11023809Y36809524D01*
X10976190Y36761905D01*
X10880952Y36714286D01*
G04 #@! TO.C,R10*
X45772380Y38142858D02*
X45296190Y38476191D01*
X45772380Y38714286D02*
X44772380Y38714286D01*
X44772380Y38333334D01*
X44820000Y38238096D01*
X44867619Y38190477D01*
X44962857Y38142858D01*
X45105714Y38142858D01*
X45200952Y38190477D01*
X45248571Y38238096D01*
X45296190Y38333334D01*
X45296190Y38714286D01*
X45772380Y37190477D02*
X45772380Y37761905D01*
X45772380Y37476191D02*
X44772380Y37476191D01*
X44915238Y37571429D01*
X45010476Y37666667D01*
X45058095Y37761905D01*
X44772380Y36571429D02*
X44772380Y36476191D01*
X44820000Y36380953D01*
X44867619Y36333334D01*
X44962857Y36285715D01*
X45153333Y36238096D01*
X45391428Y36238096D01*
X45581904Y36285715D01*
X45677142Y36333334D01*
X45724761Y36380953D01*
X45772380Y36476191D01*
X45772380Y36571429D01*
X45724761Y36666667D01*
X45677142Y36714286D01*
X45581904Y36761905D01*
X45391428Y36809524D01*
X45153333Y36809524D01*
X44962857Y36761905D01*
X44867619Y36714286D01*
X44820000Y36666667D01*
X44772380Y36571429D01*
G04 #@! TO.C,R11*
X24642857Y47547620D02*
X24976190Y48023810D01*
X25214285Y47547620D02*
X25214285Y48547620D01*
X24833333Y48547620D01*
X24738095Y48500000D01*
X24690476Y48452381D01*
X24642857Y48357143D01*
X24642857Y48214286D01*
X24690476Y48119048D01*
X24738095Y48071429D01*
X24833333Y48023810D01*
X25214285Y48023810D01*
X23690476Y47547620D02*
X24261904Y47547620D01*
X23976190Y47547620D02*
X23976190Y48547620D01*
X24071428Y48404762D01*
X24166666Y48309524D01*
X24261904Y48261905D01*
X22738095Y47547620D02*
X23309523Y47547620D01*
X23023809Y47547620D02*
X23023809Y48547620D01*
X23119047Y48404762D01*
X23214285Y48309524D01*
X23309523Y48261905D01*
G04 #@! TO.C,R12*
X33452380Y36642858D02*
X32976190Y36976191D01*
X33452380Y37214286D02*
X32452380Y37214286D01*
X32452380Y36833334D01*
X32500000Y36738096D01*
X32547619Y36690477D01*
X32642857Y36642858D01*
X32785714Y36642858D01*
X32880952Y36690477D01*
X32928571Y36738096D01*
X32976190Y36833334D01*
X32976190Y37214286D01*
X33452380Y35690477D02*
X33452380Y36261905D01*
X33452380Y35976191D02*
X32452380Y35976191D01*
X32595238Y36071429D01*
X32690476Y36166667D01*
X32738095Y36261905D01*
X32547619Y35309524D02*
X32500000Y35261905D01*
X32452380Y35166667D01*
X32452380Y34928572D01*
X32500000Y34833334D01*
X32547619Y34785715D01*
X32642857Y34738096D01*
X32738095Y34738096D01*
X32880952Y34785715D01*
X33452380Y35357143D01*
X33452380Y34738096D01*
G04 #@! TO.C,R13*
X36132380Y40142858D02*
X35656190Y40476191D01*
X36132380Y40714286D02*
X35132380Y40714286D01*
X35132380Y40333334D01*
X35180000Y40238096D01*
X35227619Y40190477D01*
X35322857Y40142858D01*
X35465714Y40142858D01*
X35560952Y40190477D01*
X35608571Y40238096D01*
X35656190Y40333334D01*
X35656190Y40714286D01*
X36132380Y39190477D02*
X36132380Y39761905D01*
X36132380Y39476191D02*
X35132380Y39476191D01*
X35275238Y39571429D01*
X35370476Y39666667D01*
X35418095Y39761905D01*
X35132380Y38857143D02*
X35132380Y38238096D01*
X35513333Y38571429D01*
X35513333Y38428572D01*
X35560952Y38333334D01*
X35608571Y38285715D01*
X35703809Y38238096D01*
X35941904Y38238096D01*
X36037142Y38285715D01*
X36084761Y38333334D01*
X36132380Y38428572D01*
X36132380Y38714286D01*
X36084761Y38809524D01*
X36037142Y38857143D01*
G04 #@! TO.C,R14*
X46642857Y47547620D02*
X46976190Y48023810D01*
X47214285Y47547620D02*
X47214285Y48547620D01*
X46833333Y48547620D01*
X46738095Y48500000D01*
X46690476Y48452381D01*
X46642857Y48357143D01*
X46642857Y48214286D01*
X46690476Y48119048D01*
X46738095Y48071429D01*
X46833333Y48023810D01*
X47214285Y48023810D01*
X45690476Y47547620D02*
X46261904Y47547620D01*
X45976190Y47547620D02*
X45976190Y48547620D01*
X46071428Y48404762D01*
X46166666Y48309524D01*
X46261904Y48261905D01*
X44833333Y48214286D02*
X44833333Y47547620D01*
X45071428Y48595239D02*
X45309523Y47880953D01*
X44690476Y47880953D01*
G04 #@! TO.C,R15*
X47452380Y8642858D02*
X46976190Y8976191D01*
X47452380Y9214286D02*
X46452380Y9214286D01*
X46452380Y8833334D01*
X46500000Y8738096D01*
X46547619Y8690477D01*
X46642857Y8642858D01*
X46785714Y8642858D01*
X46880952Y8690477D01*
X46928571Y8738096D01*
X46976190Y8833334D01*
X46976190Y9214286D01*
X47452380Y7690477D02*
X47452380Y8261905D01*
X47452380Y7976191D02*
X46452380Y7976191D01*
X46595238Y8071429D01*
X46690476Y8166667D01*
X46738095Y8261905D01*
X46452380Y6785715D02*
X46452380Y7261905D01*
X46928571Y7309524D01*
X46880952Y7261905D01*
X46833333Y7166667D01*
X46833333Y6928572D01*
X46880952Y6833334D01*
X46928571Y6785715D01*
X47023809Y6738096D01*
X47261904Y6738096D01*
X47357142Y6785715D01*
X47404761Y6833334D01*
X47452380Y6928572D01*
X47452380Y7166667D01*
X47404761Y7261905D01*
X47357142Y7309524D01*
G04 #@! TO.C,R17*
X22272380Y36142858D02*
X21796190Y36476191D01*
X22272380Y36714286D02*
X21272380Y36714286D01*
X21272380Y36333334D01*
X21320000Y36238096D01*
X21367619Y36190477D01*
X21462857Y36142858D01*
X21605714Y36142858D01*
X21700952Y36190477D01*
X21748571Y36238096D01*
X21796190Y36333334D01*
X21796190Y36714286D01*
X22272380Y35190477D02*
X22272380Y35761905D01*
X22272380Y35476191D02*
X21272380Y35476191D01*
X21415238Y35571429D01*
X21510476Y35666667D01*
X21558095Y35761905D01*
X21272380Y34857143D02*
X21272380Y34190477D01*
X22272380Y34619048D01*
G04 #@! TO.C,R18*
X38142857Y35867620D02*
X38476190Y36343810D01*
X38714285Y35867620D02*
X38714285Y36867620D01*
X38333333Y36867620D01*
X38238095Y36820000D01*
X38190476Y36772381D01*
X38142857Y36677143D01*
X38142857Y36534286D01*
X38190476Y36439048D01*
X38238095Y36391429D01*
X38333333Y36343810D01*
X38714285Y36343810D01*
X37190476Y35867620D02*
X37761904Y35867620D01*
X37476190Y35867620D02*
X37476190Y36867620D01*
X37571428Y36724762D01*
X37666666Y36629524D01*
X37761904Y36581905D01*
X36619047Y36439048D02*
X36714285Y36486667D01*
X36761904Y36534286D01*
X36809523Y36629524D01*
X36809523Y36677143D01*
X36761904Y36772381D01*
X36714285Y36820000D01*
X36619047Y36867620D01*
X36428571Y36867620D01*
X36333333Y36820000D01*
X36285714Y36772381D01*
X36238095Y36677143D01*
X36238095Y36629524D01*
X36285714Y36534286D01*
X36333333Y36486667D01*
X36428571Y36439048D01*
X36619047Y36439048D01*
X36714285Y36391429D01*
X36761904Y36343810D01*
X36809523Y36248572D01*
X36809523Y36058096D01*
X36761904Y35962858D01*
X36714285Y35915239D01*
X36619047Y35867620D01*
X36428571Y35867620D01*
X36333333Y35915239D01*
X36285714Y35962858D01*
X36238095Y36058096D01*
X36238095Y36248572D01*
X36285714Y36343810D01*
X36333333Y36391429D01*
X36428571Y36439048D01*
G04 #@! TO.C,R19*
X52272380Y36142858D02*
X51796190Y36476191D01*
X52272380Y36714286D02*
X51272380Y36714286D01*
X51272380Y36333334D01*
X51320000Y36238096D01*
X51367619Y36190477D01*
X51462857Y36142858D01*
X51605714Y36142858D01*
X51700952Y36190477D01*
X51748571Y36238096D01*
X51796190Y36333334D01*
X51796190Y36714286D01*
X52272380Y35190477D02*
X52272380Y35761905D01*
X52272380Y35476191D02*
X51272380Y35476191D01*
X51415238Y35571429D01*
X51510476Y35666667D01*
X51558095Y35761905D01*
X52272380Y34714286D02*
X52272380Y34523810D01*
X52224761Y34428572D01*
X52177142Y34380953D01*
X52034285Y34285715D01*
X51843809Y34238096D01*
X51462857Y34238096D01*
X51367619Y34285715D01*
X51320000Y34333334D01*
X51272380Y34428572D01*
X51272380Y34619048D01*
X51320000Y34714286D01*
X51367619Y34761905D01*
X51462857Y34809524D01*
X51700952Y34809524D01*
X51796190Y34761905D01*
X51843809Y34714286D01*
X51891428Y34619048D01*
X51891428Y34428572D01*
X51843809Y34333334D01*
X51796190Y34285715D01*
X51700952Y34238096D01*
G04 #@! TO.C,R20*
X47452380Y11642858D02*
X46976190Y11976191D01*
X47452380Y12214286D02*
X46452380Y12214286D01*
X46452380Y11833334D01*
X46500000Y11738096D01*
X46547619Y11690477D01*
X46642857Y11642858D01*
X46785714Y11642858D01*
X46880952Y11690477D01*
X46928571Y11738096D01*
X46976190Y11833334D01*
X46976190Y12214286D01*
X46547619Y11261905D02*
X46500000Y11214286D01*
X46452380Y11119048D01*
X46452380Y10880953D01*
X46500000Y10785715D01*
X46547619Y10738096D01*
X46642857Y10690477D01*
X46738095Y10690477D01*
X46880952Y10738096D01*
X47452380Y11309524D01*
X47452380Y10690477D01*
X46452380Y10071429D02*
X46452380Y9976191D01*
X46500000Y9880953D01*
X46547619Y9833334D01*
X46642857Y9785715D01*
X46833333Y9738096D01*
X47071428Y9738096D01*
X47261904Y9785715D01*
X47357142Y9833334D01*
X47404761Y9880953D01*
X47452380Y9976191D01*
X47452380Y10071429D01*
X47404761Y10166667D01*
X47357142Y10214286D01*
X47261904Y10261905D01*
X47071428Y10309524D01*
X46833333Y10309524D01*
X46642857Y10261905D01*
X46547619Y10214286D01*
X46500000Y10166667D01*
X46452380Y10071429D01*
G04 #@! TD*
M02*
