G04 #@! TF.GenerationSoftware,KiCad,Pcbnew,(5.0.1)-3*
G04 #@! TF.CreationDate,2019-12-23T10:27:59+01:00*
G04 #@! TF.ProjectId,TDA2050 64W,54444132303530203634572E6B696361,rev?*
G04 #@! TF.SameCoordinates,PX68e7780PY7365040*
G04 #@! TF.FileFunction,Copper,L1,Top,Signal*
G04 #@! TF.FilePolarity,Positive*
%FSLAX46Y46*%
G04 Gerber Fmt 4.6, Leading zero omitted, Abs format (unit mm)*
G04 Created by KiCad (PCBNEW (5.0.1)-3) date 23/12/2019 10:27:59*
%MOMM*%
%LPD*%
G01*
G04 APERTURE LIST*
G04 #@! TA.AperFunction,ComponentPad*
%ADD10R,1.700000X1.700000*%
G04 #@! TD*
G04 #@! TA.AperFunction,ComponentPad*
%ADD11O,1.700000X1.700000*%
G04 #@! TD*
G04 #@! TA.AperFunction,ComponentPad*
%ADD12R,3.000000X3.000000*%
G04 #@! TD*
G04 #@! TA.AperFunction,ComponentPad*
%ADD13C,3.000000*%
G04 #@! TD*
G04 #@! TA.AperFunction,ComponentPad*
%ADD14C,2.340000*%
G04 #@! TD*
G04 #@! TA.AperFunction,ComponentPad*
%ADD15C,1.440000*%
G04 #@! TD*
G04 #@! TA.AperFunction,ComponentPad*
%ADD16R,1.600000X2.400000*%
G04 #@! TD*
G04 #@! TA.AperFunction,ComponentPad*
%ADD17O,1.600000X2.400000*%
G04 #@! TD*
G04 #@! TA.AperFunction,ComponentPad*
%ADD18R,1.800000X1.800000*%
G04 #@! TD*
G04 #@! TA.AperFunction,ComponentPad*
%ADD19O,1.800000X1.800000*%
G04 #@! TD*
G04 #@! TA.AperFunction,Conductor*
%ADD20C,0.050800*%
G04 #@! TD*
G04 #@! TA.AperFunction,SMDPad,CuDef*
%ADD21C,1.250000*%
G04 #@! TD*
G04 #@! TA.AperFunction,ComponentPad*
%ADD22C,1.600000*%
G04 #@! TD*
G04 #@! TA.AperFunction,ComponentPad*
%ADD23R,1.600000X1.600000*%
G04 #@! TD*
G04 #@! TA.AperFunction,ComponentPad*
%ADD24R,2.400000X2.400000*%
G04 #@! TD*
G04 #@! TA.AperFunction,ComponentPad*
%ADD25C,2.400000*%
G04 #@! TD*
G04 #@! TA.AperFunction,ComponentPad*
%ADD26C,0.900000*%
G04 #@! TD*
G04 #@! TA.AperFunction,ComponentPad*
%ADD27C,8.600000*%
G04 #@! TD*
G04 #@! TA.AperFunction,ViaPad*
%ADD28C,1.016000*%
G04 #@! TD*
G04 #@! TA.AperFunction,Conductor*
%ADD29C,0.508000*%
G04 #@! TD*
G04 #@! TA.AperFunction,Conductor*
%ADD30C,1.778000*%
G04 #@! TD*
G04 #@! TA.AperFunction,Conductor*
%ADD31C,1.270000*%
G04 #@! TD*
G04 #@! TA.AperFunction,Conductor*
%ADD32C,0.762000*%
G04 #@! TD*
G04 #@! TA.AperFunction,Conductor*
%ADD33C,0.200000*%
G04 #@! TD*
G04 APERTURE END LIST*
D10*
G04 #@! TO.P,J1,1*
G04 #@! TO.N,Net-(C3-Pad1)*
X20000000Y30000000D03*
D11*
G04 #@! TO.P,J1,2*
G04 #@! TO.N,Net-(C1-Pad1)*
X22540000Y30000000D03*
G04 #@! TO.P,J1,3*
G04 #@! TO.N,Net-(C2-Pad2)*
X25080000Y30000000D03*
G04 #@! TD*
D12*
G04 #@! TO.P,J2,1*
G04 #@! TO.N,GND*
X38000000Y8000000D03*
D13*
G04 #@! TO.P,J2,2*
G04 #@! TO.N,Net-(C2-Pad2)*
X32920000Y8000000D03*
G04 #@! TD*
D12*
G04 #@! TO.P,J3,1*
G04 #@! TO.N,Net-(J3-Pad1)*
X32500000Y44000000D03*
D13*
G04 #@! TO.P,J3,2*
G04 #@! TO.N,Net-(J3-Pad2)*
X37580000Y44000000D03*
G04 #@! TD*
G04 #@! TO.P,J4,2*
G04 #@! TO.N,VCC*
X56080000Y8000000D03*
D12*
G04 #@! TO.P,J4,1*
G04 #@! TO.N,GND*
X51000000Y8000000D03*
G04 #@! TD*
D14*
G04 #@! TO.P,RV1,3*
G04 #@! TO.N,GND*
X25000000Y4000000D03*
G04 #@! TO.P,RV1,2*
G04 #@! TO.N,Net-(C4-Pad2)*
X20000000Y4000000D03*
G04 #@! TO.P,RV1,1*
G04 #@! TO.N,Net-(C1-Pad2)*
X15000000Y4000000D03*
G04 #@! TD*
D15*
G04 #@! TO.P,RV2,1*
G04 #@! TO.N,Net-(R8-Pad1)*
X37540000Y32000000D03*
G04 #@! TO.P,RV2,2*
X35000000Y32000000D03*
G04 #@! TO.P,RV2,3*
G04 #@! TO.N,Net-(R2-Pad2)*
X32460000Y32000000D03*
G04 #@! TD*
D16*
G04 #@! TO.P,U1,1*
G04 #@! TO.N,Net-(R5-Pad1)*
X31000000Y19500000D03*
D17*
G04 #@! TO.P,U1,5*
X38620000Y27120000D03*
G04 #@! TO.P,U1,2*
G04 #@! TO.N,Net-(C5-Pad2)*
X33540000Y19500000D03*
G04 #@! TO.P,U1,6*
G04 #@! TO.N,Net-(R8-Pad1)*
X36080000Y27120000D03*
G04 #@! TO.P,U1,3*
G04 #@! TO.N,Net-(R1-Pad1)*
X36080000Y19500000D03*
G04 #@! TO.P,U1,7*
G04 #@! TO.N,Net-(R2-Pad2)*
X33540000Y27120000D03*
G04 #@! TO.P,U1,4*
G04 #@! TO.N,GND*
X38620000Y19500000D03*
G04 #@! TO.P,U1,8*
G04 #@! TO.N,VCC*
X31000000Y27120000D03*
G04 #@! TD*
D18*
G04 #@! TO.P,U2,1*
G04 #@! TO.N,Net-(C4-Pad1)*
X16600000Y42000000D03*
D19*
G04 #@! TO.P,U2,2*
G04 #@! TO.N,Net-(C10-Pad1)*
X18300000Y45700000D03*
G04 #@! TO.P,U2,3*
G04 #@! TO.N,GND*
X20000000Y42000000D03*
G04 #@! TO.P,U2,4*
G04 #@! TO.N,Net-(J3-Pad1)*
X21700000Y45700000D03*
G04 #@! TO.P,U2,5*
G04 #@! TO.N,VCC*
X23400000Y42000000D03*
G04 #@! TD*
G04 #@! TO.P,U3,5*
G04 #@! TO.N,VCC*
X53400000Y42000000D03*
G04 #@! TO.P,U3,4*
G04 #@! TO.N,Net-(J3-Pad2)*
X51700000Y45700000D03*
G04 #@! TO.P,U3,3*
G04 #@! TO.N,GND*
X50000000Y42000000D03*
G04 #@! TO.P,U3,2*
G04 #@! TO.N,Net-(C11-Pad1)*
X48300000Y45700000D03*
D18*
G04 #@! TO.P,U3,1*
G04 #@! TO.N,Net-(R10-Pad2)*
X46600000Y42000000D03*
G04 #@! TD*
D20*
G04 #@! TO.N,GND*
G04 #@! TO.C,D1*
G36*
X66799504Y36873796D02*
X66823773Y36870196D01*
X66847571Y36864235D01*
X66870671Y36855970D01*
X66892849Y36845480D01*
X66913893Y36832867D01*
X66933598Y36818253D01*
X66951777Y36801777D01*
X66968253Y36783598D01*
X66982867Y36763893D01*
X66995480Y36742849D01*
X67005970Y36720671D01*
X67014235Y36697571D01*
X67020196Y36673773D01*
X67023796Y36649504D01*
X67025000Y36625000D01*
X67025000Y35375000D01*
X67023796Y35350496D01*
X67020196Y35326227D01*
X67014235Y35302429D01*
X67005970Y35279329D01*
X66995480Y35257151D01*
X66982867Y35236107D01*
X66968253Y35216402D01*
X66951777Y35198223D01*
X66933598Y35181747D01*
X66913893Y35167133D01*
X66892849Y35154520D01*
X66870671Y35144030D01*
X66847571Y35135765D01*
X66823773Y35129804D01*
X66799504Y35126204D01*
X66775000Y35125000D01*
X66025000Y35125000D01*
X66000496Y35126204D01*
X65976227Y35129804D01*
X65952429Y35135765D01*
X65929329Y35144030D01*
X65907151Y35154520D01*
X65886107Y35167133D01*
X65866402Y35181747D01*
X65848223Y35198223D01*
X65831747Y35216402D01*
X65817133Y35236107D01*
X65804520Y35257151D01*
X65794030Y35279329D01*
X65785765Y35302429D01*
X65779804Y35326227D01*
X65776204Y35350496D01*
X65775000Y35375000D01*
X65775000Y36625000D01*
X65776204Y36649504D01*
X65779804Y36673773D01*
X65785765Y36697571D01*
X65794030Y36720671D01*
X65804520Y36742849D01*
X65817133Y36763893D01*
X65831747Y36783598D01*
X65848223Y36801777D01*
X65866402Y36818253D01*
X65886107Y36832867D01*
X65907151Y36845480D01*
X65929329Y36855970D01*
X65952429Y36864235D01*
X65976227Y36870196D01*
X66000496Y36873796D01*
X66025000Y36875000D01*
X66775000Y36875000D01*
X66799504Y36873796D01*
X66799504Y36873796D01*
G37*
D21*
G04 #@! TD*
G04 #@! TO.P,D1,1*
G04 #@! TO.N,GND*
X66400000Y36000000D03*
D20*
G04 #@! TO.N,Net-(D1-Pad2)*
G04 #@! TO.C,D1*
G36*
X63999504Y36873796D02*
X64023773Y36870196D01*
X64047571Y36864235D01*
X64070671Y36855970D01*
X64092849Y36845480D01*
X64113893Y36832867D01*
X64133598Y36818253D01*
X64151777Y36801777D01*
X64168253Y36783598D01*
X64182867Y36763893D01*
X64195480Y36742849D01*
X64205970Y36720671D01*
X64214235Y36697571D01*
X64220196Y36673773D01*
X64223796Y36649504D01*
X64225000Y36625000D01*
X64225000Y35375000D01*
X64223796Y35350496D01*
X64220196Y35326227D01*
X64214235Y35302429D01*
X64205970Y35279329D01*
X64195480Y35257151D01*
X64182867Y35236107D01*
X64168253Y35216402D01*
X64151777Y35198223D01*
X64133598Y35181747D01*
X64113893Y35167133D01*
X64092849Y35154520D01*
X64070671Y35144030D01*
X64047571Y35135765D01*
X64023773Y35129804D01*
X63999504Y35126204D01*
X63975000Y35125000D01*
X63225000Y35125000D01*
X63200496Y35126204D01*
X63176227Y35129804D01*
X63152429Y35135765D01*
X63129329Y35144030D01*
X63107151Y35154520D01*
X63086107Y35167133D01*
X63066402Y35181747D01*
X63048223Y35198223D01*
X63031747Y35216402D01*
X63017133Y35236107D01*
X63004520Y35257151D01*
X62994030Y35279329D01*
X62985765Y35302429D01*
X62979804Y35326227D01*
X62976204Y35350496D01*
X62975000Y35375000D01*
X62975000Y36625000D01*
X62976204Y36649504D01*
X62979804Y36673773D01*
X62985765Y36697571D01*
X62994030Y36720671D01*
X63004520Y36742849D01*
X63017133Y36763893D01*
X63031747Y36783598D01*
X63048223Y36801777D01*
X63066402Y36818253D01*
X63086107Y36832867D01*
X63107151Y36845480D01*
X63129329Y36855970D01*
X63152429Y36864235D01*
X63176227Y36870196D01*
X63200496Y36873796D01*
X63225000Y36875000D01*
X63975000Y36875000D01*
X63999504Y36873796D01*
X63999504Y36873796D01*
G37*
D21*
G04 #@! TD*
G04 #@! TO.P,D1,2*
G04 #@! TO.N,Net-(D1-Pad2)*
X63600000Y36000000D03*
D20*
G04 #@! TO.N,GNDREF*
G04 #@! TO.C,R4*
G36*
X24999504Y19873796D02*
X25023773Y19870196D01*
X25047571Y19864235D01*
X25070671Y19855970D01*
X25092849Y19845480D01*
X25113893Y19832867D01*
X25133598Y19818253D01*
X25151777Y19801777D01*
X25168253Y19783598D01*
X25182867Y19763893D01*
X25195480Y19742849D01*
X25205970Y19720671D01*
X25214235Y19697571D01*
X25220196Y19673773D01*
X25223796Y19649504D01*
X25225000Y19625000D01*
X25225000Y18375000D01*
X25223796Y18350496D01*
X25220196Y18326227D01*
X25214235Y18302429D01*
X25205970Y18279329D01*
X25195480Y18257151D01*
X25182867Y18236107D01*
X25168253Y18216402D01*
X25151777Y18198223D01*
X25133598Y18181747D01*
X25113893Y18167133D01*
X25092849Y18154520D01*
X25070671Y18144030D01*
X25047571Y18135765D01*
X25023773Y18129804D01*
X24999504Y18126204D01*
X24975000Y18125000D01*
X24225000Y18125000D01*
X24200496Y18126204D01*
X24176227Y18129804D01*
X24152429Y18135765D01*
X24129329Y18144030D01*
X24107151Y18154520D01*
X24086107Y18167133D01*
X24066402Y18181747D01*
X24048223Y18198223D01*
X24031747Y18216402D01*
X24017133Y18236107D01*
X24004520Y18257151D01*
X23994030Y18279329D01*
X23985765Y18302429D01*
X23979804Y18326227D01*
X23976204Y18350496D01*
X23975000Y18375000D01*
X23975000Y19625000D01*
X23976204Y19649504D01*
X23979804Y19673773D01*
X23985765Y19697571D01*
X23994030Y19720671D01*
X24004520Y19742849D01*
X24017133Y19763893D01*
X24031747Y19783598D01*
X24048223Y19801777D01*
X24066402Y19818253D01*
X24086107Y19832867D01*
X24107151Y19845480D01*
X24129329Y19855970D01*
X24152429Y19864235D01*
X24176227Y19870196D01*
X24200496Y19873796D01*
X24225000Y19875000D01*
X24975000Y19875000D01*
X24999504Y19873796D01*
X24999504Y19873796D01*
G37*
D21*
G04 #@! TD*
G04 #@! TO.P,R4,2*
G04 #@! TO.N,GNDREF*
X24600000Y19000000D03*
D20*
G04 #@! TO.N,Net-(C2-Pad1)*
G04 #@! TO.C,R4*
G36*
X27799504Y19873796D02*
X27823773Y19870196D01*
X27847571Y19864235D01*
X27870671Y19855970D01*
X27892849Y19845480D01*
X27913893Y19832867D01*
X27933598Y19818253D01*
X27951777Y19801777D01*
X27968253Y19783598D01*
X27982867Y19763893D01*
X27995480Y19742849D01*
X28005970Y19720671D01*
X28014235Y19697571D01*
X28020196Y19673773D01*
X28023796Y19649504D01*
X28025000Y19625000D01*
X28025000Y18375000D01*
X28023796Y18350496D01*
X28020196Y18326227D01*
X28014235Y18302429D01*
X28005970Y18279329D01*
X27995480Y18257151D01*
X27982867Y18236107D01*
X27968253Y18216402D01*
X27951777Y18198223D01*
X27933598Y18181747D01*
X27913893Y18167133D01*
X27892849Y18154520D01*
X27870671Y18144030D01*
X27847571Y18135765D01*
X27823773Y18129804D01*
X27799504Y18126204D01*
X27775000Y18125000D01*
X27025000Y18125000D01*
X27000496Y18126204D01*
X26976227Y18129804D01*
X26952429Y18135765D01*
X26929329Y18144030D01*
X26907151Y18154520D01*
X26886107Y18167133D01*
X26866402Y18181747D01*
X26848223Y18198223D01*
X26831747Y18216402D01*
X26817133Y18236107D01*
X26804520Y18257151D01*
X26794030Y18279329D01*
X26785765Y18302429D01*
X26779804Y18326227D01*
X26776204Y18350496D01*
X26775000Y18375000D01*
X26775000Y19625000D01*
X26776204Y19649504D01*
X26779804Y19673773D01*
X26785765Y19697571D01*
X26794030Y19720671D01*
X26804520Y19742849D01*
X26817133Y19763893D01*
X26831747Y19783598D01*
X26848223Y19801777D01*
X26866402Y19818253D01*
X26886107Y19832867D01*
X26907151Y19845480D01*
X26929329Y19855970D01*
X26952429Y19864235D01*
X26976227Y19870196D01*
X27000496Y19873796D01*
X27025000Y19875000D01*
X27775000Y19875000D01*
X27799504Y19873796D01*
X27799504Y19873796D01*
G37*
D21*
G04 #@! TD*
G04 #@! TO.P,R4,1*
G04 #@! TO.N,Net-(C2-Pad1)*
X27400000Y19000000D03*
D20*
G04 #@! TO.N,Net-(D1-Pad2)*
G04 #@! TO.C,R16*
G36*
X60799504Y36873796D02*
X60823773Y36870196D01*
X60847571Y36864235D01*
X60870671Y36855970D01*
X60892849Y36845480D01*
X60913893Y36832867D01*
X60933598Y36818253D01*
X60951777Y36801777D01*
X60968253Y36783598D01*
X60982867Y36763893D01*
X60995480Y36742849D01*
X61005970Y36720671D01*
X61014235Y36697571D01*
X61020196Y36673773D01*
X61023796Y36649504D01*
X61025000Y36625000D01*
X61025000Y35375000D01*
X61023796Y35350496D01*
X61020196Y35326227D01*
X61014235Y35302429D01*
X61005970Y35279329D01*
X60995480Y35257151D01*
X60982867Y35236107D01*
X60968253Y35216402D01*
X60951777Y35198223D01*
X60933598Y35181747D01*
X60913893Y35167133D01*
X60892849Y35154520D01*
X60870671Y35144030D01*
X60847571Y35135765D01*
X60823773Y35129804D01*
X60799504Y35126204D01*
X60775000Y35125000D01*
X60025000Y35125000D01*
X60000496Y35126204D01*
X59976227Y35129804D01*
X59952429Y35135765D01*
X59929329Y35144030D01*
X59907151Y35154520D01*
X59886107Y35167133D01*
X59866402Y35181747D01*
X59848223Y35198223D01*
X59831747Y35216402D01*
X59817133Y35236107D01*
X59804520Y35257151D01*
X59794030Y35279329D01*
X59785765Y35302429D01*
X59779804Y35326227D01*
X59776204Y35350496D01*
X59775000Y35375000D01*
X59775000Y36625000D01*
X59776204Y36649504D01*
X59779804Y36673773D01*
X59785765Y36697571D01*
X59794030Y36720671D01*
X59804520Y36742849D01*
X59817133Y36763893D01*
X59831747Y36783598D01*
X59848223Y36801777D01*
X59866402Y36818253D01*
X59886107Y36832867D01*
X59907151Y36845480D01*
X59929329Y36855970D01*
X59952429Y36864235D01*
X59976227Y36870196D01*
X60000496Y36873796D01*
X60025000Y36875000D01*
X60775000Y36875000D01*
X60799504Y36873796D01*
X60799504Y36873796D01*
G37*
D21*
G04 #@! TD*
G04 #@! TO.P,R16,2*
G04 #@! TO.N,Net-(D1-Pad2)*
X60400000Y36000000D03*
D20*
G04 #@! TO.N,VCC*
G04 #@! TO.C,R16*
G36*
X57999504Y36873796D02*
X58023773Y36870196D01*
X58047571Y36864235D01*
X58070671Y36855970D01*
X58092849Y36845480D01*
X58113893Y36832867D01*
X58133598Y36818253D01*
X58151777Y36801777D01*
X58168253Y36783598D01*
X58182867Y36763893D01*
X58195480Y36742849D01*
X58205970Y36720671D01*
X58214235Y36697571D01*
X58220196Y36673773D01*
X58223796Y36649504D01*
X58225000Y36625000D01*
X58225000Y35375000D01*
X58223796Y35350496D01*
X58220196Y35326227D01*
X58214235Y35302429D01*
X58205970Y35279329D01*
X58195480Y35257151D01*
X58182867Y35236107D01*
X58168253Y35216402D01*
X58151777Y35198223D01*
X58133598Y35181747D01*
X58113893Y35167133D01*
X58092849Y35154520D01*
X58070671Y35144030D01*
X58047571Y35135765D01*
X58023773Y35129804D01*
X57999504Y35126204D01*
X57975000Y35125000D01*
X57225000Y35125000D01*
X57200496Y35126204D01*
X57176227Y35129804D01*
X57152429Y35135765D01*
X57129329Y35144030D01*
X57107151Y35154520D01*
X57086107Y35167133D01*
X57066402Y35181747D01*
X57048223Y35198223D01*
X57031747Y35216402D01*
X57017133Y35236107D01*
X57004520Y35257151D01*
X56994030Y35279329D01*
X56985765Y35302429D01*
X56979804Y35326227D01*
X56976204Y35350496D01*
X56975000Y35375000D01*
X56975000Y36625000D01*
X56976204Y36649504D01*
X56979804Y36673773D01*
X56985765Y36697571D01*
X56994030Y36720671D01*
X57004520Y36742849D01*
X57017133Y36763893D01*
X57031747Y36783598D01*
X57048223Y36801777D01*
X57066402Y36818253D01*
X57086107Y36832867D01*
X57107151Y36845480D01*
X57129329Y36855970D01*
X57152429Y36864235D01*
X57176227Y36870196D01*
X57200496Y36873796D01*
X57225000Y36875000D01*
X57975000Y36875000D01*
X57999504Y36873796D01*
X57999504Y36873796D01*
G37*
D21*
G04 #@! TD*
G04 #@! TO.P,R16,1*
G04 #@! TO.N,VCC*
X57600000Y36000000D03*
D22*
G04 #@! TO.P,C1,2*
G04 #@! TO.N,Net-(C1-Pad2)*
X15000000Y13500000D03*
D23*
G04 #@! TO.P,C1,1*
G04 #@! TO.N,Net-(C1-Pad1)*
X15000000Y16000000D03*
G04 #@! TD*
G04 #@! TO.P,C2,1*
G04 #@! TO.N,Net-(C2-Pad1)*
X27000000Y16000000D03*
D22*
G04 #@! TO.P,C2,2*
G04 #@! TO.N,Net-(C2-Pad2)*
X27000000Y13500000D03*
G04 #@! TD*
D23*
G04 #@! TO.P,C4,1*
G04 #@! TO.N,Net-(C4-Pad1)*
X21000000Y16000000D03*
D22*
G04 #@! TO.P,C4,2*
G04 #@! TO.N,Net-(C4-Pad2)*
X21000000Y13500000D03*
G04 #@! TD*
G04 #@! TO.P,C6,2*
G04 #@! TO.N,GND*
X45500000Y20000000D03*
D23*
G04 #@! TO.P,C6,1*
G04 #@! TO.N,Net-(C6-Pad1)*
X43000000Y20000000D03*
G04 #@! TD*
D22*
G04 #@! TO.P,C7,2*
G04 #@! TO.N,GND*
X45500000Y26000000D03*
D23*
G04 #@! TO.P,C7,1*
G04 #@! TO.N,Net-(C7-Pad1)*
X43000000Y26000000D03*
G04 #@! TD*
D22*
G04 #@! TO.P,C10,2*
G04 #@! TO.N,Net-(C10-Pad2)*
X17000000Y34500000D03*
D23*
G04 #@! TO.P,C10,1*
G04 #@! TO.N,Net-(C10-Pad1)*
X17000000Y37000000D03*
G04 #@! TD*
G04 #@! TO.P,C11,1*
G04 #@! TO.N,Net-(C11-Pad1)*
X47000000Y37000000D03*
D22*
G04 #@! TO.P,C11,2*
G04 #@! TO.N,Net-(C11-Pad2)*
X47000000Y34500000D03*
G04 #@! TD*
D24*
G04 #@! TO.P,C15,1*
G04 #@! TO.N,VCC*
X57000000Y25000000D03*
D25*
G04 #@! TO.P,C15,2*
G04 #@! TO.N,GND*
X64500000Y25000000D03*
G04 #@! TD*
G04 #@! TO.P,C16,2*
G04 #@! TO.N,GND*
X5500000Y25000000D03*
D24*
G04 #@! TO.P,C16,1*
G04 #@! TO.N,VCC*
X13000000Y25000000D03*
G04 #@! TD*
D23*
G04 #@! TO.P,C19,1*
G04 #@! TO.N,GNDREF*
X43000000Y14000000D03*
D22*
G04 #@! TO.P,C19,2*
G04 #@! TO.N,GND*
X45500000Y14000000D03*
G04 #@! TD*
D26*
G04 #@! TO.P,REF\002A\002A,1*
G04 #@! TO.N,N/C*
X67280419Y47280419D03*
X65000000Y48225000D03*
X62719581Y47280419D03*
X61775000Y45000000D03*
X62719581Y42719581D03*
X65000000Y41775000D03*
X67280419Y42719581D03*
X68225000Y45000000D03*
D27*
X65000000Y45000000D03*
G04 #@! TD*
D26*
G04 #@! TO.P,REF\002A\002A,1*
G04 #@! TO.N,N/C*
X7280419Y47280419D03*
X5000000Y48225000D03*
X2719581Y47280419D03*
X1775000Y45000000D03*
X2719581Y42719581D03*
X5000000Y41775000D03*
X7280419Y42719581D03*
X8225000Y45000000D03*
D27*
X5000000Y45000000D03*
G04 #@! TD*
D26*
G04 #@! TO.P,REF\002A\002A,1*
G04 #@! TO.N,N/C*
X7280419Y7280419D03*
X5000000Y8225000D03*
X2719581Y7280419D03*
X1775000Y5000000D03*
X2719581Y2719581D03*
X5000000Y1775000D03*
X7280419Y2719581D03*
X8225000Y5000000D03*
D27*
X5000000Y5000000D03*
G04 #@! TD*
D26*
G04 #@! TO.P,REF\002A\002A,1*
G04 #@! TO.N,N/C*
X67280419Y7280419D03*
X65000000Y8225000D03*
X62719581Y7280419D03*
X61775000Y5000000D03*
X62719581Y2719581D03*
X65000000Y1775000D03*
X67280419Y2719581D03*
X68225000Y5000000D03*
D27*
X65000000Y5000000D03*
G04 #@! TD*
D28*
G04 #@! TO.N,Net-(C2-Pad1)*
X27000000Y19000000D03*
G04 #@! TO.N,GND*
X29000000Y17000000D03*
X23000000Y21000000D03*
X25000000Y35000000D03*
X23000000Y35000000D03*
X50000000Y31000000D03*
X1000000Y39000000D03*
X1000000Y37000000D03*
X1000000Y35000000D03*
X1000000Y33000000D03*
X1000000Y31000000D03*
X1000000Y29000000D03*
X1000000Y27000000D03*
X1000000Y25000000D03*
X1000000Y23000000D03*
X1000000Y21000000D03*
X1000000Y19000000D03*
X1000000Y17000000D03*
X1000000Y15000000D03*
X1000000Y13000000D03*
X1000000Y11000000D03*
X69000000Y39000000D03*
X69000000Y37000000D03*
X69000000Y35000000D03*
X69000000Y33000000D03*
X69000000Y31000000D03*
X69000000Y29000000D03*
X69000000Y27000000D03*
X69000000Y25000000D03*
X69000000Y23000000D03*
X69000000Y21000000D03*
X69000000Y19000000D03*
X69000000Y17000000D03*
X69000000Y15000000D03*
X69000000Y13000000D03*
X69000000Y11000000D03*
X1000000Y9000000D03*
X1000000Y41000000D03*
X69000000Y9000000D03*
X69000000Y41000000D03*
X61000000Y49000000D03*
X59000000Y49000000D03*
X57000000Y49000000D03*
X55000000Y49000000D03*
X9000000Y49000000D03*
X11000000Y49000000D03*
X13000000Y49000000D03*
X15000000Y49000000D03*
X31000000Y49000000D03*
X33000000Y49000000D03*
X35000000Y49000000D03*
X37000000Y49000000D03*
X39000000Y49000000D03*
X9000000Y1000000D03*
X11000000Y1000000D03*
X13000000Y1000000D03*
X15000000Y1000000D03*
X17000000Y1000000D03*
X19000000Y1000000D03*
X21000000Y1000000D03*
X23000000Y1000000D03*
X25000000Y1000000D03*
X27000000Y1000000D03*
X29000000Y1000000D03*
X31000000Y1000000D03*
X33000000Y1000000D03*
X35000000Y1000000D03*
X37000000Y1000000D03*
X39000000Y1000000D03*
X41000000Y1000000D03*
X43000000Y1000000D03*
X45000000Y1000000D03*
X47000000Y1000000D03*
X49000000Y1000000D03*
X51000000Y1000000D03*
X53000000Y1000000D03*
X55000000Y1000000D03*
X57000000Y1000000D03*
X59000000Y1000000D03*
X61000000Y1000000D03*
X20000000Y27000000D03*
X27000000Y43000000D03*
X31000000Y36000000D03*
X43000000Y43000000D03*
X41000000Y36000000D03*
X29000000Y15000000D03*
X21000000Y21000000D03*
X30000000Y30000000D03*
X41000000Y28000000D03*
X18000000Y12000000D03*
X18000000Y8000000D03*
X49000000Y13000000D03*
X51000000Y13000000D03*
G04 #@! TO.N,Net-(C4-Pad1)*
X13000000Y21000000D03*
G04 #@! TO.N,GNDREF*
X43000000Y36000000D03*
X45000000Y32000000D03*
X16000000Y22000000D03*
G04 #@! TO.N,Net-(R5-Pad1)*
X41000000Y20000000D03*
G04 #@! TD*
D29*
G04 #@! TO.N,Net-(C4-Pad1)*
X13000000Y21000000D02*
X13000000Y21000000D01*
X13000000Y21000000D02*
X14000000Y21000000D01*
X14000000Y21000000D02*
X19000000Y16000000D01*
X19000000Y16000000D02*
X21000000Y16000000D01*
D30*
G04 #@! TO.N,VCC*
X13000000Y25000000D02*
X18000000Y25000000D01*
X18000000Y25000000D02*
X20000000Y23000000D01*
X52000000Y25000000D02*
X50000000Y23000000D01*
X50000000Y18295722D02*
X50000000Y23000000D01*
X56080000Y12215722D02*
X50000000Y18295722D01*
X56080000Y8000000D02*
X56080000Y12215722D01*
D29*
X57000000Y35400000D02*
X57600000Y36000000D01*
X57000000Y25000000D02*
X57000000Y35400000D01*
D31*
X23400000Y42000000D02*
X28000000Y37400000D01*
D30*
X50000000Y23000000D02*
X28000000Y23000000D01*
X28000000Y23000000D02*
X20000000Y23000000D01*
D31*
X53400000Y42000000D02*
X53400000Y25000000D01*
D30*
X57000000Y25000000D02*
X53400000Y25000000D01*
X53400000Y25000000D02*
X52000000Y25000000D01*
D32*
X28120000Y27120000D02*
X28000000Y27000000D01*
X31000000Y27120000D02*
X28120000Y27120000D01*
D31*
X28000000Y37400000D02*
X28000000Y27000000D01*
X28000000Y27000000D02*
X28000000Y23000000D01*
D29*
G04 #@! TO.N,GNDREF*
X43000000Y36000000D02*
X43000000Y34000000D01*
X43000000Y34000000D02*
X45000000Y32000000D01*
X45000000Y32000000D02*
X45000000Y32000000D01*
X33000000Y14000000D02*
X43000000Y14000000D01*
X30000000Y11000000D02*
X33000000Y14000000D01*
X26000000Y11000000D02*
X30000000Y11000000D01*
X23904290Y13095710D02*
X26000000Y11000000D01*
X23904290Y18304290D02*
X23904290Y13095710D01*
X24600000Y19000000D02*
X23904290Y18304290D01*
X24600000Y19000000D02*
X19000000Y19000000D01*
X19000000Y19000000D02*
X16000000Y22000000D01*
X16000000Y22000000D02*
X16000000Y22000000D01*
G04 #@! TO.N,Net-(D1-Pad2)*
X60400000Y36000000D02*
X63600000Y36000000D01*
D31*
G04 #@! TO.N,Net-(J3-Pad1)*
X30800000Y45700000D02*
X32500000Y44000000D01*
X21700000Y45700000D02*
X30800000Y45700000D01*
G04 #@! TO.N,Net-(J3-Pad2)*
X51700000Y46972792D02*
X50672792Y48000000D01*
X51700000Y45700000D02*
X51700000Y46972792D01*
X41580000Y48000000D02*
X37580000Y44000000D01*
X50672792Y48000000D02*
X41580000Y48000000D01*
D32*
G04 #@! TO.N,Net-(R5-Pad1)*
X41000000Y20000000D02*
X41000000Y18000000D01*
X41000000Y18000000D02*
X39000000Y16000000D01*
X39000000Y16000000D02*
X33000000Y16000000D01*
X33000000Y16000000D02*
X31000000Y18000000D01*
X31000000Y18000000D02*
X31000000Y19500000D01*
G04 #@! TD*
D33*
G04 #@! TO.N,GND*
G36*
X62726347Y49253705D02*
X61940178Y48728403D01*
X61271597Y48059822D01*
X60746295Y47273653D01*
X60384461Y46400108D01*
X60200000Y45472759D01*
X60200000Y44527241D01*
X60384461Y43599892D01*
X60746295Y42726347D01*
X61271597Y41940178D01*
X61940178Y41271597D01*
X62726347Y40746295D01*
X63599892Y40384461D01*
X64527241Y40200000D01*
X65472759Y40200000D01*
X66400108Y40384461D01*
X67273653Y40746295D01*
X68059822Y41271597D01*
X68728403Y41940178D01*
X69253705Y42726347D01*
X69425001Y43139892D01*
X69425000Y6860110D01*
X69253705Y7273653D01*
X68728403Y8059822D01*
X68059822Y8728403D01*
X67273653Y9253705D01*
X66400108Y9615539D01*
X65472759Y9800000D01*
X64527241Y9800000D01*
X63599892Y9615539D01*
X62726347Y9253705D01*
X61940178Y8728403D01*
X61271597Y8059822D01*
X60746295Y7273653D01*
X60384461Y6400108D01*
X60200000Y5472759D01*
X60200000Y4527241D01*
X60384461Y3599892D01*
X60746295Y2726347D01*
X61271597Y1940178D01*
X61940178Y1271597D01*
X62726347Y746295D01*
X63139890Y575000D01*
X6860110Y575000D01*
X7273653Y746295D01*
X8059822Y1271597D01*
X8728403Y1940178D01*
X9253705Y2726347D01*
X9615539Y3599892D01*
X9727842Y4164481D01*
X13330000Y4164481D01*
X13330000Y3835519D01*
X13394178Y3512879D01*
X13520066Y3208959D01*
X13702827Y2935437D01*
X13935437Y2702827D01*
X14208959Y2520066D01*
X14512879Y2394178D01*
X14835519Y2330000D01*
X15164481Y2330000D01*
X15487121Y2394178D01*
X15791041Y2520066D01*
X16064563Y2702827D01*
X16297173Y2935437D01*
X16479934Y3208959D01*
X16605822Y3512879D01*
X16670000Y3835519D01*
X16670000Y4164481D01*
X18330000Y4164481D01*
X18330000Y3835519D01*
X18394178Y3512879D01*
X18520066Y3208959D01*
X18702827Y2935437D01*
X18935437Y2702827D01*
X19208959Y2520066D01*
X19512879Y2394178D01*
X19835519Y2330000D01*
X20164481Y2330000D01*
X20487121Y2394178D01*
X20791041Y2520066D01*
X20994499Y2656012D01*
X24221697Y2656012D01*
X24365688Y2446423D01*
X24680964Y2352527D01*
X25008500Y2321942D01*
X25335710Y2355843D01*
X25634312Y2446423D01*
X25778303Y2656012D01*
X25000000Y3434315D01*
X24221697Y2656012D01*
X20994499Y2656012D01*
X21064563Y2702827D01*
X21297173Y2935437D01*
X21479934Y3208959D01*
X21605822Y3512879D01*
X21670000Y3835519D01*
X21670000Y3991500D01*
X23321942Y3991500D01*
X23355843Y3664290D01*
X23446423Y3365688D01*
X23656012Y3221697D01*
X24434315Y4000000D01*
X25565685Y4000000D01*
X26343988Y3221697D01*
X26553577Y3365688D01*
X26647473Y3680964D01*
X26678058Y4008500D01*
X26644157Y4335710D01*
X26553577Y4634312D01*
X26343988Y4778303D01*
X25565685Y4000000D01*
X24434315Y4000000D01*
X23656012Y4778303D01*
X23446423Y4634312D01*
X23352527Y4319036D01*
X23321942Y3991500D01*
X21670000Y3991500D01*
X21670000Y4164481D01*
X21605822Y4487121D01*
X21479934Y4791041D01*
X21297173Y5064563D01*
X21064563Y5297173D01*
X20994500Y5343988D01*
X24221697Y5343988D01*
X25000000Y4565685D01*
X25778303Y5343988D01*
X25634312Y5553577D01*
X25319036Y5647473D01*
X24991500Y5678058D01*
X24664290Y5644157D01*
X24365688Y5553577D01*
X24221697Y5343988D01*
X20994500Y5343988D01*
X20791041Y5479934D01*
X20487121Y5605822D01*
X20164481Y5670000D01*
X19835519Y5670000D01*
X19512879Y5605822D01*
X19208959Y5479934D01*
X18935437Y5297173D01*
X18702827Y5064563D01*
X18520066Y4791041D01*
X18394178Y4487121D01*
X18330000Y4164481D01*
X16670000Y4164481D01*
X16605822Y4487121D01*
X16479934Y4791041D01*
X16297173Y5064563D01*
X16064563Y5297173D01*
X15791041Y5479934D01*
X15487121Y5605822D01*
X15164481Y5670000D01*
X14835519Y5670000D01*
X14512879Y5605822D01*
X14208959Y5479934D01*
X13935437Y5297173D01*
X13702827Y5064563D01*
X13520066Y4791041D01*
X13394178Y4487121D01*
X13330000Y4164481D01*
X9727842Y4164481D01*
X9800000Y4527241D01*
X9800000Y5472759D01*
X9615539Y6400108D01*
X9253705Y7273653D01*
X8728403Y8059822D01*
X8591242Y8196983D01*
X30920000Y8196983D01*
X30920000Y7803017D01*
X30996859Y7416622D01*
X31147623Y7052645D01*
X31366499Y6725074D01*
X31645074Y6446499D01*
X31972645Y6227623D01*
X32336622Y6076859D01*
X32723017Y6000000D01*
X33116983Y6000000D01*
X33503378Y6076859D01*
X33867355Y6227623D01*
X34194926Y6446499D01*
X34473501Y6725074D01*
X34692377Y7052645D01*
X34843141Y7416622D01*
X34854753Y7475000D01*
X36000000Y7475000D01*
X36000000Y6450755D01*
X36019215Y6354156D01*
X36056906Y6263161D01*
X36111624Y6181269D01*
X36181268Y6111625D01*
X36263161Y6056906D01*
X36354155Y6019215D01*
X36450754Y6000000D01*
X37475000Y6000000D01*
X37600000Y6125000D01*
X37600000Y7600000D01*
X38400000Y7600000D01*
X38400000Y6125000D01*
X38525000Y6000000D01*
X39549246Y6000000D01*
X39645845Y6019215D01*
X39736839Y6056906D01*
X39818732Y6111625D01*
X39888376Y6181269D01*
X39943094Y6263161D01*
X39980785Y6354156D01*
X40000000Y6450755D01*
X40000000Y7475000D01*
X49000000Y7475000D01*
X49000000Y6450755D01*
X49019215Y6354156D01*
X49056906Y6263161D01*
X49111624Y6181269D01*
X49181268Y6111625D01*
X49263161Y6056906D01*
X49354155Y6019215D01*
X49450754Y6000000D01*
X50475000Y6000000D01*
X50600000Y6125000D01*
X50600000Y7600000D01*
X51400000Y7600000D01*
X51400000Y6125000D01*
X51525000Y6000000D01*
X52549246Y6000000D01*
X52645845Y6019215D01*
X52736839Y6056906D01*
X52818732Y6111625D01*
X52888376Y6181269D01*
X52943094Y6263161D01*
X52980785Y6354156D01*
X53000000Y6450755D01*
X53000000Y7475000D01*
X52875000Y7600000D01*
X51400000Y7600000D01*
X50600000Y7600000D01*
X49125000Y7600000D01*
X49000000Y7475000D01*
X40000000Y7475000D01*
X39875000Y7600000D01*
X38400000Y7600000D01*
X37600000Y7600000D01*
X36125000Y7600000D01*
X36000000Y7475000D01*
X34854753Y7475000D01*
X34920000Y7803017D01*
X34920000Y8196983D01*
X34843141Y8583378D01*
X34692377Y8947355D01*
X34473501Y9274926D01*
X34199182Y9549245D01*
X36000000Y9549245D01*
X36000000Y8525000D01*
X36125000Y8400000D01*
X37600000Y8400000D01*
X37600000Y9875000D01*
X38400000Y9875000D01*
X38400000Y8400000D01*
X39875000Y8400000D01*
X40000000Y8525000D01*
X40000000Y9549245D01*
X49000000Y9549245D01*
X49000000Y8525000D01*
X49125000Y8400000D01*
X50600000Y8400000D01*
X50600000Y9875000D01*
X51400000Y9875000D01*
X51400000Y8400000D01*
X52875000Y8400000D01*
X53000000Y8525000D01*
X53000000Y9549245D01*
X52980785Y9645844D01*
X52943094Y9736839D01*
X52888376Y9818731D01*
X52818732Y9888375D01*
X52736839Y9943094D01*
X52645845Y9980785D01*
X52549246Y10000000D01*
X51525000Y10000000D01*
X51400000Y9875000D01*
X50600000Y9875000D01*
X50475000Y10000000D01*
X49450754Y10000000D01*
X49354155Y9980785D01*
X49263161Y9943094D01*
X49181268Y9888375D01*
X49111624Y9818731D01*
X49056906Y9736839D01*
X49019215Y9645844D01*
X49000000Y9549245D01*
X40000000Y9549245D01*
X39980785Y9645844D01*
X39943094Y9736839D01*
X39888376Y9818731D01*
X39818732Y9888375D01*
X39736839Y9943094D01*
X39645845Y9980785D01*
X39549246Y10000000D01*
X38525000Y10000000D01*
X38400000Y9875000D01*
X37600000Y9875000D01*
X37475000Y10000000D01*
X36450754Y10000000D01*
X36354155Y9980785D01*
X36263161Y9943094D01*
X36181268Y9888375D01*
X36111624Y9818731D01*
X36056906Y9736839D01*
X36019215Y9645844D01*
X36000000Y9549245D01*
X34199182Y9549245D01*
X34194926Y9553501D01*
X33867355Y9772377D01*
X33503378Y9923141D01*
X33116983Y10000000D01*
X32723017Y10000000D01*
X32336622Y9923141D01*
X31972645Y9772377D01*
X31645074Y9553501D01*
X31366499Y9274926D01*
X31147623Y8947355D01*
X30996859Y8583378D01*
X30920000Y8196983D01*
X8591242Y8196983D01*
X8059822Y8728403D01*
X7273653Y9253705D01*
X6400108Y9615539D01*
X5472759Y9800000D01*
X4527241Y9800000D01*
X3599892Y9615539D01*
X2726347Y9253705D01*
X1940178Y8728403D01*
X1271597Y8059822D01*
X746295Y7273653D01*
X575000Y6860110D01*
X575000Y16800000D01*
X13697581Y16800000D01*
X13697581Y15200000D01*
X13707235Y15101983D01*
X13735825Y15007733D01*
X13782254Y14920871D01*
X13844736Y14844736D01*
X13920871Y14782254D01*
X14007733Y14735825D01*
X14101983Y14707235D01*
X14200000Y14697581D01*
X14494152Y14697581D01*
X14384219Y14652045D01*
X14171298Y14509776D01*
X13990224Y14328702D01*
X13847955Y14115781D01*
X13749958Y13879196D01*
X13700000Y13628039D01*
X13700000Y13371961D01*
X13749958Y13120804D01*
X13847955Y12884219D01*
X13990224Y12671298D01*
X14171298Y12490224D01*
X14384219Y12347955D01*
X14620804Y12249958D01*
X14871961Y12200000D01*
X15128039Y12200000D01*
X15379196Y12249958D01*
X15615781Y12347955D01*
X15828702Y12490224D01*
X16009776Y12671298D01*
X16152045Y12884219D01*
X16250042Y13120804D01*
X16300000Y13371961D01*
X16300000Y13628039D01*
X16250042Y13879196D01*
X16152045Y14115781D01*
X16009776Y14328702D01*
X15828702Y14509776D01*
X15615781Y14652045D01*
X15505848Y14697581D01*
X15800000Y14697581D01*
X15898017Y14707235D01*
X15992267Y14735825D01*
X16079129Y14782254D01*
X16155264Y14844736D01*
X16217746Y14920871D01*
X16264175Y15007733D01*
X16292765Y15101983D01*
X16302419Y15200000D01*
X16302419Y16800000D01*
X16292765Y16898017D01*
X16264175Y16992267D01*
X16217746Y17079129D01*
X16155264Y17155264D01*
X16079129Y17217746D01*
X15992267Y17264175D01*
X15898017Y17292765D01*
X15800000Y17302419D01*
X14200000Y17302419D01*
X14101983Y17292765D01*
X14007733Y17264175D01*
X13920871Y17217746D01*
X13844736Y17155264D01*
X13782254Y17079129D01*
X13735825Y16992267D01*
X13707235Y16898017D01*
X13697581Y16800000D01*
X575000Y16800000D01*
X575000Y21099279D01*
X11992000Y21099279D01*
X11992000Y20900721D01*
X12030737Y20705977D01*
X12106722Y20522533D01*
X12217035Y20357438D01*
X12357438Y20217035D01*
X12522533Y20106722D01*
X12705977Y20030737D01*
X12900721Y19992000D01*
X13099279Y19992000D01*
X13294023Y20030737D01*
X13477467Y20106722D01*
X13642562Y20217035D01*
X13671527Y20246000D01*
X13687684Y20246000D01*
X18440651Y15493032D01*
X18464262Y15464262D01*
X18493032Y15440651D01*
X18579073Y15370039D01*
X18710060Y15300025D01*
X18852190Y15256910D01*
X19000000Y15242352D01*
X19037039Y15246000D01*
X19697581Y15246000D01*
X19697581Y15200000D01*
X19707235Y15101983D01*
X19735825Y15007733D01*
X19782254Y14920871D01*
X19844736Y14844736D01*
X19920871Y14782254D01*
X20007733Y14735825D01*
X20101983Y14707235D01*
X20200000Y14697581D01*
X20494152Y14697581D01*
X20384219Y14652045D01*
X20171298Y14509776D01*
X19990224Y14328702D01*
X19847955Y14115781D01*
X19749958Y13879196D01*
X19700000Y13628039D01*
X19700000Y13371961D01*
X19749958Y13120804D01*
X19847955Y12884219D01*
X19990224Y12671298D01*
X20171298Y12490224D01*
X20384219Y12347955D01*
X20620804Y12249958D01*
X20871961Y12200000D01*
X21128039Y12200000D01*
X21379196Y12249958D01*
X21615781Y12347955D01*
X21828702Y12490224D01*
X22009776Y12671298D01*
X22152045Y12884219D01*
X22250042Y13120804D01*
X22300000Y13371961D01*
X22300000Y13628039D01*
X22250042Y13879196D01*
X22152045Y14115781D01*
X22009776Y14328702D01*
X21828702Y14509776D01*
X21615781Y14652045D01*
X21505848Y14697581D01*
X21800000Y14697581D01*
X21898017Y14707235D01*
X21992267Y14735825D01*
X22079129Y14782254D01*
X22155264Y14844736D01*
X22217746Y14920871D01*
X22264175Y15007733D01*
X22292765Y15101983D01*
X22302419Y15200000D01*
X22302419Y16800000D01*
X22292765Y16898017D01*
X22264175Y16992267D01*
X22217746Y17079129D01*
X22155264Y17155264D01*
X22079129Y17217746D01*
X21992267Y17264175D01*
X21898017Y17292765D01*
X21800000Y17302419D01*
X20200000Y17302419D01*
X20101983Y17292765D01*
X20007733Y17264175D01*
X19920871Y17217746D01*
X19844736Y17155264D01*
X19782254Y17079129D01*
X19735825Y16992267D01*
X19707235Y16898017D01*
X19697581Y16800000D01*
X19697581Y16754000D01*
X19312317Y16754000D01*
X14559353Y21506963D01*
X14535738Y21535738D01*
X14420927Y21629961D01*
X14289939Y21699975D01*
X14147810Y21743090D01*
X14037039Y21754000D01*
X14037031Y21754000D01*
X14000000Y21757647D01*
X13962969Y21754000D01*
X13671527Y21754000D01*
X13642562Y21782965D01*
X13477467Y21893278D01*
X13294023Y21969263D01*
X13099279Y22008000D01*
X12900721Y22008000D01*
X12705977Y21969263D01*
X12522533Y21893278D01*
X12357438Y21782965D01*
X12217035Y21642562D01*
X12106722Y21477467D01*
X12030737Y21294023D01*
X11992000Y21099279D01*
X575000Y21099279D01*
X575000Y22099279D01*
X14992000Y22099279D01*
X14992000Y21900721D01*
X15030737Y21705977D01*
X15106722Y21522533D01*
X15217035Y21357438D01*
X15357438Y21217035D01*
X15522533Y21106722D01*
X15705977Y21030737D01*
X15900721Y20992000D01*
X15941684Y20992000D01*
X18440651Y18493032D01*
X18464262Y18464262D01*
X18493032Y18440651D01*
X18579073Y18370039D01*
X18710060Y18300025D01*
X18852190Y18256910D01*
X19000000Y18242352D01*
X19037039Y18246000D01*
X23150290Y18246000D01*
X23150291Y13132751D01*
X23146643Y13095710D01*
X23161200Y12947901D01*
X23204316Y12805771D01*
X23259129Y12703223D01*
X23274330Y12674783D01*
X23368553Y12559972D01*
X23397323Y12536361D01*
X25440651Y10493032D01*
X25464262Y10464262D01*
X25493032Y10440651D01*
X25579073Y10370039D01*
X25710061Y10300025D01*
X25852190Y10256910D01*
X26000000Y10242352D01*
X26037039Y10246000D01*
X29962969Y10246000D01*
X30000000Y10242353D01*
X30037031Y10246000D01*
X30037039Y10246000D01*
X30147810Y10256910D01*
X30289939Y10300025D01*
X30420927Y10370039D01*
X30535738Y10464262D01*
X30559353Y10493037D01*
X33312317Y13246000D01*
X41697581Y13246000D01*
X41697581Y13200000D01*
X41707235Y13101983D01*
X41735825Y13007733D01*
X41782254Y12920871D01*
X41844736Y12844736D01*
X41920871Y12782254D01*
X42007733Y12735825D01*
X42101983Y12707235D01*
X42200000Y12697581D01*
X43800000Y12697581D01*
X43898017Y12707235D01*
X43992267Y12735825D01*
X44079129Y12782254D01*
X44155264Y12844736D01*
X44217746Y12920871D01*
X44223269Y12931204D01*
X44996889Y12931204D01*
X45092672Y12758840D01*
X45342637Y12703223D01*
X45598649Y12697441D01*
X45850871Y12741715D01*
X45907328Y12758840D01*
X46003111Y12931204D01*
X45500000Y13434315D01*
X44996889Y12931204D01*
X44223269Y12931204D01*
X44264175Y13007733D01*
X44292765Y13101983D01*
X44302419Y13200000D01*
X44302419Y13568455D01*
X44431204Y13496889D01*
X44934315Y14000000D01*
X46065685Y14000000D01*
X46568796Y13496889D01*
X46741160Y13592672D01*
X46796777Y13842637D01*
X46802559Y14098649D01*
X46758285Y14350871D01*
X46741160Y14407328D01*
X46568796Y14503111D01*
X46065685Y14000000D01*
X44934315Y14000000D01*
X44431204Y14503111D01*
X44302419Y14431545D01*
X44302419Y14800000D01*
X44292765Y14898017D01*
X44264175Y14992267D01*
X44223270Y15068796D01*
X44996889Y15068796D01*
X45500000Y14565685D01*
X46003111Y15068796D01*
X45907328Y15241160D01*
X45657363Y15296777D01*
X45401351Y15302559D01*
X45149129Y15258285D01*
X45092672Y15241160D01*
X44996889Y15068796D01*
X44223270Y15068796D01*
X44217746Y15079129D01*
X44155264Y15155264D01*
X44079129Y15217746D01*
X43992267Y15264175D01*
X43898017Y15292765D01*
X43800000Y15302419D01*
X42200000Y15302419D01*
X42101983Y15292765D01*
X42007733Y15264175D01*
X41920871Y15217746D01*
X41844736Y15155264D01*
X41782254Y15079129D01*
X41735825Y14992267D01*
X41707235Y14898017D01*
X41697581Y14800000D01*
X41697581Y14754000D01*
X33037039Y14754000D01*
X33000000Y14757648D01*
X32852190Y14743090D01*
X32710060Y14699975D01*
X32579073Y14629961D01*
X32500753Y14565685D01*
X32464262Y14535738D01*
X32440651Y14506968D01*
X29687684Y11754000D01*
X26312317Y11754000D01*
X24658290Y13408026D01*
X24658290Y16800000D01*
X25697581Y16800000D01*
X25697581Y15200000D01*
X25707235Y15101983D01*
X25735825Y15007733D01*
X25782254Y14920871D01*
X25844736Y14844736D01*
X25920871Y14782254D01*
X26007733Y14735825D01*
X26101983Y14707235D01*
X26200000Y14697581D01*
X26494152Y14697581D01*
X26384219Y14652045D01*
X26171298Y14509776D01*
X25990224Y14328702D01*
X25847955Y14115781D01*
X25749958Y13879196D01*
X25700000Y13628039D01*
X25700000Y13371961D01*
X25749958Y13120804D01*
X25847955Y12884219D01*
X25990224Y12671298D01*
X26171298Y12490224D01*
X26384219Y12347955D01*
X26620804Y12249958D01*
X26871961Y12200000D01*
X27128039Y12200000D01*
X27379196Y12249958D01*
X27615781Y12347955D01*
X27828702Y12490224D01*
X28009776Y12671298D01*
X28152045Y12884219D01*
X28250042Y13120804D01*
X28300000Y13371961D01*
X28300000Y13628039D01*
X28250042Y13879196D01*
X28152045Y14115781D01*
X28009776Y14328702D01*
X27828702Y14509776D01*
X27615781Y14652045D01*
X27505848Y14697581D01*
X27800000Y14697581D01*
X27898017Y14707235D01*
X27992267Y14735825D01*
X28079129Y14782254D01*
X28155264Y14844736D01*
X28217746Y14920871D01*
X28264175Y15007733D01*
X28292765Y15101983D01*
X28302419Y15200000D01*
X28302419Y16800000D01*
X28292765Y16898017D01*
X28264175Y16992267D01*
X28217746Y17079129D01*
X28155264Y17155264D01*
X28079129Y17217746D01*
X27992267Y17264175D01*
X27898017Y17292765D01*
X27800000Y17302419D01*
X26200000Y17302419D01*
X26101983Y17292765D01*
X26007733Y17264175D01*
X25920871Y17217746D01*
X25844736Y17155264D01*
X25782254Y17079129D01*
X25735825Y16992267D01*
X25707235Y16898017D01*
X25697581Y16800000D01*
X24658290Y16800000D01*
X24658290Y17622581D01*
X24975000Y17622581D01*
X25121790Y17637039D01*
X25262938Y17679855D01*
X25393022Y17749386D01*
X25507041Y17842959D01*
X25600614Y17956978D01*
X25670145Y18087062D01*
X25712961Y18228210D01*
X25727419Y18375000D01*
X25727419Y19099279D01*
X25992000Y19099279D01*
X25992000Y18900721D01*
X26030737Y18705977D01*
X26106722Y18522533D01*
X26217035Y18357438D01*
X26280568Y18293905D01*
X26287039Y18228210D01*
X26329855Y18087062D01*
X26399386Y17956978D01*
X26492959Y17842959D01*
X26606978Y17749386D01*
X26737062Y17679855D01*
X26878210Y17637039D01*
X27025000Y17622581D01*
X27775000Y17622581D01*
X27921790Y17637039D01*
X28062938Y17679855D01*
X28193022Y17749386D01*
X28307041Y17842959D01*
X28400614Y17956978D01*
X28470145Y18087062D01*
X28512961Y18228210D01*
X28527419Y18375000D01*
X28527419Y19625000D01*
X28512961Y19771790D01*
X28470145Y19912938D01*
X28400614Y20043022D01*
X28307041Y20157041D01*
X28193022Y20250614D01*
X28062938Y20320145D01*
X27921790Y20362961D01*
X27775000Y20377419D01*
X27025000Y20377419D01*
X26878210Y20362961D01*
X26737062Y20320145D01*
X26606978Y20250614D01*
X26492959Y20157041D01*
X26399386Y20043022D01*
X26329855Y19912938D01*
X26287039Y19771790D01*
X26280568Y19706095D01*
X26217035Y19642562D01*
X26106722Y19477467D01*
X26030737Y19294023D01*
X25992000Y19099279D01*
X25727419Y19099279D01*
X25727419Y19625000D01*
X25712961Y19771790D01*
X25670145Y19912938D01*
X25600614Y20043022D01*
X25507041Y20157041D01*
X25393022Y20250614D01*
X25262938Y20320145D01*
X25121790Y20362961D01*
X24975000Y20377419D01*
X24225000Y20377419D01*
X24078210Y20362961D01*
X23937062Y20320145D01*
X23806978Y20250614D01*
X23692959Y20157041D01*
X23599386Y20043022D01*
X23529855Y19912938D01*
X23487039Y19771790D01*
X23485287Y19754000D01*
X19312317Y19754000D01*
X18366317Y20700000D01*
X29697581Y20700000D01*
X29697581Y18300000D01*
X29707235Y18201983D01*
X29735825Y18107733D01*
X29782254Y18020871D01*
X29844736Y17944736D01*
X29920871Y17882254D01*
X30007733Y17835825D01*
X30101983Y17807235D01*
X30138937Y17803595D01*
X30176474Y17679855D01*
X30182125Y17661226D01*
X30263932Y17508175D01*
X30301021Y17462983D01*
X30374025Y17374025D01*
X30407645Y17346434D01*
X32346439Y15407639D01*
X32374025Y15374025D01*
X32407637Y15346441D01*
X32508174Y15263932D01*
X32541723Y15246000D01*
X32661225Y15182125D01*
X32827294Y15131748D01*
X32956727Y15119000D01*
X32956729Y15119000D01*
X32999999Y15114738D01*
X33043269Y15119000D01*
X38956730Y15119000D01*
X39000000Y15114738D01*
X39043270Y15119000D01*
X39043273Y15119000D01*
X39172706Y15131748D01*
X39338775Y15182125D01*
X39491825Y15263932D01*
X39625975Y15374025D01*
X39653566Y15407645D01*
X41592361Y17346439D01*
X41625975Y17374025D01*
X41680137Y17440022D01*
X41736068Y17508174D01*
X41804947Y17637039D01*
X41817875Y17661225D01*
X41868252Y17827294D01*
X41881000Y17956727D01*
X41881000Y17956729D01*
X41885262Y17999999D01*
X41881000Y18043269D01*
X41881000Y18814975D01*
X41920871Y18782254D01*
X42007733Y18735825D01*
X42101983Y18707235D01*
X42200000Y18697581D01*
X43800000Y18697581D01*
X43898017Y18707235D01*
X43992267Y18735825D01*
X44079129Y18782254D01*
X44155264Y18844736D01*
X44217746Y18920871D01*
X44223269Y18931204D01*
X44996889Y18931204D01*
X45092672Y18758840D01*
X45342637Y18703223D01*
X45598649Y18697441D01*
X45850871Y18741715D01*
X45907328Y18758840D01*
X46003111Y18931204D01*
X45500000Y19434315D01*
X44996889Y18931204D01*
X44223269Y18931204D01*
X44264175Y19007733D01*
X44292765Y19101983D01*
X44302419Y19200000D01*
X44302419Y19568455D01*
X44431204Y19496889D01*
X44934315Y20000000D01*
X46065685Y20000000D01*
X46568796Y19496889D01*
X46741160Y19592672D01*
X46796777Y19842637D01*
X46802559Y20098649D01*
X46758285Y20350871D01*
X46741160Y20407328D01*
X46568796Y20503111D01*
X46065685Y20000000D01*
X44934315Y20000000D01*
X44431204Y20503111D01*
X44302419Y20431545D01*
X44302419Y20800000D01*
X44292765Y20898017D01*
X44264175Y20992267D01*
X44223270Y21068796D01*
X44996889Y21068796D01*
X45500000Y20565685D01*
X46003111Y21068796D01*
X45907328Y21241160D01*
X45657363Y21296777D01*
X45401351Y21302559D01*
X45149129Y21258285D01*
X45092672Y21241160D01*
X44996889Y21068796D01*
X44223270Y21068796D01*
X44217746Y21079129D01*
X44155264Y21155264D01*
X44079129Y21217746D01*
X43992267Y21264175D01*
X43898017Y21292765D01*
X43800000Y21302419D01*
X42200000Y21302419D01*
X42101983Y21292765D01*
X42007733Y21264175D01*
X41920871Y21217746D01*
X41844736Y21155264D01*
X41782254Y21079129D01*
X41735825Y20992267D01*
X41707235Y20898017D01*
X41697581Y20800000D01*
X41697581Y20727946D01*
X41642562Y20782965D01*
X41477467Y20893278D01*
X41294023Y20969263D01*
X41099279Y21008000D01*
X40900721Y21008000D01*
X40705977Y20969263D01*
X40522533Y20893278D01*
X40357438Y20782965D01*
X40217035Y20642562D01*
X40106722Y20477467D01*
X40030737Y20294023D01*
X39992000Y20099279D01*
X39992000Y19900721D01*
X40030737Y19705977D01*
X40106722Y19522533D01*
X40119000Y19504157D01*
X40119001Y18364923D01*
X38635079Y16881000D01*
X33364922Y16881000D01*
X32220290Y18025631D01*
X32264175Y18107733D01*
X32292765Y18201983D01*
X32302419Y18300000D01*
X32302419Y18701395D01*
X32333145Y18600104D01*
X32453860Y18374264D01*
X32616314Y18176313D01*
X32814265Y18013860D01*
X33040105Y17893145D01*
X33285156Y17818810D01*
X33540000Y17793710D01*
X33794845Y17818810D01*
X34039896Y17893145D01*
X34265736Y18013860D01*
X34463687Y18176313D01*
X34626140Y18374264D01*
X34746855Y18600104D01*
X34810000Y18808266D01*
X34873145Y18600104D01*
X34993860Y18374264D01*
X35156314Y18176313D01*
X35354265Y18013860D01*
X35580105Y17893145D01*
X35825156Y17818810D01*
X36080000Y17793710D01*
X36334845Y17818810D01*
X36579896Y17893145D01*
X36805736Y18013860D01*
X37003687Y18176313D01*
X37166140Y18374264D01*
X37286855Y18600104D01*
X37354873Y18824330D01*
X37400351Y18650048D01*
X37511567Y18420752D01*
X37665380Y18217559D01*
X37855878Y18048278D01*
X38031426Y17940870D01*
X38220000Y17995181D01*
X38220000Y19100000D01*
X39020000Y19100000D01*
X39020000Y17995181D01*
X39208574Y17940870D01*
X39384122Y18048278D01*
X39574620Y18217559D01*
X39728433Y18420752D01*
X39839649Y18650048D01*
X39903995Y18896635D01*
X39795000Y19100000D01*
X39020000Y19100000D01*
X38220000Y19100000D01*
X38200000Y19100000D01*
X38200000Y19900000D01*
X38220000Y19900000D01*
X38220000Y21004819D01*
X39020000Y21004819D01*
X39020000Y19900000D01*
X39795000Y19900000D01*
X39903995Y20103365D01*
X39839649Y20349952D01*
X39728433Y20579248D01*
X39574620Y20782441D01*
X39384122Y20951722D01*
X39208574Y21059130D01*
X39020000Y21004819D01*
X38220000Y21004819D01*
X38031426Y21059130D01*
X37855878Y20951722D01*
X37665380Y20782441D01*
X37511567Y20579248D01*
X37400351Y20349952D01*
X37354873Y20175670D01*
X37286855Y20399896D01*
X37166140Y20625736D01*
X37003687Y20823687D01*
X36805735Y20986140D01*
X36579895Y21106855D01*
X36334844Y21181190D01*
X36080000Y21206290D01*
X35825155Y21181190D01*
X35580104Y21106855D01*
X35354264Y20986140D01*
X35156313Y20823687D01*
X34993860Y20625735D01*
X34873145Y20399895D01*
X34810000Y20191733D01*
X34746855Y20399896D01*
X34626140Y20625736D01*
X34463687Y20823687D01*
X34265735Y20986140D01*
X34039895Y21106855D01*
X33794844Y21181190D01*
X33540000Y21206290D01*
X33285155Y21181190D01*
X33040104Y21106855D01*
X32814264Y20986140D01*
X32616313Y20823687D01*
X32453860Y20625735D01*
X32333145Y20399895D01*
X32302419Y20298604D01*
X32302419Y20700000D01*
X32292765Y20798017D01*
X32264175Y20892267D01*
X32217746Y20979129D01*
X32155264Y21055264D01*
X32079129Y21117746D01*
X31992267Y21164175D01*
X31898017Y21192765D01*
X31800000Y21202419D01*
X30200000Y21202419D01*
X30101983Y21192765D01*
X30007733Y21164175D01*
X29920871Y21117746D01*
X29844736Y21055264D01*
X29782254Y20979129D01*
X29735825Y20892267D01*
X29707235Y20798017D01*
X29697581Y20700000D01*
X18366317Y20700000D01*
X17008000Y22058316D01*
X17008000Y22099279D01*
X16969263Y22294023D01*
X16893278Y22477467D01*
X16782965Y22642562D01*
X16642562Y22782965D01*
X16477467Y22893278D01*
X16294023Y22969263D01*
X16099279Y23008000D01*
X15900721Y23008000D01*
X15705977Y22969263D01*
X15522533Y22893278D01*
X15357438Y22782965D01*
X15217035Y22642562D01*
X15106722Y22477467D01*
X15030737Y22294023D01*
X14992000Y22099279D01*
X575000Y22099279D01*
X575000Y23633967D01*
X4699652Y23633967D01*
X4847451Y23421324D01*
X5167974Y23324351D01*
X5501257Y23291774D01*
X5834490Y23324842D01*
X6152549Y23421324D01*
X6300348Y23633967D01*
X5500000Y24434315D01*
X4699652Y23633967D01*
X575000Y23633967D01*
X575000Y24998743D01*
X3791774Y24998743D01*
X3824842Y24665510D01*
X3921324Y24347451D01*
X4133967Y24199652D01*
X4934315Y25000000D01*
X6065685Y25000000D01*
X6866033Y24199652D01*
X7078676Y24347451D01*
X7175649Y24667974D01*
X7208226Y25001257D01*
X7175158Y25334490D01*
X7078676Y25652549D01*
X6866033Y25800348D01*
X6065685Y25000000D01*
X4934315Y25000000D01*
X4133967Y25800348D01*
X3921324Y25652549D01*
X3824351Y25332026D01*
X3791774Y24998743D01*
X575000Y24998743D01*
X575000Y26366033D01*
X4699652Y26366033D01*
X5500000Y25565685D01*
X6134315Y26200000D01*
X11297581Y26200000D01*
X11297581Y23800000D01*
X11307235Y23701983D01*
X11335825Y23607733D01*
X11382254Y23520871D01*
X11444736Y23444736D01*
X11520871Y23382254D01*
X11607733Y23335825D01*
X11701983Y23307235D01*
X11800000Y23297581D01*
X14200000Y23297581D01*
X14298017Y23307235D01*
X14392267Y23335825D01*
X14479129Y23382254D01*
X14555264Y23444736D01*
X14617746Y23520871D01*
X14664175Y23607733D01*
X14665166Y23611000D01*
X17424658Y23611000D01*
X18969586Y22066072D01*
X19013077Y22013077D01*
X19066071Y21969586D01*
X19066074Y21969583D01*
X19224578Y21839502D01*
X19224580Y21839501D01*
X19465881Y21710523D01*
X19727709Y21631098D01*
X19931770Y21611000D01*
X19931779Y21611000D01*
X19999999Y21604281D01*
X20068219Y21611000D01*
X48611001Y21611000D01*
X48611000Y18363942D01*
X48604281Y18295722D01*
X48611000Y18227502D01*
X48611000Y18227493D01*
X48631098Y18023432D01*
X48700784Y17793710D01*
X48710523Y17761604D01*
X48839502Y17520301D01*
X48959548Y17374025D01*
X49013077Y17308800D01*
X49066073Y17265307D01*
X54691001Y11640379D01*
X54691000Y9439427D01*
X54526499Y9274926D01*
X54307623Y8947355D01*
X54156859Y8583378D01*
X54080000Y8196983D01*
X54080000Y7803017D01*
X54156859Y7416622D01*
X54307623Y7052645D01*
X54526499Y6725074D01*
X54805074Y6446499D01*
X55132645Y6227623D01*
X55496622Y6076859D01*
X55883017Y6000000D01*
X56276983Y6000000D01*
X56663378Y6076859D01*
X57027355Y6227623D01*
X57354926Y6446499D01*
X57633501Y6725074D01*
X57852377Y7052645D01*
X58003141Y7416622D01*
X58080000Y7803017D01*
X58080000Y8196983D01*
X58003141Y8583378D01*
X57852377Y8947355D01*
X57633501Y9274926D01*
X57469000Y9439427D01*
X57469000Y12147503D01*
X57475719Y12215723D01*
X57469000Y12283943D01*
X57469000Y12283952D01*
X57448902Y12488013D01*
X57369477Y12749841D01*
X57240499Y12991142D01*
X57240498Y12991144D01*
X57134088Y13120804D01*
X57066923Y13202645D01*
X57013923Y13246141D01*
X51389000Y18871064D01*
X51389000Y22424658D01*
X52575343Y23611000D01*
X55334834Y23611000D01*
X55335825Y23607733D01*
X55382254Y23520871D01*
X55444736Y23444736D01*
X55520871Y23382254D01*
X55607733Y23335825D01*
X55701983Y23307235D01*
X55800000Y23297581D01*
X58200000Y23297581D01*
X58298017Y23307235D01*
X58392267Y23335825D01*
X58479129Y23382254D01*
X58555264Y23444736D01*
X58617746Y23520871D01*
X58664175Y23607733D01*
X58672132Y23633967D01*
X63699652Y23633967D01*
X63847451Y23421324D01*
X64167974Y23324351D01*
X64501257Y23291774D01*
X64834490Y23324842D01*
X65152549Y23421324D01*
X65300348Y23633967D01*
X64500000Y24434315D01*
X63699652Y23633967D01*
X58672132Y23633967D01*
X58692765Y23701983D01*
X58702419Y23800000D01*
X58702419Y24998743D01*
X62791774Y24998743D01*
X62824842Y24665510D01*
X62921324Y24347451D01*
X63133967Y24199652D01*
X63934315Y25000000D01*
X65065685Y25000000D01*
X65866033Y24199652D01*
X66078676Y24347451D01*
X66175649Y24667974D01*
X66208226Y25001257D01*
X66175158Y25334490D01*
X66078676Y25652549D01*
X65866033Y25800348D01*
X65065685Y25000000D01*
X63934315Y25000000D01*
X63133967Y25800348D01*
X62921324Y25652549D01*
X62824351Y25332026D01*
X62791774Y24998743D01*
X58702419Y24998743D01*
X58702419Y26200000D01*
X58692765Y26298017D01*
X58672133Y26366033D01*
X63699652Y26366033D01*
X64500000Y25565685D01*
X65300348Y26366033D01*
X65152549Y26578676D01*
X64832026Y26675649D01*
X64498743Y26708226D01*
X64165510Y26675158D01*
X63847451Y26578676D01*
X63699652Y26366033D01*
X58672133Y26366033D01*
X58664175Y26392267D01*
X58617746Y26479129D01*
X58555264Y26555264D01*
X58479129Y26617746D01*
X58392267Y26664175D01*
X58298017Y26692765D01*
X58200000Y26702419D01*
X57754000Y26702419D01*
X57754000Y34622581D01*
X57975000Y34622581D01*
X58121790Y34637039D01*
X58262938Y34679855D01*
X58393022Y34749386D01*
X58507041Y34842959D01*
X58600614Y34956978D01*
X58670145Y35087062D01*
X58712961Y35228210D01*
X58727419Y35375000D01*
X58727419Y36625000D01*
X59272581Y36625000D01*
X59272581Y35375000D01*
X59287039Y35228210D01*
X59329855Y35087062D01*
X59399386Y34956978D01*
X59492959Y34842959D01*
X59606978Y34749386D01*
X59737062Y34679855D01*
X59878210Y34637039D01*
X60025000Y34622581D01*
X60775000Y34622581D01*
X60921790Y34637039D01*
X61062938Y34679855D01*
X61193022Y34749386D01*
X61307041Y34842959D01*
X61400614Y34956978D01*
X61470145Y35087062D01*
X61512961Y35228210D01*
X61514713Y35246000D01*
X62485287Y35246000D01*
X62487039Y35228210D01*
X62529855Y35087062D01*
X62599386Y34956978D01*
X62692959Y34842959D01*
X62806978Y34749386D01*
X62937062Y34679855D01*
X63078210Y34637039D01*
X63225000Y34622581D01*
X63975000Y34622581D01*
X64121790Y34637039D01*
X64262938Y34679855D01*
X64393022Y34749386D01*
X64507041Y34842959D01*
X64600614Y34956978D01*
X64670145Y35087062D01*
X64712961Y35228210D01*
X64727419Y35375000D01*
X64727419Y35475000D01*
X65275000Y35475000D01*
X65275000Y35075755D01*
X65294215Y34979156D01*
X65331906Y34888161D01*
X65386624Y34806269D01*
X65456268Y34736625D01*
X65538161Y34681906D01*
X65629155Y34644215D01*
X65725754Y34625000D01*
X65962500Y34625000D01*
X66087500Y34750000D01*
X66087500Y35600000D01*
X66712500Y35600000D01*
X66712500Y34750000D01*
X66837500Y34625000D01*
X67074246Y34625000D01*
X67170845Y34644215D01*
X67261839Y34681906D01*
X67343732Y34736625D01*
X67413376Y34806269D01*
X67468094Y34888161D01*
X67505785Y34979156D01*
X67525000Y35075755D01*
X67525000Y35475000D01*
X67400000Y35600000D01*
X66712500Y35600000D01*
X66087500Y35600000D01*
X65400000Y35600000D01*
X65275000Y35475000D01*
X64727419Y35475000D01*
X64727419Y36625000D01*
X64712961Y36771790D01*
X64670145Y36912938D01*
X64664102Y36924245D01*
X65275000Y36924245D01*
X65275000Y36525000D01*
X65400000Y36400000D01*
X66087500Y36400000D01*
X66087500Y37250000D01*
X66712500Y37250000D01*
X66712500Y36400000D01*
X67400000Y36400000D01*
X67525000Y36525000D01*
X67525000Y36924245D01*
X67505785Y37020844D01*
X67468094Y37111839D01*
X67413376Y37193731D01*
X67343732Y37263375D01*
X67261839Y37318094D01*
X67170845Y37355785D01*
X67074246Y37375000D01*
X66837500Y37375000D01*
X66712500Y37250000D01*
X66087500Y37250000D01*
X65962500Y37375000D01*
X65725754Y37375000D01*
X65629155Y37355785D01*
X65538161Y37318094D01*
X65456268Y37263375D01*
X65386624Y37193731D01*
X65331906Y37111839D01*
X65294215Y37020844D01*
X65275000Y36924245D01*
X64664102Y36924245D01*
X64600614Y37043022D01*
X64507041Y37157041D01*
X64393022Y37250614D01*
X64262938Y37320145D01*
X64121790Y37362961D01*
X63975000Y37377419D01*
X63225000Y37377419D01*
X63078210Y37362961D01*
X62937062Y37320145D01*
X62806978Y37250614D01*
X62692959Y37157041D01*
X62599386Y37043022D01*
X62529855Y36912938D01*
X62487039Y36771790D01*
X62485287Y36754000D01*
X61514713Y36754000D01*
X61512961Y36771790D01*
X61470145Y36912938D01*
X61400614Y37043022D01*
X61307041Y37157041D01*
X61193022Y37250614D01*
X61062938Y37320145D01*
X60921790Y37362961D01*
X60775000Y37377419D01*
X60025000Y37377419D01*
X59878210Y37362961D01*
X59737062Y37320145D01*
X59606978Y37250614D01*
X59492959Y37157041D01*
X59399386Y37043022D01*
X59329855Y36912938D01*
X59287039Y36771790D01*
X59272581Y36625000D01*
X58727419Y36625000D01*
X58712961Y36771790D01*
X58670145Y36912938D01*
X58600614Y37043022D01*
X58507041Y37157041D01*
X58393022Y37250614D01*
X58262938Y37320145D01*
X58121790Y37362961D01*
X57975000Y37377419D01*
X57225000Y37377419D01*
X57078210Y37362961D01*
X56937062Y37320145D01*
X56806978Y37250614D01*
X56692959Y37157041D01*
X56599386Y37043022D01*
X56529855Y36912938D01*
X56487039Y36771790D01*
X56472581Y36625000D01*
X56472581Y35942564D01*
X56464263Y35935738D01*
X56440652Y35906968D01*
X56440651Y35906967D01*
X56370039Y35820926D01*
X56300026Y35689939D01*
X56256910Y35547809D01*
X56242353Y35400000D01*
X56246001Y35362959D01*
X56246000Y26702419D01*
X55800000Y26702419D01*
X55701983Y26692765D01*
X55607733Y26664175D01*
X55520871Y26617746D01*
X55444736Y26555264D01*
X55382254Y26479129D01*
X55335825Y26392267D01*
X55334834Y26389000D01*
X54535000Y26389000D01*
X54535000Y41176168D01*
X54569690Y41218438D01*
X54699690Y41461651D01*
X54779743Y41725552D01*
X54806774Y42000000D01*
X54779743Y42274448D01*
X54699690Y42538349D01*
X54569690Y42781562D01*
X54394739Y42994739D01*
X54181562Y43169690D01*
X53938349Y43299690D01*
X53674448Y43379743D01*
X53468777Y43400000D01*
X53331223Y43400000D01*
X53125552Y43379743D01*
X52861651Y43299690D01*
X52618438Y43169690D01*
X52405261Y42994739D01*
X52230310Y42781562D01*
X52100310Y42538349D01*
X52020257Y42274448D01*
X51993226Y42000000D01*
X52020257Y41725552D01*
X52100310Y41461651D01*
X52230310Y41218438D01*
X52265000Y41176168D01*
X52265001Y26389000D01*
X52068219Y26389000D01*
X51999999Y26395719D01*
X51931779Y26389000D01*
X51931770Y26389000D01*
X51727709Y26368902D01*
X51465881Y26289477D01*
X51224578Y26160498D01*
X51066074Y26030417D01*
X51066071Y26030414D01*
X51013077Y25986923D01*
X50969586Y25933928D01*
X49424658Y24389000D01*
X29135000Y24389000D01*
X29135000Y26239000D01*
X29787413Y26239000D01*
X29793145Y26220104D01*
X29913860Y25994264D01*
X30076314Y25796313D01*
X30274265Y25633860D01*
X30500105Y25513145D01*
X30745156Y25438810D01*
X31000000Y25413710D01*
X31254845Y25438810D01*
X31499896Y25513145D01*
X31725736Y25633860D01*
X31923687Y25796313D01*
X32086140Y25994264D01*
X32206855Y26220104D01*
X32270000Y26428266D01*
X32333145Y26220104D01*
X32453860Y25994264D01*
X32616314Y25796313D01*
X32814265Y25633860D01*
X33040105Y25513145D01*
X33285156Y25438810D01*
X33540000Y25413710D01*
X33794845Y25438810D01*
X34039896Y25513145D01*
X34265736Y25633860D01*
X34463687Y25796313D01*
X34626140Y25994264D01*
X34746855Y26220104D01*
X34810000Y26428266D01*
X34873145Y26220104D01*
X34993860Y25994264D01*
X35156314Y25796313D01*
X35354265Y25633860D01*
X35580105Y25513145D01*
X35825156Y25438810D01*
X36080000Y25413710D01*
X36334845Y25438810D01*
X36579896Y25513145D01*
X36805736Y25633860D01*
X37003687Y25796313D01*
X37166140Y25994264D01*
X37286855Y26220104D01*
X37350000Y26428266D01*
X37413145Y26220104D01*
X37533860Y25994264D01*
X37696314Y25796313D01*
X37894265Y25633860D01*
X38120105Y25513145D01*
X38365156Y25438810D01*
X38620000Y25413710D01*
X38874845Y25438810D01*
X39119896Y25513145D01*
X39345736Y25633860D01*
X39543687Y25796313D01*
X39706140Y25994264D01*
X39826855Y26220104D01*
X39901190Y26465155D01*
X39920000Y26656137D01*
X39920000Y26800000D01*
X41697581Y26800000D01*
X41697581Y25200000D01*
X41707235Y25101983D01*
X41735825Y25007733D01*
X41782254Y24920871D01*
X41844736Y24844736D01*
X41920871Y24782254D01*
X42007733Y24735825D01*
X42101983Y24707235D01*
X42200000Y24697581D01*
X43800000Y24697581D01*
X43898017Y24707235D01*
X43992267Y24735825D01*
X44079129Y24782254D01*
X44155264Y24844736D01*
X44217746Y24920871D01*
X44223269Y24931204D01*
X44996889Y24931204D01*
X45092672Y24758840D01*
X45342637Y24703223D01*
X45598649Y24697441D01*
X45850871Y24741715D01*
X45907328Y24758840D01*
X46003111Y24931204D01*
X45500000Y25434315D01*
X44996889Y24931204D01*
X44223269Y24931204D01*
X44264175Y25007733D01*
X44292765Y25101983D01*
X44302419Y25200000D01*
X44302419Y25568455D01*
X44431204Y25496889D01*
X44934315Y26000000D01*
X46065685Y26000000D01*
X46568796Y25496889D01*
X46741160Y25592672D01*
X46796777Y25842637D01*
X46802559Y26098649D01*
X46758285Y26350871D01*
X46741160Y26407328D01*
X46568796Y26503111D01*
X46065685Y26000000D01*
X44934315Y26000000D01*
X44431204Y26503111D01*
X44302419Y26431545D01*
X44302419Y26800000D01*
X44292765Y26898017D01*
X44264175Y26992267D01*
X44223270Y27068796D01*
X44996889Y27068796D01*
X45500000Y26565685D01*
X46003111Y27068796D01*
X45907328Y27241160D01*
X45657363Y27296777D01*
X45401351Y27302559D01*
X45149129Y27258285D01*
X45092672Y27241160D01*
X44996889Y27068796D01*
X44223270Y27068796D01*
X44217746Y27079129D01*
X44155264Y27155264D01*
X44079129Y27217746D01*
X43992267Y27264175D01*
X43898017Y27292765D01*
X43800000Y27302419D01*
X42200000Y27302419D01*
X42101983Y27292765D01*
X42007733Y27264175D01*
X41920871Y27217746D01*
X41844736Y27155264D01*
X41782254Y27079129D01*
X41735825Y26992267D01*
X41707235Y26898017D01*
X41697581Y26800000D01*
X39920000Y26800000D01*
X39920000Y27583864D01*
X39901190Y27774845D01*
X39826855Y28019896D01*
X39706140Y28245736D01*
X39543687Y28443687D01*
X39345735Y28606140D01*
X39119895Y28726855D01*
X38874844Y28801190D01*
X38620000Y28826290D01*
X38365155Y28801190D01*
X38120104Y28726855D01*
X37894264Y28606140D01*
X37696313Y28443687D01*
X37533860Y28245735D01*
X37413145Y28019895D01*
X37350000Y27811733D01*
X37286855Y28019896D01*
X37166140Y28245736D01*
X37003687Y28443687D01*
X36805735Y28606140D01*
X36579895Y28726855D01*
X36334844Y28801190D01*
X36080000Y28826290D01*
X35825155Y28801190D01*
X35580104Y28726855D01*
X35354264Y28606140D01*
X35156313Y28443687D01*
X34993860Y28245735D01*
X34873145Y28019895D01*
X34810000Y27811733D01*
X34746855Y28019896D01*
X34626140Y28245736D01*
X34463687Y28443687D01*
X34265735Y28606140D01*
X34039895Y28726855D01*
X33794844Y28801190D01*
X33540000Y28826290D01*
X33285155Y28801190D01*
X33040104Y28726855D01*
X32814264Y28606140D01*
X32616313Y28443687D01*
X32453860Y28245735D01*
X32333145Y28019895D01*
X32270000Y27811733D01*
X32206855Y28019896D01*
X32086140Y28245736D01*
X31923687Y28443687D01*
X31725735Y28606140D01*
X31499895Y28726855D01*
X31254844Y28801190D01*
X31000000Y28826290D01*
X30745155Y28801190D01*
X30500104Y28726855D01*
X30274264Y28606140D01*
X30076313Y28443687D01*
X29913860Y28245735D01*
X29793145Y28019895D01*
X29787413Y28001000D01*
X29135000Y28001000D01*
X29135000Y32120160D01*
X31240000Y32120160D01*
X31240000Y31879840D01*
X31286884Y31644139D01*
X31378850Y31422113D01*
X31512364Y31222295D01*
X31682295Y31052364D01*
X31882113Y30918850D01*
X32104139Y30826884D01*
X32339840Y30780000D01*
X32580160Y30780000D01*
X32815861Y30826884D01*
X33037887Y30918850D01*
X33237705Y31052364D01*
X33407636Y31222295D01*
X33541150Y31422113D01*
X33633116Y31644139D01*
X33680000Y31879840D01*
X33680000Y32120160D01*
X33780000Y32120160D01*
X33780000Y31879840D01*
X33826884Y31644139D01*
X33918850Y31422113D01*
X34052364Y31222295D01*
X34222295Y31052364D01*
X34422113Y30918850D01*
X34644139Y30826884D01*
X34879840Y30780000D01*
X35120160Y30780000D01*
X35355861Y30826884D01*
X35577887Y30918850D01*
X35777705Y31052364D01*
X35947636Y31222295D01*
X36081150Y31422113D01*
X36173116Y31644139D01*
X36220000Y31879840D01*
X36220000Y32120160D01*
X36320000Y32120160D01*
X36320000Y31879840D01*
X36366884Y31644139D01*
X36458850Y31422113D01*
X36592364Y31222295D01*
X36762295Y31052364D01*
X36962113Y30918850D01*
X37184139Y30826884D01*
X37419840Y30780000D01*
X37660160Y30780000D01*
X37895861Y30826884D01*
X38117887Y30918850D01*
X38317705Y31052364D01*
X38487636Y31222295D01*
X38621150Y31422113D01*
X38713116Y31644139D01*
X38760000Y31879840D01*
X38760000Y32120160D01*
X38713116Y32355861D01*
X38621150Y32577887D01*
X38487636Y32777705D01*
X38317705Y32947636D01*
X38117887Y33081150D01*
X37895861Y33173116D01*
X37660160Y33220000D01*
X37419840Y33220000D01*
X37184139Y33173116D01*
X36962113Y33081150D01*
X36762295Y32947636D01*
X36592364Y32777705D01*
X36458850Y32577887D01*
X36366884Y32355861D01*
X36320000Y32120160D01*
X36220000Y32120160D01*
X36173116Y32355861D01*
X36081150Y32577887D01*
X35947636Y32777705D01*
X35777705Y32947636D01*
X35577887Y33081150D01*
X35355861Y33173116D01*
X35120160Y33220000D01*
X34879840Y33220000D01*
X34644139Y33173116D01*
X34422113Y33081150D01*
X34222295Y32947636D01*
X34052364Y32777705D01*
X33918850Y32577887D01*
X33826884Y32355861D01*
X33780000Y32120160D01*
X33680000Y32120160D01*
X33633116Y32355861D01*
X33541150Y32577887D01*
X33407636Y32777705D01*
X33237705Y32947636D01*
X33037887Y33081150D01*
X32815861Y33173116D01*
X32580160Y33220000D01*
X32339840Y33220000D01*
X32104139Y33173116D01*
X31882113Y33081150D01*
X31682295Y32947636D01*
X31512364Y32777705D01*
X31378850Y32577887D01*
X31286884Y32355861D01*
X31240000Y32120160D01*
X29135000Y32120160D01*
X29135000Y36099279D01*
X41992000Y36099279D01*
X41992000Y35900721D01*
X42030737Y35705977D01*
X42106722Y35522533D01*
X42217035Y35357438D01*
X42246000Y35328473D01*
X42246001Y34037041D01*
X42242353Y34000000D01*
X42256910Y33852191D01*
X42300026Y33710061D01*
X42370040Y33579073D01*
X42464263Y33464262D01*
X42493033Y33440651D01*
X43992000Y31941683D01*
X43992000Y31900721D01*
X44030737Y31705977D01*
X44106722Y31522533D01*
X44217035Y31357438D01*
X44357438Y31217035D01*
X44522533Y31106722D01*
X44705977Y31030737D01*
X44900721Y30992000D01*
X45099279Y30992000D01*
X45294023Y31030737D01*
X45477467Y31106722D01*
X45642562Y31217035D01*
X45782965Y31357438D01*
X45893278Y31522533D01*
X45969263Y31705977D01*
X46008000Y31900721D01*
X46008000Y32099279D01*
X45969263Y32294023D01*
X45893278Y32477467D01*
X45782965Y32642562D01*
X45642562Y32782965D01*
X45477467Y32893278D01*
X45294023Y32969263D01*
X45099279Y33008000D01*
X45058317Y33008000D01*
X43754000Y34312316D01*
X43754000Y35328473D01*
X43782965Y35357438D01*
X43893278Y35522533D01*
X43969263Y35705977D01*
X44008000Y35900721D01*
X44008000Y36099279D01*
X43969263Y36294023D01*
X43893278Y36477467D01*
X43782965Y36642562D01*
X43642562Y36782965D01*
X43477467Y36893278D01*
X43294023Y36969263D01*
X43099279Y37008000D01*
X42900721Y37008000D01*
X42705977Y36969263D01*
X42522533Y36893278D01*
X42357438Y36782965D01*
X42217035Y36642562D01*
X42106722Y36477467D01*
X42030737Y36294023D01*
X41992000Y36099279D01*
X29135000Y36099279D01*
X29135000Y37344259D01*
X29140490Y37400001D01*
X29135000Y37455743D01*
X29135000Y37455752D01*
X29118577Y37622499D01*
X29064733Y37800000D01*
X45697581Y37800000D01*
X45697581Y36200000D01*
X45707235Y36101983D01*
X45735825Y36007733D01*
X45782254Y35920871D01*
X45844736Y35844736D01*
X45920871Y35782254D01*
X46007733Y35735825D01*
X46101983Y35707235D01*
X46200000Y35697581D01*
X46494152Y35697581D01*
X46384219Y35652045D01*
X46171298Y35509776D01*
X45990224Y35328702D01*
X45847955Y35115781D01*
X45749958Y34879196D01*
X45700000Y34628039D01*
X45700000Y34371961D01*
X45749958Y34120804D01*
X45847955Y33884219D01*
X45990224Y33671298D01*
X46171298Y33490224D01*
X46384219Y33347955D01*
X46620804Y33249958D01*
X46871961Y33200000D01*
X47128039Y33200000D01*
X47379196Y33249958D01*
X47615781Y33347955D01*
X47828702Y33490224D01*
X48009776Y33671298D01*
X48152045Y33884219D01*
X48250042Y34120804D01*
X48300000Y34371961D01*
X48300000Y34628039D01*
X48250042Y34879196D01*
X48152045Y35115781D01*
X48009776Y35328702D01*
X47828702Y35509776D01*
X47615781Y35652045D01*
X47505848Y35697581D01*
X47800000Y35697581D01*
X47898017Y35707235D01*
X47992267Y35735825D01*
X48079129Y35782254D01*
X48155264Y35844736D01*
X48217746Y35920871D01*
X48264175Y36007733D01*
X48292765Y36101983D01*
X48302419Y36200000D01*
X48302419Y37800000D01*
X48292765Y37898017D01*
X48264175Y37992267D01*
X48217746Y38079129D01*
X48155264Y38155264D01*
X48079129Y38217746D01*
X47992267Y38264175D01*
X47898017Y38292765D01*
X47800000Y38302419D01*
X46200000Y38302419D01*
X46101983Y38292765D01*
X46007733Y38264175D01*
X45920871Y38217746D01*
X45844736Y38155264D01*
X45782254Y38079129D01*
X45735825Y37992267D01*
X45707235Y37898017D01*
X45697581Y37800000D01*
X29064733Y37800000D01*
X29053676Y37836447D01*
X28948284Y38033623D01*
X28806449Y38206449D01*
X28763141Y38241991D01*
X24785103Y42220028D01*
X24779743Y42274448D01*
X24699690Y42538349D01*
X24569690Y42781562D01*
X24394739Y42994739D01*
X24181562Y43169690D01*
X23938349Y43299690D01*
X23674448Y43379743D01*
X23468777Y43400000D01*
X23331223Y43400000D01*
X23125552Y43379743D01*
X22861651Y43299690D01*
X22618438Y43169690D01*
X22405261Y42994739D01*
X22230310Y42781562D01*
X22100310Y42538349D01*
X22020257Y42274448D01*
X21993226Y42000000D01*
X22020257Y41725552D01*
X22100310Y41461651D01*
X22230310Y41218438D01*
X22405261Y41005261D01*
X22618438Y40830310D01*
X22861651Y40700310D01*
X23125552Y40620257D01*
X23179972Y40614897D01*
X26865000Y36929868D01*
X26865001Y27055761D01*
X26865000Y27055751D01*
X26865001Y24389000D01*
X20575343Y24389000D01*
X19030419Y25933923D01*
X18986923Y25986923D01*
X18775420Y26160499D01*
X18534119Y26289477D01*
X18272291Y26368902D01*
X18068230Y26389000D01*
X18068220Y26389000D01*
X18000000Y26395719D01*
X17931780Y26389000D01*
X14665166Y26389000D01*
X14664175Y26392267D01*
X14617746Y26479129D01*
X14555264Y26555264D01*
X14479129Y26617746D01*
X14392267Y26664175D01*
X14298017Y26692765D01*
X14200000Y26702419D01*
X11800000Y26702419D01*
X11701983Y26692765D01*
X11607733Y26664175D01*
X11520871Y26617746D01*
X11444736Y26555264D01*
X11382254Y26479129D01*
X11335825Y26392267D01*
X11307235Y26298017D01*
X11297581Y26200000D01*
X6134315Y26200000D01*
X6300348Y26366033D01*
X6152549Y26578676D01*
X5832026Y26675649D01*
X5498743Y26708226D01*
X5165510Y26675158D01*
X4847451Y26578676D01*
X4699652Y26366033D01*
X575000Y26366033D01*
X575000Y30850000D01*
X18647581Y30850000D01*
X18647581Y29150000D01*
X18657235Y29051983D01*
X18685825Y28957733D01*
X18732254Y28870871D01*
X18794736Y28794736D01*
X18870871Y28732254D01*
X18957733Y28685825D01*
X19051983Y28657235D01*
X19150000Y28647581D01*
X20850000Y28647581D01*
X20948017Y28657235D01*
X21042267Y28685825D01*
X21129129Y28732254D01*
X21205264Y28794736D01*
X21267746Y28870871D01*
X21314175Y28957733D01*
X21342765Y29051983D01*
X21352419Y29150000D01*
X21352419Y29357978D01*
X21412085Y29246351D01*
X21580787Y29040787D01*
X21786351Y28872085D01*
X22020878Y28746728D01*
X22275354Y28669533D01*
X22473679Y28650000D01*
X22606321Y28650000D01*
X22804646Y28669533D01*
X23059122Y28746728D01*
X23293649Y28872085D01*
X23499213Y29040787D01*
X23667915Y29246351D01*
X23793272Y29480878D01*
X23810000Y29536022D01*
X23826728Y29480878D01*
X23952085Y29246351D01*
X24120787Y29040787D01*
X24326351Y28872085D01*
X24560878Y28746728D01*
X24815354Y28669533D01*
X25013679Y28650000D01*
X25146321Y28650000D01*
X25344646Y28669533D01*
X25599122Y28746728D01*
X25833649Y28872085D01*
X26039213Y29040787D01*
X26207915Y29246351D01*
X26333272Y29480878D01*
X26410467Y29735354D01*
X26436532Y30000000D01*
X26410467Y30264646D01*
X26333272Y30519122D01*
X26207915Y30753649D01*
X26039213Y30959213D01*
X25833649Y31127915D01*
X25599122Y31253272D01*
X25344646Y31330467D01*
X25146321Y31350000D01*
X25013679Y31350000D01*
X24815354Y31330467D01*
X24560878Y31253272D01*
X24326351Y31127915D01*
X24120787Y30959213D01*
X23952085Y30753649D01*
X23826728Y30519122D01*
X23810000Y30463978D01*
X23793272Y30519122D01*
X23667915Y30753649D01*
X23499213Y30959213D01*
X23293649Y31127915D01*
X23059122Y31253272D01*
X22804646Y31330467D01*
X22606321Y31350000D01*
X22473679Y31350000D01*
X22275354Y31330467D01*
X22020878Y31253272D01*
X21786351Y31127915D01*
X21580787Y30959213D01*
X21412085Y30753649D01*
X21352419Y30642022D01*
X21352419Y30850000D01*
X21342765Y30948017D01*
X21314175Y31042267D01*
X21267746Y31129129D01*
X21205264Y31205264D01*
X21129129Y31267746D01*
X21042267Y31314175D01*
X20948017Y31342765D01*
X20850000Y31352419D01*
X19150000Y31352419D01*
X19051983Y31342765D01*
X18957733Y31314175D01*
X18870871Y31267746D01*
X18794736Y31205264D01*
X18732254Y31129129D01*
X18685825Y31042267D01*
X18657235Y30948017D01*
X18647581Y30850000D01*
X575000Y30850000D01*
X575000Y37800000D01*
X15697581Y37800000D01*
X15697581Y36200000D01*
X15707235Y36101983D01*
X15735825Y36007733D01*
X15782254Y35920871D01*
X15844736Y35844736D01*
X15920871Y35782254D01*
X16007733Y35735825D01*
X16101983Y35707235D01*
X16200000Y35697581D01*
X16494152Y35697581D01*
X16384219Y35652045D01*
X16171298Y35509776D01*
X15990224Y35328702D01*
X15847955Y35115781D01*
X15749958Y34879196D01*
X15700000Y34628039D01*
X15700000Y34371961D01*
X15749958Y34120804D01*
X15847955Y33884219D01*
X15990224Y33671298D01*
X16171298Y33490224D01*
X16384219Y33347955D01*
X16620804Y33249958D01*
X16871961Y33200000D01*
X17128039Y33200000D01*
X17379196Y33249958D01*
X17615781Y33347955D01*
X17828702Y33490224D01*
X18009776Y33671298D01*
X18152045Y33884219D01*
X18250042Y34120804D01*
X18300000Y34371961D01*
X18300000Y34628039D01*
X18250042Y34879196D01*
X18152045Y35115781D01*
X18009776Y35328702D01*
X17828702Y35509776D01*
X17615781Y35652045D01*
X17505848Y35697581D01*
X17800000Y35697581D01*
X17898017Y35707235D01*
X17992267Y35735825D01*
X18079129Y35782254D01*
X18155264Y35844736D01*
X18217746Y35920871D01*
X18264175Y36007733D01*
X18292765Y36101983D01*
X18302419Y36200000D01*
X18302419Y37800000D01*
X18292765Y37898017D01*
X18264175Y37992267D01*
X18217746Y38079129D01*
X18155264Y38155264D01*
X18079129Y38217746D01*
X17992267Y38264175D01*
X17898017Y38292765D01*
X17800000Y38302419D01*
X16200000Y38302419D01*
X16101983Y38292765D01*
X16007733Y38264175D01*
X15920871Y38217746D01*
X15844736Y38155264D01*
X15782254Y38079129D01*
X15735825Y37992267D01*
X15707235Y37898017D01*
X15697581Y37800000D01*
X575000Y37800000D01*
X575000Y43139890D01*
X746295Y42726347D01*
X1271597Y41940178D01*
X1940178Y41271597D01*
X2726347Y40746295D01*
X3599892Y40384461D01*
X4527241Y40200000D01*
X5472759Y40200000D01*
X6400108Y40384461D01*
X7273653Y40746295D01*
X8059822Y41271597D01*
X8728403Y41940178D01*
X9253705Y42726347D01*
X9325634Y42900000D01*
X15197581Y42900000D01*
X15197581Y41100000D01*
X15207235Y41001983D01*
X15235825Y40907733D01*
X15282254Y40820871D01*
X15344736Y40744736D01*
X15420871Y40682254D01*
X15507733Y40635825D01*
X15601983Y40607235D01*
X15700000Y40597581D01*
X17500000Y40597581D01*
X17598017Y40607235D01*
X17692267Y40635825D01*
X17779129Y40682254D01*
X17855264Y40744736D01*
X17917746Y40820871D01*
X17964175Y40907733D01*
X17992765Y41001983D01*
X18002419Y41100000D01*
X18002419Y41395046D01*
X18737451Y41395046D01*
X18795553Y41286311D01*
X18957930Y41065048D01*
X19160353Y40879715D01*
X19395043Y40737434D01*
X19600000Y40783342D01*
X19600000Y41600000D01*
X20400000Y41600000D01*
X20400000Y40783342D01*
X20604957Y40737434D01*
X20839647Y40879715D01*
X21042070Y41065048D01*
X21204447Y41286311D01*
X21262549Y41395046D01*
X21210630Y41600000D01*
X20400000Y41600000D01*
X19600000Y41600000D01*
X18789370Y41600000D01*
X18737451Y41395046D01*
X18002419Y41395046D01*
X18002419Y42604954D01*
X18737451Y42604954D01*
X18789370Y42400000D01*
X19600000Y42400000D01*
X19600000Y43216658D01*
X20400000Y43216658D01*
X20400000Y42400000D01*
X21210630Y42400000D01*
X21262549Y42604954D01*
X21204447Y42713689D01*
X21042070Y42934952D01*
X20839647Y43120285D01*
X20604957Y43262566D01*
X20400000Y43216658D01*
X19600000Y43216658D01*
X19395043Y43262566D01*
X19160353Y43120285D01*
X18957930Y42934952D01*
X18795553Y42713689D01*
X18737451Y42604954D01*
X18002419Y42604954D01*
X18002419Y42900000D01*
X17992765Y42998017D01*
X17964175Y43092267D01*
X17917746Y43179129D01*
X17855264Y43255264D01*
X17779129Y43317746D01*
X17692267Y43364175D01*
X17598017Y43392765D01*
X17500000Y43402419D01*
X15700000Y43402419D01*
X15601983Y43392765D01*
X15507733Y43364175D01*
X15420871Y43317746D01*
X15344736Y43255264D01*
X15282254Y43179129D01*
X15235825Y43092267D01*
X15207235Y42998017D01*
X15197581Y42900000D01*
X9325634Y42900000D01*
X9615539Y43599892D01*
X9800000Y44527241D01*
X9800000Y45472759D01*
X9754800Y45700000D01*
X16893226Y45700000D01*
X16920257Y45425552D01*
X17000310Y45161651D01*
X17130310Y44918438D01*
X17305261Y44705261D01*
X17518438Y44530310D01*
X17761651Y44400310D01*
X18025552Y44320257D01*
X18231223Y44300000D01*
X18368777Y44300000D01*
X18574448Y44320257D01*
X18838349Y44400310D01*
X19081562Y44530310D01*
X19294739Y44705261D01*
X19469690Y44918438D01*
X19599690Y45161651D01*
X19679743Y45425552D01*
X19706774Y45700000D01*
X20293226Y45700000D01*
X20320257Y45425552D01*
X20400310Y45161651D01*
X20530310Y44918438D01*
X20705261Y44705261D01*
X20918438Y44530310D01*
X21161651Y44400310D01*
X21425552Y44320257D01*
X21631223Y44300000D01*
X21768777Y44300000D01*
X21974448Y44320257D01*
X22238349Y44400310D01*
X22481562Y44530310D01*
X22523832Y44565000D01*
X30329869Y44565000D01*
X30497581Y44397288D01*
X30497581Y42500000D01*
X30507235Y42401983D01*
X30535825Y42307733D01*
X30582254Y42220871D01*
X30644736Y42144736D01*
X30720871Y42082254D01*
X30807733Y42035825D01*
X30901983Y42007235D01*
X31000000Y41997581D01*
X34000000Y41997581D01*
X34098017Y42007235D01*
X34192267Y42035825D01*
X34279129Y42082254D01*
X34355264Y42144736D01*
X34417746Y42220871D01*
X34464175Y42307733D01*
X34492765Y42401983D01*
X34502419Y42500000D01*
X34502419Y44196983D01*
X35580000Y44196983D01*
X35580000Y43803017D01*
X35656859Y43416622D01*
X35807623Y43052645D01*
X36026499Y42725074D01*
X36305074Y42446499D01*
X36632645Y42227623D01*
X36996622Y42076859D01*
X37383017Y42000000D01*
X37776983Y42000000D01*
X38163378Y42076859D01*
X38527355Y42227623D01*
X38854926Y42446499D01*
X39133501Y42725074D01*
X39250382Y42900000D01*
X45197581Y42900000D01*
X45197581Y41100000D01*
X45207235Y41001983D01*
X45235825Y40907733D01*
X45282254Y40820871D01*
X45344736Y40744736D01*
X45420871Y40682254D01*
X45507733Y40635825D01*
X45601983Y40607235D01*
X45700000Y40597581D01*
X47500000Y40597581D01*
X47598017Y40607235D01*
X47692267Y40635825D01*
X47779129Y40682254D01*
X47855264Y40744736D01*
X47917746Y40820871D01*
X47964175Y40907733D01*
X47992765Y41001983D01*
X48002419Y41100000D01*
X48002419Y41395046D01*
X48737451Y41395046D01*
X48795553Y41286311D01*
X48957930Y41065048D01*
X49160353Y40879715D01*
X49395043Y40737434D01*
X49600000Y40783342D01*
X49600000Y41600000D01*
X50400000Y41600000D01*
X50400000Y40783342D01*
X50604957Y40737434D01*
X50839647Y40879715D01*
X51042070Y41065048D01*
X51204447Y41286311D01*
X51262549Y41395046D01*
X51210630Y41600000D01*
X50400000Y41600000D01*
X49600000Y41600000D01*
X48789370Y41600000D01*
X48737451Y41395046D01*
X48002419Y41395046D01*
X48002419Y42604954D01*
X48737451Y42604954D01*
X48789370Y42400000D01*
X49600000Y42400000D01*
X49600000Y43216658D01*
X50400000Y43216658D01*
X50400000Y42400000D01*
X51210630Y42400000D01*
X51262549Y42604954D01*
X51204447Y42713689D01*
X51042070Y42934952D01*
X50839647Y43120285D01*
X50604957Y43262566D01*
X50400000Y43216658D01*
X49600000Y43216658D01*
X49395043Y43262566D01*
X49160353Y43120285D01*
X48957930Y42934952D01*
X48795553Y42713689D01*
X48737451Y42604954D01*
X48002419Y42604954D01*
X48002419Y42900000D01*
X47992765Y42998017D01*
X47964175Y43092267D01*
X47917746Y43179129D01*
X47855264Y43255264D01*
X47779129Y43317746D01*
X47692267Y43364175D01*
X47598017Y43392765D01*
X47500000Y43402419D01*
X45700000Y43402419D01*
X45601983Y43392765D01*
X45507733Y43364175D01*
X45420871Y43317746D01*
X45344736Y43255264D01*
X45282254Y43179129D01*
X45235825Y43092267D01*
X45207235Y42998017D01*
X45197581Y42900000D01*
X39250382Y42900000D01*
X39352377Y43052645D01*
X39503141Y43416622D01*
X39580000Y43803017D01*
X39580000Y44196983D01*
X39547169Y44362037D01*
X42050132Y46865000D01*
X47512723Y46865000D01*
X47305261Y46694739D01*
X47130310Y46481562D01*
X47000310Y46238349D01*
X46920257Y45974448D01*
X46893226Y45700000D01*
X46920257Y45425552D01*
X47000310Y45161651D01*
X47130310Y44918438D01*
X47305261Y44705261D01*
X47518438Y44530310D01*
X47761651Y44400310D01*
X48025552Y44320257D01*
X48231223Y44300000D01*
X48368777Y44300000D01*
X48574448Y44320257D01*
X48838349Y44400310D01*
X49081562Y44530310D01*
X49294739Y44705261D01*
X49469690Y44918438D01*
X49599690Y45161651D01*
X49679743Y45425552D01*
X49706774Y45700000D01*
X49679743Y45974448D01*
X49599690Y46238349D01*
X49469690Y46481562D01*
X49294739Y46694739D01*
X49087277Y46865000D01*
X50202661Y46865000D01*
X50555457Y46512203D01*
X50530310Y46481562D01*
X50400310Y46238349D01*
X50320257Y45974448D01*
X50293226Y45700000D01*
X50320257Y45425552D01*
X50400310Y45161651D01*
X50530310Y44918438D01*
X50705261Y44705261D01*
X50918438Y44530310D01*
X51161651Y44400310D01*
X51425552Y44320257D01*
X51631223Y44300000D01*
X51768777Y44300000D01*
X51974448Y44320257D01*
X52238349Y44400310D01*
X52481562Y44530310D01*
X52694739Y44705261D01*
X52869690Y44918438D01*
X52999690Y45161651D01*
X53079743Y45425552D01*
X53106774Y45700000D01*
X53079743Y45974448D01*
X52999690Y46238349D01*
X52869690Y46481562D01*
X52835000Y46523832D01*
X52835000Y46917051D01*
X52840490Y46972793D01*
X52835000Y47028535D01*
X52835000Y47028544D01*
X52818577Y47195291D01*
X52753676Y47409239D01*
X52648284Y47606415D01*
X52506449Y47779241D01*
X52463140Y47814784D01*
X51514788Y48763136D01*
X51479241Y48806449D01*
X51306415Y48948284D01*
X51109239Y49053676D01*
X50895291Y49118577D01*
X50728544Y49135000D01*
X50728543Y49135000D01*
X50672792Y49140491D01*
X50617041Y49135000D01*
X41635741Y49135000D01*
X41579999Y49140490D01*
X41524257Y49135000D01*
X41524248Y49135000D01*
X41357501Y49118577D01*
X41143553Y49053676D01*
X40946377Y48948284D01*
X40773551Y48806449D01*
X40738009Y48763141D01*
X37942037Y45967169D01*
X37776983Y46000000D01*
X37383017Y46000000D01*
X36996622Y45923141D01*
X36632645Y45772377D01*
X36305074Y45553501D01*
X36026499Y45274926D01*
X35807623Y44947355D01*
X35656859Y44583378D01*
X35580000Y44196983D01*
X34502419Y44196983D01*
X34502419Y45500000D01*
X34492765Y45598017D01*
X34464175Y45692267D01*
X34417746Y45779129D01*
X34355264Y45855264D01*
X34279129Y45917746D01*
X34192267Y45964175D01*
X34098017Y45992765D01*
X34000000Y46002419D01*
X32102712Y46002419D01*
X31641996Y46463135D01*
X31606449Y46506449D01*
X31433623Y46648284D01*
X31236447Y46753676D01*
X31022499Y46818577D01*
X30855752Y46835000D01*
X30855751Y46835000D01*
X30800000Y46840491D01*
X30744249Y46835000D01*
X22523832Y46835000D01*
X22481562Y46869690D01*
X22238349Y46999690D01*
X21974448Y47079743D01*
X21768777Y47100000D01*
X21631223Y47100000D01*
X21425552Y47079743D01*
X21161651Y46999690D01*
X20918438Y46869690D01*
X20705261Y46694739D01*
X20530310Y46481562D01*
X20400310Y46238349D01*
X20320257Y45974448D01*
X20293226Y45700000D01*
X19706774Y45700000D01*
X19679743Y45974448D01*
X19599690Y46238349D01*
X19469690Y46481562D01*
X19294739Y46694739D01*
X19081562Y46869690D01*
X18838349Y46999690D01*
X18574448Y47079743D01*
X18368777Y47100000D01*
X18231223Y47100000D01*
X18025552Y47079743D01*
X17761651Y46999690D01*
X17518438Y46869690D01*
X17305261Y46694739D01*
X17130310Y46481562D01*
X17000310Y46238349D01*
X16920257Y45974448D01*
X16893226Y45700000D01*
X9754800Y45700000D01*
X9615539Y46400108D01*
X9253705Y47273653D01*
X8728403Y48059822D01*
X8059822Y48728403D01*
X7273653Y49253705D01*
X6860110Y49425000D01*
X63139890Y49425000D01*
X62726347Y49253705D01*
X62726347Y49253705D01*
G37*
X62726347Y49253705D02*
X61940178Y48728403D01*
X61271597Y48059822D01*
X60746295Y47273653D01*
X60384461Y46400108D01*
X60200000Y45472759D01*
X60200000Y44527241D01*
X60384461Y43599892D01*
X60746295Y42726347D01*
X61271597Y41940178D01*
X61940178Y41271597D01*
X62726347Y40746295D01*
X63599892Y40384461D01*
X64527241Y40200000D01*
X65472759Y40200000D01*
X66400108Y40384461D01*
X67273653Y40746295D01*
X68059822Y41271597D01*
X68728403Y41940178D01*
X69253705Y42726347D01*
X69425001Y43139892D01*
X69425000Y6860110D01*
X69253705Y7273653D01*
X68728403Y8059822D01*
X68059822Y8728403D01*
X67273653Y9253705D01*
X66400108Y9615539D01*
X65472759Y9800000D01*
X64527241Y9800000D01*
X63599892Y9615539D01*
X62726347Y9253705D01*
X61940178Y8728403D01*
X61271597Y8059822D01*
X60746295Y7273653D01*
X60384461Y6400108D01*
X60200000Y5472759D01*
X60200000Y4527241D01*
X60384461Y3599892D01*
X60746295Y2726347D01*
X61271597Y1940178D01*
X61940178Y1271597D01*
X62726347Y746295D01*
X63139890Y575000D01*
X6860110Y575000D01*
X7273653Y746295D01*
X8059822Y1271597D01*
X8728403Y1940178D01*
X9253705Y2726347D01*
X9615539Y3599892D01*
X9727842Y4164481D01*
X13330000Y4164481D01*
X13330000Y3835519D01*
X13394178Y3512879D01*
X13520066Y3208959D01*
X13702827Y2935437D01*
X13935437Y2702827D01*
X14208959Y2520066D01*
X14512879Y2394178D01*
X14835519Y2330000D01*
X15164481Y2330000D01*
X15487121Y2394178D01*
X15791041Y2520066D01*
X16064563Y2702827D01*
X16297173Y2935437D01*
X16479934Y3208959D01*
X16605822Y3512879D01*
X16670000Y3835519D01*
X16670000Y4164481D01*
X18330000Y4164481D01*
X18330000Y3835519D01*
X18394178Y3512879D01*
X18520066Y3208959D01*
X18702827Y2935437D01*
X18935437Y2702827D01*
X19208959Y2520066D01*
X19512879Y2394178D01*
X19835519Y2330000D01*
X20164481Y2330000D01*
X20487121Y2394178D01*
X20791041Y2520066D01*
X20994499Y2656012D01*
X24221697Y2656012D01*
X24365688Y2446423D01*
X24680964Y2352527D01*
X25008500Y2321942D01*
X25335710Y2355843D01*
X25634312Y2446423D01*
X25778303Y2656012D01*
X25000000Y3434315D01*
X24221697Y2656012D01*
X20994499Y2656012D01*
X21064563Y2702827D01*
X21297173Y2935437D01*
X21479934Y3208959D01*
X21605822Y3512879D01*
X21670000Y3835519D01*
X21670000Y3991500D01*
X23321942Y3991500D01*
X23355843Y3664290D01*
X23446423Y3365688D01*
X23656012Y3221697D01*
X24434315Y4000000D01*
X25565685Y4000000D01*
X26343988Y3221697D01*
X26553577Y3365688D01*
X26647473Y3680964D01*
X26678058Y4008500D01*
X26644157Y4335710D01*
X26553577Y4634312D01*
X26343988Y4778303D01*
X25565685Y4000000D01*
X24434315Y4000000D01*
X23656012Y4778303D01*
X23446423Y4634312D01*
X23352527Y4319036D01*
X23321942Y3991500D01*
X21670000Y3991500D01*
X21670000Y4164481D01*
X21605822Y4487121D01*
X21479934Y4791041D01*
X21297173Y5064563D01*
X21064563Y5297173D01*
X20994500Y5343988D01*
X24221697Y5343988D01*
X25000000Y4565685D01*
X25778303Y5343988D01*
X25634312Y5553577D01*
X25319036Y5647473D01*
X24991500Y5678058D01*
X24664290Y5644157D01*
X24365688Y5553577D01*
X24221697Y5343988D01*
X20994500Y5343988D01*
X20791041Y5479934D01*
X20487121Y5605822D01*
X20164481Y5670000D01*
X19835519Y5670000D01*
X19512879Y5605822D01*
X19208959Y5479934D01*
X18935437Y5297173D01*
X18702827Y5064563D01*
X18520066Y4791041D01*
X18394178Y4487121D01*
X18330000Y4164481D01*
X16670000Y4164481D01*
X16605822Y4487121D01*
X16479934Y4791041D01*
X16297173Y5064563D01*
X16064563Y5297173D01*
X15791041Y5479934D01*
X15487121Y5605822D01*
X15164481Y5670000D01*
X14835519Y5670000D01*
X14512879Y5605822D01*
X14208959Y5479934D01*
X13935437Y5297173D01*
X13702827Y5064563D01*
X13520066Y4791041D01*
X13394178Y4487121D01*
X13330000Y4164481D01*
X9727842Y4164481D01*
X9800000Y4527241D01*
X9800000Y5472759D01*
X9615539Y6400108D01*
X9253705Y7273653D01*
X8728403Y8059822D01*
X8591242Y8196983D01*
X30920000Y8196983D01*
X30920000Y7803017D01*
X30996859Y7416622D01*
X31147623Y7052645D01*
X31366499Y6725074D01*
X31645074Y6446499D01*
X31972645Y6227623D01*
X32336622Y6076859D01*
X32723017Y6000000D01*
X33116983Y6000000D01*
X33503378Y6076859D01*
X33867355Y6227623D01*
X34194926Y6446499D01*
X34473501Y6725074D01*
X34692377Y7052645D01*
X34843141Y7416622D01*
X34854753Y7475000D01*
X36000000Y7475000D01*
X36000000Y6450755D01*
X36019215Y6354156D01*
X36056906Y6263161D01*
X36111624Y6181269D01*
X36181268Y6111625D01*
X36263161Y6056906D01*
X36354155Y6019215D01*
X36450754Y6000000D01*
X37475000Y6000000D01*
X37600000Y6125000D01*
X37600000Y7600000D01*
X38400000Y7600000D01*
X38400000Y6125000D01*
X38525000Y6000000D01*
X39549246Y6000000D01*
X39645845Y6019215D01*
X39736839Y6056906D01*
X39818732Y6111625D01*
X39888376Y6181269D01*
X39943094Y6263161D01*
X39980785Y6354156D01*
X40000000Y6450755D01*
X40000000Y7475000D01*
X49000000Y7475000D01*
X49000000Y6450755D01*
X49019215Y6354156D01*
X49056906Y6263161D01*
X49111624Y6181269D01*
X49181268Y6111625D01*
X49263161Y6056906D01*
X49354155Y6019215D01*
X49450754Y6000000D01*
X50475000Y6000000D01*
X50600000Y6125000D01*
X50600000Y7600000D01*
X51400000Y7600000D01*
X51400000Y6125000D01*
X51525000Y6000000D01*
X52549246Y6000000D01*
X52645845Y6019215D01*
X52736839Y6056906D01*
X52818732Y6111625D01*
X52888376Y6181269D01*
X52943094Y6263161D01*
X52980785Y6354156D01*
X53000000Y6450755D01*
X53000000Y7475000D01*
X52875000Y7600000D01*
X51400000Y7600000D01*
X50600000Y7600000D01*
X49125000Y7600000D01*
X49000000Y7475000D01*
X40000000Y7475000D01*
X39875000Y7600000D01*
X38400000Y7600000D01*
X37600000Y7600000D01*
X36125000Y7600000D01*
X36000000Y7475000D01*
X34854753Y7475000D01*
X34920000Y7803017D01*
X34920000Y8196983D01*
X34843141Y8583378D01*
X34692377Y8947355D01*
X34473501Y9274926D01*
X34199182Y9549245D01*
X36000000Y9549245D01*
X36000000Y8525000D01*
X36125000Y8400000D01*
X37600000Y8400000D01*
X37600000Y9875000D01*
X38400000Y9875000D01*
X38400000Y8400000D01*
X39875000Y8400000D01*
X40000000Y8525000D01*
X40000000Y9549245D01*
X49000000Y9549245D01*
X49000000Y8525000D01*
X49125000Y8400000D01*
X50600000Y8400000D01*
X50600000Y9875000D01*
X51400000Y9875000D01*
X51400000Y8400000D01*
X52875000Y8400000D01*
X53000000Y8525000D01*
X53000000Y9549245D01*
X52980785Y9645844D01*
X52943094Y9736839D01*
X52888376Y9818731D01*
X52818732Y9888375D01*
X52736839Y9943094D01*
X52645845Y9980785D01*
X52549246Y10000000D01*
X51525000Y10000000D01*
X51400000Y9875000D01*
X50600000Y9875000D01*
X50475000Y10000000D01*
X49450754Y10000000D01*
X49354155Y9980785D01*
X49263161Y9943094D01*
X49181268Y9888375D01*
X49111624Y9818731D01*
X49056906Y9736839D01*
X49019215Y9645844D01*
X49000000Y9549245D01*
X40000000Y9549245D01*
X39980785Y9645844D01*
X39943094Y9736839D01*
X39888376Y9818731D01*
X39818732Y9888375D01*
X39736839Y9943094D01*
X39645845Y9980785D01*
X39549246Y10000000D01*
X38525000Y10000000D01*
X38400000Y9875000D01*
X37600000Y9875000D01*
X37475000Y10000000D01*
X36450754Y10000000D01*
X36354155Y9980785D01*
X36263161Y9943094D01*
X36181268Y9888375D01*
X36111624Y9818731D01*
X36056906Y9736839D01*
X36019215Y9645844D01*
X36000000Y9549245D01*
X34199182Y9549245D01*
X34194926Y9553501D01*
X33867355Y9772377D01*
X33503378Y9923141D01*
X33116983Y10000000D01*
X32723017Y10000000D01*
X32336622Y9923141D01*
X31972645Y9772377D01*
X31645074Y9553501D01*
X31366499Y9274926D01*
X31147623Y8947355D01*
X30996859Y8583378D01*
X30920000Y8196983D01*
X8591242Y8196983D01*
X8059822Y8728403D01*
X7273653Y9253705D01*
X6400108Y9615539D01*
X5472759Y9800000D01*
X4527241Y9800000D01*
X3599892Y9615539D01*
X2726347Y9253705D01*
X1940178Y8728403D01*
X1271597Y8059822D01*
X746295Y7273653D01*
X575000Y6860110D01*
X575000Y16800000D01*
X13697581Y16800000D01*
X13697581Y15200000D01*
X13707235Y15101983D01*
X13735825Y15007733D01*
X13782254Y14920871D01*
X13844736Y14844736D01*
X13920871Y14782254D01*
X14007733Y14735825D01*
X14101983Y14707235D01*
X14200000Y14697581D01*
X14494152Y14697581D01*
X14384219Y14652045D01*
X14171298Y14509776D01*
X13990224Y14328702D01*
X13847955Y14115781D01*
X13749958Y13879196D01*
X13700000Y13628039D01*
X13700000Y13371961D01*
X13749958Y13120804D01*
X13847955Y12884219D01*
X13990224Y12671298D01*
X14171298Y12490224D01*
X14384219Y12347955D01*
X14620804Y12249958D01*
X14871961Y12200000D01*
X15128039Y12200000D01*
X15379196Y12249958D01*
X15615781Y12347955D01*
X15828702Y12490224D01*
X16009776Y12671298D01*
X16152045Y12884219D01*
X16250042Y13120804D01*
X16300000Y13371961D01*
X16300000Y13628039D01*
X16250042Y13879196D01*
X16152045Y14115781D01*
X16009776Y14328702D01*
X15828702Y14509776D01*
X15615781Y14652045D01*
X15505848Y14697581D01*
X15800000Y14697581D01*
X15898017Y14707235D01*
X15992267Y14735825D01*
X16079129Y14782254D01*
X16155264Y14844736D01*
X16217746Y14920871D01*
X16264175Y15007733D01*
X16292765Y15101983D01*
X16302419Y15200000D01*
X16302419Y16800000D01*
X16292765Y16898017D01*
X16264175Y16992267D01*
X16217746Y17079129D01*
X16155264Y17155264D01*
X16079129Y17217746D01*
X15992267Y17264175D01*
X15898017Y17292765D01*
X15800000Y17302419D01*
X14200000Y17302419D01*
X14101983Y17292765D01*
X14007733Y17264175D01*
X13920871Y17217746D01*
X13844736Y17155264D01*
X13782254Y17079129D01*
X13735825Y16992267D01*
X13707235Y16898017D01*
X13697581Y16800000D01*
X575000Y16800000D01*
X575000Y21099279D01*
X11992000Y21099279D01*
X11992000Y20900721D01*
X12030737Y20705977D01*
X12106722Y20522533D01*
X12217035Y20357438D01*
X12357438Y20217035D01*
X12522533Y20106722D01*
X12705977Y20030737D01*
X12900721Y19992000D01*
X13099279Y19992000D01*
X13294023Y20030737D01*
X13477467Y20106722D01*
X13642562Y20217035D01*
X13671527Y20246000D01*
X13687684Y20246000D01*
X18440651Y15493032D01*
X18464262Y15464262D01*
X18493032Y15440651D01*
X18579073Y15370039D01*
X18710060Y15300025D01*
X18852190Y15256910D01*
X19000000Y15242352D01*
X19037039Y15246000D01*
X19697581Y15246000D01*
X19697581Y15200000D01*
X19707235Y15101983D01*
X19735825Y15007733D01*
X19782254Y14920871D01*
X19844736Y14844736D01*
X19920871Y14782254D01*
X20007733Y14735825D01*
X20101983Y14707235D01*
X20200000Y14697581D01*
X20494152Y14697581D01*
X20384219Y14652045D01*
X20171298Y14509776D01*
X19990224Y14328702D01*
X19847955Y14115781D01*
X19749958Y13879196D01*
X19700000Y13628039D01*
X19700000Y13371961D01*
X19749958Y13120804D01*
X19847955Y12884219D01*
X19990224Y12671298D01*
X20171298Y12490224D01*
X20384219Y12347955D01*
X20620804Y12249958D01*
X20871961Y12200000D01*
X21128039Y12200000D01*
X21379196Y12249958D01*
X21615781Y12347955D01*
X21828702Y12490224D01*
X22009776Y12671298D01*
X22152045Y12884219D01*
X22250042Y13120804D01*
X22300000Y13371961D01*
X22300000Y13628039D01*
X22250042Y13879196D01*
X22152045Y14115781D01*
X22009776Y14328702D01*
X21828702Y14509776D01*
X21615781Y14652045D01*
X21505848Y14697581D01*
X21800000Y14697581D01*
X21898017Y14707235D01*
X21992267Y14735825D01*
X22079129Y14782254D01*
X22155264Y14844736D01*
X22217746Y14920871D01*
X22264175Y15007733D01*
X22292765Y15101983D01*
X22302419Y15200000D01*
X22302419Y16800000D01*
X22292765Y16898017D01*
X22264175Y16992267D01*
X22217746Y17079129D01*
X22155264Y17155264D01*
X22079129Y17217746D01*
X21992267Y17264175D01*
X21898017Y17292765D01*
X21800000Y17302419D01*
X20200000Y17302419D01*
X20101983Y17292765D01*
X20007733Y17264175D01*
X19920871Y17217746D01*
X19844736Y17155264D01*
X19782254Y17079129D01*
X19735825Y16992267D01*
X19707235Y16898017D01*
X19697581Y16800000D01*
X19697581Y16754000D01*
X19312317Y16754000D01*
X14559353Y21506963D01*
X14535738Y21535738D01*
X14420927Y21629961D01*
X14289939Y21699975D01*
X14147810Y21743090D01*
X14037039Y21754000D01*
X14037031Y21754000D01*
X14000000Y21757647D01*
X13962969Y21754000D01*
X13671527Y21754000D01*
X13642562Y21782965D01*
X13477467Y21893278D01*
X13294023Y21969263D01*
X13099279Y22008000D01*
X12900721Y22008000D01*
X12705977Y21969263D01*
X12522533Y21893278D01*
X12357438Y21782965D01*
X12217035Y21642562D01*
X12106722Y21477467D01*
X12030737Y21294023D01*
X11992000Y21099279D01*
X575000Y21099279D01*
X575000Y22099279D01*
X14992000Y22099279D01*
X14992000Y21900721D01*
X15030737Y21705977D01*
X15106722Y21522533D01*
X15217035Y21357438D01*
X15357438Y21217035D01*
X15522533Y21106722D01*
X15705977Y21030737D01*
X15900721Y20992000D01*
X15941684Y20992000D01*
X18440651Y18493032D01*
X18464262Y18464262D01*
X18493032Y18440651D01*
X18579073Y18370039D01*
X18710060Y18300025D01*
X18852190Y18256910D01*
X19000000Y18242352D01*
X19037039Y18246000D01*
X23150290Y18246000D01*
X23150291Y13132751D01*
X23146643Y13095710D01*
X23161200Y12947901D01*
X23204316Y12805771D01*
X23259129Y12703223D01*
X23274330Y12674783D01*
X23368553Y12559972D01*
X23397323Y12536361D01*
X25440651Y10493032D01*
X25464262Y10464262D01*
X25493032Y10440651D01*
X25579073Y10370039D01*
X25710061Y10300025D01*
X25852190Y10256910D01*
X26000000Y10242352D01*
X26037039Y10246000D01*
X29962969Y10246000D01*
X30000000Y10242353D01*
X30037031Y10246000D01*
X30037039Y10246000D01*
X30147810Y10256910D01*
X30289939Y10300025D01*
X30420927Y10370039D01*
X30535738Y10464262D01*
X30559353Y10493037D01*
X33312317Y13246000D01*
X41697581Y13246000D01*
X41697581Y13200000D01*
X41707235Y13101983D01*
X41735825Y13007733D01*
X41782254Y12920871D01*
X41844736Y12844736D01*
X41920871Y12782254D01*
X42007733Y12735825D01*
X42101983Y12707235D01*
X42200000Y12697581D01*
X43800000Y12697581D01*
X43898017Y12707235D01*
X43992267Y12735825D01*
X44079129Y12782254D01*
X44155264Y12844736D01*
X44217746Y12920871D01*
X44223269Y12931204D01*
X44996889Y12931204D01*
X45092672Y12758840D01*
X45342637Y12703223D01*
X45598649Y12697441D01*
X45850871Y12741715D01*
X45907328Y12758840D01*
X46003111Y12931204D01*
X45500000Y13434315D01*
X44996889Y12931204D01*
X44223269Y12931204D01*
X44264175Y13007733D01*
X44292765Y13101983D01*
X44302419Y13200000D01*
X44302419Y13568455D01*
X44431204Y13496889D01*
X44934315Y14000000D01*
X46065685Y14000000D01*
X46568796Y13496889D01*
X46741160Y13592672D01*
X46796777Y13842637D01*
X46802559Y14098649D01*
X46758285Y14350871D01*
X46741160Y14407328D01*
X46568796Y14503111D01*
X46065685Y14000000D01*
X44934315Y14000000D01*
X44431204Y14503111D01*
X44302419Y14431545D01*
X44302419Y14800000D01*
X44292765Y14898017D01*
X44264175Y14992267D01*
X44223270Y15068796D01*
X44996889Y15068796D01*
X45500000Y14565685D01*
X46003111Y15068796D01*
X45907328Y15241160D01*
X45657363Y15296777D01*
X45401351Y15302559D01*
X45149129Y15258285D01*
X45092672Y15241160D01*
X44996889Y15068796D01*
X44223270Y15068796D01*
X44217746Y15079129D01*
X44155264Y15155264D01*
X44079129Y15217746D01*
X43992267Y15264175D01*
X43898017Y15292765D01*
X43800000Y15302419D01*
X42200000Y15302419D01*
X42101983Y15292765D01*
X42007733Y15264175D01*
X41920871Y15217746D01*
X41844736Y15155264D01*
X41782254Y15079129D01*
X41735825Y14992267D01*
X41707235Y14898017D01*
X41697581Y14800000D01*
X41697581Y14754000D01*
X33037039Y14754000D01*
X33000000Y14757648D01*
X32852190Y14743090D01*
X32710060Y14699975D01*
X32579073Y14629961D01*
X32500753Y14565685D01*
X32464262Y14535738D01*
X32440651Y14506968D01*
X29687684Y11754000D01*
X26312317Y11754000D01*
X24658290Y13408026D01*
X24658290Y16800000D01*
X25697581Y16800000D01*
X25697581Y15200000D01*
X25707235Y15101983D01*
X25735825Y15007733D01*
X25782254Y14920871D01*
X25844736Y14844736D01*
X25920871Y14782254D01*
X26007733Y14735825D01*
X26101983Y14707235D01*
X26200000Y14697581D01*
X26494152Y14697581D01*
X26384219Y14652045D01*
X26171298Y14509776D01*
X25990224Y14328702D01*
X25847955Y14115781D01*
X25749958Y13879196D01*
X25700000Y13628039D01*
X25700000Y13371961D01*
X25749958Y13120804D01*
X25847955Y12884219D01*
X25990224Y12671298D01*
X26171298Y12490224D01*
X26384219Y12347955D01*
X26620804Y12249958D01*
X26871961Y12200000D01*
X27128039Y12200000D01*
X27379196Y12249958D01*
X27615781Y12347955D01*
X27828702Y12490224D01*
X28009776Y12671298D01*
X28152045Y12884219D01*
X28250042Y13120804D01*
X28300000Y13371961D01*
X28300000Y13628039D01*
X28250042Y13879196D01*
X28152045Y14115781D01*
X28009776Y14328702D01*
X27828702Y14509776D01*
X27615781Y14652045D01*
X27505848Y14697581D01*
X27800000Y14697581D01*
X27898017Y14707235D01*
X27992267Y14735825D01*
X28079129Y14782254D01*
X28155264Y14844736D01*
X28217746Y14920871D01*
X28264175Y15007733D01*
X28292765Y15101983D01*
X28302419Y15200000D01*
X28302419Y16800000D01*
X28292765Y16898017D01*
X28264175Y16992267D01*
X28217746Y17079129D01*
X28155264Y17155264D01*
X28079129Y17217746D01*
X27992267Y17264175D01*
X27898017Y17292765D01*
X27800000Y17302419D01*
X26200000Y17302419D01*
X26101983Y17292765D01*
X26007733Y17264175D01*
X25920871Y17217746D01*
X25844736Y17155264D01*
X25782254Y17079129D01*
X25735825Y16992267D01*
X25707235Y16898017D01*
X25697581Y16800000D01*
X24658290Y16800000D01*
X24658290Y17622581D01*
X24975000Y17622581D01*
X25121790Y17637039D01*
X25262938Y17679855D01*
X25393022Y17749386D01*
X25507041Y17842959D01*
X25600614Y17956978D01*
X25670145Y18087062D01*
X25712961Y18228210D01*
X25727419Y18375000D01*
X25727419Y19099279D01*
X25992000Y19099279D01*
X25992000Y18900721D01*
X26030737Y18705977D01*
X26106722Y18522533D01*
X26217035Y18357438D01*
X26280568Y18293905D01*
X26287039Y18228210D01*
X26329855Y18087062D01*
X26399386Y17956978D01*
X26492959Y17842959D01*
X26606978Y17749386D01*
X26737062Y17679855D01*
X26878210Y17637039D01*
X27025000Y17622581D01*
X27775000Y17622581D01*
X27921790Y17637039D01*
X28062938Y17679855D01*
X28193022Y17749386D01*
X28307041Y17842959D01*
X28400614Y17956978D01*
X28470145Y18087062D01*
X28512961Y18228210D01*
X28527419Y18375000D01*
X28527419Y19625000D01*
X28512961Y19771790D01*
X28470145Y19912938D01*
X28400614Y20043022D01*
X28307041Y20157041D01*
X28193022Y20250614D01*
X28062938Y20320145D01*
X27921790Y20362961D01*
X27775000Y20377419D01*
X27025000Y20377419D01*
X26878210Y20362961D01*
X26737062Y20320145D01*
X26606978Y20250614D01*
X26492959Y20157041D01*
X26399386Y20043022D01*
X26329855Y19912938D01*
X26287039Y19771790D01*
X26280568Y19706095D01*
X26217035Y19642562D01*
X26106722Y19477467D01*
X26030737Y19294023D01*
X25992000Y19099279D01*
X25727419Y19099279D01*
X25727419Y19625000D01*
X25712961Y19771790D01*
X25670145Y19912938D01*
X25600614Y20043022D01*
X25507041Y20157041D01*
X25393022Y20250614D01*
X25262938Y20320145D01*
X25121790Y20362961D01*
X24975000Y20377419D01*
X24225000Y20377419D01*
X24078210Y20362961D01*
X23937062Y20320145D01*
X23806978Y20250614D01*
X23692959Y20157041D01*
X23599386Y20043022D01*
X23529855Y19912938D01*
X23487039Y19771790D01*
X23485287Y19754000D01*
X19312317Y19754000D01*
X18366317Y20700000D01*
X29697581Y20700000D01*
X29697581Y18300000D01*
X29707235Y18201983D01*
X29735825Y18107733D01*
X29782254Y18020871D01*
X29844736Y17944736D01*
X29920871Y17882254D01*
X30007733Y17835825D01*
X30101983Y17807235D01*
X30138937Y17803595D01*
X30176474Y17679855D01*
X30182125Y17661226D01*
X30263932Y17508175D01*
X30301021Y17462983D01*
X30374025Y17374025D01*
X30407645Y17346434D01*
X32346439Y15407639D01*
X32374025Y15374025D01*
X32407637Y15346441D01*
X32508174Y15263932D01*
X32541723Y15246000D01*
X32661225Y15182125D01*
X32827294Y15131748D01*
X32956727Y15119000D01*
X32956729Y15119000D01*
X32999999Y15114738D01*
X33043269Y15119000D01*
X38956730Y15119000D01*
X39000000Y15114738D01*
X39043270Y15119000D01*
X39043273Y15119000D01*
X39172706Y15131748D01*
X39338775Y15182125D01*
X39491825Y15263932D01*
X39625975Y15374025D01*
X39653566Y15407645D01*
X41592361Y17346439D01*
X41625975Y17374025D01*
X41680137Y17440022D01*
X41736068Y17508174D01*
X41804947Y17637039D01*
X41817875Y17661225D01*
X41868252Y17827294D01*
X41881000Y17956727D01*
X41881000Y17956729D01*
X41885262Y17999999D01*
X41881000Y18043269D01*
X41881000Y18814975D01*
X41920871Y18782254D01*
X42007733Y18735825D01*
X42101983Y18707235D01*
X42200000Y18697581D01*
X43800000Y18697581D01*
X43898017Y18707235D01*
X43992267Y18735825D01*
X44079129Y18782254D01*
X44155264Y18844736D01*
X44217746Y18920871D01*
X44223269Y18931204D01*
X44996889Y18931204D01*
X45092672Y18758840D01*
X45342637Y18703223D01*
X45598649Y18697441D01*
X45850871Y18741715D01*
X45907328Y18758840D01*
X46003111Y18931204D01*
X45500000Y19434315D01*
X44996889Y18931204D01*
X44223269Y18931204D01*
X44264175Y19007733D01*
X44292765Y19101983D01*
X44302419Y19200000D01*
X44302419Y19568455D01*
X44431204Y19496889D01*
X44934315Y20000000D01*
X46065685Y20000000D01*
X46568796Y19496889D01*
X46741160Y19592672D01*
X46796777Y19842637D01*
X46802559Y20098649D01*
X46758285Y20350871D01*
X46741160Y20407328D01*
X46568796Y20503111D01*
X46065685Y20000000D01*
X44934315Y20000000D01*
X44431204Y20503111D01*
X44302419Y20431545D01*
X44302419Y20800000D01*
X44292765Y20898017D01*
X44264175Y20992267D01*
X44223270Y21068796D01*
X44996889Y21068796D01*
X45500000Y20565685D01*
X46003111Y21068796D01*
X45907328Y21241160D01*
X45657363Y21296777D01*
X45401351Y21302559D01*
X45149129Y21258285D01*
X45092672Y21241160D01*
X44996889Y21068796D01*
X44223270Y21068796D01*
X44217746Y21079129D01*
X44155264Y21155264D01*
X44079129Y21217746D01*
X43992267Y21264175D01*
X43898017Y21292765D01*
X43800000Y21302419D01*
X42200000Y21302419D01*
X42101983Y21292765D01*
X42007733Y21264175D01*
X41920871Y21217746D01*
X41844736Y21155264D01*
X41782254Y21079129D01*
X41735825Y20992267D01*
X41707235Y20898017D01*
X41697581Y20800000D01*
X41697581Y20727946D01*
X41642562Y20782965D01*
X41477467Y20893278D01*
X41294023Y20969263D01*
X41099279Y21008000D01*
X40900721Y21008000D01*
X40705977Y20969263D01*
X40522533Y20893278D01*
X40357438Y20782965D01*
X40217035Y20642562D01*
X40106722Y20477467D01*
X40030737Y20294023D01*
X39992000Y20099279D01*
X39992000Y19900721D01*
X40030737Y19705977D01*
X40106722Y19522533D01*
X40119000Y19504157D01*
X40119001Y18364923D01*
X38635079Y16881000D01*
X33364922Y16881000D01*
X32220290Y18025631D01*
X32264175Y18107733D01*
X32292765Y18201983D01*
X32302419Y18300000D01*
X32302419Y18701395D01*
X32333145Y18600104D01*
X32453860Y18374264D01*
X32616314Y18176313D01*
X32814265Y18013860D01*
X33040105Y17893145D01*
X33285156Y17818810D01*
X33540000Y17793710D01*
X33794845Y17818810D01*
X34039896Y17893145D01*
X34265736Y18013860D01*
X34463687Y18176313D01*
X34626140Y18374264D01*
X34746855Y18600104D01*
X34810000Y18808266D01*
X34873145Y18600104D01*
X34993860Y18374264D01*
X35156314Y18176313D01*
X35354265Y18013860D01*
X35580105Y17893145D01*
X35825156Y17818810D01*
X36080000Y17793710D01*
X36334845Y17818810D01*
X36579896Y17893145D01*
X36805736Y18013860D01*
X37003687Y18176313D01*
X37166140Y18374264D01*
X37286855Y18600104D01*
X37354873Y18824330D01*
X37400351Y18650048D01*
X37511567Y18420752D01*
X37665380Y18217559D01*
X37855878Y18048278D01*
X38031426Y17940870D01*
X38220000Y17995181D01*
X38220000Y19100000D01*
X39020000Y19100000D01*
X39020000Y17995181D01*
X39208574Y17940870D01*
X39384122Y18048278D01*
X39574620Y18217559D01*
X39728433Y18420752D01*
X39839649Y18650048D01*
X39903995Y18896635D01*
X39795000Y19100000D01*
X39020000Y19100000D01*
X38220000Y19100000D01*
X38200000Y19100000D01*
X38200000Y19900000D01*
X38220000Y19900000D01*
X38220000Y21004819D01*
X39020000Y21004819D01*
X39020000Y19900000D01*
X39795000Y19900000D01*
X39903995Y20103365D01*
X39839649Y20349952D01*
X39728433Y20579248D01*
X39574620Y20782441D01*
X39384122Y20951722D01*
X39208574Y21059130D01*
X39020000Y21004819D01*
X38220000Y21004819D01*
X38031426Y21059130D01*
X37855878Y20951722D01*
X37665380Y20782441D01*
X37511567Y20579248D01*
X37400351Y20349952D01*
X37354873Y20175670D01*
X37286855Y20399896D01*
X37166140Y20625736D01*
X37003687Y20823687D01*
X36805735Y20986140D01*
X36579895Y21106855D01*
X36334844Y21181190D01*
X36080000Y21206290D01*
X35825155Y21181190D01*
X35580104Y21106855D01*
X35354264Y20986140D01*
X35156313Y20823687D01*
X34993860Y20625735D01*
X34873145Y20399895D01*
X34810000Y20191733D01*
X34746855Y20399896D01*
X34626140Y20625736D01*
X34463687Y20823687D01*
X34265735Y20986140D01*
X34039895Y21106855D01*
X33794844Y21181190D01*
X33540000Y21206290D01*
X33285155Y21181190D01*
X33040104Y21106855D01*
X32814264Y20986140D01*
X32616313Y20823687D01*
X32453860Y20625735D01*
X32333145Y20399895D01*
X32302419Y20298604D01*
X32302419Y20700000D01*
X32292765Y20798017D01*
X32264175Y20892267D01*
X32217746Y20979129D01*
X32155264Y21055264D01*
X32079129Y21117746D01*
X31992267Y21164175D01*
X31898017Y21192765D01*
X31800000Y21202419D01*
X30200000Y21202419D01*
X30101983Y21192765D01*
X30007733Y21164175D01*
X29920871Y21117746D01*
X29844736Y21055264D01*
X29782254Y20979129D01*
X29735825Y20892267D01*
X29707235Y20798017D01*
X29697581Y20700000D01*
X18366317Y20700000D01*
X17008000Y22058316D01*
X17008000Y22099279D01*
X16969263Y22294023D01*
X16893278Y22477467D01*
X16782965Y22642562D01*
X16642562Y22782965D01*
X16477467Y22893278D01*
X16294023Y22969263D01*
X16099279Y23008000D01*
X15900721Y23008000D01*
X15705977Y22969263D01*
X15522533Y22893278D01*
X15357438Y22782965D01*
X15217035Y22642562D01*
X15106722Y22477467D01*
X15030737Y22294023D01*
X14992000Y22099279D01*
X575000Y22099279D01*
X575000Y23633967D01*
X4699652Y23633967D01*
X4847451Y23421324D01*
X5167974Y23324351D01*
X5501257Y23291774D01*
X5834490Y23324842D01*
X6152549Y23421324D01*
X6300348Y23633967D01*
X5500000Y24434315D01*
X4699652Y23633967D01*
X575000Y23633967D01*
X575000Y24998743D01*
X3791774Y24998743D01*
X3824842Y24665510D01*
X3921324Y24347451D01*
X4133967Y24199652D01*
X4934315Y25000000D01*
X6065685Y25000000D01*
X6866033Y24199652D01*
X7078676Y24347451D01*
X7175649Y24667974D01*
X7208226Y25001257D01*
X7175158Y25334490D01*
X7078676Y25652549D01*
X6866033Y25800348D01*
X6065685Y25000000D01*
X4934315Y25000000D01*
X4133967Y25800348D01*
X3921324Y25652549D01*
X3824351Y25332026D01*
X3791774Y24998743D01*
X575000Y24998743D01*
X575000Y26366033D01*
X4699652Y26366033D01*
X5500000Y25565685D01*
X6134315Y26200000D01*
X11297581Y26200000D01*
X11297581Y23800000D01*
X11307235Y23701983D01*
X11335825Y23607733D01*
X11382254Y23520871D01*
X11444736Y23444736D01*
X11520871Y23382254D01*
X11607733Y23335825D01*
X11701983Y23307235D01*
X11800000Y23297581D01*
X14200000Y23297581D01*
X14298017Y23307235D01*
X14392267Y23335825D01*
X14479129Y23382254D01*
X14555264Y23444736D01*
X14617746Y23520871D01*
X14664175Y23607733D01*
X14665166Y23611000D01*
X17424658Y23611000D01*
X18969586Y22066072D01*
X19013077Y22013077D01*
X19066071Y21969586D01*
X19066074Y21969583D01*
X19224578Y21839502D01*
X19224580Y21839501D01*
X19465881Y21710523D01*
X19727709Y21631098D01*
X19931770Y21611000D01*
X19931779Y21611000D01*
X19999999Y21604281D01*
X20068219Y21611000D01*
X48611001Y21611000D01*
X48611000Y18363942D01*
X48604281Y18295722D01*
X48611000Y18227502D01*
X48611000Y18227493D01*
X48631098Y18023432D01*
X48700784Y17793710D01*
X48710523Y17761604D01*
X48839502Y17520301D01*
X48959548Y17374025D01*
X49013077Y17308800D01*
X49066073Y17265307D01*
X54691001Y11640379D01*
X54691000Y9439427D01*
X54526499Y9274926D01*
X54307623Y8947355D01*
X54156859Y8583378D01*
X54080000Y8196983D01*
X54080000Y7803017D01*
X54156859Y7416622D01*
X54307623Y7052645D01*
X54526499Y6725074D01*
X54805074Y6446499D01*
X55132645Y6227623D01*
X55496622Y6076859D01*
X55883017Y6000000D01*
X56276983Y6000000D01*
X56663378Y6076859D01*
X57027355Y6227623D01*
X57354926Y6446499D01*
X57633501Y6725074D01*
X57852377Y7052645D01*
X58003141Y7416622D01*
X58080000Y7803017D01*
X58080000Y8196983D01*
X58003141Y8583378D01*
X57852377Y8947355D01*
X57633501Y9274926D01*
X57469000Y9439427D01*
X57469000Y12147503D01*
X57475719Y12215723D01*
X57469000Y12283943D01*
X57469000Y12283952D01*
X57448902Y12488013D01*
X57369477Y12749841D01*
X57240499Y12991142D01*
X57240498Y12991144D01*
X57134088Y13120804D01*
X57066923Y13202645D01*
X57013923Y13246141D01*
X51389000Y18871064D01*
X51389000Y22424658D01*
X52575343Y23611000D01*
X55334834Y23611000D01*
X55335825Y23607733D01*
X55382254Y23520871D01*
X55444736Y23444736D01*
X55520871Y23382254D01*
X55607733Y23335825D01*
X55701983Y23307235D01*
X55800000Y23297581D01*
X58200000Y23297581D01*
X58298017Y23307235D01*
X58392267Y23335825D01*
X58479129Y23382254D01*
X58555264Y23444736D01*
X58617746Y23520871D01*
X58664175Y23607733D01*
X58672132Y23633967D01*
X63699652Y23633967D01*
X63847451Y23421324D01*
X64167974Y23324351D01*
X64501257Y23291774D01*
X64834490Y23324842D01*
X65152549Y23421324D01*
X65300348Y23633967D01*
X64500000Y24434315D01*
X63699652Y23633967D01*
X58672132Y23633967D01*
X58692765Y23701983D01*
X58702419Y23800000D01*
X58702419Y24998743D01*
X62791774Y24998743D01*
X62824842Y24665510D01*
X62921324Y24347451D01*
X63133967Y24199652D01*
X63934315Y25000000D01*
X65065685Y25000000D01*
X65866033Y24199652D01*
X66078676Y24347451D01*
X66175649Y24667974D01*
X66208226Y25001257D01*
X66175158Y25334490D01*
X66078676Y25652549D01*
X65866033Y25800348D01*
X65065685Y25000000D01*
X63934315Y25000000D01*
X63133967Y25800348D01*
X62921324Y25652549D01*
X62824351Y25332026D01*
X62791774Y24998743D01*
X58702419Y24998743D01*
X58702419Y26200000D01*
X58692765Y26298017D01*
X58672133Y26366033D01*
X63699652Y26366033D01*
X64500000Y25565685D01*
X65300348Y26366033D01*
X65152549Y26578676D01*
X64832026Y26675649D01*
X64498743Y26708226D01*
X64165510Y26675158D01*
X63847451Y26578676D01*
X63699652Y26366033D01*
X58672133Y26366033D01*
X58664175Y26392267D01*
X58617746Y26479129D01*
X58555264Y26555264D01*
X58479129Y26617746D01*
X58392267Y26664175D01*
X58298017Y26692765D01*
X58200000Y26702419D01*
X57754000Y26702419D01*
X57754000Y34622581D01*
X57975000Y34622581D01*
X58121790Y34637039D01*
X58262938Y34679855D01*
X58393022Y34749386D01*
X58507041Y34842959D01*
X58600614Y34956978D01*
X58670145Y35087062D01*
X58712961Y35228210D01*
X58727419Y35375000D01*
X58727419Y36625000D01*
X59272581Y36625000D01*
X59272581Y35375000D01*
X59287039Y35228210D01*
X59329855Y35087062D01*
X59399386Y34956978D01*
X59492959Y34842959D01*
X59606978Y34749386D01*
X59737062Y34679855D01*
X59878210Y34637039D01*
X60025000Y34622581D01*
X60775000Y34622581D01*
X60921790Y34637039D01*
X61062938Y34679855D01*
X61193022Y34749386D01*
X61307041Y34842959D01*
X61400614Y34956978D01*
X61470145Y35087062D01*
X61512961Y35228210D01*
X61514713Y35246000D01*
X62485287Y35246000D01*
X62487039Y35228210D01*
X62529855Y35087062D01*
X62599386Y34956978D01*
X62692959Y34842959D01*
X62806978Y34749386D01*
X62937062Y34679855D01*
X63078210Y34637039D01*
X63225000Y34622581D01*
X63975000Y34622581D01*
X64121790Y34637039D01*
X64262938Y34679855D01*
X64393022Y34749386D01*
X64507041Y34842959D01*
X64600614Y34956978D01*
X64670145Y35087062D01*
X64712961Y35228210D01*
X64727419Y35375000D01*
X64727419Y35475000D01*
X65275000Y35475000D01*
X65275000Y35075755D01*
X65294215Y34979156D01*
X65331906Y34888161D01*
X65386624Y34806269D01*
X65456268Y34736625D01*
X65538161Y34681906D01*
X65629155Y34644215D01*
X65725754Y34625000D01*
X65962500Y34625000D01*
X66087500Y34750000D01*
X66087500Y35600000D01*
X66712500Y35600000D01*
X66712500Y34750000D01*
X66837500Y34625000D01*
X67074246Y34625000D01*
X67170845Y34644215D01*
X67261839Y34681906D01*
X67343732Y34736625D01*
X67413376Y34806269D01*
X67468094Y34888161D01*
X67505785Y34979156D01*
X67525000Y35075755D01*
X67525000Y35475000D01*
X67400000Y35600000D01*
X66712500Y35600000D01*
X66087500Y35600000D01*
X65400000Y35600000D01*
X65275000Y35475000D01*
X64727419Y35475000D01*
X64727419Y36625000D01*
X64712961Y36771790D01*
X64670145Y36912938D01*
X64664102Y36924245D01*
X65275000Y36924245D01*
X65275000Y36525000D01*
X65400000Y36400000D01*
X66087500Y36400000D01*
X66087500Y37250000D01*
X66712500Y37250000D01*
X66712500Y36400000D01*
X67400000Y36400000D01*
X67525000Y36525000D01*
X67525000Y36924245D01*
X67505785Y37020844D01*
X67468094Y37111839D01*
X67413376Y37193731D01*
X67343732Y37263375D01*
X67261839Y37318094D01*
X67170845Y37355785D01*
X67074246Y37375000D01*
X66837500Y37375000D01*
X66712500Y37250000D01*
X66087500Y37250000D01*
X65962500Y37375000D01*
X65725754Y37375000D01*
X65629155Y37355785D01*
X65538161Y37318094D01*
X65456268Y37263375D01*
X65386624Y37193731D01*
X65331906Y37111839D01*
X65294215Y37020844D01*
X65275000Y36924245D01*
X64664102Y36924245D01*
X64600614Y37043022D01*
X64507041Y37157041D01*
X64393022Y37250614D01*
X64262938Y37320145D01*
X64121790Y37362961D01*
X63975000Y37377419D01*
X63225000Y37377419D01*
X63078210Y37362961D01*
X62937062Y37320145D01*
X62806978Y37250614D01*
X62692959Y37157041D01*
X62599386Y37043022D01*
X62529855Y36912938D01*
X62487039Y36771790D01*
X62485287Y36754000D01*
X61514713Y36754000D01*
X61512961Y36771790D01*
X61470145Y36912938D01*
X61400614Y37043022D01*
X61307041Y37157041D01*
X61193022Y37250614D01*
X61062938Y37320145D01*
X60921790Y37362961D01*
X60775000Y37377419D01*
X60025000Y37377419D01*
X59878210Y37362961D01*
X59737062Y37320145D01*
X59606978Y37250614D01*
X59492959Y37157041D01*
X59399386Y37043022D01*
X59329855Y36912938D01*
X59287039Y36771790D01*
X59272581Y36625000D01*
X58727419Y36625000D01*
X58712961Y36771790D01*
X58670145Y36912938D01*
X58600614Y37043022D01*
X58507041Y37157041D01*
X58393022Y37250614D01*
X58262938Y37320145D01*
X58121790Y37362961D01*
X57975000Y37377419D01*
X57225000Y37377419D01*
X57078210Y37362961D01*
X56937062Y37320145D01*
X56806978Y37250614D01*
X56692959Y37157041D01*
X56599386Y37043022D01*
X56529855Y36912938D01*
X56487039Y36771790D01*
X56472581Y36625000D01*
X56472581Y35942564D01*
X56464263Y35935738D01*
X56440652Y35906968D01*
X56440651Y35906967D01*
X56370039Y35820926D01*
X56300026Y35689939D01*
X56256910Y35547809D01*
X56242353Y35400000D01*
X56246001Y35362959D01*
X56246000Y26702419D01*
X55800000Y26702419D01*
X55701983Y26692765D01*
X55607733Y26664175D01*
X55520871Y26617746D01*
X55444736Y26555264D01*
X55382254Y26479129D01*
X55335825Y26392267D01*
X55334834Y26389000D01*
X54535000Y26389000D01*
X54535000Y41176168D01*
X54569690Y41218438D01*
X54699690Y41461651D01*
X54779743Y41725552D01*
X54806774Y42000000D01*
X54779743Y42274448D01*
X54699690Y42538349D01*
X54569690Y42781562D01*
X54394739Y42994739D01*
X54181562Y43169690D01*
X53938349Y43299690D01*
X53674448Y43379743D01*
X53468777Y43400000D01*
X53331223Y43400000D01*
X53125552Y43379743D01*
X52861651Y43299690D01*
X52618438Y43169690D01*
X52405261Y42994739D01*
X52230310Y42781562D01*
X52100310Y42538349D01*
X52020257Y42274448D01*
X51993226Y42000000D01*
X52020257Y41725552D01*
X52100310Y41461651D01*
X52230310Y41218438D01*
X52265000Y41176168D01*
X52265001Y26389000D01*
X52068219Y26389000D01*
X51999999Y26395719D01*
X51931779Y26389000D01*
X51931770Y26389000D01*
X51727709Y26368902D01*
X51465881Y26289477D01*
X51224578Y26160498D01*
X51066074Y26030417D01*
X51066071Y26030414D01*
X51013077Y25986923D01*
X50969586Y25933928D01*
X49424658Y24389000D01*
X29135000Y24389000D01*
X29135000Y26239000D01*
X29787413Y26239000D01*
X29793145Y26220104D01*
X29913860Y25994264D01*
X30076314Y25796313D01*
X30274265Y25633860D01*
X30500105Y25513145D01*
X30745156Y25438810D01*
X31000000Y25413710D01*
X31254845Y25438810D01*
X31499896Y25513145D01*
X31725736Y25633860D01*
X31923687Y25796313D01*
X32086140Y25994264D01*
X32206855Y26220104D01*
X32270000Y26428266D01*
X32333145Y26220104D01*
X32453860Y25994264D01*
X32616314Y25796313D01*
X32814265Y25633860D01*
X33040105Y25513145D01*
X33285156Y25438810D01*
X33540000Y25413710D01*
X33794845Y25438810D01*
X34039896Y25513145D01*
X34265736Y25633860D01*
X34463687Y25796313D01*
X34626140Y25994264D01*
X34746855Y26220104D01*
X34810000Y26428266D01*
X34873145Y26220104D01*
X34993860Y25994264D01*
X35156314Y25796313D01*
X35354265Y25633860D01*
X35580105Y25513145D01*
X35825156Y25438810D01*
X36080000Y25413710D01*
X36334845Y25438810D01*
X36579896Y25513145D01*
X36805736Y25633860D01*
X37003687Y25796313D01*
X37166140Y25994264D01*
X37286855Y26220104D01*
X37350000Y26428266D01*
X37413145Y26220104D01*
X37533860Y25994264D01*
X37696314Y25796313D01*
X37894265Y25633860D01*
X38120105Y25513145D01*
X38365156Y25438810D01*
X38620000Y25413710D01*
X38874845Y25438810D01*
X39119896Y25513145D01*
X39345736Y25633860D01*
X39543687Y25796313D01*
X39706140Y25994264D01*
X39826855Y26220104D01*
X39901190Y26465155D01*
X39920000Y26656137D01*
X39920000Y26800000D01*
X41697581Y26800000D01*
X41697581Y25200000D01*
X41707235Y25101983D01*
X41735825Y25007733D01*
X41782254Y24920871D01*
X41844736Y24844736D01*
X41920871Y24782254D01*
X42007733Y24735825D01*
X42101983Y24707235D01*
X42200000Y24697581D01*
X43800000Y24697581D01*
X43898017Y24707235D01*
X43992267Y24735825D01*
X44079129Y24782254D01*
X44155264Y24844736D01*
X44217746Y24920871D01*
X44223269Y24931204D01*
X44996889Y24931204D01*
X45092672Y24758840D01*
X45342637Y24703223D01*
X45598649Y24697441D01*
X45850871Y24741715D01*
X45907328Y24758840D01*
X46003111Y24931204D01*
X45500000Y25434315D01*
X44996889Y24931204D01*
X44223269Y24931204D01*
X44264175Y25007733D01*
X44292765Y25101983D01*
X44302419Y25200000D01*
X44302419Y25568455D01*
X44431204Y25496889D01*
X44934315Y26000000D01*
X46065685Y26000000D01*
X46568796Y25496889D01*
X46741160Y25592672D01*
X46796777Y25842637D01*
X46802559Y26098649D01*
X46758285Y26350871D01*
X46741160Y26407328D01*
X46568796Y26503111D01*
X46065685Y26000000D01*
X44934315Y26000000D01*
X44431204Y26503111D01*
X44302419Y26431545D01*
X44302419Y26800000D01*
X44292765Y26898017D01*
X44264175Y26992267D01*
X44223270Y27068796D01*
X44996889Y27068796D01*
X45500000Y26565685D01*
X46003111Y27068796D01*
X45907328Y27241160D01*
X45657363Y27296777D01*
X45401351Y27302559D01*
X45149129Y27258285D01*
X45092672Y27241160D01*
X44996889Y27068796D01*
X44223270Y27068796D01*
X44217746Y27079129D01*
X44155264Y27155264D01*
X44079129Y27217746D01*
X43992267Y27264175D01*
X43898017Y27292765D01*
X43800000Y27302419D01*
X42200000Y27302419D01*
X42101983Y27292765D01*
X42007733Y27264175D01*
X41920871Y27217746D01*
X41844736Y27155264D01*
X41782254Y27079129D01*
X41735825Y26992267D01*
X41707235Y26898017D01*
X41697581Y26800000D01*
X39920000Y26800000D01*
X39920000Y27583864D01*
X39901190Y27774845D01*
X39826855Y28019896D01*
X39706140Y28245736D01*
X39543687Y28443687D01*
X39345735Y28606140D01*
X39119895Y28726855D01*
X38874844Y28801190D01*
X38620000Y28826290D01*
X38365155Y28801190D01*
X38120104Y28726855D01*
X37894264Y28606140D01*
X37696313Y28443687D01*
X37533860Y28245735D01*
X37413145Y28019895D01*
X37350000Y27811733D01*
X37286855Y28019896D01*
X37166140Y28245736D01*
X37003687Y28443687D01*
X36805735Y28606140D01*
X36579895Y28726855D01*
X36334844Y28801190D01*
X36080000Y28826290D01*
X35825155Y28801190D01*
X35580104Y28726855D01*
X35354264Y28606140D01*
X35156313Y28443687D01*
X34993860Y28245735D01*
X34873145Y28019895D01*
X34810000Y27811733D01*
X34746855Y28019896D01*
X34626140Y28245736D01*
X34463687Y28443687D01*
X34265735Y28606140D01*
X34039895Y28726855D01*
X33794844Y28801190D01*
X33540000Y28826290D01*
X33285155Y28801190D01*
X33040104Y28726855D01*
X32814264Y28606140D01*
X32616313Y28443687D01*
X32453860Y28245735D01*
X32333145Y28019895D01*
X32270000Y27811733D01*
X32206855Y28019896D01*
X32086140Y28245736D01*
X31923687Y28443687D01*
X31725735Y28606140D01*
X31499895Y28726855D01*
X31254844Y28801190D01*
X31000000Y28826290D01*
X30745155Y28801190D01*
X30500104Y28726855D01*
X30274264Y28606140D01*
X30076313Y28443687D01*
X29913860Y28245735D01*
X29793145Y28019895D01*
X29787413Y28001000D01*
X29135000Y28001000D01*
X29135000Y32120160D01*
X31240000Y32120160D01*
X31240000Y31879840D01*
X31286884Y31644139D01*
X31378850Y31422113D01*
X31512364Y31222295D01*
X31682295Y31052364D01*
X31882113Y30918850D01*
X32104139Y30826884D01*
X32339840Y30780000D01*
X32580160Y30780000D01*
X32815861Y30826884D01*
X33037887Y30918850D01*
X33237705Y31052364D01*
X33407636Y31222295D01*
X33541150Y31422113D01*
X33633116Y31644139D01*
X33680000Y31879840D01*
X33680000Y32120160D01*
X33780000Y32120160D01*
X33780000Y31879840D01*
X33826884Y31644139D01*
X33918850Y31422113D01*
X34052364Y31222295D01*
X34222295Y31052364D01*
X34422113Y30918850D01*
X34644139Y30826884D01*
X34879840Y30780000D01*
X35120160Y30780000D01*
X35355861Y30826884D01*
X35577887Y30918850D01*
X35777705Y31052364D01*
X35947636Y31222295D01*
X36081150Y31422113D01*
X36173116Y31644139D01*
X36220000Y31879840D01*
X36220000Y32120160D01*
X36320000Y32120160D01*
X36320000Y31879840D01*
X36366884Y31644139D01*
X36458850Y31422113D01*
X36592364Y31222295D01*
X36762295Y31052364D01*
X36962113Y30918850D01*
X37184139Y30826884D01*
X37419840Y30780000D01*
X37660160Y30780000D01*
X37895861Y30826884D01*
X38117887Y30918850D01*
X38317705Y31052364D01*
X38487636Y31222295D01*
X38621150Y31422113D01*
X38713116Y31644139D01*
X38760000Y31879840D01*
X38760000Y32120160D01*
X38713116Y32355861D01*
X38621150Y32577887D01*
X38487636Y32777705D01*
X38317705Y32947636D01*
X38117887Y33081150D01*
X37895861Y33173116D01*
X37660160Y33220000D01*
X37419840Y33220000D01*
X37184139Y33173116D01*
X36962113Y33081150D01*
X36762295Y32947636D01*
X36592364Y32777705D01*
X36458850Y32577887D01*
X36366884Y32355861D01*
X36320000Y32120160D01*
X36220000Y32120160D01*
X36173116Y32355861D01*
X36081150Y32577887D01*
X35947636Y32777705D01*
X35777705Y32947636D01*
X35577887Y33081150D01*
X35355861Y33173116D01*
X35120160Y33220000D01*
X34879840Y33220000D01*
X34644139Y33173116D01*
X34422113Y33081150D01*
X34222295Y32947636D01*
X34052364Y32777705D01*
X33918850Y32577887D01*
X33826884Y32355861D01*
X33780000Y32120160D01*
X33680000Y32120160D01*
X33633116Y32355861D01*
X33541150Y32577887D01*
X33407636Y32777705D01*
X33237705Y32947636D01*
X33037887Y33081150D01*
X32815861Y33173116D01*
X32580160Y33220000D01*
X32339840Y33220000D01*
X32104139Y33173116D01*
X31882113Y33081150D01*
X31682295Y32947636D01*
X31512364Y32777705D01*
X31378850Y32577887D01*
X31286884Y32355861D01*
X31240000Y32120160D01*
X29135000Y32120160D01*
X29135000Y36099279D01*
X41992000Y36099279D01*
X41992000Y35900721D01*
X42030737Y35705977D01*
X42106722Y35522533D01*
X42217035Y35357438D01*
X42246000Y35328473D01*
X42246001Y34037041D01*
X42242353Y34000000D01*
X42256910Y33852191D01*
X42300026Y33710061D01*
X42370040Y33579073D01*
X42464263Y33464262D01*
X42493033Y33440651D01*
X43992000Y31941683D01*
X43992000Y31900721D01*
X44030737Y31705977D01*
X44106722Y31522533D01*
X44217035Y31357438D01*
X44357438Y31217035D01*
X44522533Y31106722D01*
X44705977Y31030737D01*
X44900721Y30992000D01*
X45099279Y30992000D01*
X45294023Y31030737D01*
X45477467Y31106722D01*
X45642562Y31217035D01*
X45782965Y31357438D01*
X45893278Y31522533D01*
X45969263Y31705977D01*
X46008000Y31900721D01*
X46008000Y32099279D01*
X45969263Y32294023D01*
X45893278Y32477467D01*
X45782965Y32642562D01*
X45642562Y32782965D01*
X45477467Y32893278D01*
X45294023Y32969263D01*
X45099279Y33008000D01*
X45058317Y33008000D01*
X43754000Y34312316D01*
X43754000Y35328473D01*
X43782965Y35357438D01*
X43893278Y35522533D01*
X43969263Y35705977D01*
X44008000Y35900721D01*
X44008000Y36099279D01*
X43969263Y36294023D01*
X43893278Y36477467D01*
X43782965Y36642562D01*
X43642562Y36782965D01*
X43477467Y36893278D01*
X43294023Y36969263D01*
X43099279Y37008000D01*
X42900721Y37008000D01*
X42705977Y36969263D01*
X42522533Y36893278D01*
X42357438Y36782965D01*
X42217035Y36642562D01*
X42106722Y36477467D01*
X42030737Y36294023D01*
X41992000Y36099279D01*
X29135000Y36099279D01*
X29135000Y37344259D01*
X29140490Y37400001D01*
X29135000Y37455743D01*
X29135000Y37455752D01*
X29118577Y37622499D01*
X29064733Y37800000D01*
X45697581Y37800000D01*
X45697581Y36200000D01*
X45707235Y36101983D01*
X45735825Y36007733D01*
X45782254Y35920871D01*
X45844736Y35844736D01*
X45920871Y35782254D01*
X46007733Y35735825D01*
X46101983Y35707235D01*
X46200000Y35697581D01*
X46494152Y35697581D01*
X46384219Y35652045D01*
X46171298Y35509776D01*
X45990224Y35328702D01*
X45847955Y35115781D01*
X45749958Y34879196D01*
X45700000Y34628039D01*
X45700000Y34371961D01*
X45749958Y34120804D01*
X45847955Y33884219D01*
X45990224Y33671298D01*
X46171298Y33490224D01*
X46384219Y33347955D01*
X46620804Y33249958D01*
X46871961Y33200000D01*
X47128039Y33200000D01*
X47379196Y33249958D01*
X47615781Y33347955D01*
X47828702Y33490224D01*
X48009776Y33671298D01*
X48152045Y33884219D01*
X48250042Y34120804D01*
X48300000Y34371961D01*
X48300000Y34628039D01*
X48250042Y34879196D01*
X48152045Y35115781D01*
X48009776Y35328702D01*
X47828702Y35509776D01*
X47615781Y35652045D01*
X47505848Y35697581D01*
X47800000Y35697581D01*
X47898017Y35707235D01*
X47992267Y35735825D01*
X48079129Y35782254D01*
X48155264Y35844736D01*
X48217746Y35920871D01*
X48264175Y36007733D01*
X48292765Y36101983D01*
X48302419Y36200000D01*
X48302419Y37800000D01*
X48292765Y37898017D01*
X48264175Y37992267D01*
X48217746Y38079129D01*
X48155264Y38155264D01*
X48079129Y38217746D01*
X47992267Y38264175D01*
X47898017Y38292765D01*
X47800000Y38302419D01*
X46200000Y38302419D01*
X46101983Y38292765D01*
X46007733Y38264175D01*
X45920871Y38217746D01*
X45844736Y38155264D01*
X45782254Y38079129D01*
X45735825Y37992267D01*
X45707235Y37898017D01*
X45697581Y37800000D01*
X29064733Y37800000D01*
X29053676Y37836447D01*
X28948284Y38033623D01*
X28806449Y38206449D01*
X28763141Y38241991D01*
X24785103Y42220028D01*
X24779743Y42274448D01*
X24699690Y42538349D01*
X24569690Y42781562D01*
X24394739Y42994739D01*
X24181562Y43169690D01*
X23938349Y43299690D01*
X23674448Y43379743D01*
X23468777Y43400000D01*
X23331223Y43400000D01*
X23125552Y43379743D01*
X22861651Y43299690D01*
X22618438Y43169690D01*
X22405261Y42994739D01*
X22230310Y42781562D01*
X22100310Y42538349D01*
X22020257Y42274448D01*
X21993226Y42000000D01*
X22020257Y41725552D01*
X22100310Y41461651D01*
X22230310Y41218438D01*
X22405261Y41005261D01*
X22618438Y40830310D01*
X22861651Y40700310D01*
X23125552Y40620257D01*
X23179972Y40614897D01*
X26865000Y36929868D01*
X26865001Y27055761D01*
X26865000Y27055751D01*
X26865001Y24389000D01*
X20575343Y24389000D01*
X19030419Y25933923D01*
X18986923Y25986923D01*
X18775420Y26160499D01*
X18534119Y26289477D01*
X18272291Y26368902D01*
X18068230Y26389000D01*
X18068220Y26389000D01*
X18000000Y26395719D01*
X17931780Y26389000D01*
X14665166Y26389000D01*
X14664175Y26392267D01*
X14617746Y26479129D01*
X14555264Y26555264D01*
X14479129Y26617746D01*
X14392267Y26664175D01*
X14298017Y26692765D01*
X14200000Y26702419D01*
X11800000Y26702419D01*
X11701983Y26692765D01*
X11607733Y26664175D01*
X11520871Y26617746D01*
X11444736Y26555264D01*
X11382254Y26479129D01*
X11335825Y26392267D01*
X11307235Y26298017D01*
X11297581Y26200000D01*
X6134315Y26200000D01*
X6300348Y26366033D01*
X6152549Y26578676D01*
X5832026Y26675649D01*
X5498743Y26708226D01*
X5165510Y26675158D01*
X4847451Y26578676D01*
X4699652Y26366033D01*
X575000Y26366033D01*
X575000Y30850000D01*
X18647581Y30850000D01*
X18647581Y29150000D01*
X18657235Y29051983D01*
X18685825Y28957733D01*
X18732254Y28870871D01*
X18794736Y28794736D01*
X18870871Y28732254D01*
X18957733Y28685825D01*
X19051983Y28657235D01*
X19150000Y28647581D01*
X20850000Y28647581D01*
X20948017Y28657235D01*
X21042267Y28685825D01*
X21129129Y28732254D01*
X21205264Y28794736D01*
X21267746Y28870871D01*
X21314175Y28957733D01*
X21342765Y29051983D01*
X21352419Y29150000D01*
X21352419Y29357978D01*
X21412085Y29246351D01*
X21580787Y29040787D01*
X21786351Y28872085D01*
X22020878Y28746728D01*
X22275354Y28669533D01*
X22473679Y28650000D01*
X22606321Y28650000D01*
X22804646Y28669533D01*
X23059122Y28746728D01*
X23293649Y28872085D01*
X23499213Y29040787D01*
X23667915Y29246351D01*
X23793272Y29480878D01*
X23810000Y29536022D01*
X23826728Y29480878D01*
X23952085Y29246351D01*
X24120787Y29040787D01*
X24326351Y28872085D01*
X24560878Y28746728D01*
X24815354Y28669533D01*
X25013679Y28650000D01*
X25146321Y28650000D01*
X25344646Y28669533D01*
X25599122Y28746728D01*
X25833649Y28872085D01*
X26039213Y29040787D01*
X26207915Y29246351D01*
X26333272Y29480878D01*
X26410467Y29735354D01*
X26436532Y30000000D01*
X26410467Y30264646D01*
X26333272Y30519122D01*
X26207915Y30753649D01*
X26039213Y30959213D01*
X25833649Y31127915D01*
X25599122Y31253272D01*
X25344646Y31330467D01*
X25146321Y31350000D01*
X25013679Y31350000D01*
X24815354Y31330467D01*
X24560878Y31253272D01*
X24326351Y31127915D01*
X24120787Y30959213D01*
X23952085Y30753649D01*
X23826728Y30519122D01*
X23810000Y30463978D01*
X23793272Y30519122D01*
X23667915Y30753649D01*
X23499213Y30959213D01*
X23293649Y31127915D01*
X23059122Y31253272D01*
X22804646Y31330467D01*
X22606321Y31350000D01*
X22473679Y31350000D01*
X22275354Y31330467D01*
X22020878Y31253272D01*
X21786351Y31127915D01*
X21580787Y30959213D01*
X21412085Y30753649D01*
X21352419Y30642022D01*
X21352419Y30850000D01*
X21342765Y30948017D01*
X21314175Y31042267D01*
X21267746Y31129129D01*
X21205264Y31205264D01*
X21129129Y31267746D01*
X21042267Y31314175D01*
X20948017Y31342765D01*
X20850000Y31352419D01*
X19150000Y31352419D01*
X19051983Y31342765D01*
X18957733Y31314175D01*
X18870871Y31267746D01*
X18794736Y31205264D01*
X18732254Y31129129D01*
X18685825Y31042267D01*
X18657235Y30948017D01*
X18647581Y30850000D01*
X575000Y30850000D01*
X575000Y37800000D01*
X15697581Y37800000D01*
X15697581Y36200000D01*
X15707235Y36101983D01*
X15735825Y36007733D01*
X15782254Y35920871D01*
X15844736Y35844736D01*
X15920871Y35782254D01*
X16007733Y35735825D01*
X16101983Y35707235D01*
X16200000Y35697581D01*
X16494152Y35697581D01*
X16384219Y35652045D01*
X16171298Y35509776D01*
X15990224Y35328702D01*
X15847955Y35115781D01*
X15749958Y34879196D01*
X15700000Y34628039D01*
X15700000Y34371961D01*
X15749958Y34120804D01*
X15847955Y33884219D01*
X15990224Y33671298D01*
X16171298Y33490224D01*
X16384219Y33347955D01*
X16620804Y33249958D01*
X16871961Y33200000D01*
X17128039Y33200000D01*
X17379196Y33249958D01*
X17615781Y33347955D01*
X17828702Y33490224D01*
X18009776Y33671298D01*
X18152045Y33884219D01*
X18250042Y34120804D01*
X18300000Y34371961D01*
X18300000Y34628039D01*
X18250042Y34879196D01*
X18152045Y35115781D01*
X18009776Y35328702D01*
X17828702Y35509776D01*
X17615781Y35652045D01*
X17505848Y35697581D01*
X17800000Y35697581D01*
X17898017Y35707235D01*
X17992267Y35735825D01*
X18079129Y35782254D01*
X18155264Y35844736D01*
X18217746Y35920871D01*
X18264175Y36007733D01*
X18292765Y36101983D01*
X18302419Y36200000D01*
X18302419Y37800000D01*
X18292765Y37898017D01*
X18264175Y37992267D01*
X18217746Y38079129D01*
X18155264Y38155264D01*
X18079129Y38217746D01*
X17992267Y38264175D01*
X17898017Y38292765D01*
X17800000Y38302419D01*
X16200000Y38302419D01*
X16101983Y38292765D01*
X16007733Y38264175D01*
X15920871Y38217746D01*
X15844736Y38155264D01*
X15782254Y38079129D01*
X15735825Y37992267D01*
X15707235Y37898017D01*
X15697581Y37800000D01*
X575000Y37800000D01*
X575000Y43139890D01*
X746295Y42726347D01*
X1271597Y41940178D01*
X1940178Y41271597D01*
X2726347Y40746295D01*
X3599892Y40384461D01*
X4527241Y40200000D01*
X5472759Y40200000D01*
X6400108Y40384461D01*
X7273653Y40746295D01*
X8059822Y41271597D01*
X8728403Y41940178D01*
X9253705Y42726347D01*
X9325634Y42900000D01*
X15197581Y42900000D01*
X15197581Y41100000D01*
X15207235Y41001983D01*
X15235825Y40907733D01*
X15282254Y40820871D01*
X15344736Y40744736D01*
X15420871Y40682254D01*
X15507733Y40635825D01*
X15601983Y40607235D01*
X15700000Y40597581D01*
X17500000Y40597581D01*
X17598017Y40607235D01*
X17692267Y40635825D01*
X17779129Y40682254D01*
X17855264Y40744736D01*
X17917746Y40820871D01*
X17964175Y40907733D01*
X17992765Y41001983D01*
X18002419Y41100000D01*
X18002419Y41395046D01*
X18737451Y41395046D01*
X18795553Y41286311D01*
X18957930Y41065048D01*
X19160353Y40879715D01*
X19395043Y40737434D01*
X19600000Y40783342D01*
X19600000Y41600000D01*
X20400000Y41600000D01*
X20400000Y40783342D01*
X20604957Y40737434D01*
X20839647Y40879715D01*
X21042070Y41065048D01*
X21204447Y41286311D01*
X21262549Y41395046D01*
X21210630Y41600000D01*
X20400000Y41600000D01*
X19600000Y41600000D01*
X18789370Y41600000D01*
X18737451Y41395046D01*
X18002419Y41395046D01*
X18002419Y42604954D01*
X18737451Y42604954D01*
X18789370Y42400000D01*
X19600000Y42400000D01*
X19600000Y43216658D01*
X20400000Y43216658D01*
X20400000Y42400000D01*
X21210630Y42400000D01*
X21262549Y42604954D01*
X21204447Y42713689D01*
X21042070Y42934952D01*
X20839647Y43120285D01*
X20604957Y43262566D01*
X20400000Y43216658D01*
X19600000Y43216658D01*
X19395043Y43262566D01*
X19160353Y43120285D01*
X18957930Y42934952D01*
X18795553Y42713689D01*
X18737451Y42604954D01*
X18002419Y42604954D01*
X18002419Y42900000D01*
X17992765Y42998017D01*
X17964175Y43092267D01*
X17917746Y43179129D01*
X17855264Y43255264D01*
X17779129Y43317746D01*
X17692267Y43364175D01*
X17598017Y43392765D01*
X17500000Y43402419D01*
X15700000Y43402419D01*
X15601983Y43392765D01*
X15507733Y43364175D01*
X15420871Y43317746D01*
X15344736Y43255264D01*
X15282254Y43179129D01*
X15235825Y43092267D01*
X15207235Y42998017D01*
X15197581Y42900000D01*
X9325634Y42900000D01*
X9615539Y43599892D01*
X9800000Y44527241D01*
X9800000Y45472759D01*
X9754800Y45700000D01*
X16893226Y45700000D01*
X16920257Y45425552D01*
X17000310Y45161651D01*
X17130310Y44918438D01*
X17305261Y44705261D01*
X17518438Y44530310D01*
X17761651Y44400310D01*
X18025552Y44320257D01*
X18231223Y44300000D01*
X18368777Y44300000D01*
X18574448Y44320257D01*
X18838349Y44400310D01*
X19081562Y44530310D01*
X19294739Y44705261D01*
X19469690Y44918438D01*
X19599690Y45161651D01*
X19679743Y45425552D01*
X19706774Y45700000D01*
X20293226Y45700000D01*
X20320257Y45425552D01*
X20400310Y45161651D01*
X20530310Y44918438D01*
X20705261Y44705261D01*
X20918438Y44530310D01*
X21161651Y44400310D01*
X21425552Y44320257D01*
X21631223Y44300000D01*
X21768777Y44300000D01*
X21974448Y44320257D01*
X22238349Y44400310D01*
X22481562Y44530310D01*
X22523832Y44565000D01*
X30329869Y44565000D01*
X30497581Y44397288D01*
X30497581Y42500000D01*
X30507235Y42401983D01*
X30535825Y42307733D01*
X30582254Y42220871D01*
X30644736Y42144736D01*
X30720871Y42082254D01*
X30807733Y42035825D01*
X30901983Y42007235D01*
X31000000Y41997581D01*
X34000000Y41997581D01*
X34098017Y42007235D01*
X34192267Y42035825D01*
X34279129Y42082254D01*
X34355264Y42144736D01*
X34417746Y42220871D01*
X34464175Y42307733D01*
X34492765Y42401983D01*
X34502419Y42500000D01*
X34502419Y44196983D01*
X35580000Y44196983D01*
X35580000Y43803017D01*
X35656859Y43416622D01*
X35807623Y43052645D01*
X36026499Y42725074D01*
X36305074Y42446499D01*
X36632645Y42227623D01*
X36996622Y42076859D01*
X37383017Y42000000D01*
X37776983Y42000000D01*
X38163378Y42076859D01*
X38527355Y42227623D01*
X38854926Y42446499D01*
X39133501Y42725074D01*
X39250382Y42900000D01*
X45197581Y42900000D01*
X45197581Y41100000D01*
X45207235Y41001983D01*
X45235825Y40907733D01*
X45282254Y40820871D01*
X45344736Y40744736D01*
X45420871Y40682254D01*
X45507733Y40635825D01*
X45601983Y40607235D01*
X45700000Y40597581D01*
X47500000Y40597581D01*
X47598017Y40607235D01*
X47692267Y40635825D01*
X47779129Y40682254D01*
X47855264Y40744736D01*
X47917746Y40820871D01*
X47964175Y40907733D01*
X47992765Y41001983D01*
X48002419Y41100000D01*
X48002419Y41395046D01*
X48737451Y41395046D01*
X48795553Y41286311D01*
X48957930Y41065048D01*
X49160353Y40879715D01*
X49395043Y40737434D01*
X49600000Y40783342D01*
X49600000Y41600000D01*
X50400000Y41600000D01*
X50400000Y40783342D01*
X50604957Y40737434D01*
X50839647Y40879715D01*
X51042070Y41065048D01*
X51204447Y41286311D01*
X51262549Y41395046D01*
X51210630Y41600000D01*
X50400000Y41600000D01*
X49600000Y41600000D01*
X48789370Y41600000D01*
X48737451Y41395046D01*
X48002419Y41395046D01*
X48002419Y42604954D01*
X48737451Y42604954D01*
X48789370Y42400000D01*
X49600000Y42400000D01*
X49600000Y43216658D01*
X50400000Y43216658D01*
X50400000Y42400000D01*
X51210630Y42400000D01*
X51262549Y42604954D01*
X51204447Y42713689D01*
X51042070Y42934952D01*
X50839647Y43120285D01*
X50604957Y43262566D01*
X50400000Y43216658D01*
X49600000Y43216658D01*
X49395043Y43262566D01*
X49160353Y43120285D01*
X48957930Y42934952D01*
X48795553Y42713689D01*
X48737451Y42604954D01*
X48002419Y42604954D01*
X48002419Y42900000D01*
X47992765Y42998017D01*
X47964175Y43092267D01*
X47917746Y43179129D01*
X47855264Y43255264D01*
X47779129Y43317746D01*
X47692267Y43364175D01*
X47598017Y43392765D01*
X47500000Y43402419D01*
X45700000Y43402419D01*
X45601983Y43392765D01*
X45507733Y43364175D01*
X45420871Y43317746D01*
X45344736Y43255264D01*
X45282254Y43179129D01*
X45235825Y43092267D01*
X45207235Y42998017D01*
X45197581Y42900000D01*
X39250382Y42900000D01*
X39352377Y43052645D01*
X39503141Y43416622D01*
X39580000Y43803017D01*
X39580000Y44196983D01*
X39547169Y44362037D01*
X42050132Y46865000D01*
X47512723Y46865000D01*
X47305261Y46694739D01*
X47130310Y46481562D01*
X47000310Y46238349D01*
X46920257Y45974448D01*
X46893226Y45700000D01*
X46920257Y45425552D01*
X47000310Y45161651D01*
X47130310Y44918438D01*
X47305261Y44705261D01*
X47518438Y44530310D01*
X47761651Y44400310D01*
X48025552Y44320257D01*
X48231223Y44300000D01*
X48368777Y44300000D01*
X48574448Y44320257D01*
X48838349Y44400310D01*
X49081562Y44530310D01*
X49294739Y44705261D01*
X49469690Y44918438D01*
X49599690Y45161651D01*
X49679743Y45425552D01*
X49706774Y45700000D01*
X49679743Y45974448D01*
X49599690Y46238349D01*
X49469690Y46481562D01*
X49294739Y46694739D01*
X49087277Y46865000D01*
X50202661Y46865000D01*
X50555457Y46512203D01*
X50530310Y46481562D01*
X50400310Y46238349D01*
X50320257Y45974448D01*
X50293226Y45700000D01*
X50320257Y45425552D01*
X50400310Y45161651D01*
X50530310Y44918438D01*
X50705261Y44705261D01*
X50918438Y44530310D01*
X51161651Y44400310D01*
X51425552Y44320257D01*
X51631223Y44300000D01*
X51768777Y44300000D01*
X51974448Y44320257D01*
X52238349Y44400310D01*
X52481562Y44530310D01*
X52694739Y44705261D01*
X52869690Y44918438D01*
X52999690Y45161651D01*
X53079743Y45425552D01*
X53106774Y45700000D01*
X53079743Y45974448D01*
X52999690Y46238349D01*
X52869690Y46481562D01*
X52835000Y46523832D01*
X52835000Y46917051D01*
X52840490Y46972793D01*
X52835000Y47028535D01*
X52835000Y47028544D01*
X52818577Y47195291D01*
X52753676Y47409239D01*
X52648284Y47606415D01*
X52506449Y47779241D01*
X52463140Y47814784D01*
X51514788Y48763136D01*
X51479241Y48806449D01*
X51306415Y48948284D01*
X51109239Y49053676D01*
X50895291Y49118577D01*
X50728544Y49135000D01*
X50728543Y49135000D01*
X50672792Y49140491D01*
X50617041Y49135000D01*
X41635741Y49135000D01*
X41579999Y49140490D01*
X41524257Y49135000D01*
X41524248Y49135000D01*
X41357501Y49118577D01*
X41143553Y49053676D01*
X40946377Y48948284D01*
X40773551Y48806449D01*
X40738009Y48763141D01*
X37942037Y45967169D01*
X37776983Y46000000D01*
X37383017Y46000000D01*
X36996622Y45923141D01*
X36632645Y45772377D01*
X36305074Y45553501D01*
X36026499Y45274926D01*
X35807623Y44947355D01*
X35656859Y44583378D01*
X35580000Y44196983D01*
X34502419Y44196983D01*
X34502419Y45500000D01*
X34492765Y45598017D01*
X34464175Y45692267D01*
X34417746Y45779129D01*
X34355264Y45855264D01*
X34279129Y45917746D01*
X34192267Y45964175D01*
X34098017Y45992765D01*
X34000000Y46002419D01*
X32102712Y46002419D01*
X31641996Y46463135D01*
X31606449Y46506449D01*
X31433623Y46648284D01*
X31236447Y46753676D01*
X31022499Y46818577D01*
X30855752Y46835000D01*
X30855751Y46835000D01*
X30800000Y46840491D01*
X30744249Y46835000D01*
X22523832Y46835000D01*
X22481562Y46869690D01*
X22238349Y46999690D01*
X21974448Y47079743D01*
X21768777Y47100000D01*
X21631223Y47100000D01*
X21425552Y47079743D01*
X21161651Y46999690D01*
X20918438Y46869690D01*
X20705261Y46694739D01*
X20530310Y46481562D01*
X20400310Y46238349D01*
X20320257Y45974448D01*
X20293226Y45700000D01*
X19706774Y45700000D01*
X19679743Y45974448D01*
X19599690Y46238349D01*
X19469690Y46481562D01*
X19294739Y46694739D01*
X19081562Y46869690D01*
X18838349Y46999690D01*
X18574448Y47079743D01*
X18368777Y47100000D01*
X18231223Y47100000D01*
X18025552Y47079743D01*
X17761651Y46999690D01*
X17518438Y46869690D01*
X17305261Y46694739D01*
X17130310Y46481562D01*
X17000310Y46238349D01*
X16920257Y45974448D01*
X16893226Y45700000D01*
X9754800Y45700000D01*
X9615539Y46400108D01*
X9253705Y47273653D01*
X8728403Y48059822D01*
X8059822Y48728403D01*
X7273653Y49253705D01*
X6860110Y49425000D01*
X63139890Y49425000D01*
X62726347Y49253705D01*
G04 #@! TD*
M02*
