G04 #@! TF.GenerationSoftware,KiCad,Pcbnew,(5.0.1)-3*
G04 #@! TF.CreationDate,2019-12-23T10:27:59+01:00*
G04 #@! TF.ProjectId,TDA2050 64W,54444132303530203634572E6B696361,rev?*
G04 #@! TF.SameCoordinates,PX68e7780PY7365040*
G04 #@! TF.FileFunction,Soldermask,Bot*
G04 #@! TF.FilePolarity,Negative*
%FSLAX46Y46*%
G04 Gerber Fmt 4.6, Leading zero omitted, Abs format (unit mm)*
G04 Created by KiCad (PCBNEW (5.0.1)-3) date 23/12/2019 10:27:59*
%MOMM*%
%LPD*%
G01*
G04 APERTURE LIST*
%ADD10C,0.010000*%
%ADD11C,0.050800*%
G04 APERTURE END LIST*
D10*
G04 #@! TO.C,G\002A\002A\002A*
G36*
X62044060Y35055435D02*
X61983660Y35020483D01*
X61965892Y35006302D01*
X61913591Y34942119D01*
X61888993Y34864971D01*
X61891460Y34780437D01*
X61920357Y34694096D01*
X61975047Y34611527D01*
X62015675Y34569935D01*
X62085413Y34514400D01*
X62153002Y34479446D01*
X62232633Y34458793D01*
X62282860Y34451697D01*
X62338272Y34450279D01*
X62363255Y34462563D01*
X62363914Y34464026D01*
X62362702Y34493557D01*
X62348950Y34546947D01*
X62325276Y34617769D01*
X62294302Y34699599D01*
X62258648Y34786011D01*
X62220934Y34870581D01*
X62183781Y34946883D01*
X62149809Y35008492D01*
X62129152Y35039664D01*
X62093497Y35062020D01*
X62044060Y35055435D01*
X62044060Y35055435D01*
G37*
X62044060Y35055435D02*
X61983660Y35020483D01*
X61965892Y35006302D01*
X61913591Y34942119D01*
X61888993Y34864971D01*
X61891460Y34780437D01*
X61920357Y34694096D01*
X61975047Y34611527D01*
X62015675Y34569935D01*
X62085413Y34514400D01*
X62153002Y34479446D01*
X62232633Y34458793D01*
X62282860Y34451697D01*
X62338272Y34450279D01*
X62363255Y34462563D01*
X62363914Y34464026D01*
X62362702Y34493557D01*
X62348950Y34546947D01*
X62325276Y34617769D01*
X62294302Y34699599D01*
X62258648Y34786011D01*
X62220934Y34870581D01*
X62183781Y34946883D01*
X62149809Y35008492D01*
X62129152Y35039664D01*
X62093497Y35062020D01*
X62044060Y35055435D01*
G36*
X61130573Y36589433D02*
X61015663Y36565317D01*
X60886138Y36527537D01*
X60780002Y36482534D01*
X60686839Y36425119D01*
X60611757Y36364192D01*
X60578474Y36329874D01*
X60538999Y36282665D01*
X60499457Y36230825D01*
X60465974Y36182612D01*
X60444675Y36146285D01*
X60440267Y36132978D01*
X60425916Y36121293D01*
X60393700Y36123488D01*
X60225069Y36151208D01*
X60067292Y36161599D01*
X59909205Y36154441D01*
X59739646Y36129518D01*
X59640091Y36108755D01*
X59494072Y36071350D01*
X59371347Y36028994D01*
X59261349Y35977212D01*
X59153509Y35911527D01*
X59120111Y35888521D01*
X58987870Y35787338D01*
X58879745Y35685604D01*
X58786943Y35574775D01*
X58762699Y35541225D01*
X58692835Y35441627D01*
X58588651Y35579918D01*
X58466164Y35727751D01*
X58329849Y35866429D01*
X58185980Y35990625D01*
X58040831Y36095009D01*
X57900674Y36174255D01*
X57874904Y36186128D01*
X57785182Y36220005D01*
X57673854Y36253306D01*
X57550994Y36283809D01*
X57426676Y36309293D01*
X57310975Y36327537D01*
X57213964Y36336318D01*
X57191756Y36336778D01*
X57090403Y36330711D01*
X56971565Y36314224D01*
X56848031Y36289845D01*
X56732589Y36260103D01*
X56638030Y36227529D01*
X56636823Y36227026D01*
X56583189Y36199580D01*
X56516003Y36158203D01*
X56444924Y36109640D01*
X56379611Y36060635D01*
X56329721Y36017932D01*
X56314134Y36001706D01*
X56299186Y35985516D01*
X56282633Y35973871D01*
X56258869Y35965879D01*
X56222288Y35960649D01*
X56167286Y35957290D01*
X56088256Y35954908D01*
X56009334Y35953218D01*
X55866273Y35949051D01*
X55747977Y35942130D01*
X55645378Y35931149D01*
X55549404Y35914803D01*
X55450986Y35891787D01*
X55341054Y35860797D01*
X55317265Y35853642D01*
X55213529Y35819846D01*
X55129712Y35785969D01*
X55052423Y35745831D01*
X54968269Y35693251D01*
X54964921Y35691035D01*
X54870029Y35626274D01*
X54796456Y35570586D01*
X54736013Y35516428D01*
X54680508Y35456258D01*
X54621751Y35382532D01*
X54603284Y35358008D01*
X54496612Y35188515D01*
X54419283Y35006703D01*
X54372801Y34817081D01*
X54358650Y34626285D01*
X54366015Y34521151D01*
X54384262Y34402683D01*
X54410833Y34282197D01*
X54443168Y34171010D01*
X54478710Y34080438D01*
X54484921Y34067839D01*
X54523968Y33991745D01*
X54451232Y33896103D01*
X54407098Y33831073D01*
X54375693Y33764820D01*
X54350480Y33682811D01*
X54344567Y33658931D01*
X54319673Y33529426D01*
X54312568Y33412857D01*
X54323262Y33294354D01*
X54344867Y33187200D01*
X54392754Y33049587D01*
X54471530Y32910696D01*
X54581734Y32769921D01*
X54723906Y32626652D01*
X54898588Y32480281D01*
X55106320Y32330200D01*
X55106383Y32330158D01*
X55245347Y32240168D01*
X55375500Y32165961D01*
X55505104Y32104032D01*
X55642421Y32050878D01*
X55795712Y32002995D01*
X55973239Y31956879D01*
X56003733Y31949599D01*
X56117154Y31923568D01*
X56207044Y31905256D01*
X56282525Y31893380D01*
X56352717Y31886660D01*
X56426738Y31883816D01*
X56474858Y31883437D01*
X56641345Y31892356D01*
X56821707Y31917660D01*
X57005482Y31956920D01*
X57182208Y32007704D01*
X57341421Y32067581D01*
X57414059Y32101628D01*
X57479922Y32140019D01*
X57561597Y32194696D01*
X57650041Y32258945D01*
X57736208Y32326052D01*
X57811052Y32389302D01*
X57847642Y32423476D01*
X57900676Y32480927D01*
X57963117Y32556338D01*
X58029334Y32642058D01*
X58093696Y32730430D01*
X58150573Y32813803D01*
X58194335Y32884523D01*
X58213277Y32920500D01*
X58233957Y32959815D01*
X58250167Y32981727D01*
X58253563Y32983398D01*
X58267541Y32970304D01*
X58296109Y32935674D01*
X58334332Y32885646D01*
X58356703Y32855144D01*
X58470257Y32715052D01*
X58606233Y32575085D01*
X58758496Y32439885D01*
X58920906Y32314096D01*
X59087327Y32202360D01*
X59251623Y32109319D01*
X59407654Y32039617D01*
X59458134Y32021930D01*
X59623753Y31972320D01*
X59766577Y31938717D01*
X59893329Y31920526D01*
X60010731Y31917153D01*
X60125506Y31928004D01*
X60244061Y31952403D01*
X60403466Y32007079D01*
X60537831Y32084514D01*
X60647464Y32185012D01*
X60732677Y32308878D01*
X60793779Y32456414D01*
X60807031Y32503661D01*
X60847495Y32663014D01*
X60811623Y32815809D01*
X60789265Y32898262D01*
X60761792Y32981350D01*
X60734265Y33050126D01*
X60727535Y33064192D01*
X60699321Y33124647D01*
X60689492Y33161728D01*
X60698424Y33180745D01*
X60726491Y33187006D01*
X60736239Y33187200D01*
X60761666Y33181730D01*
X60780830Y33160281D01*
X60799606Y33115291D01*
X60805314Y33098300D01*
X60863391Y32957569D01*
X60946289Y32809259D01*
X61048832Y32661511D01*
X61165843Y32522466D01*
X61183174Y32504064D01*
X61249492Y32441856D01*
X61333342Y32373759D01*
X61426465Y32305519D01*
X61520605Y32242880D01*
X61607504Y32191588D01*
X61678907Y32157388D01*
X61684413Y32155300D01*
X61775689Y32125049D01*
X61879142Y32096156D01*
X61985446Y32070722D01*
X62085274Y32050847D01*
X62169300Y32038630D01*
X62215257Y32035755D01*
X62276583Y32040431D01*
X62360193Y32053044D01*
X62456042Y32071444D01*
X62554086Y32093478D01*
X62644280Y32116993D01*
X62716580Y32139839D01*
X62735861Y32147304D01*
X62790992Y32173612D01*
X62841006Y32202645D01*
X62848045Y32207453D01*
X62893623Y32239832D01*
X63025845Y32133451D01*
X63193501Y32007477D01*
X63355573Y31905796D01*
X63520300Y31824734D01*
X63695922Y31760618D01*
X63890678Y31709775D01*
X64042435Y31680177D01*
X64179264Y31659683D01*
X64296047Y31650313D01*
X64404588Y31651684D01*
X64516695Y31663412D01*
X64524458Y31664534D01*
X64649890Y31686740D01*
X64776655Y31715935D01*
X64894559Y31749384D01*
X64993405Y31784356D01*
X65028523Y31799659D01*
X65188811Y31889610D01*
X65344717Y32003541D01*
X65486982Y32133716D01*
X65606348Y32272396D01*
X65625064Y32298200D01*
X65685957Y32389024D01*
X65731721Y32469684D01*
X65767377Y32551483D01*
X65797947Y32645725D01*
X65824347Y32746768D01*
X65855165Y32893111D01*
X65871482Y33027012D01*
X65872459Y33124745D01*
X65314249Y33124745D01*
X65305381Y32964984D01*
X65269565Y32812007D01*
X65211172Y32680529D01*
X65127932Y32563967D01*
X65018605Y32455663D01*
X64890899Y32361657D01*
X64752521Y32287987D01*
X64670668Y32257038D01*
X64558403Y32231668D01*
X64424455Y32218324D01*
X64278857Y32217144D01*
X64131638Y32228269D01*
X64010898Y32247884D01*
X63806352Y32308036D01*
X63611049Y32399775D01*
X63426817Y32521645D01*
X63255486Y32672190D01*
X63098884Y32849951D01*
X62958842Y33053471D01*
X62922998Y33114606D01*
X62860468Y33230620D01*
X62792140Y33366677D01*
X62722563Y33512964D01*
X62656284Y33659664D01*
X62597852Y33796964D01*
X62551815Y33915047D01*
X62550918Y33917516D01*
X62493342Y34076200D01*
X62371936Y34073842D01*
X62253076Y34060936D01*
X62159605Y34026808D01*
X62089881Y33970644D01*
X62053167Y33915521D01*
X62020884Y33821992D01*
X62021578Y33730274D01*
X62046896Y33652166D01*
X62083895Y33591427D01*
X62132373Y33539368D01*
X62183732Y33503704D01*
X62225408Y33492000D01*
X62272604Y33507759D01*
X62310547Y33550788D01*
X62333901Y33614720D01*
X62335436Y33623289D01*
X62345585Y33665580D01*
X62364603Y33684936D01*
X62402434Y33692184D01*
X62456999Y33681351D01*
X62515313Y33642037D01*
X62574013Y33578873D01*
X62629736Y33496489D01*
X62679121Y33399517D01*
X62718805Y33292586D01*
X62734388Y33235016D01*
X62753650Y33135114D01*
X62758182Y33052259D01*
X62747956Y32972989D01*
X62733778Y32918331D01*
X62686311Y32813663D01*
X62614146Y32728306D01*
X62521086Y32663279D01*
X62410934Y32619603D01*
X62287495Y32598297D01*
X62154570Y32600380D01*
X62015965Y32626871D01*
X61875482Y32678791D01*
X61862667Y32684846D01*
X61791988Y32725109D01*
X61717237Y32781084D01*
X61631856Y32857876D01*
X61598305Y32890557D01*
X61525378Y32965077D01*
X61471441Y33027032D01*
X61429540Y33085621D01*
X61392722Y33150047D01*
X61374107Y33187200D01*
X61315788Y33320480D01*
X61277898Y33442337D01*
X61257278Y33565647D01*
X61250863Y33689255D01*
X61256435Y33819916D01*
X61277471Y33926226D01*
X61315802Y34014836D01*
X61356596Y34073187D01*
X61400032Y34116261D01*
X61457099Y34160312D01*
X61518181Y34199197D01*
X61573663Y34226773D01*
X61612900Y34236908D01*
X61637959Y34248927D01*
X61642533Y34262467D01*
X61628539Y34283414D01*
X61610445Y34287867D01*
X61581273Y34295198D01*
X61531261Y34314744D01*
X61469479Y34342835D01*
X61445694Y34354538D01*
X61385703Y34383565D01*
X61338106Y34404484D01*
X61310156Y34414199D01*
X61305976Y34414153D01*
X61299601Y34394804D01*
X61290817Y34352705D01*
X61284870Y34317849D01*
X61269912Y34257340D01*
X61243919Y34182921D01*
X61212386Y34110240D01*
X61210875Y34107161D01*
X61130969Y33979875D01*
X61031475Y33878794D01*
X60915243Y33804754D01*
X60785123Y33758592D01*
X60643964Y33741144D01*
X60494616Y33753249D01*
X60339929Y33795742D01*
X60261860Y33828465D01*
X60171923Y33879280D01*
X60090587Y33941460D01*
X60023119Y34009437D01*
X59974784Y34077645D01*
X59950847Y34140518D01*
X59949200Y34158983D01*
X59962451Y34200516D01*
X60000004Y34220846D01*
X60058560Y34218394D01*
X60068508Y34216077D01*
X60117494Y34206942D01*
X60151577Y34212550D01*
X60183279Y34232161D01*
X60214841Y34264516D01*
X60230022Y34308581D01*
X60233660Y34342124D01*
X60234023Y34391819D01*
X60222335Y34425677D01*
X60191929Y34459222D01*
X60178037Y34471654D01*
X60108300Y34513658D01*
X60034521Y34525096D01*
X59961771Y34508019D01*
X59895121Y34464478D01*
X59839642Y34396524D01*
X59804939Y34320747D01*
X59787212Y34239230D01*
X59778636Y34135577D01*
X59779420Y34020318D01*
X59789770Y33903981D01*
X59795930Y33863563D01*
X59821202Y33740775D01*
X59855891Y33615973D01*
X59901845Y33484532D01*
X59960914Y33341828D01*
X60034946Y33183235D01*
X60125790Y33004127D01*
X60181369Y32899334D01*
X60229169Y32807378D01*
X60260370Y32738159D01*
X60276331Y32685703D01*
X60278411Y32644033D01*
X60267968Y32607173D01*
X60253800Y32580815D01*
X60209249Y32530150D01*
X60146177Y32497039D01*
X60059902Y32479708D01*
X59976928Y32476000D01*
X59825096Y32491442D01*
X59665076Y32536039D01*
X59500470Y32607200D01*
X59334883Y32702333D01*
X59171917Y32818846D01*
X59015175Y32954146D01*
X58868261Y33105642D01*
X58734778Y33270742D01*
X58618329Y33446854D01*
X58611793Y33458005D01*
X58584524Y33505778D01*
X58544473Y33577136D01*
X58495061Y33665925D01*
X58439709Y33765992D01*
X58381838Y33871182D01*
X58361107Y33909008D01*
X58227316Y34149069D01*
X58104944Y34359142D01*
X57992799Y34540668D01*
X57889688Y34695090D01*
X57794420Y34823851D01*
X57705804Y34928394D01*
X57622647Y35010160D01*
X57543758Y35070593D01*
X57467945Y35111135D01*
X57394016Y35133228D01*
X57345440Y35138412D01*
X57304375Y35134422D01*
X57249327Y35122374D01*
X57189384Y35105192D01*
X57133635Y35085800D01*
X57091169Y35067124D01*
X57071074Y35052085D01*
X57070533Y35049967D01*
X57082691Y35034446D01*
X57115338Y35002890D01*
X57162737Y34960688D01*
X57193300Y34934652D01*
X57335442Y34801097D01*
X57466383Y34650380D01*
X57579817Y34490783D01*
X57669437Y34330587D01*
X57692881Y34278600D01*
X57746823Y34132744D01*
X57782118Y33990798D01*
X57801030Y33840725D01*
X57805878Y33678267D01*
X57804524Y33578772D01*
X57800918Y33503586D01*
X57793855Y33443167D01*
X57782129Y33387972D01*
X57764534Y33328460D01*
X57759875Y33314200D01*
X57693513Y33159634D01*
X57598935Y33007073D01*
X57481301Y32864273D01*
X57419881Y32803076D01*
X57267394Y32680558D01*
X57100037Y32585050D01*
X56914241Y32514896D01*
X56706437Y32468445D01*
X56693198Y32466376D01*
X56486878Y32451257D01*
X56272477Y32466296D01*
X56054051Y32510036D01*
X55835658Y32581020D01*
X55621356Y32677788D01*
X55415200Y32798884D01*
X55221248Y32942850D01*
X55121336Y33031168D01*
X55027030Y33124465D01*
X54957531Y33204716D01*
X54909113Y33277119D01*
X54878049Y33346872D01*
X54867017Y33385966D01*
X54860383Y33470356D01*
X54882871Y33538085D01*
X54934069Y33588244D01*
X54966444Y33604876D01*
X55012607Y33618632D01*
X55064614Y33621668D01*
X55127637Y33612993D01*
X55206846Y33591619D01*
X55307413Y33556556D01*
X55393974Y33523063D01*
X55497444Y33483669D01*
X55579890Y33456834D01*
X55650600Y33440012D01*
X55718863Y33430655D01*
X55736217Y33429215D01*
X55901588Y33429996D01*
X56048113Y33458554D01*
X56176807Y33515236D01*
X56288684Y33600388D01*
X56314300Y33626332D01*
X56377042Y33700497D01*
X56421081Y33772484D01*
X56449815Y33851386D01*
X56466640Y33946295D01*
X56474503Y34055113D01*
X56472146Y34215412D01*
X56449227Y34352644D01*
X56404047Y34471873D01*
X56334903Y34578160D01*
X56277493Y34641529D01*
X56225701Y34686308D01*
X56161714Y34732302D01*
X56093988Y34774447D01*
X56030979Y34807678D01*
X55981145Y34826929D01*
X55963263Y34829733D01*
X55942934Y34824887D01*
X55938339Y34806827D01*
X55950132Y34770275D01*
X55977825Y34712204D01*
X56014899Y34603677D01*
X56022781Y34530733D01*
X56013479Y34399718D01*
X55976246Y34287663D01*
X55910467Y34193509D01*
X55815529Y34116198D01*
X55765948Y34088052D01*
X55714167Y34062508D01*
X55673013Y34046554D01*
X55631984Y34038311D01*
X55580584Y34035900D01*
X55508311Y34037441D01*
X55487267Y34038169D01*
X55397942Y34043067D01*
X55333020Y34051474D01*
X55283085Y34065082D01*
X55246438Y34081454D01*
X55127509Y34161353D01*
X55034140Y34262208D01*
X54968035Y34380938D01*
X54930894Y34514464D01*
X54924420Y34659704D01*
X54924683Y34663709D01*
X54950546Y34815807D01*
X55006097Y34951742D01*
X55091166Y35071337D01*
X55205583Y35174411D01*
X55349177Y35260786D01*
X55521780Y35330284D01*
X55572778Y35345970D01*
X55706028Y35373882D01*
X55860397Y35388663D01*
X56026150Y35390716D01*
X56193549Y35380448D01*
X56352858Y35358265D01*
X56494340Y35324570D01*
X56550936Y35305247D01*
X56602435Y35288681D01*
X56629667Y35291249D01*
X56638117Y35315907D01*
X56635417Y35350758D01*
X56637276Y35454169D01*
X56670810Y35547926D01*
X56734677Y35629928D01*
X56827538Y35698074D01*
X56871111Y35720343D01*
X56919451Y35741451D01*
X56961427Y35755458D01*
X57006156Y35763809D01*
X57062752Y35767950D01*
X57140330Y35769326D01*
X57180600Y35769427D01*
X57281753Y35768018D01*
X57359711Y35762850D01*
X57425053Y35752690D01*
X57488355Y35736308D01*
X57502333Y35731977D01*
X57662214Y35666334D01*
X57812965Y35572674D01*
X57959102Y35448162D01*
X57968141Y35439333D01*
X58050052Y35354903D01*
X58127081Y35266697D01*
X58201482Y35171164D01*
X58275507Y35064755D01*
X58351409Y34943921D01*
X58431440Y34805111D01*
X58517854Y34644776D01*
X58612903Y34459365D01*
X58695068Y34293867D01*
X58804125Y34077367D01*
X58904649Y33889299D01*
X58995909Y33730994D01*
X59062539Y33625495D01*
X59123804Y33537271D01*
X59190211Y33448254D01*
X59258055Y33362745D01*
X59323629Y33285043D01*
X59383226Y33219448D01*
X59433139Y33170260D01*
X59469662Y33141777D01*
X59484183Y33136400D01*
X59484187Y33150653D01*
X59469648Y33190913D01*
X59442195Y33253430D01*
X59403455Y33334455D01*
X59364671Y33411567D01*
X59314502Y33511193D01*
X59265609Y33611456D01*
X59221909Y33704091D01*
X59187324Y33780832D01*
X59170593Y33820780D01*
X59109490Y34000629D01*
X59063685Y34188993D01*
X59034178Y34378109D01*
X59021969Y34560218D01*
X59028059Y34727557D01*
X59041616Y34821267D01*
X59091545Y34992962D01*
X59169323Y35149082D01*
X59272106Y35286685D01*
X59397052Y35402828D01*
X59541316Y35494567D01*
X59702057Y35558961D01*
X59771400Y35576633D01*
X59849716Y35587989D01*
X59948834Y35594545D01*
X60057381Y35596310D01*
X60163981Y35593294D01*
X60257260Y35585506D01*
X60313267Y35576169D01*
X60479513Y35524677D01*
X60643685Y35449222D01*
X60798925Y35354340D01*
X60938373Y35244568D01*
X61055170Y35124443D01*
X61112834Y35047312D01*
X61146059Y35001683D01*
X61168155Y34985182D01*
X61183051Y34996607D01*
X61191937Y35023072D01*
X61208221Y35055627D01*
X61241297Y35102444D01*
X61284172Y35153677D01*
X61286487Y35156221D01*
X61386092Y35244440D01*
X61509872Y35320717D01*
X61648825Y35379903D01*
X61710482Y35398678D01*
X61768811Y35415681D01*
X61814290Y35431444D01*
X61836309Y35442088D01*
X61837678Y35462771D01*
X61814638Y35494729D01*
X61772541Y35533080D01*
X61716742Y35572940D01*
X61653114Y35609168D01*
X61574004Y35641115D01*
X61499629Y35657530D01*
X61437480Y35657675D01*
X61395046Y35640811D01*
X61389432Y35635149D01*
X61369839Y35600599D01*
X61356853Y35564478D01*
X61338474Y35521054D01*
X61308274Y35498518D01*
X61259836Y35494606D01*
X61191266Y35506034D01*
X61125968Y35524934D01*
X61074358Y35553059D01*
X61020998Y35599160D01*
X61013008Y35607049D01*
X60955111Y35673301D01*
X60924119Y35733246D01*
X60916562Y35795556D01*
X60921482Y35835840D01*
X60946095Y35891751D01*
X60994007Y35948352D01*
X61055973Y35996962D01*
X61122747Y36028900D01*
X61129102Y36030779D01*
X61216760Y36045323D01*
X61323820Y36048231D01*
X61438049Y36039964D01*
X61547218Y36020985D01*
X61574677Y36013963D01*
X61719485Y35964934D01*
X61851762Y35899881D01*
X61979329Y35814086D01*
X62110005Y35702836D01*
X62143571Y35670983D01*
X62317756Y35502669D01*
X62483911Y35505670D01*
X62740822Y35500335D01*
X62982727Y35475377D01*
X63207531Y35431659D01*
X63413137Y35370042D01*
X63597447Y35291388D01*
X63758366Y35196557D01*
X63893794Y35086412D01*
X64001637Y34961814D01*
X64064727Y34856225D01*
X64109977Y34735179D01*
X64131229Y34609618D01*
X64127882Y34488244D01*
X64099337Y34379761D01*
X64097786Y34376099D01*
X64036244Y34273779D01*
X63951028Y34191945D01*
X63846848Y34132608D01*
X63728413Y34097781D01*
X63600433Y34089475D01*
X63471666Y34108652D01*
X63365877Y34144484D01*
X63262122Y34195382D01*
X63165341Y34257272D01*
X63080474Y34326081D01*
X63012461Y34397733D01*
X62966243Y34468156D01*
X62946759Y34533275D01*
X62946446Y34541798D01*
X62951152Y34583370D01*
X62971091Y34611193D01*
X63008525Y34635000D01*
X63051997Y34662896D01*
X63082838Y34690075D01*
X63087172Y34695879D01*
X63096277Y34741140D01*
X63079740Y34798376D01*
X63039739Y34860246D01*
X63037686Y34862708D01*
X63000636Y34896267D01*
X62946396Y34932397D01*
X62880999Y34968559D01*
X62810476Y35002216D01*
X62740859Y35030828D01*
X62678179Y35051859D01*
X62628470Y35062768D01*
X62597761Y35061018D01*
X62590800Y35050767D01*
X62598219Y35029151D01*
X62618555Y34983692D01*
X62648930Y34920504D01*
X62686464Y34845701D01*
X62697345Y34824515D01*
X62739499Y34741418D01*
X62791388Y34636941D01*
X62848446Y34520404D01*
X62906109Y34401125D01*
X62955533Y34297474D01*
X63040320Y34123523D01*
X63116875Y33978623D01*
X63187430Y33859617D01*
X63254220Y33763347D01*
X63319479Y33686655D01*
X63385440Y33626383D01*
X63454338Y33579375D01*
X63469707Y33570720D01*
X63584785Y33521383D01*
X63692061Y33501938D01*
X63789084Y33512301D01*
X63873402Y33552385D01*
X63912606Y33586171D01*
X63952921Y33639100D01*
X63966663Y33691763D01*
X63953658Y33750704D01*
X63913730Y33822464D01*
X63905956Y33833943D01*
X63866568Y33895748D01*
X63848461Y33940575D01*
X63850620Y33976942D01*
X63872030Y34013362D01*
X63882981Y34026651D01*
X63908641Y34051280D01*
X63940122Y34066948D01*
X63987208Y34077050D01*
X64048081Y34083914D01*
X64235121Y34087773D01*
X64421753Y34065929D01*
X64600187Y34020090D01*
X64762632Y33951964D01*
X64832338Y33912039D01*
X64911435Y33854992D01*
X64996141Y33782429D01*
X65077189Y33703244D01*
X65145313Y33626331D01*
X65181414Y33576956D01*
X65252040Y33437508D01*
X65296394Y33284512D01*
X65314249Y33124745D01*
X65872459Y33124745D01*
X65872775Y33156328D01*
X65858522Y33288914D01*
X65828198Y33432627D01*
X65781281Y33595324D01*
X65764379Y33647536D01*
X65721146Y33749946D01*
X65657385Y33863445D01*
X65579280Y33978299D01*
X65493015Y34084777D01*
X65471796Y34107992D01*
X65395202Y34180738D01*
X65300665Y34256773D01*
X65194793Y34332004D01*
X65084191Y34402337D01*
X64975463Y34463679D01*
X64875217Y34511937D01*
X64790057Y34543016D01*
X64757868Y34550401D01*
X64714715Y34559988D01*
X64695507Y34576052D01*
X64690563Y34609126D01*
X64690415Y34623789D01*
X64685192Y34679958D01*
X64671273Y34757918D01*
X64651045Y34847454D01*
X64626891Y34938354D01*
X64601198Y35020405D01*
X64591542Y35047102D01*
X64524595Y35183194D01*
X64428950Y35320096D01*
X64309381Y35453463D01*
X64170662Y35578948D01*
X64017566Y35692205D01*
X63854868Y35788889D01*
X63697980Y35860567D01*
X63574428Y35903056D01*
X63429119Y35944015D01*
X63270722Y35981726D01*
X63107904Y36014470D01*
X62949335Y36040529D01*
X62803682Y36058184D01*
X62679613Y36065716D01*
X62662506Y36065867D01*
X62605629Y36067010D01*
X62565611Y36073638D01*
X62530593Y36090548D01*
X62488717Y36122536D01*
X62458230Y36148496D01*
X62286446Y36283982D01*
X62117168Y36391086D01*
X61942998Y36473811D01*
X61756538Y36536161D01*
X61727788Y36543813D01*
X61558271Y36581837D01*
X61408263Y36601933D01*
X61268714Y36604374D01*
X61130573Y36589433D01*
X61130573Y36589433D01*
G37*
X61130573Y36589433D02*
X61015663Y36565317D01*
X60886138Y36527537D01*
X60780002Y36482534D01*
X60686839Y36425119D01*
X60611757Y36364192D01*
X60578474Y36329874D01*
X60538999Y36282665D01*
X60499457Y36230825D01*
X60465974Y36182612D01*
X60444675Y36146285D01*
X60440267Y36132978D01*
X60425916Y36121293D01*
X60393700Y36123488D01*
X60225069Y36151208D01*
X60067292Y36161599D01*
X59909205Y36154441D01*
X59739646Y36129518D01*
X59640091Y36108755D01*
X59494072Y36071350D01*
X59371347Y36028994D01*
X59261349Y35977212D01*
X59153509Y35911527D01*
X59120111Y35888521D01*
X58987870Y35787338D01*
X58879745Y35685604D01*
X58786943Y35574775D01*
X58762699Y35541225D01*
X58692835Y35441627D01*
X58588651Y35579918D01*
X58466164Y35727751D01*
X58329849Y35866429D01*
X58185980Y35990625D01*
X58040831Y36095009D01*
X57900674Y36174255D01*
X57874904Y36186128D01*
X57785182Y36220005D01*
X57673854Y36253306D01*
X57550994Y36283809D01*
X57426676Y36309293D01*
X57310975Y36327537D01*
X57213964Y36336318D01*
X57191756Y36336778D01*
X57090403Y36330711D01*
X56971565Y36314224D01*
X56848031Y36289845D01*
X56732589Y36260103D01*
X56638030Y36227529D01*
X56636823Y36227026D01*
X56583189Y36199580D01*
X56516003Y36158203D01*
X56444924Y36109640D01*
X56379611Y36060635D01*
X56329721Y36017932D01*
X56314134Y36001706D01*
X56299186Y35985516D01*
X56282633Y35973871D01*
X56258869Y35965879D01*
X56222288Y35960649D01*
X56167286Y35957290D01*
X56088256Y35954908D01*
X56009334Y35953218D01*
X55866273Y35949051D01*
X55747977Y35942130D01*
X55645378Y35931149D01*
X55549404Y35914803D01*
X55450986Y35891787D01*
X55341054Y35860797D01*
X55317265Y35853642D01*
X55213529Y35819846D01*
X55129712Y35785969D01*
X55052423Y35745831D01*
X54968269Y35693251D01*
X54964921Y35691035D01*
X54870029Y35626274D01*
X54796456Y35570586D01*
X54736013Y35516428D01*
X54680508Y35456258D01*
X54621751Y35382532D01*
X54603284Y35358008D01*
X54496612Y35188515D01*
X54419283Y35006703D01*
X54372801Y34817081D01*
X54358650Y34626285D01*
X54366015Y34521151D01*
X54384262Y34402683D01*
X54410833Y34282197D01*
X54443168Y34171010D01*
X54478710Y34080438D01*
X54484921Y34067839D01*
X54523968Y33991745D01*
X54451232Y33896103D01*
X54407098Y33831073D01*
X54375693Y33764820D01*
X54350480Y33682811D01*
X54344567Y33658931D01*
X54319673Y33529426D01*
X54312568Y33412857D01*
X54323262Y33294354D01*
X54344867Y33187200D01*
X54392754Y33049587D01*
X54471530Y32910696D01*
X54581734Y32769921D01*
X54723906Y32626652D01*
X54898588Y32480281D01*
X55106320Y32330200D01*
X55106383Y32330158D01*
X55245347Y32240168D01*
X55375500Y32165961D01*
X55505104Y32104032D01*
X55642421Y32050878D01*
X55795712Y32002995D01*
X55973239Y31956879D01*
X56003733Y31949599D01*
X56117154Y31923568D01*
X56207044Y31905256D01*
X56282525Y31893380D01*
X56352717Y31886660D01*
X56426738Y31883816D01*
X56474858Y31883437D01*
X56641345Y31892356D01*
X56821707Y31917660D01*
X57005482Y31956920D01*
X57182208Y32007704D01*
X57341421Y32067581D01*
X57414059Y32101628D01*
X57479922Y32140019D01*
X57561597Y32194696D01*
X57650041Y32258945D01*
X57736208Y32326052D01*
X57811052Y32389302D01*
X57847642Y32423476D01*
X57900676Y32480927D01*
X57963117Y32556338D01*
X58029334Y32642058D01*
X58093696Y32730430D01*
X58150573Y32813803D01*
X58194335Y32884523D01*
X58213277Y32920500D01*
X58233957Y32959815D01*
X58250167Y32981727D01*
X58253563Y32983398D01*
X58267541Y32970304D01*
X58296109Y32935674D01*
X58334332Y32885646D01*
X58356703Y32855144D01*
X58470257Y32715052D01*
X58606233Y32575085D01*
X58758496Y32439885D01*
X58920906Y32314096D01*
X59087327Y32202360D01*
X59251623Y32109319D01*
X59407654Y32039617D01*
X59458134Y32021930D01*
X59623753Y31972320D01*
X59766577Y31938717D01*
X59893329Y31920526D01*
X60010731Y31917153D01*
X60125506Y31928004D01*
X60244061Y31952403D01*
X60403466Y32007079D01*
X60537831Y32084514D01*
X60647464Y32185012D01*
X60732677Y32308878D01*
X60793779Y32456414D01*
X60807031Y32503661D01*
X60847495Y32663014D01*
X60811623Y32815809D01*
X60789265Y32898262D01*
X60761792Y32981350D01*
X60734265Y33050126D01*
X60727535Y33064192D01*
X60699321Y33124647D01*
X60689492Y33161728D01*
X60698424Y33180745D01*
X60726491Y33187006D01*
X60736239Y33187200D01*
X60761666Y33181730D01*
X60780830Y33160281D01*
X60799606Y33115291D01*
X60805314Y33098300D01*
X60863391Y32957569D01*
X60946289Y32809259D01*
X61048832Y32661511D01*
X61165843Y32522466D01*
X61183174Y32504064D01*
X61249492Y32441856D01*
X61333342Y32373759D01*
X61426465Y32305519D01*
X61520605Y32242880D01*
X61607504Y32191588D01*
X61678907Y32157388D01*
X61684413Y32155300D01*
X61775689Y32125049D01*
X61879142Y32096156D01*
X61985446Y32070722D01*
X62085274Y32050847D01*
X62169300Y32038630D01*
X62215257Y32035755D01*
X62276583Y32040431D01*
X62360193Y32053044D01*
X62456042Y32071444D01*
X62554086Y32093478D01*
X62644280Y32116993D01*
X62716580Y32139839D01*
X62735861Y32147304D01*
X62790992Y32173612D01*
X62841006Y32202645D01*
X62848045Y32207453D01*
X62893623Y32239832D01*
X63025845Y32133451D01*
X63193501Y32007477D01*
X63355573Y31905796D01*
X63520300Y31824734D01*
X63695922Y31760618D01*
X63890678Y31709775D01*
X64042435Y31680177D01*
X64179264Y31659683D01*
X64296047Y31650313D01*
X64404588Y31651684D01*
X64516695Y31663412D01*
X64524458Y31664534D01*
X64649890Y31686740D01*
X64776655Y31715935D01*
X64894559Y31749384D01*
X64993405Y31784356D01*
X65028523Y31799659D01*
X65188811Y31889610D01*
X65344717Y32003541D01*
X65486982Y32133716D01*
X65606348Y32272396D01*
X65625064Y32298200D01*
X65685957Y32389024D01*
X65731721Y32469684D01*
X65767377Y32551483D01*
X65797947Y32645725D01*
X65824347Y32746768D01*
X65855165Y32893111D01*
X65871482Y33027012D01*
X65872459Y33124745D01*
X65314249Y33124745D01*
X65305381Y32964984D01*
X65269565Y32812007D01*
X65211172Y32680529D01*
X65127932Y32563967D01*
X65018605Y32455663D01*
X64890899Y32361657D01*
X64752521Y32287987D01*
X64670668Y32257038D01*
X64558403Y32231668D01*
X64424455Y32218324D01*
X64278857Y32217144D01*
X64131638Y32228269D01*
X64010898Y32247884D01*
X63806352Y32308036D01*
X63611049Y32399775D01*
X63426817Y32521645D01*
X63255486Y32672190D01*
X63098884Y32849951D01*
X62958842Y33053471D01*
X62922998Y33114606D01*
X62860468Y33230620D01*
X62792140Y33366677D01*
X62722563Y33512964D01*
X62656284Y33659664D01*
X62597852Y33796964D01*
X62551815Y33915047D01*
X62550918Y33917516D01*
X62493342Y34076200D01*
X62371936Y34073842D01*
X62253076Y34060936D01*
X62159605Y34026808D01*
X62089881Y33970644D01*
X62053167Y33915521D01*
X62020884Y33821992D01*
X62021578Y33730274D01*
X62046896Y33652166D01*
X62083895Y33591427D01*
X62132373Y33539368D01*
X62183732Y33503704D01*
X62225408Y33492000D01*
X62272604Y33507759D01*
X62310547Y33550788D01*
X62333901Y33614720D01*
X62335436Y33623289D01*
X62345585Y33665580D01*
X62364603Y33684936D01*
X62402434Y33692184D01*
X62456999Y33681351D01*
X62515313Y33642037D01*
X62574013Y33578873D01*
X62629736Y33496489D01*
X62679121Y33399517D01*
X62718805Y33292586D01*
X62734388Y33235016D01*
X62753650Y33135114D01*
X62758182Y33052259D01*
X62747956Y32972989D01*
X62733778Y32918331D01*
X62686311Y32813663D01*
X62614146Y32728306D01*
X62521086Y32663279D01*
X62410934Y32619603D01*
X62287495Y32598297D01*
X62154570Y32600380D01*
X62015965Y32626871D01*
X61875482Y32678791D01*
X61862667Y32684846D01*
X61791988Y32725109D01*
X61717237Y32781084D01*
X61631856Y32857876D01*
X61598305Y32890557D01*
X61525378Y32965077D01*
X61471441Y33027032D01*
X61429540Y33085621D01*
X61392722Y33150047D01*
X61374107Y33187200D01*
X61315788Y33320480D01*
X61277898Y33442337D01*
X61257278Y33565647D01*
X61250863Y33689255D01*
X61256435Y33819916D01*
X61277471Y33926226D01*
X61315802Y34014836D01*
X61356596Y34073187D01*
X61400032Y34116261D01*
X61457099Y34160312D01*
X61518181Y34199197D01*
X61573663Y34226773D01*
X61612900Y34236908D01*
X61637959Y34248927D01*
X61642533Y34262467D01*
X61628539Y34283414D01*
X61610445Y34287867D01*
X61581273Y34295198D01*
X61531261Y34314744D01*
X61469479Y34342835D01*
X61445694Y34354538D01*
X61385703Y34383565D01*
X61338106Y34404484D01*
X61310156Y34414199D01*
X61305976Y34414153D01*
X61299601Y34394804D01*
X61290817Y34352705D01*
X61284870Y34317849D01*
X61269912Y34257340D01*
X61243919Y34182921D01*
X61212386Y34110240D01*
X61210875Y34107161D01*
X61130969Y33979875D01*
X61031475Y33878794D01*
X60915243Y33804754D01*
X60785123Y33758592D01*
X60643964Y33741144D01*
X60494616Y33753249D01*
X60339929Y33795742D01*
X60261860Y33828465D01*
X60171923Y33879280D01*
X60090587Y33941460D01*
X60023119Y34009437D01*
X59974784Y34077645D01*
X59950847Y34140518D01*
X59949200Y34158983D01*
X59962451Y34200516D01*
X60000004Y34220846D01*
X60058560Y34218394D01*
X60068508Y34216077D01*
X60117494Y34206942D01*
X60151577Y34212550D01*
X60183279Y34232161D01*
X60214841Y34264516D01*
X60230022Y34308581D01*
X60233660Y34342124D01*
X60234023Y34391819D01*
X60222335Y34425677D01*
X60191929Y34459222D01*
X60178037Y34471654D01*
X60108300Y34513658D01*
X60034521Y34525096D01*
X59961771Y34508019D01*
X59895121Y34464478D01*
X59839642Y34396524D01*
X59804939Y34320747D01*
X59787212Y34239230D01*
X59778636Y34135577D01*
X59779420Y34020318D01*
X59789770Y33903981D01*
X59795930Y33863563D01*
X59821202Y33740775D01*
X59855891Y33615973D01*
X59901845Y33484532D01*
X59960914Y33341828D01*
X60034946Y33183235D01*
X60125790Y33004127D01*
X60181369Y32899334D01*
X60229169Y32807378D01*
X60260370Y32738159D01*
X60276331Y32685703D01*
X60278411Y32644033D01*
X60267968Y32607173D01*
X60253800Y32580815D01*
X60209249Y32530150D01*
X60146177Y32497039D01*
X60059902Y32479708D01*
X59976928Y32476000D01*
X59825096Y32491442D01*
X59665076Y32536039D01*
X59500470Y32607200D01*
X59334883Y32702333D01*
X59171917Y32818846D01*
X59015175Y32954146D01*
X58868261Y33105642D01*
X58734778Y33270742D01*
X58618329Y33446854D01*
X58611793Y33458005D01*
X58584524Y33505778D01*
X58544473Y33577136D01*
X58495061Y33665925D01*
X58439709Y33765992D01*
X58381838Y33871182D01*
X58361107Y33909008D01*
X58227316Y34149069D01*
X58104944Y34359142D01*
X57992799Y34540668D01*
X57889688Y34695090D01*
X57794420Y34823851D01*
X57705804Y34928394D01*
X57622647Y35010160D01*
X57543758Y35070593D01*
X57467945Y35111135D01*
X57394016Y35133228D01*
X57345440Y35138412D01*
X57304375Y35134422D01*
X57249327Y35122374D01*
X57189384Y35105192D01*
X57133635Y35085800D01*
X57091169Y35067124D01*
X57071074Y35052085D01*
X57070533Y35049967D01*
X57082691Y35034446D01*
X57115338Y35002890D01*
X57162737Y34960688D01*
X57193300Y34934652D01*
X57335442Y34801097D01*
X57466383Y34650380D01*
X57579817Y34490783D01*
X57669437Y34330587D01*
X57692881Y34278600D01*
X57746823Y34132744D01*
X57782118Y33990798D01*
X57801030Y33840725D01*
X57805878Y33678267D01*
X57804524Y33578772D01*
X57800918Y33503586D01*
X57793855Y33443167D01*
X57782129Y33387972D01*
X57764534Y33328460D01*
X57759875Y33314200D01*
X57693513Y33159634D01*
X57598935Y33007073D01*
X57481301Y32864273D01*
X57419881Y32803076D01*
X57267394Y32680558D01*
X57100037Y32585050D01*
X56914241Y32514896D01*
X56706437Y32468445D01*
X56693198Y32466376D01*
X56486878Y32451257D01*
X56272477Y32466296D01*
X56054051Y32510036D01*
X55835658Y32581020D01*
X55621356Y32677788D01*
X55415200Y32798884D01*
X55221248Y32942850D01*
X55121336Y33031168D01*
X55027030Y33124465D01*
X54957531Y33204716D01*
X54909113Y33277119D01*
X54878049Y33346872D01*
X54867017Y33385966D01*
X54860383Y33470356D01*
X54882871Y33538085D01*
X54934069Y33588244D01*
X54966444Y33604876D01*
X55012607Y33618632D01*
X55064614Y33621668D01*
X55127637Y33612993D01*
X55206846Y33591619D01*
X55307413Y33556556D01*
X55393974Y33523063D01*
X55497444Y33483669D01*
X55579890Y33456834D01*
X55650600Y33440012D01*
X55718863Y33430655D01*
X55736217Y33429215D01*
X55901588Y33429996D01*
X56048113Y33458554D01*
X56176807Y33515236D01*
X56288684Y33600388D01*
X56314300Y33626332D01*
X56377042Y33700497D01*
X56421081Y33772484D01*
X56449815Y33851386D01*
X56466640Y33946295D01*
X56474503Y34055113D01*
X56472146Y34215412D01*
X56449227Y34352644D01*
X56404047Y34471873D01*
X56334903Y34578160D01*
X56277493Y34641529D01*
X56225701Y34686308D01*
X56161714Y34732302D01*
X56093988Y34774447D01*
X56030979Y34807678D01*
X55981145Y34826929D01*
X55963263Y34829733D01*
X55942934Y34824887D01*
X55938339Y34806827D01*
X55950132Y34770275D01*
X55977825Y34712204D01*
X56014899Y34603677D01*
X56022781Y34530733D01*
X56013479Y34399718D01*
X55976246Y34287663D01*
X55910467Y34193509D01*
X55815529Y34116198D01*
X55765948Y34088052D01*
X55714167Y34062508D01*
X55673013Y34046554D01*
X55631984Y34038311D01*
X55580584Y34035900D01*
X55508311Y34037441D01*
X55487267Y34038169D01*
X55397942Y34043067D01*
X55333020Y34051474D01*
X55283085Y34065082D01*
X55246438Y34081454D01*
X55127509Y34161353D01*
X55034140Y34262208D01*
X54968035Y34380938D01*
X54930894Y34514464D01*
X54924420Y34659704D01*
X54924683Y34663709D01*
X54950546Y34815807D01*
X55006097Y34951742D01*
X55091166Y35071337D01*
X55205583Y35174411D01*
X55349177Y35260786D01*
X55521780Y35330284D01*
X55572778Y35345970D01*
X55706028Y35373882D01*
X55860397Y35388663D01*
X56026150Y35390716D01*
X56193549Y35380448D01*
X56352858Y35358265D01*
X56494340Y35324570D01*
X56550936Y35305247D01*
X56602435Y35288681D01*
X56629667Y35291249D01*
X56638117Y35315907D01*
X56635417Y35350758D01*
X56637276Y35454169D01*
X56670810Y35547926D01*
X56734677Y35629928D01*
X56827538Y35698074D01*
X56871111Y35720343D01*
X56919451Y35741451D01*
X56961427Y35755458D01*
X57006156Y35763809D01*
X57062752Y35767950D01*
X57140330Y35769326D01*
X57180600Y35769427D01*
X57281753Y35768018D01*
X57359711Y35762850D01*
X57425053Y35752690D01*
X57488355Y35736308D01*
X57502333Y35731977D01*
X57662214Y35666334D01*
X57812965Y35572674D01*
X57959102Y35448162D01*
X57968141Y35439333D01*
X58050052Y35354903D01*
X58127081Y35266697D01*
X58201482Y35171164D01*
X58275507Y35064755D01*
X58351409Y34943921D01*
X58431440Y34805111D01*
X58517854Y34644776D01*
X58612903Y34459365D01*
X58695068Y34293867D01*
X58804125Y34077367D01*
X58904649Y33889299D01*
X58995909Y33730994D01*
X59062539Y33625495D01*
X59123804Y33537271D01*
X59190211Y33448254D01*
X59258055Y33362745D01*
X59323629Y33285043D01*
X59383226Y33219448D01*
X59433139Y33170260D01*
X59469662Y33141777D01*
X59484183Y33136400D01*
X59484187Y33150653D01*
X59469648Y33190913D01*
X59442195Y33253430D01*
X59403455Y33334455D01*
X59364671Y33411567D01*
X59314502Y33511193D01*
X59265609Y33611456D01*
X59221909Y33704091D01*
X59187324Y33780832D01*
X59170593Y33820780D01*
X59109490Y34000629D01*
X59063685Y34188993D01*
X59034178Y34378109D01*
X59021969Y34560218D01*
X59028059Y34727557D01*
X59041616Y34821267D01*
X59091545Y34992962D01*
X59169323Y35149082D01*
X59272106Y35286685D01*
X59397052Y35402828D01*
X59541316Y35494567D01*
X59702057Y35558961D01*
X59771400Y35576633D01*
X59849716Y35587989D01*
X59948834Y35594545D01*
X60057381Y35596310D01*
X60163981Y35593294D01*
X60257260Y35585506D01*
X60313267Y35576169D01*
X60479513Y35524677D01*
X60643685Y35449222D01*
X60798925Y35354340D01*
X60938373Y35244568D01*
X61055170Y35124443D01*
X61112834Y35047312D01*
X61146059Y35001683D01*
X61168155Y34985182D01*
X61183051Y34996607D01*
X61191937Y35023072D01*
X61208221Y35055627D01*
X61241297Y35102444D01*
X61284172Y35153677D01*
X61286487Y35156221D01*
X61386092Y35244440D01*
X61509872Y35320717D01*
X61648825Y35379903D01*
X61710482Y35398678D01*
X61768811Y35415681D01*
X61814290Y35431444D01*
X61836309Y35442088D01*
X61837678Y35462771D01*
X61814638Y35494729D01*
X61772541Y35533080D01*
X61716742Y35572940D01*
X61653114Y35609168D01*
X61574004Y35641115D01*
X61499629Y35657530D01*
X61437480Y35657675D01*
X61395046Y35640811D01*
X61389432Y35635149D01*
X61369839Y35600599D01*
X61356853Y35564478D01*
X61338474Y35521054D01*
X61308274Y35498518D01*
X61259836Y35494606D01*
X61191266Y35506034D01*
X61125968Y35524934D01*
X61074358Y35553059D01*
X61020998Y35599160D01*
X61013008Y35607049D01*
X60955111Y35673301D01*
X60924119Y35733246D01*
X60916562Y35795556D01*
X60921482Y35835840D01*
X60946095Y35891751D01*
X60994007Y35948352D01*
X61055973Y35996962D01*
X61122747Y36028900D01*
X61129102Y36030779D01*
X61216760Y36045323D01*
X61323820Y36048231D01*
X61438049Y36039964D01*
X61547218Y36020985D01*
X61574677Y36013963D01*
X61719485Y35964934D01*
X61851762Y35899881D01*
X61979329Y35814086D01*
X62110005Y35702836D01*
X62143571Y35670983D01*
X62317756Y35502669D01*
X62483911Y35505670D01*
X62740822Y35500335D01*
X62982727Y35475377D01*
X63207531Y35431659D01*
X63413137Y35370042D01*
X63597447Y35291388D01*
X63758366Y35196557D01*
X63893794Y35086412D01*
X64001637Y34961814D01*
X64064727Y34856225D01*
X64109977Y34735179D01*
X64131229Y34609618D01*
X64127882Y34488244D01*
X64099337Y34379761D01*
X64097786Y34376099D01*
X64036244Y34273779D01*
X63951028Y34191945D01*
X63846848Y34132608D01*
X63728413Y34097781D01*
X63600433Y34089475D01*
X63471666Y34108652D01*
X63365877Y34144484D01*
X63262122Y34195382D01*
X63165341Y34257272D01*
X63080474Y34326081D01*
X63012461Y34397733D01*
X62966243Y34468156D01*
X62946759Y34533275D01*
X62946446Y34541798D01*
X62951152Y34583370D01*
X62971091Y34611193D01*
X63008525Y34635000D01*
X63051997Y34662896D01*
X63082838Y34690075D01*
X63087172Y34695879D01*
X63096277Y34741140D01*
X63079740Y34798376D01*
X63039739Y34860246D01*
X63037686Y34862708D01*
X63000636Y34896267D01*
X62946396Y34932397D01*
X62880999Y34968559D01*
X62810476Y35002216D01*
X62740859Y35030828D01*
X62678179Y35051859D01*
X62628470Y35062768D01*
X62597761Y35061018D01*
X62590800Y35050767D01*
X62598219Y35029151D01*
X62618555Y34983692D01*
X62648930Y34920504D01*
X62686464Y34845701D01*
X62697345Y34824515D01*
X62739499Y34741418D01*
X62791388Y34636941D01*
X62848446Y34520404D01*
X62906109Y34401125D01*
X62955533Y34297474D01*
X63040320Y34123523D01*
X63116875Y33978623D01*
X63187430Y33859617D01*
X63254220Y33763347D01*
X63319479Y33686655D01*
X63385440Y33626383D01*
X63454338Y33579375D01*
X63469707Y33570720D01*
X63584785Y33521383D01*
X63692061Y33501938D01*
X63789084Y33512301D01*
X63873402Y33552385D01*
X63912606Y33586171D01*
X63952921Y33639100D01*
X63966663Y33691763D01*
X63953658Y33750704D01*
X63913730Y33822464D01*
X63905956Y33833943D01*
X63866568Y33895748D01*
X63848461Y33940575D01*
X63850620Y33976942D01*
X63872030Y34013362D01*
X63882981Y34026651D01*
X63908641Y34051280D01*
X63940122Y34066948D01*
X63987208Y34077050D01*
X64048081Y34083914D01*
X64235121Y34087773D01*
X64421753Y34065929D01*
X64600187Y34020090D01*
X64762632Y33951964D01*
X64832338Y33912039D01*
X64911435Y33854992D01*
X64996141Y33782429D01*
X65077189Y33703244D01*
X65145313Y33626331D01*
X65181414Y33576956D01*
X65252040Y33437508D01*
X65296394Y33284512D01*
X65314249Y33124745D01*
X65872459Y33124745D01*
X65872775Y33156328D01*
X65858522Y33288914D01*
X65828198Y33432627D01*
X65781281Y33595324D01*
X65764379Y33647536D01*
X65721146Y33749946D01*
X65657385Y33863445D01*
X65579280Y33978299D01*
X65493015Y34084777D01*
X65471796Y34107992D01*
X65395202Y34180738D01*
X65300665Y34256773D01*
X65194793Y34332004D01*
X65084191Y34402337D01*
X64975463Y34463679D01*
X64875217Y34511937D01*
X64790057Y34543016D01*
X64757868Y34550401D01*
X64714715Y34559988D01*
X64695507Y34576052D01*
X64690563Y34609126D01*
X64690415Y34623789D01*
X64685192Y34679958D01*
X64671273Y34757918D01*
X64651045Y34847454D01*
X64626891Y34938354D01*
X64601198Y35020405D01*
X64591542Y35047102D01*
X64524595Y35183194D01*
X64428950Y35320096D01*
X64309381Y35453463D01*
X64170662Y35578948D01*
X64017566Y35692205D01*
X63854868Y35788889D01*
X63697980Y35860567D01*
X63574428Y35903056D01*
X63429119Y35944015D01*
X63270722Y35981726D01*
X63107904Y36014470D01*
X62949335Y36040529D01*
X62803682Y36058184D01*
X62679613Y36065716D01*
X62662506Y36065867D01*
X62605629Y36067010D01*
X62565611Y36073638D01*
X62530593Y36090548D01*
X62488717Y36122536D01*
X62458230Y36148496D01*
X62286446Y36283982D01*
X62117168Y36391086D01*
X61942998Y36473811D01*
X61756538Y36536161D01*
X61727788Y36543813D01*
X61558271Y36581837D01*
X61408263Y36601933D01*
X61268714Y36604374D01*
X61130573Y36589433D01*
D11*
G36*
X65548156Y9327206D02*
X66269140Y9183794D01*
X67060972Y8855807D01*
X67773601Y8379643D01*
X68379643Y7773601D01*
X68855807Y7060972D01*
X69183794Y6269140D01*
X69351000Y5428536D01*
X69351000Y4571464D01*
X69183794Y3730860D01*
X68855807Y2939028D01*
X68379643Y2226399D01*
X67773601Y1620357D01*
X67060972Y1144193D01*
X66269140Y816206D01*
X65548156Y672794D01*
X65428537Y649000D01*
X64571463Y649000D01*
X64451844Y672794D01*
X63730860Y816206D01*
X62939028Y1144193D01*
X62226399Y1620357D01*
X61620357Y2226399D01*
X61144193Y2939028D01*
X60816206Y3730860D01*
X60649000Y4571464D01*
X60649000Y5428536D01*
X60816206Y6269140D01*
X61144193Y7060972D01*
X61620357Y7773601D01*
X62226399Y8379643D01*
X62939028Y8855807D01*
X63730860Y9183794D01*
X64451844Y9327206D01*
X64571463Y9351000D01*
X65428537Y9351000D01*
X65548156Y9327206D01*
X65548156Y9327206D01*
G37*
G36*
X5548156Y9327206D02*
X6269140Y9183794D01*
X7060972Y8855807D01*
X7773601Y8379643D01*
X8379643Y7773601D01*
X8855807Y7060972D01*
X9183794Y6269140D01*
X9351000Y5428536D01*
X9351000Y4571464D01*
X9183794Y3730860D01*
X8855807Y2939028D01*
X8379643Y2226399D01*
X7773601Y1620357D01*
X7060972Y1144193D01*
X6269140Y816206D01*
X5548156Y672794D01*
X5428537Y649000D01*
X4571463Y649000D01*
X4451844Y672794D01*
X3730860Y816206D01*
X2939028Y1144193D01*
X2226399Y1620357D01*
X1620357Y2226399D01*
X1144193Y2939028D01*
X816206Y3730860D01*
X649000Y4571464D01*
X649000Y5428536D01*
X816206Y6269140D01*
X1144193Y7060972D01*
X1620357Y7773601D01*
X2226399Y8379643D01*
X2939028Y8855807D01*
X3730860Y9183794D01*
X4451844Y9327206D01*
X4571463Y9351000D01*
X5428537Y9351000D01*
X5548156Y9327206D01*
X5548156Y9327206D01*
G37*
G36*
X25356153Y5174078D02*
X25423610Y5146136D01*
X25578359Y5082037D01*
X25778345Y4948411D01*
X25948411Y4778345D01*
X26082037Y4578359D01*
X26174078Y4356152D01*
X26221000Y4120259D01*
X26221000Y3879741D01*
X26174078Y3643848D01*
X26082037Y3421641D01*
X25948411Y3221655D01*
X25778345Y3051589D01*
X25578359Y2917963D01*
X25452226Y2865717D01*
X25356153Y2825922D01*
X25120259Y2779000D01*
X24879741Y2779000D01*
X24643847Y2825922D01*
X24547774Y2865717D01*
X24421641Y2917963D01*
X24221655Y3051589D01*
X24051589Y3221655D01*
X23917963Y3421641D01*
X23825922Y3643848D01*
X23779000Y3879741D01*
X23779000Y4120259D01*
X23825922Y4356152D01*
X23917963Y4578359D01*
X24051589Y4778345D01*
X24221655Y4948411D01*
X24421641Y5082037D01*
X24576390Y5146136D01*
X24643847Y5174078D01*
X24879741Y5221000D01*
X25120259Y5221000D01*
X25356153Y5174078D01*
X25356153Y5174078D01*
G37*
G36*
X15356153Y5174078D02*
X15423610Y5146136D01*
X15578359Y5082037D01*
X15778345Y4948411D01*
X15948411Y4778345D01*
X16082037Y4578359D01*
X16174078Y4356152D01*
X16221000Y4120259D01*
X16221000Y3879741D01*
X16174078Y3643848D01*
X16082037Y3421641D01*
X15948411Y3221655D01*
X15778345Y3051589D01*
X15578359Y2917963D01*
X15452226Y2865717D01*
X15356153Y2825922D01*
X15120259Y2779000D01*
X14879741Y2779000D01*
X14643847Y2825922D01*
X14547774Y2865717D01*
X14421641Y2917963D01*
X14221655Y3051589D01*
X14051589Y3221655D01*
X13917963Y3421641D01*
X13825922Y3643848D01*
X13779000Y3879741D01*
X13779000Y4120259D01*
X13825922Y4356152D01*
X13917963Y4578359D01*
X14051589Y4778345D01*
X14221655Y4948411D01*
X14421641Y5082037D01*
X14576390Y5146136D01*
X14643847Y5174078D01*
X14879741Y5221000D01*
X15120259Y5221000D01*
X15356153Y5174078D01*
X15356153Y5174078D01*
G37*
G36*
X20356153Y5174078D02*
X20423610Y5146136D01*
X20578359Y5082037D01*
X20778345Y4948411D01*
X20948411Y4778345D01*
X21082037Y4578359D01*
X21174078Y4356152D01*
X21221000Y4120259D01*
X21221000Y3879741D01*
X21174078Y3643848D01*
X21082037Y3421641D01*
X20948411Y3221655D01*
X20778345Y3051589D01*
X20578359Y2917963D01*
X20452226Y2865717D01*
X20356153Y2825922D01*
X20120259Y2779000D01*
X19879741Y2779000D01*
X19643847Y2825922D01*
X19547774Y2865717D01*
X19421641Y2917963D01*
X19221655Y3051589D01*
X19051589Y3221655D01*
X18917963Y3421641D01*
X18825922Y3643848D01*
X18779000Y3879741D01*
X18779000Y4120259D01*
X18825922Y4356152D01*
X18917963Y4578359D01*
X19051589Y4778345D01*
X19221655Y4948411D01*
X19421641Y5082037D01*
X19576390Y5146136D01*
X19643847Y5174078D01*
X19879741Y5221000D01*
X20120259Y5221000D01*
X20356153Y5174078D01*
X20356153Y5174078D01*
G37*
G36*
X57301000Y3049000D02*
X54699000Y3049000D01*
X54699000Y4951000D01*
X57301000Y4951000D01*
X57301000Y3049000D01*
X57301000Y3049000D01*
G37*
G36*
X53301000Y3049000D02*
X50699000Y3049000D01*
X50699000Y4951000D01*
X53301000Y4951000D01*
X53301000Y3049000D01*
X53301000Y3049000D01*
G37*
G36*
X34118604Y5921653D02*
X34155145Y5910568D01*
X34188820Y5892569D01*
X34218341Y5868341D01*
X34242569Y5838820D01*
X34260568Y5805145D01*
X34271653Y5768604D01*
X34276000Y5724462D01*
X34276000Y4275538D01*
X34271653Y4231396D01*
X34260568Y4194855D01*
X34242569Y4161180D01*
X34218341Y4131659D01*
X34188820Y4107431D01*
X34155145Y4089432D01*
X34118604Y4078347D01*
X34074462Y4074000D01*
X33125538Y4074000D01*
X33081396Y4078347D01*
X33044855Y4089432D01*
X33011180Y4107431D01*
X32981659Y4131659D01*
X32957431Y4161180D01*
X32939432Y4194855D01*
X32928347Y4231396D01*
X32924000Y4275538D01*
X32924000Y5724462D01*
X32928347Y5768604D01*
X32939432Y5805145D01*
X32957431Y5838820D01*
X32981659Y5868341D01*
X33011180Y5892569D01*
X33044855Y5910568D01*
X33081396Y5921653D01*
X33125538Y5926000D01*
X34074462Y5926000D01*
X34118604Y5921653D01*
X34118604Y5921653D01*
G37*
G36*
X36918604Y5921653D02*
X36955145Y5910568D01*
X36988820Y5892569D01*
X37018341Y5868341D01*
X37042569Y5838820D01*
X37060568Y5805145D01*
X37071653Y5768604D01*
X37076000Y5724462D01*
X37076000Y4275538D01*
X37071653Y4231396D01*
X37060568Y4194855D01*
X37042569Y4161180D01*
X37018341Y4131659D01*
X36988820Y4107431D01*
X36955145Y4089432D01*
X36918604Y4078347D01*
X36874462Y4074000D01*
X35925538Y4074000D01*
X35881396Y4078347D01*
X35844855Y4089432D01*
X35811180Y4107431D01*
X35781659Y4131659D01*
X35757431Y4161180D01*
X35739432Y4194855D01*
X35728347Y4231396D01*
X35724000Y4275538D01*
X35724000Y5724462D01*
X35728347Y5768604D01*
X35739432Y5805145D01*
X35757431Y5838820D01*
X35781659Y5868341D01*
X35811180Y5892569D01*
X35844855Y5910568D01*
X35881396Y5921653D01*
X35925538Y5926000D01*
X36874462Y5926000D01*
X36918604Y5921653D01*
X36918604Y5921653D01*
G37*
G36*
X56432527Y9511264D02*
X56532410Y9491396D01*
X56814674Y9374479D01*
X57068705Y9204741D01*
X57284741Y8988705D01*
X57454479Y8734674D01*
X57567294Y8462312D01*
X57571396Y8452409D01*
X57631000Y8152762D01*
X57631000Y7847238D01*
X57591264Y7647473D01*
X57571396Y7547590D01*
X57454479Y7265326D01*
X57284741Y7011295D01*
X57068705Y6795259D01*
X56814674Y6625521D01*
X56532410Y6508604D01*
X56432527Y6488736D01*
X56232762Y6449000D01*
X55927238Y6449000D01*
X55727473Y6488736D01*
X55627590Y6508604D01*
X55345326Y6625521D01*
X55091295Y6795259D01*
X54875259Y7011295D01*
X54705521Y7265326D01*
X54588604Y7547590D01*
X54568736Y7647473D01*
X54529000Y7847238D01*
X54529000Y8152762D01*
X54588604Y8452409D01*
X54592706Y8462312D01*
X54705521Y8734674D01*
X54875259Y8988705D01*
X55091295Y9204741D01*
X55345326Y9374479D01*
X55627590Y9491396D01*
X55727473Y9511264D01*
X55927238Y9551000D01*
X56232762Y9551000D01*
X56432527Y9511264D01*
X56432527Y9511264D01*
G37*
G36*
X52551000Y6449000D02*
X49449000Y6449000D01*
X49449000Y9551000D01*
X52551000Y9551000D01*
X52551000Y6449000D01*
X52551000Y6449000D01*
G37*
G36*
X33272527Y9511264D02*
X33372410Y9491396D01*
X33654674Y9374479D01*
X33908705Y9204741D01*
X34124741Y8988705D01*
X34294479Y8734674D01*
X34407294Y8462312D01*
X34411396Y8452409D01*
X34471000Y8152762D01*
X34471000Y7847238D01*
X34431264Y7647473D01*
X34411396Y7547590D01*
X34294479Y7265326D01*
X34124741Y7011295D01*
X33908705Y6795259D01*
X33654674Y6625521D01*
X33372410Y6508604D01*
X33272527Y6488736D01*
X33072762Y6449000D01*
X32767238Y6449000D01*
X32567473Y6488736D01*
X32467590Y6508604D01*
X32185326Y6625521D01*
X31931295Y6795259D01*
X31715259Y7011295D01*
X31545521Y7265326D01*
X31428604Y7547590D01*
X31408736Y7647473D01*
X31369000Y7847238D01*
X31369000Y8152762D01*
X31428604Y8452409D01*
X31432706Y8462312D01*
X31545521Y8734674D01*
X31715259Y8988705D01*
X31931295Y9204741D01*
X32185326Y9374479D01*
X32467590Y9491396D01*
X32567473Y9511264D01*
X32767238Y9551000D01*
X33072762Y9551000D01*
X33272527Y9511264D01*
X33272527Y9511264D01*
G37*
G36*
X39551000Y6449000D02*
X36449000Y6449000D01*
X36449000Y9551000D01*
X39551000Y9551000D01*
X39551000Y6449000D01*
X39551000Y6449000D01*
G37*
G36*
X43118604Y8921653D02*
X43155145Y8910568D01*
X43188820Y8892569D01*
X43218341Y8868341D01*
X43242569Y8838820D01*
X43260568Y8805145D01*
X43271653Y8768604D01*
X43276000Y8724462D01*
X43276000Y7275538D01*
X43271653Y7231396D01*
X43260568Y7194855D01*
X43242569Y7161180D01*
X43218341Y7131659D01*
X43188820Y7107431D01*
X43155145Y7089432D01*
X43118604Y7078347D01*
X43074462Y7074000D01*
X42125538Y7074000D01*
X42081396Y7078347D01*
X42044855Y7089432D01*
X42011180Y7107431D01*
X41981659Y7131659D01*
X41957431Y7161180D01*
X41939432Y7194855D01*
X41928347Y7231396D01*
X41924000Y7275538D01*
X41924000Y8724462D01*
X41928347Y8768604D01*
X41939432Y8805145D01*
X41957431Y8838820D01*
X41981659Y8868341D01*
X42011180Y8892569D01*
X42044855Y8910568D01*
X42081396Y8921653D01*
X42125538Y8926000D01*
X43074462Y8926000D01*
X43118604Y8921653D01*
X43118604Y8921653D01*
G37*
G36*
X45918604Y8921653D02*
X45955145Y8910568D01*
X45988820Y8892569D01*
X46018341Y8868341D01*
X46042569Y8838820D01*
X46060568Y8805145D01*
X46071653Y8768604D01*
X46076000Y8724462D01*
X46076000Y7275538D01*
X46071653Y7231396D01*
X46060568Y7194855D01*
X46042569Y7161180D01*
X46018341Y7131659D01*
X45988820Y7107431D01*
X45955145Y7089432D01*
X45918604Y7078347D01*
X45874462Y7074000D01*
X44925538Y7074000D01*
X44881396Y7078347D01*
X44844855Y7089432D01*
X44811180Y7107431D01*
X44781659Y7131659D01*
X44757431Y7161180D01*
X44739432Y7194855D01*
X44728347Y7231396D01*
X44724000Y7275538D01*
X44724000Y8724462D01*
X44728347Y8768604D01*
X44739432Y8805145D01*
X44757431Y8838820D01*
X44781659Y8868341D01*
X44811180Y8892569D01*
X44844855Y8910568D01*
X44881396Y8921653D01*
X44925538Y8926000D01*
X45874462Y8926000D01*
X45918604Y8921653D01*
X45918604Y8921653D01*
G37*
G36*
X43118604Y11921653D02*
X43155145Y11910568D01*
X43188820Y11892569D01*
X43218341Y11868341D01*
X43242569Y11838820D01*
X43260568Y11805145D01*
X43271653Y11768604D01*
X43276000Y11724462D01*
X43276000Y10275538D01*
X43271653Y10231396D01*
X43260568Y10194855D01*
X43242569Y10161180D01*
X43218341Y10131659D01*
X43188820Y10107431D01*
X43155145Y10089432D01*
X43118604Y10078347D01*
X43074462Y10074000D01*
X42125538Y10074000D01*
X42081396Y10078347D01*
X42044855Y10089432D01*
X42011180Y10107431D01*
X41981659Y10131659D01*
X41957431Y10161180D01*
X41939432Y10194855D01*
X41928347Y10231396D01*
X41924000Y10275538D01*
X41924000Y11724462D01*
X41928347Y11768604D01*
X41939432Y11805145D01*
X41957431Y11838820D01*
X41981659Y11868341D01*
X42011180Y11892569D01*
X42044855Y11910568D01*
X42081396Y11921653D01*
X42125538Y11926000D01*
X43074462Y11926000D01*
X43118604Y11921653D01*
X43118604Y11921653D01*
G37*
G36*
X45918604Y11921653D02*
X45955145Y11910568D01*
X45988820Y11892569D01*
X46018341Y11868341D01*
X46042569Y11838820D01*
X46060568Y11805145D01*
X46071653Y11768604D01*
X46076000Y11724462D01*
X46076000Y10275538D01*
X46071653Y10231396D01*
X46060568Y10194855D01*
X46042569Y10161180D01*
X46018341Y10131659D01*
X45988820Y10107431D01*
X45955145Y10089432D01*
X45918604Y10078347D01*
X45874462Y10074000D01*
X44925538Y10074000D01*
X44881396Y10078347D01*
X44844855Y10089432D01*
X44811180Y10107431D01*
X44781659Y10131659D01*
X44757431Y10161180D01*
X44739432Y10194855D01*
X44728347Y10231396D01*
X44724000Y10275538D01*
X44724000Y11724462D01*
X44728347Y11768604D01*
X44739432Y11805145D01*
X44757431Y11838820D01*
X44781659Y11868341D01*
X44811180Y11892569D01*
X44844855Y11910568D01*
X44881396Y11921653D01*
X44925538Y11926000D01*
X45874462Y11926000D01*
X45918604Y11921653D01*
X45918604Y11921653D01*
G37*
G36*
X36584466Y13096435D02*
X36623137Y13084704D01*
X36658779Y13065652D01*
X36690017Y13040017D01*
X36715652Y13008779D01*
X36734704Y12973137D01*
X36746435Y12934466D01*
X36751000Y12888112D01*
X36751000Y12236888D01*
X36746435Y12190534D01*
X36734704Y12151863D01*
X36715652Y12116221D01*
X36690017Y12084983D01*
X36658779Y12059348D01*
X36623137Y12040296D01*
X36584466Y12028565D01*
X36538112Y12024000D01*
X35461888Y12024000D01*
X35415534Y12028565D01*
X35376863Y12040296D01*
X35341221Y12059348D01*
X35309983Y12084983D01*
X35284348Y12116221D01*
X35265296Y12151863D01*
X35253565Y12190534D01*
X35249000Y12236888D01*
X35249000Y12888112D01*
X35253565Y12934466D01*
X35265296Y12973137D01*
X35284348Y13008779D01*
X35309983Y13040017D01*
X35341221Y13065652D01*
X35376863Y13084704D01*
X35415534Y13096435D01*
X35461888Y13101000D01*
X36538112Y13101000D01*
X36584466Y13096435D01*
X36584466Y13096435D01*
G37*
G36*
X34418604Y13921653D02*
X34455145Y13910568D01*
X34488820Y13892569D01*
X34518341Y13868341D01*
X34542569Y13838820D01*
X34560568Y13805145D01*
X34571653Y13768604D01*
X34576000Y13724462D01*
X34576000Y12275538D01*
X34571653Y12231396D01*
X34560568Y12194855D01*
X34542569Y12161180D01*
X34518341Y12131659D01*
X34488820Y12107431D01*
X34455145Y12089432D01*
X34418604Y12078347D01*
X34374462Y12074000D01*
X33425538Y12074000D01*
X33381396Y12078347D01*
X33344855Y12089432D01*
X33311180Y12107431D01*
X33281659Y12131659D01*
X33257431Y12161180D01*
X33239432Y12194855D01*
X33228347Y12231396D01*
X33224000Y12275538D01*
X33224000Y13724462D01*
X33228347Y13768604D01*
X33239432Y13805145D01*
X33257431Y13838820D01*
X33281659Y13868341D01*
X33311180Y13892569D01*
X33344855Y13910568D01*
X33381396Y13921653D01*
X33425538Y13926000D01*
X34374462Y13926000D01*
X34418604Y13921653D01*
X34418604Y13921653D01*
G37*
G36*
X31618604Y13921653D02*
X31655145Y13910568D01*
X31688820Y13892569D01*
X31718341Y13868341D01*
X31742569Y13838820D01*
X31760568Y13805145D01*
X31771653Y13768604D01*
X31776000Y13724462D01*
X31776000Y12275538D01*
X31771653Y12231396D01*
X31760568Y12194855D01*
X31742569Y12161180D01*
X31718341Y12131659D01*
X31688820Y12107431D01*
X31655145Y12089432D01*
X31618604Y12078347D01*
X31574462Y12074000D01*
X30625538Y12074000D01*
X30581396Y12078347D01*
X30544855Y12089432D01*
X30511180Y12107431D01*
X30481659Y12131659D01*
X30457431Y12161180D01*
X30439432Y12194855D01*
X30428347Y12231396D01*
X30424000Y12275538D01*
X30424000Y13724462D01*
X30428347Y13768604D01*
X30439432Y13805145D01*
X30457431Y13838820D01*
X30481659Y13868341D01*
X30511180Y13892569D01*
X30544855Y13910568D01*
X30581396Y13921653D01*
X30625538Y13926000D01*
X31574462Y13926000D01*
X31618604Y13921653D01*
X31618604Y13921653D01*
G37*
G36*
X15248228Y14318297D02*
X15403100Y14254147D01*
X15542481Y14161015D01*
X15661015Y14042481D01*
X15754147Y13903100D01*
X15818297Y13748228D01*
X15851000Y13583816D01*
X15851000Y13416184D01*
X15818297Y13251772D01*
X15754147Y13096900D01*
X15661015Y12957519D01*
X15542481Y12838985D01*
X15403100Y12745853D01*
X15248228Y12681703D01*
X15083816Y12649000D01*
X14916184Y12649000D01*
X14751772Y12681703D01*
X14596900Y12745853D01*
X14457519Y12838985D01*
X14338985Y12957519D01*
X14245853Y13096900D01*
X14181703Y13251772D01*
X14149000Y13416184D01*
X14149000Y13583816D01*
X14181703Y13748228D01*
X14245853Y13903100D01*
X14338985Y14042481D01*
X14457519Y14161015D01*
X14596900Y14254147D01*
X14751772Y14318297D01*
X14916184Y14351000D01*
X15083816Y14351000D01*
X15248228Y14318297D01*
X15248228Y14318297D01*
G37*
G36*
X27248228Y14318297D02*
X27403100Y14254147D01*
X27542481Y14161015D01*
X27661015Y14042481D01*
X27754147Y13903100D01*
X27818297Y13748228D01*
X27851000Y13583816D01*
X27851000Y13416184D01*
X27818297Y13251772D01*
X27754147Y13096900D01*
X27661015Y12957519D01*
X27542481Y12838985D01*
X27403100Y12745853D01*
X27248228Y12681703D01*
X27083816Y12649000D01*
X26916184Y12649000D01*
X26751772Y12681703D01*
X26596900Y12745853D01*
X26457519Y12838985D01*
X26338985Y12957519D01*
X26245853Y13096900D01*
X26181703Y13251772D01*
X26149000Y13416184D01*
X26149000Y13583816D01*
X26181703Y13748228D01*
X26245853Y13903100D01*
X26338985Y14042481D01*
X26457519Y14161015D01*
X26596900Y14254147D01*
X26751772Y14318297D01*
X26916184Y14351000D01*
X27083816Y14351000D01*
X27248228Y14318297D01*
X27248228Y14318297D01*
G37*
G36*
X21248228Y14318297D02*
X21403100Y14254147D01*
X21542481Y14161015D01*
X21661015Y14042481D01*
X21754147Y13903100D01*
X21818297Y13748228D01*
X21851000Y13583816D01*
X21851000Y13416184D01*
X21818297Y13251772D01*
X21754147Y13096900D01*
X21661015Y12957519D01*
X21542481Y12838985D01*
X21403100Y12745853D01*
X21248228Y12681703D01*
X21083816Y12649000D01*
X20916184Y12649000D01*
X20751772Y12681703D01*
X20596900Y12745853D01*
X20457519Y12838985D01*
X20338985Y12957519D01*
X20245853Y13096900D01*
X20181703Y13251772D01*
X20149000Y13416184D01*
X20149000Y13583816D01*
X20181703Y13748228D01*
X20245853Y13903100D01*
X20338985Y14042481D01*
X20457519Y14161015D01*
X20596900Y14254147D01*
X20751772Y14318297D01*
X20916184Y14351000D01*
X21083816Y14351000D01*
X21248228Y14318297D01*
X21248228Y14318297D01*
G37*
G36*
X45748228Y14818297D02*
X45903100Y14754147D01*
X46042481Y14661015D01*
X46161015Y14542481D01*
X46254147Y14403100D01*
X46318297Y14248228D01*
X46351000Y14083816D01*
X46351000Y13916184D01*
X46318297Y13751772D01*
X46254147Y13596900D01*
X46161015Y13457519D01*
X46042481Y13338985D01*
X45903100Y13245853D01*
X45748228Y13181703D01*
X45583816Y13149000D01*
X45416184Y13149000D01*
X45251772Y13181703D01*
X45096900Y13245853D01*
X44957519Y13338985D01*
X44838985Y13457519D01*
X44745853Y13596900D01*
X44681703Y13751772D01*
X44649000Y13916184D01*
X44649000Y14083816D01*
X44681703Y14248228D01*
X44745853Y14403100D01*
X44838985Y14542481D01*
X44957519Y14661015D01*
X45096900Y14754147D01*
X45251772Y14818297D01*
X45416184Y14851000D01*
X45583816Y14851000D01*
X45748228Y14818297D01*
X45748228Y14818297D01*
G37*
G36*
X43851000Y13149000D02*
X42149000Y13149000D01*
X42149000Y14851000D01*
X43851000Y14851000D01*
X43851000Y13149000D01*
X43851000Y13149000D01*
G37*
G36*
X36584466Y14971435D02*
X36623137Y14959704D01*
X36658779Y14940652D01*
X36690017Y14915017D01*
X36715652Y14883779D01*
X36734704Y14848137D01*
X36746435Y14809466D01*
X36751000Y14763112D01*
X36751000Y14111888D01*
X36746435Y14065534D01*
X36734704Y14026863D01*
X36715652Y13991221D01*
X36690017Y13959983D01*
X36658779Y13934348D01*
X36623137Y13915296D01*
X36584466Y13903565D01*
X36538112Y13899000D01*
X35461888Y13899000D01*
X35415534Y13903565D01*
X35376863Y13915296D01*
X35341221Y13934348D01*
X35309983Y13959983D01*
X35284348Y13991221D01*
X35265296Y14026863D01*
X35253565Y14065534D01*
X35249000Y14111888D01*
X35249000Y14763112D01*
X35253565Y14809466D01*
X35265296Y14848137D01*
X35284348Y14883779D01*
X35309983Y14915017D01*
X35341221Y14940652D01*
X35376863Y14959704D01*
X35415534Y14971435D01*
X35461888Y14976000D01*
X36538112Y14976000D01*
X36584466Y14971435D01*
X36584466Y14971435D01*
G37*
G36*
X21851000Y15149000D02*
X20149000Y15149000D01*
X20149000Y16851000D01*
X21851000Y16851000D01*
X21851000Y15149000D01*
X21851000Y15149000D01*
G37*
G36*
X15851000Y15149000D02*
X14149000Y15149000D01*
X14149000Y16851000D01*
X15851000Y16851000D01*
X15851000Y15149000D01*
X15851000Y15149000D01*
G37*
G36*
X27851000Y15149000D02*
X26149000Y15149000D01*
X26149000Y16851000D01*
X27851000Y16851000D01*
X27851000Y15149000D01*
X27851000Y15149000D01*
G37*
G36*
X34418604Y17421653D02*
X34455145Y17410568D01*
X34488820Y17392569D01*
X34518341Y17368341D01*
X34542569Y17338820D01*
X34560568Y17305145D01*
X34571653Y17268604D01*
X34576000Y17224462D01*
X34576000Y15775538D01*
X34571653Y15731396D01*
X34560568Y15694855D01*
X34542569Y15661180D01*
X34518341Y15631659D01*
X34488820Y15607431D01*
X34455145Y15589432D01*
X34418604Y15578347D01*
X34374462Y15574000D01*
X33425538Y15574000D01*
X33381396Y15578347D01*
X33344855Y15589432D01*
X33311180Y15607431D01*
X33281659Y15631659D01*
X33257431Y15661180D01*
X33239432Y15694855D01*
X33228347Y15731396D01*
X33224000Y15775538D01*
X33224000Y17224462D01*
X33228347Y17268604D01*
X33239432Y17305145D01*
X33257431Y17338820D01*
X33281659Y17368341D01*
X33311180Y17392569D01*
X33344855Y17410568D01*
X33381396Y17421653D01*
X33425538Y17426000D01*
X34374462Y17426000D01*
X34418604Y17421653D01*
X34418604Y17421653D01*
G37*
G36*
X31618604Y17421653D02*
X31655145Y17410568D01*
X31688820Y17392569D01*
X31718341Y17368341D01*
X31742569Y17338820D01*
X31760568Y17305145D01*
X31771653Y17268604D01*
X31776000Y17224462D01*
X31776000Y15775538D01*
X31771653Y15731396D01*
X31760568Y15694855D01*
X31742569Y15661180D01*
X31718341Y15631659D01*
X31688820Y15607431D01*
X31655145Y15589432D01*
X31618604Y15578347D01*
X31574462Y15574000D01*
X30625538Y15574000D01*
X30581396Y15578347D01*
X30544855Y15589432D01*
X30511180Y15607431D01*
X30481659Y15631659D01*
X30457431Y15661180D01*
X30439432Y15694855D01*
X30428347Y15731396D01*
X30424000Y15775538D01*
X30424000Y17224462D01*
X30428347Y17268604D01*
X30439432Y17305145D01*
X30457431Y17338820D01*
X30481659Y17368341D01*
X30511180Y17392569D01*
X30544855Y17410568D01*
X30581396Y17421653D01*
X30625538Y17426000D01*
X31574462Y17426000D01*
X31618604Y17421653D01*
X31618604Y17421653D01*
G37*
G36*
X36618604Y17421653D02*
X36655145Y17410568D01*
X36688820Y17392569D01*
X36718341Y17368341D01*
X36742569Y17338820D01*
X36760568Y17305145D01*
X36771653Y17268604D01*
X36776000Y17224462D01*
X36776000Y15775538D01*
X36771653Y15731396D01*
X36760568Y15694855D01*
X36742569Y15661180D01*
X36718341Y15631659D01*
X36688820Y15607431D01*
X36655145Y15589432D01*
X36618604Y15578347D01*
X36574462Y15574000D01*
X35625538Y15574000D01*
X35581396Y15578347D01*
X35544855Y15589432D01*
X35511180Y15607431D01*
X35481659Y15631659D01*
X35457431Y15661180D01*
X35439432Y15694855D01*
X35428347Y15731396D01*
X35424000Y15775538D01*
X35424000Y17224462D01*
X35428347Y17268604D01*
X35439432Y17305145D01*
X35457431Y17338820D01*
X35481659Y17368341D01*
X35511180Y17392569D01*
X35544855Y17410568D01*
X35581396Y17421653D01*
X35625538Y17426000D01*
X36574462Y17426000D01*
X36618604Y17421653D01*
X36618604Y17421653D01*
G37*
G36*
X39418604Y17421653D02*
X39455145Y17410568D01*
X39488820Y17392569D01*
X39518341Y17368341D01*
X39542569Y17338820D01*
X39560568Y17305145D01*
X39571653Y17268604D01*
X39576000Y17224462D01*
X39576000Y15775538D01*
X39571653Y15731396D01*
X39560568Y15694855D01*
X39542569Y15661180D01*
X39518341Y15631659D01*
X39488820Y15607431D01*
X39455145Y15589432D01*
X39418604Y15578347D01*
X39374462Y15574000D01*
X38425538Y15574000D01*
X38381396Y15578347D01*
X38344855Y15589432D01*
X38311180Y15607431D01*
X38281659Y15631659D01*
X38257431Y15661180D01*
X38239432Y15694855D01*
X38228347Y15731396D01*
X38224000Y15775538D01*
X38224000Y17224462D01*
X38228347Y17268604D01*
X38239432Y17305145D01*
X38257431Y17338820D01*
X38281659Y17368341D01*
X38311180Y17392569D01*
X38344855Y17410568D01*
X38381396Y17421653D01*
X38425538Y17426000D01*
X39374462Y17426000D01*
X39418604Y17421653D01*
X39418604Y17421653D01*
G37*
G36*
X33706820Y20738687D02*
X33706823Y20738686D01*
X33706824Y20738686D01*
X33867238Y20690025D01*
X33867240Y20690024D01*
X33867243Y20690023D01*
X34015078Y20611005D01*
X34144659Y20504659D01*
X34251005Y20375078D01*
X34330023Y20227244D01*
X34378687Y20066821D01*
X34391000Y19941804D01*
X34391000Y19058197D01*
X34378687Y18933180D01*
X34378686Y18933178D01*
X34378686Y18933175D01*
X34330025Y18772761D01*
X34330023Y18772756D01*
X34251005Y18624922D01*
X34144659Y18495341D01*
X34015078Y18388995D01*
X33867244Y18309977D01*
X33867241Y18309976D01*
X33867239Y18309975D01*
X33706825Y18261314D01*
X33706824Y18261314D01*
X33706821Y18261313D01*
X33540000Y18244883D01*
X33373180Y18261313D01*
X33373177Y18261314D01*
X33373176Y18261314D01*
X33212762Y18309975D01*
X33212760Y18309976D01*
X33212757Y18309977D01*
X33064923Y18388995D01*
X32935342Y18495341D01*
X32828996Y18624922D01*
X32749978Y18772756D01*
X32701314Y18933179D01*
X32689000Y19058197D01*
X32689000Y19941803D01*
X32701313Y20066820D01*
X32701314Y20066824D01*
X32749975Y20227238D01*
X32749976Y20227240D01*
X32749977Y20227243D01*
X32828995Y20375078D01*
X32935341Y20504659D01*
X33064922Y20611005D01*
X33212756Y20690023D01*
X33212759Y20690024D01*
X33212761Y20690025D01*
X33373175Y20738686D01*
X33373176Y20738686D01*
X33373179Y20738687D01*
X33540000Y20755117D01*
X33706820Y20738687D01*
X33706820Y20738687D01*
G37*
G36*
X36246820Y20738687D02*
X36246823Y20738686D01*
X36246824Y20738686D01*
X36407238Y20690025D01*
X36407240Y20690024D01*
X36407243Y20690023D01*
X36555078Y20611005D01*
X36684659Y20504659D01*
X36791005Y20375078D01*
X36870023Y20227244D01*
X36918687Y20066821D01*
X36931000Y19941804D01*
X36931000Y19058197D01*
X36918687Y18933180D01*
X36918686Y18933178D01*
X36918686Y18933175D01*
X36870025Y18772761D01*
X36870023Y18772756D01*
X36791005Y18624922D01*
X36684659Y18495341D01*
X36555078Y18388995D01*
X36407244Y18309977D01*
X36407241Y18309976D01*
X36407239Y18309975D01*
X36246825Y18261314D01*
X36246824Y18261314D01*
X36246821Y18261313D01*
X36080000Y18244883D01*
X35913180Y18261313D01*
X35913177Y18261314D01*
X35913176Y18261314D01*
X35752762Y18309975D01*
X35752760Y18309976D01*
X35752757Y18309977D01*
X35604923Y18388995D01*
X35475342Y18495341D01*
X35368996Y18624922D01*
X35289978Y18772756D01*
X35241314Y18933179D01*
X35229000Y19058197D01*
X35229000Y19941803D01*
X35241313Y20066820D01*
X35241314Y20066824D01*
X35289975Y20227238D01*
X35289976Y20227240D01*
X35289977Y20227243D01*
X35368995Y20375078D01*
X35475341Y20504659D01*
X35604922Y20611005D01*
X35752756Y20690023D01*
X35752759Y20690024D01*
X35752761Y20690025D01*
X35913175Y20738686D01*
X35913176Y20738686D01*
X35913179Y20738687D01*
X36080000Y20755117D01*
X36246820Y20738687D01*
X36246820Y20738687D01*
G37*
G36*
X38786820Y20738687D02*
X38786823Y20738686D01*
X38786824Y20738686D01*
X38947238Y20690025D01*
X38947240Y20690024D01*
X38947243Y20690023D01*
X39095078Y20611005D01*
X39224659Y20504659D01*
X39331005Y20375078D01*
X39410023Y20227244D01*
X39458687Y20066821D01*
X39471000Y19941804D01*
X39471000Y19058197D01*
X39458687Y18933180D01*
X39458686Y18933178D01*
X39458686Y18933175D01*
X39410025Y18772761D01*
X39410023Y18772756D01*
X39331005Y18624922D01*
X39224659Y18495341D01*
X39095078Y18388995D01*
X38947244Y18309977D01*
X38947241Y18309976D01*
X38947239Y18309975D01*
X38786825Y18261314D01*
X38786824Y18261314D01*
X38786821Y18261313D01*
X38620000Y18244883D01*
X38453180Y18261313D01*
X38453177Y18261314D01*
X38453176Y18261314D01*
X38292762Y18309975D01*
X38292760Y18309976D01*
X38292757Y18309977D01*
X38144923Y18388995D01*
X38015342Y18495341D01*
X37908996Y18624922D01*
X37829978Y18772756D01*
X37781314Y18933179D01*
X37769000Y19058197D01*
X37769000Y19941803D01*
X37781313Y20066820D01*
X37781314Y20066824D01*
X37829975Y20227238D01*
X37829976Y20227240D01*
X37829977Y20227243D01*
X37908995Y20375078D01*
X38015341Y20504659D01*
X38144922Y20611005D01*
X38292756Y20690023D01*
X38292759Y20690024D01*
X38292761Y20690025D01*
X38453175Y20738686D01*
X38453176Y20738686D01*
X38453179Y20738687D01*
X38620000Y20755117D01*
X38786820Y20738687D01*
X38786820Y20738687D01*
G37*
G36*
X31851000Y18249000D02*
X30149000Y18249000D01*
X30149000Y20751000D01*
X31851000Y20751000D01*
X31851000Y18249000D01*
X31851000Y18249000D01*
G37*
G36*
X45748228Y20818297D02*
X45903100Y20754147D01*
X46042481Y20661015D01*
X46161015Y20542481D01*
X46254147Y20403100D01*
X46318297Y20248228D01*
X46351000Y20083816D01*
X46351000Y19916184D01*
X46318297Y19751772D01*
X46254147Y19596900D01*
X46161015Y19457519D01*
X46042481Y19338985D01*
X45903100Y19245853D01*
X45748228Y19181703D01*
X45583816Y19149000D01*
X45416184Y19149000D01*
X45251772Y19181703D01*
X45096900Y19245853D01*
X44957519Y19338985D01*
X44838985Y19457519D01*
X44745853Y19596900D01*
X44681703Y19751772D01*
X44649000Y19916184D01*
X44649000Y20083816D01*
X44681703Y20248228D01*
X44745853Y20403100D01*
X44838985Y20542481D01*
X44957519Y20661015D01*
X45096900Y20754147D01*
X45251772Y20818297D01*
X45416184Y20851000D01*
X45583816Y20851000D01*
X45748228Y20818297D01*
X45748228Y20818297D01*
G37*
G36*
X43851000Y19149000D02*
X42149000Y19149000D01*
X42149000Y20851000D01*
X43851000Y20851000D01*
X43851000Y19149000D01*
X43851000Y19149000D01*
G37*
G36*
X31118604Y23421653D02*
X31155145Y23410568D01*
X31188820Y23392569D01*
X31218341Y23368341D01*
X31242569Y23338820D01*
X31260568Y23305145D01*
X31271653Y23268604D01*
X31276000Y23224462D01*
X31276000Y21775538D01*
X31271653Y21731396D01*
X31260568Y21694855D01*
X31242569Y21661180D01*
X31218341Y21631659D01*
X31188820Y21607431D01*
X31155145Y21589432D01*
X31118604Y21578347D01*
X31074462Y21574000D01*
X30125538Y21574000D01*
X30081396Y21578347D01*
X30044855Y21589432D01*
X30011180Y21607431D01*
X29981659Y21631659D01*
X29957431Y21661180D01*
X29939432Y21694855D01*
X29928347Y21731396D01*
X29924000Y21775538D01*
X29924000Y23224462D01*
X29928347Y23268604D01*
X29939432Y23305145D01*
X29957431Y23338820D01*
X29981659Y23368341D01*
X30011180Y23392569D01*
X30044855Y23410568D01*
X30081396Y23421653D01*
X30125538Y23426000D01*
X31074462Y23426000D01*
X31118604Y23421653D01*
X31118604Y23421653D01*
G37*
G36*
X33918604Y23421653D02*
X33955145Y23410568D01*
X33988820Y23392569D01*
X34018341Y23368341D01*
X34042569Y23338820D01*
X34060568Y23305145D01*
X34071653Y23268604D01*
X34076000Y23224462D01*
X34076000Y21775538D01*
X34071653Y21731396D01*
X34060568Y21694855D01*
X34042569Y21661180D01*
X34018341Y21631659D01*
X33988820Y21607431D01*
X33955145Y21589432D01*
X33918604Y21578347D01*
X33874462Y21574000D01*
X32925538Y21574000D01*
X32881396Y21578347D01*
X32844855Y21589432D01*
X32811180Y21607431D01*
X32781659Y21631659D01*
X32757431Y21661180D01*
X32739432Y21694855D01*
X32728347Y21731396D01*
X32724000Y21775538D01*
X32724000Y23224462D01*
X32728347Y23268604D01*
X32739432Y23305145D01*
X32757431Y23338820D01*
X32781659Y23368341D01*
X32811180Y23392569D01*
X32844855Y23410568D01*
X32881396Y23421653D01*
X32925538Y23426000D01*
X33874462Y23426000D01*
X33918604Y23421653D01*
X33918604Y23421653D01*
G37*
G36*
X58251000Y23749000D02*
X55749000Y23749000D01*
X55749000Y26251000D01*
X58251000Y26251000D01*
X58251000Y23749000D01*
X58251000Y23749000D01*
G37*
G36*
X64683635Y26238981D02*
X64864903Y26202925D01*
X65092571Y26108622D01*
X65296542Y25972332D01*
X65297469Y25971713D01*
X65471713Y25797469D01*
X65471715Y25797466D01*
X65608622Y25592571D01*
X65702925Y25364903D01*
X65751000Y25123213D01*
X65751000Y24876787D01*
X65702925Y24635097D01*
X65608622Y24407429D01*
X65472332Y24203458D01*
X65471713Y24202531D01*
X65297469Y24028287D01*
X65297466Y24028285D01*
X65092571Y23891378D01*
X64864903Y23797075D01*
X64683636Y23761019D01*
X64623214Y23749000D01*
X64376786Y23749000D01*
X64316365Y23761019D01*
X64135097Y23797075D01*
X63907429Y23891378D01*
X63702534Y24028285D01*
X63702531Y24028287D01*
X63528287Y24202531D01*
X63527668Y24203458D01*
X63391378Y24407429D01*
X63297075Y24635097D01*
X63249000Y24876787D01*
X63249000Y25123213D01*
X63297075Y25364903D01*
X63391378Y25592571D01*
X63528285Y25797466D01*
X63528287Y25797469D01*
X63702531Y25971713D01*
X63703458Y25972332D01*
X63907429Y26108622D01*
X64135097Y26202925D01*
X64316365Y26238981D01*
X64376786Y26251000D01*
X64623214Y26251000D01*
X64683635Y26238981D01*
X64683635Y26238981D01*
G37*
G36*
X14251000Y23749000D02*
X11749000Y23749000D01*
X11749000Y26251000D01*
X14251000Y26251000D01*
X14251000Y23749000D01*
X14251000Y23749000D01*
G37*
G36*
X5683635Y26238981D02*
X5864903Y26202925D01*
X6092571Y26108622D01*
X6296542Y25972332D01*
X6297469Y25971713D01*
X6471713Y25797469D01*
X6471715Y25797466D01*
X6608622Y25592571D01*
X6702925Y25364903D01*
X6751000Y25123213D01*
X6751000Y24876787D01*
X6702925Y24635097D01*
X6608622Y24407429D01*
X6472332Y24203458D01*
X6471713Y24202531D01*
X6297469Y24028287D01*
X6297466Y24028285D01*
X6092571Y23891378D01*
X5864903Y23797075D01*
X5683636Y23761019D01*
X5623214Y23749000D01*
X5376786Y23749000D01*
X5316365Y23761019D01*
X5135097Y23797075D01*
X4907429Y23891378D01*
X4702534Y24028285D01*
X4702531Y24028287D01*
X4528287Y24202531D01*
X4527668Y24203458D01*
X4391378Y24407429D01*
X4297075Y24635097D01*
X4249000Y24876787D01*
X4249000Y25123213D01*
X4297075Y25364903D01*
X4391378Y25592571D01*
X4528285Y25797466D01*
X4528287Y25797469D01*
X4702531Y25971713D01*
X4703458Y25972332D01*
X4907429Y26108622D01*
X5135097Y26202925D01*
X5316365Y26238981D01*
X5376786Y26251000D01*
X5623214Y26251000D01*
X5683635Y26238981D01*
X5683635Y26238981D01*
G37*
G36*
X28584466Y25596435D02*
X28623137Y25584704D01*
X28658779Y25565652D01*
X28690017Y25540017D01*
X28715652Y25508779D01*
X28734704Y25473137D01*
X28746435Y25434466D01*
X28751000Y25388112D01*
X28751000Y24736888D01*
X28746435Y24690534D01*
X28734704Y24651863D01*
X28715652Y24616221D01*
X28690017Y24584983D01*
X28658779Y24559348D01*
X28623137Y24540296D01*
X28584466Y24528565D01*
X28538112Y24524000D01*
X27461888Y24524000D01*
X27415534Y24528565D01*
X27376863Y24540296D01*
X27341221Y24559348D01*
X27309983Y24584983D01*
X27284348Y24616221D01*
X27265296Y24651863D01*
X27253565Y24690534D01*
X27249000Y24736888D01*
X27249000Y25388112D01*
X27253565Y25434466D01*
X27265296Y25473137D01*
X27284348Y25508779D01*
X27309983Y25540017D01*
X27341221Y25565652D01*
X27376863Y25584704D01*
X27415534Y25596435D01*
X27461888Y25601000D01*
X28538112Y25601000D01*
X28584466Y25596435D01*
X28584466Y25596435D01*
G37*
G36*
X43851000Y25149000D02*
X42149000Y25149000D01*
X42149000Y26851000D01*
X43851000Y26851000D01*
X43851000Y25149000D01*
X43851000Y25149000D01*
G37*
G36*
X45748228Y26818297D02*
X45903100Y26754147D01*
X46042481Y26661015D01*
X46161015Y26542481D01*
X46254147Y26403100D01*
X46318297Y26248228D01*
X46351000Y26083816D01*
X46351000Y25916184D01*
X46318297Y25751772D01*
X46254147Y25596900D01*
X46161015Y25457519D01*
X46042481Y25338985D01*
X45903100Y25245853D01*
X45748228Y25181703D01*
X45583816Y25149000D01*
X45416184Y25149000D01*
X45251772Y25181703D01*
X45096900Y25245853D01*
X44957519Y25338985D01*
X44838985Y25457519D01*
X44745853Y25596900D01*
X44681703Y25751772D01*
X44649000Y25916184D01*
X44649000Y26083816D01*
X44681703Y26248228D01*
X44745853Y26403100D01*
X44838985Y26542481D01*
X44957519Y26661015D01*
X45096900Y26754147D01*
X45251772Y26818297D01*
X45416184Y26851000D01*
X45583816Y26851000D01*
X45748228Y26818297D01*
X45748228Y26818297D01*
G37*
G36*
X31166820Y28358687D02*
X31166823Y28358686D01*
X31166824Y28358686D01*
X31327238Y28310025D01*
X31327240Y28310024D01*
X31327243Y28310023D01*
X31475078Y28231005D01*
X31604659Y28124659D01*
X31711005Y27995078D01*
X31790023Y27847244D01*
X31838687Y27686821D01*
X31851000Y27561804D01*
X31851000Y26678197D01*
X31838687Y26553180D01*
X31838686Y26553178D01*
X31838686Y26553175D01*
X31790025Y26392761D01*
X31790023Y26392756D01*
X31711005Y26244922D01*
X31604659Y26115341D01*
X31475078Y26008995D01*
X31327244Y25929977D01*
X31327241Y25929976D01*
X31327239Y25929975D01*
X31166825Y25881314D01*
X31166824Y25881314D01*
X31166821Y25881313D01*
X31000000Y25864883D01*
X30833180Y25881313D01*
X30833177Y25881314D01*
X30833176Y25881314D01*
X30672762Y25929975D01*
X30672760Y25929976D01*
X30672757Y25929977D01*
X30524923Y26008995D01*
X30395342Y26115341D01*
X30288996Y26244922D01*
X30209978Y26392756D01*
X30208084Y26399000D01*
X30161315Y26553175D01*
X30161315Y26553176D01*
X30161314Y26553179D01*
X30149000Y26678197D01*
X30149000Y27561803D01*
X30161313Y27686820D01*
X30161314Y27686824D01*
X30209975Y27847238D01*
X30209976Y27847240D01*
X30209977Y27847243D01*
X30288995Y27995078D01*
X30395341Y28124659D01*
X30524922Y28231005D01*
X30672756Y28310023D01*
X30672759Y28310024D01*
X30672761Y28310025D01*
X30833175Y28358686D01*
X30833176Y28358686D01*
X30833179Y28358687D01*
X31000000Y28375117D01*
X31166820Y28358687D01*
X31166820Y28358687D01*
G37*
G36*
X36246820Y28358687D02*
X36246823Y28358686D01*
X36246824Y28358686D01*
X36407238Y28310025D01*
X36407240Y28310024D01*
X36407243Y28310023D01*
X36555078Y28231005D01*
X36684659Y28124659D01*
X36791005Y27995078D01*
X36870023Y27847244D01*
X36918687Y27686821D01*
X36931000Y27561804D01*
X36931000Y26678197D01*
X36918687Y26553180D01*
X36918686Y26553178D01*
X36918686Y26553175D01*
X36870025Y26392761D01*
X36870023Y26392756D01*
X36791005Y26244922D01*
X36684659Y26115341D01*
X36555078Y26008995D01*
X36407244Y25929977D01*
X36407241Y25929976D01*
X36407239Y25929975D01*
X36246825Y25881314D01*
X36246824Y25881314D01*
X36246821Y25881313D01*
X36080000Y25864883D01*
X35913180Y25881313D01*
X35913177Y25881314D01*
X35913176Y25881314D01*
X35752762Y25929975D01*
X35752760Y25929976D01*
X35752757Y25929977D01*
X35604923Y26008995D01*
X35475342Y26115341D01*
X35368996Y26244922D01*
X35289978Y26392756D01*
X35288084Y26399000D01*
X35241315Y26553175D01*
X35241315Y26553176D01*
X35241314Y26553179D01*
X35229000Y26678197D01*
X35229000Y27561803D01*
X35241313Y27686820D01*
X35241314Y27686824D01*
X35289975Y27847238D01*
X35289976Y27847240D01*
X35289977Y27847243D01*
X35368995Y27995078D01*
X35475341Y28124659D01*
X35604922Y28231005D01*
X35752756Y28310023D01*
X35752759Y28310024D01*
X35752761Y28310025D01*
X35913175Y28358686D01*
X35913176Y28358686D01*
X35913179Y28358687D01*
X36080000Y28375117D01*
X36246820Y28358687D01*
X36246820Y28358687D01*
G37*
G36*
X33706820Y28358687D02*
X33706823Y28358686D01*
X33706824Y28358686D01*
X33867238Y28310025D01*
X33867240Y28310024D01*
X33867243Y28310023D01*
X34015078Y28231005D01*
X34144659Y28124659D01*
X34251005Y27995078D01*
X34330023Y27847244D01*
X34378687Y27686821D01*
X34391000Y27561804D01*
X34391000Y26678197D01*
X34378687Y26553180D01*
X34378686Y26553178D01*
X34378686Y26553175D01*
X34330025Y26392761D01*
X34330023Y26392756D01*
X34251005Y26244922D01*
X34144659Y26115341D01*
X34015078Y26008995D01*
X33867244Y25929977D01*
X33867241Y25929976D01*
X33867239Y25929975D01*
X33706825Y25881314D01*
X33706824Y25881314D01*
X33706821Y25881313D01*
X33540000Y25864883D01*
X33373180Y25881313D01*
X33373177Y25881314D01*
X33373176Y25881314D01*
X33212762Y25929975D01*
X33212760Y25929976D01*
X33212757Y25929977D01*
X33064923Y26008995D01*
X32935342Y26115341D01*
X32828996Y26244922D01*
X32749978Y26392756D01*
X32748084Y26399000D01*
X32701315Y26553175D01*
X32701315Y26553176D01*
X32701314Y26553179D01*
X32689000Y26678197D01*
X32689000Y27561803D01*
X32701313Y27686820D01*
X32701314Y27686824D01*
X32749975Y27847238D01*
X32749976Y27847240D01*
X32749977Y27847243D01*
X32828995Y27995078D01*
X32935341Y28124659D01*
X33064922Y28231005D01*
X33212756Y28310023D01*
X33212759Y28310024D01*
X33212761Y28310025D01*
X33373175Y28358686D01*
X33373176Y28358686D01*
X33373179Y28358687D01*
X33540000Y28375117D01*
X33706820Y28358687D01*
X33706820Y28358687D01*
G37*
G36*
X38786820Y28358687D02*
X38786823Y28358686D01*
X38786824Y28358686D01*
X38947238Y28310025D01*
X38947240Y28310024D01*
X38947243Y28310023D01*
X39095078Y28231005D01*
X39224659Y28124659D01*
X39331005Y27995078D01*
X39410023Y27847244D01*
X39458687Y27686821D01*
X39471000Y27561804D01*
X39471000Y26678197D01*
X39458687Y26553180D01*
X39458686Y26553178D01*
X39458686Y26553175D01*
X39410025Y26392761D01*
X39410023Y26392756D01*
X39331005Y26244922D01*
X39224659Y26115341D01*
X39095078Y26008995D01*
X38947244Y25929977D01*
X38947241Y25929976D01*
X38947239Y25929975D01*
X38786825Y25881314D01*
X38786824Y25881314D01*
X38786821Y25881313D01*
X38620000Y25864883D01*
X38453180Y25881313D01*
X38453177Y25881314D01*
X38453176Y25881314D01*
X38292762Y25929975D01*
X38292760Y25929976D01*
X38292757Y25929977D01*
X38144923Y26008995D01*
X38015342Y26115341D01*
X37908996Y26244922D01*
X37829978Y26392756D01*
X37828084Y26399000D01*
X37781315Y26553175D01*
X37781315Y26553176D01*
X37781314Y26553179D01*
X37769000Y26678197D01*
X37769000Y27561803D01*
X37781313Y27686820D01*
X37781314Y27686824D01*
X37829975Y27847238D01*
X37829976Y27847240D01*
X37829977Y27847243D01*
X37908995Y27995078D01*
X38015341Y28124659D01*
X38144922Y28231005D01*
X38292756Y28310023D01*
X38292759Y28310024D01*
X38292761Y28310025D01*
X38453175Y28358686D01*
X38453176Y28358686D01*
X38453179Y28358687D01*
X38620000Y28375117D01*
X38786820Y28358687D01*
X38786820Y28358687D01*
G37*
G36*
X28584466Y27471435D02*
X28623137Y27459704D01*
X28658779Y27440652D01*
X28690017Y27415017D01*
X28715652Y27383779D01*
X28734704Y27348137D01*
X28746435Y27309466D01*
X28751000Y27263112D01*
X28751000Y26611888D01*
X28746435Y26565534D01*
X28734704Y26526863D01*
X28715652Y26491221D01*
X28690017Y26459983D01*
X28658779Y26434348D01*
X28623137Y26415296D01*
X28584466Y26403565D01*
X28538112Y26399000D01*
X27461888Y26399000D01*
X27415534Y26403565D01*
X27376863Y26415296D01*
X27341221Y26434348D01*
X27309983Y26459983D01*
X27284348Y26491221D01*
X27265296Y26526863D01*
X27253565Y26565534D01*
X27249000Y26611888D01*
X27249000Y27263112D01*
X27253565Y27309466D01*
X27265296Y27348137D01*
X27284348Y27383779D01*
X27309983Y27415017D01*
X27341221Y27440652D01*
X27376863Y27459704D01*
X27415534Y27471435D01*
X27461888Y27476000D01*
X28538112Y27476000D01*
X28584466Y27471435D01*
X28584466Y27471435D01*
G37*
G36*
X20901000Y29099000D02*
X19099000Y29099000D01*
X19099000Y30901000D01*
X20901000Y30901000D01*
X20901000Y29099000D01*
X20901000Y29099000D01*
G37*
G36*
X22650443Y30894481D02*
X22716627Y30887963D01*
X22829853Y30853616D01*
X22886467Y30836443D01*
X23025087Y30762348D01*
X23042991Y30752778D01*
X23078729Y30723448D01*
X23180186Y30640186D01*
X23263448Y30538729D01*
X23292778Y30502991D01*
X23292779Y30502989D01*
X23376443Y30346467D01*
X23376443Y30346466D01*
X23427963Y30176627D01*
X23445359Y30000000D01*
X23427963Y29823373D01*
X23393616Y29710147D01*
X23376443Y29653533D01*
X23304132Y29518250D01*
X23292778Y29497009D01*
X23267101Y29465722D01*
X23180186Y29359814D01*
X23088229Y29284348D01*
X23042991Y29247222D01*
X23042989Y29247221D01*
X22886467Y29163557D01*
X22829853Y29146384D01*
X22716627Y29112037D01*
X22650442Y29105518D01*
X22584260Y29099000D01*
X22495740Y29099000D01*
X22429558Y29105518D01*
X22363373Y29112037D01*
X22250147Y29146384D01*
X22193533Y29163557D01*
X22037011Y29247221D01*
X22037009Y29247222D01*
X21991771Y29284348D01*
X21899814Y29359814D01*
X21812899Y29465722D01*
X21787222Y29497009D01*
X21775868Y29518250D01*
X21703557Y29653533D01*
X21686384Y29710147D01*
X21652037Y29823373D01*
X21634641Y30000000D01*
X21652037Y30176627D01*
X21703557Y30346466D01*
X21703557Y30346467D01*
X21787221Y30502989D01*
X21787222Y30502991D01*
X21816552Y30538729D01*
X21899814Y30640186D01*
X22001271Y30723448D01*
X22037009Y30752778D01*
X22054913Y30762348D01*
X22193533Y30836443D01*
X22250147Y30853616D01*
X22363373Y30887963D01*
X22429557Y30894481D01*
X22495740Y30901000D01*
X22584260Y30901000D01*
X22650443Y30894481D01*
X22650443Y30894481D01*
G37*
G36*
X25190443Y30894481D02*
X25256627Y30887963D01*
X25369853Y30853616D01*
X25426467Y30836443D01*
X25565087Y30762348D01*
X25582991Y30752778D01*
X25618729Y30723448D01*
X25720186Y30640186D01*
X25803448Y30538729D01*
X25832778Y30502991D01*
X25832779Y30502989D01*
X25916443Y30346467D01*
X25916443Y30346466D01*
X25967963Y30176627D01*
X25985359Y30000000D01*
X25967963Y29823373D01*
X25933616Y29710147D01*
X25916443Y29653533D01*
X25844132Y29518250D01*
X25832778Y29497009D01*
X25807101Y29465722D01*
X25720186Y29359814D01*
X25628229Y29284348D01*
X25582991Y29247222D01*
X25582989Y29247221D01*
X25426467Y29163557D01*
X25369853Y29146384D01*
X25256627Y29112037D01*
X25190442Y29105518D01*
X25124260Y29099000D01*
X25035740Y29099000D01*
X24969558Y29105518D01*
X24903373Y29112037D01*
X24790147Y29146384D01*
X24733533Y29163557D01*
X24577011Y29247221D01*
X24577009Y29247222D01*
X24531771Y29284348D01*
X24439814Y29359814D01*
X24352899Y29465722D01*
X24327222Y29497009D01*
X24315868Y29518250D01*
X24243557Y29653533D01*
X24226384Y29710147D01*
X24192037Y29823373D01*
X24174641Y30000000D01*
X24192037Y30176627D01*
X24243557Y30346466D01*
X24243557Y30346467D01*
X24327221Y30502989D01*
X24327222Y30502991D01*
X24356552Y30538729D01*
X24439814Y30640186D01*
X24541271Y30723448D01*
X24577009Y30752778D01*
X24594913Y30762348D01*
X24733533Y30836443D01*
X24790147Y30853616D01*
X24903373Y30887963D01*
X24969557Y30894481D01*
X25035740Y30901000D01*
X25124260Y30901000D01*
X25190443Y30894481D01*
X25190443Y30894481D01*
G37*
G36*
X16434466Y30746435D02*
X16473137Y30734704D01*
X16508779Y30715652D01*
X16540017Y30690017D01*
X16565652Y30658779D01*
X16584704Y30623137D01*
X16596435Y30584466D01*
X16601000Y30538112D01*
X16601000Y29461888D01*
X16596435Y29415534D01*
X16584704Y29376863D01*
X16565652Y29341221D01*
X16540017Y29309983D01*
X16508779Y29284348D01*
X16473137Y29265296D01*
X16434466Y29253565D01*
X16388112Y29249000D01*
X15736888Y29249000D01*
X15690534Y29253565D01*
X15651863Y29265296D01*
X15616221Y29284348D01*
X15584983Y29309983D01*
X15559348Y29341221D01*
X15540296Y29376863D01*
X15528565Y29415534D01*
X15524000Y29461888D01*
X15524000Y30538112D01*
X15528565Y30584466D01*
X15540296Y30623137D01*
X15559348Y30658779D01*
X15584983Y30690017D01*
X15616221Y30715652D01*
X15651863Y30734704D01*
X15690534Y30746435D01*
X15736888Y30751000D01*
X16388112Y30751000D01*
X16434466Y30746435D01*
X16434466Y30746435D01*
G37*
G36*
X18309466Y30746435D02*
X18348137Y30734704D01*
X18383779Y30715652D01*
X18415017Y30690017D01*
X18440652Y30658779D01*
X18459704Y30623137D01*
X18471435Y30584466D01*
X18476000Y30538112D01*
X18476000Y29461888D01*
X18471435Y29415534D01*
X18459704Y29376863D01*
X18440652Y29341221D01*
X18415017Y29309983D01*
X18383779Y29284348D01*
X18348137Y29265296D01*
X18309466Y29253565D01*
X18263112Y29249000D01*
X17611888Y29249000D01*
X17565534Y29253565D01*
X17526863Y29265296D01*
X17491221Y29284348D01*
X17459983Y29309983D01*
X17434348Y29341221D01*
X17415296Y29376863D01*
X17403565Y29415534D01*
X17399000Y29461888D01*
X17399000Y30538112D01*
X17403565Y30584466D01*
X17415296Y30623137D01*
X17434348Y30658779D01*
X17459983Y30690017D01*
X17491221Y30715652D01*
X17526863Y30734704D01*
X17565534Y30746435D01*
X17611888Y30751000D01*
X18263112Y30751000D01*
X18309466Y30746435D01*
X18309466Y30746435D01*
G37*
G36*
X42918604Y31921653D02*
X42955145Y31910568D01*
X42988820Y31892569D01*
X43018341Y31868341D01*
X43042569Y31838820D01*
X43060568Y31805145D01*
X43071653Y31768604D01*
X43076000Y31724462D01*
X43076000Y30275538D01*
X43071653Y30231396D01*
X43060568Y30194855D01*
X43042569Y30161180D01*
X43018341Y30131659D01*
X42988820Y30107431D01*
X42955145Y30089432D01*
X42918604Y30078347D01*
X42874462Y30074000D01*
X41925538Y30074000D01*
X41881396Y30078347D01*
X41844855Y30089432D01*
X41811180Y30107431D01*
X41781659Y30131659D01*
X41757431Y30161180D01*
X41739432Y30194855D01*
X41728347Y30231396D01*
X41724000Y30275538D01*
X41724000Y31724462D01*
X41728347Y31768604D01*
X41739432Y31805145D01*
X41757431Y31838820D01*
X41781659Y31868341D01*
X41811180Y31892569D01*
X41844855Y31910568D01*
X41881396Y31921653D01*
X41925538Y31926000D01*
X42874462Y31926000D01*
X42918604Y31921653D01*
X42918604Y31921653D01*
G37*
G36*
X40118604Y31921653D02*
X40155145Y31910568D01*
X40188820Y31892569D01*
X40218341Y31868341D01*
X40242569Y31838820D01*
X40260568Y31805145D01*
X40271653Y31768604D01*
X40276000Y31724462D01*
X40276000Y30275538D01*
X40271653Y30231396D01*
X40260568Y30194855D01*
X40242569Y30161180D01*
X40218341Y30131659D01*
X40188820Y30107431D01*
X40155145Y30089432D01*
X40118604Y30078347D01*
X40074462Y30074000D01*
X39125538Y30074000D01*
X39081396Y30078347D01*
X39044855Y30089432D01*
X39011180Y30107431D01*
X38981659Y30131659D01*
X38957431Y30161180D01*
X38939432Y30194855D01*
X38928347Y30231396D01*
X38924000Y30275538D01*
X38924000Y31724462D01*
X38928347Y31768604D01*
X38939432Y31805145D01*
X38957431Y31838820D01*
X38981659Y31868341D01*
X39011180Y31892569D01*
X39044855Y31910568D01*
X39081396Y31921653D01*
X39125538Y31926000D01*
X40074462Y31926000D01*
X40118604Y31921653D01*
X40118604Y31921653D01*
G37*
G36*
X28118604Y32921653D02*
X28155145Y32910568D01*
X28188820Y32892569D01*
X28218341Y32868341D01*
X28242569Y32838820D01*
X28260568Y32805145D01*
X28271653Y32768604D01*
X28276000Y32724462D01*
X28276000Y31275538D01*
X28271653Y31231396D01*
X28260568Y31194855D01*
X28242569Y31161180D01*
X28218341Y31131659D01*
X28188820Y31107431D01*
X28155145Y31089432D01*
X28118604Y31078347D01*
X28074462Y31074000D01*
X27125538Y31074000D01*
X27081396Y31078347D01*
X27044855Y31089432D01*
X27011180Y31107431D01*
X26981659Y31131659D01*
X26957431Y31161180D01*
X26939432Y31194855D01*
X26928347Y31231396D01*
X26924000Y31275538D01*
X26924000Y32724462D01*
X26928347Y32768604D01*
X26939432Y32805145D01*
X26957431Y32838820D01*
X26981659Y32868341D01*
X27011180Y32892569D01*
X27044855Y32910568D01*
X27081396Y32921653D01*
X27125538Y32926000D01*
X28074462Y32926000D01*
X28118604Y32921653D01*
X28118604Y32921653D01*
G37*
G36*
X30918604Y32921653D02*
X30955145Y32910568D01*
X30988820Y32892569D01*
X31018341Y32868341D01*
X31042569Y32838820D01*
X31060568Y32805145D01*
X31071653Y32768604D01*
X31076000Y32724462D01*
X31076000Y31275538D01*
X31071653Y31231396D01*
X31060568Y31194855D01*
X31042569Y31161180D01*
X31018341Y31131659D01*
X30988820Y31107431D01*
X30955145Y31089432D01*
X30918604Y31078347D01*
X30874462Y31074000D01*
X29925538Y31074000D01*
X29881396Y31078347D01*
X29844855Y31089432D01*
X29811180Y31107431D01*
X29781659Y31131659D01*
X29757431Y31161180D01*
X29739432Y31194855D01*
X29728347Y31231396D01*
X29724000Y31275538D01*
X29724000Y32724462D01*
X29728347Y32768604D01*
X29739432Y32805145D01*
X29757431Y32838820D01*
X29781659Y32868341D01*
X29811180Y32892569D01*
X29844855Y32910568D01*
X29881396Y32921653D01*
X29925538Y32926000D01*
X30874462Y32926000D01*
X30918604Y32921653D01*
X30918604Y32921653D01*
G37*
G36*
X35087983Y32768604D02*
X35224893Y32741371D01*
X35365206Y32683252D01*
X35491484Y32598875D01*
X35598875Y32491484D01*
X35683252Y32365206D01*
X35741371Y32224893D01*
X35741371Y32224891D01*
X35771000Y32075938D01*
X35771000Y31924062D01*
X35762321Y31880429D01*
X35741371Y31775107D01*
X35683252Y31634794D01*
X35598875Y31508516D01*
X35491484Y31401125D01*
X35365206Y31316748D01*
X35224893Y31258629D01*
X35135873Y31240922D01*
X35075938Y31229000D01*
X34924062Y31229000D01*
X34864127Y31240922D01*
X34775107Y31258629D01*
X34634794Y31316748D01*
X34508516Y31401125D01*
X34401125Y31508516D01*
X34316748Y31634794D01*
X34258629Y31775107D01*
X34237679Y31880429D01*
X34229000Y31924062D01*
X34229000Y32075938D01*
X34258629Y32224891D01*
X34258629Y32224893D01*
X34316748Y32365206D01*
X34401125Y32491484D01*
X34508516Y32598875D01*
X34634794Y32683252D01*
X34775107Y32741371D01*
X34912017Y32768604D01*
X34924062Y32771000D01*
X35075938Y32771000D01*
X35087983Y32768604D01*
X35087983Y32768604D01*
G37*
G36*
X37627983Y32768604D02*
X37764893Y32741371D01*
X37905206Y32683252D01*
X38031484Y32598875D01*
X38138875Y32491484D01*
X38223252Y32365206D01*
X38281371Y32224893D01*
X38281371Y32224891D01*
X38311000Y32075938D01*
X38311000Y31924062D01*
X38302321Y31880429D01*
X38281371Y31775107D01*
X38223252Y31634794D01*
X38138875Y31508516D01*
X38031484Y31401125D01*
X37905206Y31316748D01*
X37764893Y31258629D01*
X37675873Y31240922D01*
X37615938Y31229000D01*
X37464062Y31229000D01*
X37404127Y31240922D01*
X37315107Y31258629D01*
X37174794Y31316748D01*
X37048516Y31401125D01*
X36941125Y31508516D01*
X36856748Y31634794D01*
X36798629Y31775107D01*
X36777679Y31880429D01*
X36769000Y31924062D01*
X36769000Y32075938D01*
X36798629Y32224891D01*
X36798629Y32224893D01*
X36856748Y32365206D01*
X36941125Y32491484D01*
X37048516Y32598875D01*
X37174794Y32683252D01*
X37315107Y32741371D01*
X37452017Y32768604D01*
X37464062Y32771000D01*
X37615938Y32771000D01*
X37627983Y32768604D01*
X37627983Y32768604D01*
G37*
G36*
X32547983Y32768604D02*
X32684893Y32741371D01*
X32825206Y32683252D01*
X32951484Y32598875D01*
X33058875Y32491484D01*
X33143252Y32365206D01*
X33201371Y32224893D01*
X33201371Y32224891D01*
X33231000Y32075938D01*
X33231000Y31924062D01*
X33222321Y31880429D01*
X33201371Y31775107D01*
X33143252Y31634794D01*
X33058875Y31508516D01*
X32951484Y31401125D01*
X32825206Y31316748D01*
X32684893Y31258629D01*
X32595873Y31240922D01*
X32535938Y31229000D01*
X32384062Y31229000D01*
X32324127Y31240922D01*
X32235107Y31258629D01*
X32094794Y31316748D01*
X31968516Y31401125D01*
X31861125Y31508516D01*
X31776748Y31634794D01*
X31718629Y31775107D01*
X31697679Y31880429D01*
X31689000Y31924062D01*
X31689000Y32075938D01*
X31718629Y32224891D01*
X31718629Y32224893D01*
X31776748Y32365206D01*
X31861125Y32491484D01*
X31968516Y32598875D01*
X32094794Y32683252D01*
X32235107Y32741371D01*
X32372017Y32768604D01*
X32384062Y32771000D01*
X32535938Y32771000D01*
X32547983Y32768604D01*
X32547983Y32768604D01*
G37*
G36*
X50768604Y34771653D02*
X50805145Y34760568D01*
X50838820Y34742569D01*
X50868341Y34718341D01*
X50892569Y34688820D01*
X50910568Y34655145D01*
X50921653Y34618604D01*
X50926000Y34574462D01*
X50926000Y33625538D01*
X50921653Y33581396D01*
X50910568Y33544855D01*
X50892569Y33511180D01*
X50868341Y33481659D01*
X50838820Y33457431D01*
X50805145Y33439432D01*
X50768604Y33428347D01*
X50724462Y33424000D01*
X49275538Y33424000D01*
X49231396Y33428347D01*
X49194855Y33439432D01*
X49161180Y33457431D01*
X49131659Y33481659D01*
X49107431Y33511180D01*
X49089432Y33544855D01*
X49078347Y33581396D01*
X49074000Y33625538D01*
X49074000Y34574462D01*
X49078347Y34618604D01*
X49089432Y34655145D01*
X49107431Y34688820D01*
X49131659Y34718341D01*
X49161180Y34742569D01*
X49194855Y34760568D01*
X49231396Y34771653D01*
X49275538Y34776000D01*
X50724462Y34776000D01*
X50768604Y34771653D01*
X50768604Y34771653D01*
G37*
G36*
X20768604Y34771653D02*
X20805145Y34760568D01*
X20838820Y34742569D01*
X20868341Y34718341D01*
X20892569Y34688820D01*
X20910568Y34655145D01*
X20921653Y34618604D01*
X20926000Y34574462D01*
X20926000Y33625538D01*
X20921653Y33581396D01*
X20910568Y33544855D01*
X20892569Y33511180D01*
X20868341Y33481659D01*
X20838820Y33457431D01*
X20805145Y33439432D01*
X20768604Y33428347D01*
X20724462Y33424000D01*
X19275538Y33424000D01*
X19231396Y33428347D01*
X19194855Y33439432D01*
X19161180Y33457431D01*
X19131659Y33481659D01*
X19107431Y33511180D01*
X19089432Y33544855D01*
X19078347Y33581396D01*
X19074000Y33625538D01*
X19074000Y34574462D01*
X19078347Y34618604D01*
X19089432Y34655145D01*
X19107431Y34688820D01*
X19131659Y34718341D01*
X19161180Y34742569D01*
X19194855Y34760568D01*
X19231396Y34771653D01*
X19275538Y34776000D01*
X20724462Y34776000D01*
X20768604Y34771653D01*
X20768604Y34771653D01*
G37*
G36*
X36618604Y35421653D02*
X36655145Y35410568D01*
X36688820Y35392569D01*
X36718341Y35368341D01*
X36742569Y35338820D01*
X36760568Y35305145D01*
X36771653Y35268604D01*
X36776000Y35224462D01*
X36776000Y33775538D01*
X36771653Y33731396D01*
X36760568Y33694855D01*
X36742569Y33661180D01*
X36718341Y33631659D01*
X36688820Y33607431D01*
X36655145Y33589432D01*
X36618604Y33578347D01*
X36574462Y33574000D01*
X35625538Y33574000D01*
X35581396Y33578347D01*
X35544855Y33589432D01*
X35511180Y33607431D01*
X35481659Y33631659D01*
X35457431Y33661180D01*
X35439432Y33694855D01*
X35428347Y33731396D01*
X35424000Y33775538D01*
X35424000Y35224462D01*
X35428347Y35268604D01*
X35439432Y35305145D01*
X35457431Y35338820D01*
X35481659Y35368341D01*
X35511180Y35392569D01*
X35544855Y35410568D01*
X35581396Y35421653D01*
X35625538Y35426000D01*
X36574462Y35426000D01*
X36618604Y35421653D01*
X36618604Y35421653D01*
G37*
G36*
X39418604Y35421653D02*
X39455145Y35410568D01*
X39488820Y35392569D01*
X39518341Y35368341D01*
X39542569Y35338820D01*
X39560568Y35305145D01*
X39571653Y35268604D01*
X39576000Y35224462D01*
X39576000Y33775538D01*
X39571653Y33731396D01*
X39560568Y33694855D01*
X39542569Y33661180D01*
X39518341Y33631659D01*
X39488820Y33607431D01*
X39455145Y33589432D01*
X39418604Y33578347D01*
X39374462Y33574000D01*
X38425538Y33574000D01*
X38381396Y33578347D01*
X38344855Y33589432D01*
X38311180Y33607431D01*
X38281659Y33631659D01*
X38257431Y33661180D01*
X38239432Y33694855D01*
X38228347Y33731396D01*
X38224000Y33775538D01*
X38224000Y35224462D01*
X38228347Y35268604D01*
X38239432Y35305145D01*
X38257431Y35338820D01*
X38281659Y35368341D01*
X38311180Y35392569D01*
X38344855Y35410568D01*
X38381396Y35421653D01*
X38425538Y35426000D01*
X39374462Y35426000D01*
X39418604Y35421653D01*
X39418604Y35421653D01*
G37*
G36*
X17248228Y35318297D02*
X17403100Y35254147D01*
X17542481Y35161015D01*
X17661015Y35042481D01*
X17754147Y34903100D01*
X17818297Y34748228D01*
X17851000Y34583816D01*
X17851000Y34416184D01*
X17818297Y34251772D01*
X17754147Y34096900D01*
X17661015Y33957519D01*
X17542481Y33838985D01*
X17403100Y33745853D01*
X17248228Y33681703D01*
X17083816Y33649000D01*
X16916184Y33649000D01*
X16751772Y33681703D01*
X16596900Y33745853D01*
X16457519Y33838985D01*
X16338985Y33957519D01*
X16245853Y34096900D01*
X16181703Y34251772D01*
X16149000Y34416184D01*
X16149000Y34583816D01*
X16181703Y34748228D01*
X16245853Y34903100D01*
X16338985Y35042481D01*
X16457519Y35161015D01*
X16596900Y35254147D01*
X16751772Y35318297D01*
X16916184Y35351000D01*
X17083816Y35351000D01*
X17248228Y35318297D01*
X17248228Y35318297D01*
G37*
G36*
X47248228Y35318297D02*
X47403100Y35254147D01*
X47542481Y35161015D01*
X47661015Y35042481D01*
X47754147Y34903100D01*
X47818297Y34748228D01*
X47851000Y34583816D01*
X47851000Y34416184D01*
X47818297Y34251772D01*
X47754147Y34096900D01*
X47661015Y33957519D01*
X47542481Y33838985D01*
X47403100Y33745853D01*
X47248228Y33681703D01*
X47083816Y33649000D01*
X46916184Y33649000D01*
X46751772Y33681703D01*
X46596900Y33745853D01*
X46457519Y33838985D01*
X46338985Y33957519D01*
X46245853Y34096900D01*
X46181703Y34251772D01*
X46149000Y34416184D01*
X46149000Y34583816D01*
X46181703Y34748228D01*
X46245853Y34903100D01*
X46338985Y35042481D01*
X46457519Y35161015D01*
X46596900Y35254147D01*
X46751772Y35318297D01*
X46916184Y35351000D01*
X47083816Y35351000D01*
X47248228Y35318297D01*
X47248228Y35318297D01*
G37*
G36*
X44268604Y36771653D02*
X44305145Y36760568D01*
X44338820Y36742569D01*
X44368341Y36718341D01*
X44392569Y36688820D01*
X44410568Y36655145D01*
X44421653Y36618604D01*
X44426000Y36574462D01*
X44426000Y35625538D01*
X44421653Y35581396D01*
X44410568Y35544855D01*
X44392569Y35511180D01*
X44368341Y35481659D01*
X44338820Y35457431D01*
X44305145Y35439432D01*
X44268604Y35428347D01*
X44224462Y35424000D01*
X42775538Y35424000D01*
X42731396Y35428347D01*
X42694855Y35439432D01*
X42661180Y35457431D01*
X42631659Y35481659D01*
X42607431Y35511180D01*
X42589432Y35544855D01*
X42578347Y35581396D01*
X42574000Y35625538D01*
X42574000Y36574462D01*
X42578347Y36618604D01*
X42589432Y36655145D01*
X42607431Y36688820D01*
X42631659Y36718341D01*
X42661180Y36742569D01*
X42694855Y36760568D01*
X42731396Y36771653D01*
X42775538Y36776000D01*
X44224462Y36776000D01*
X44268604Y36771653D01*
X44268604Y36771653D01*
G37*
G36*
X14268604Y36771653D02*
X14305145Y36760568D01*
X14338820Y36742569D01*
X14368341Y36718341D01*
X14392569Y36688820D01*
X14410568Y36655145D01*
X14421653Y36618604D01*
X14426000Y36574462D01*
X14426000Y35625538D01*
X14421653Y35581396D01*
X14410568Y35544855D01*
X14392569Y35511180D01*
X14368341Y35481659D01*
X14338820Y35457431D01*
X14305145Y35439432D01*
X14268604Y35428347D01*
X14224462Y35424000D01*
X12775538Y35424000D01*
X12731396Y35428347D01*
X12694855Y35439432D01*
X12661180Y35457431D01*
X12631659Y35481659D01*
X12607431Y35511180D01*
X12589432Y35544855D01*
X12578347Y35581396D01*
X12574000Y35625538D01*
X12574000Y36574462D01*
X12578347Y36618604D01*
X12589432Y36655145D01*
X12607431Y36688820D01*
X12631659Y36718341D01*
X12661180Y36742569D01*
X12694855Y36760568D01*
X12731396Y36771653D01*
X12775538Y36776000D01*
X14224462Y36776000D01*
X14268604Y36771653D01*
X14268604Y36771653D01*
G37*
G36*
X17851000Y36149000D02*
X16149000Y36149000D01*
X16149000Y37851000D01*
X17851000Y37851000D01*
X17851000Y36149000D01*
X17851000Y36149000D01*
G37*
G36*
X47851000Y36149000D02*
X46149000Y36149000D01*
X46149000Y37851000D01*
X47851000Y37851000D01*
X47851000Y36149000D01*
X47851000Y36149000D01*
G37*
G36*
X50768604Y37571653D02*
X50805145Y37560568D01*
X50838820Y37542569D01*
X50868341Y37518341D01*
X50892569Y37488820D01*
X50910568Y37455145D01*
X50921653Y37418604D01*
X50926000Y37374462D01*
X50926000Y36425538D01*
X50921653Y36381396D01*
X50910568Y36344855D01*
X50892569Y36311180D01*
X50868341Y36281659D01*
X50838820Y36257431D01*
X50805145Y36239432D01*
X50768604Y36228347D01*
X50724462Y36224000D01*
X49275538Y36224000D01*
X49231396Y36228347D01*
X49194855Y36239432D01*
X49161180Y36257431D01*
X49131659Y36281659D01*
X49107431Y36311180D01*
X49089432Y36344855D01*
X49078347Y36381396D01*
X49074000Y36425538D01*
X49074000Y37374462D01*
X49078347Y37418604D01*
X49089432Y37455145D01*
X49107431Y37488820D01*
X49131659Y37518341D01*
X49161180Y37542569D01*
X49194855Y37560568D01*
X49231396Y37571653D01*
X49275538Y37576000D01*
X50724462Y37576000D01*
X50768604Y37571653D01*
X50768604Y37571653D01*
G37*
G36*
X20768604Y37571653D02*
X20805145Y37560568D01*
X20838820Y37542569D01*
X20868341Y37518341D01*
X20892569Y37488820D01*
X20910568Y37455145D01*
X20921653Y37418604D01*
X20926000Y37374462D01*
X20926000Y36425538D01*
X20921653Y36381396D01*
X20910568Y36344855D01*
X20892569Y36311180D01*
X20868341Y36281659D01*
X20838820Y36257431D01*
X20805145Y36239432D01*
X20768604Y36228347D01*
X20724462Y36224000D01*
X19275538Y36224000D01*
X19231396Y36228347D01*
X19194855Y36239432D01*
X19161180Y36257431D01*
X19131659Y36281659D01*
X19107431Y36311180D01*
X19089432Y36344855D01*
X19078347Y36381396D01*
X19074000Y36425538D01*
X19074000Y37374462D01*
X19078347Y37418604D01*
X19089432Y37455145D01*
X19107431Y37488820D01*
X19131659Y37518341D01*
X19161180Y37542569D01*
X19194855Y37560568D01*
X19231396Y37571653D01*
X19275538Y37576000D01*
X20724462Y37576000D01*
X20768604Y37571653D01*
X20768604Y37571653D01*
G37*
G36*
X33268604Y38771653D02*
X33305145Y38760568D01*
X33338820Y38742569D01*
X33368341Y38718341D01*
X33392569Y38688820D01*
X33410568Y38655145D01*
X33421653Y38618604D01*
X33426000Y38574462D01*
X33426000Y37625538D01*
X33421653Y37581396D01*
X33410568Y37544855D01*
X33392569Y37511180D01*
X33368341Y37481659D01*
X33338820Y37457431D01*
X33305145Y37439432D01*
X33268604Y37428347D01*
X33224462Y37424000D01*
X31775538Y37424000D01*
X31731396Y37428347D01*
X31694855Y37439432D01*
X31661180Y37457431D01*
X31631659Y37481659D01*
X31607431Y37511180D01*
X31589432Y37544855D01*
X31578347Y37581396D01*
X31574000Y37625538D01*
X31574000Y38574462D01*
X31578347Y38618604D01*
X31589432Y38655145D01*
X31607431Y38688820D01*
X31631659Y38718341D01*
X31661180Y38742569D01*
X31694855Y38760568D01*
X31731396Y38771653D01*
X31775538Y38776000D01*
X33224462Y38776000D01*
X33268604Y38771653D01*
X33268604Y38771653D01*
G37*
G36*
X38268604Y38771653D02*
X38305145Y38760568D01*
X38338820Y38742569D01*
X38368341Y38718341D01*
X38392569Y38688820D01*
X38410568Y38655145D01*
X38421653Y38618604D01*
X38426000Y38574462D01*
X38426000Y37625538D01*
X38421653Y37581396D01*
X38410568Y37544855D01*
X38392569Y37511180D01*
X38368341Y37481659D01*
X38338820Y37457431D01*
X38305145Y37439432D01*
X38268604Y37428347D01*
X38224462Y37424000D01*
X36775538Y37424000D01*
X36731396Y37428347D01*
X36694855Y37439432D01*
X36661180Y37457431D01*
X36631659Y37481659D01*
X36607431Y37511180D01*
X36589432Y37544855D01*
X36578347Y37581396D01*
X36574000Y37625538D01*
X36574000Y38574462D01*
X36578347Y38618604D01*
X36589432Y38655145D01*
X36607431Y38688820D01*
X36631659Y38718341D01*
X36661180Y38742569D01*
X36694855Y38760568D01*
X36731396Y38771653D01*
X36775538Y38776000D01*
X38224462Y38776000D01*
X38268604Y38771653D01*
X38268604Y38771653D01*
G37*
G36*
X30584466Y38596435D02*
X30623137Y38584704D01*
X30658779Y38565652D01*
X30690017Y38540017D01*
X30715652Y38508779D01*
X30734704Y38473137D01*
X30746435Y38434466D01*
X30751000Y38388112D01*
X30751000Y37736888D01*
X30746435Y37690534D01*
X30734704Y37651863D01*
X30715652Y37616221D01*
X30690017Y37584983D01*
X30658779Y37559348D01*
X30623137Y37540296D01*
X30584466Y37528565D01*
X30538112Y37524000D01*
X29461888Y37524000D01*
X29415534Y37528565D01*
X29376863Y37540296D01*
X29341221Y37559348D01*
X29309983Y37584983D01*
X29284348Y37616221D01*
X29265296Y37651863D01*
X29253565Y37690534D01*
X29249000Y37736888D01*
X29249000Y38388112D01*
X29253565Y38434466D01*
X29265296Y38473137D01*
X29284348Y38508779D01*
X29309983Y38540017D01*
X29341221Y38565652D01*
X29376863Y38584704D01*
X29415534Y38596435D01*
X29461888Y38601000D01*
X30538112Y38601000D01*
X30584466Y38596435D01*
X30584466Y38596435D01*
G37*
G36*
X40584466Y38596435D02*
X40623137Y38584704D01*
X40658779Y38565652D01*
X40690017Y38540017D01*
X40715652Y38508779D01*
X40734704Y38473137D01*
X40746435Y38434466D01*
X40751000Y38388112D01*
X40751000Y37736888D01*
X40746435Y37690534D01*
X40734704Y37651863D01*
X40715652Y37616221D01*
X40690017Y37584983D01*
X40658779Y37559348D01*
X40623137Y37540296D01*
X40584466Y37528565D01*
X40538112Y37524000D01*
X39461888Y37524000D01*
X39415534Y37528565D01*
X39376863Y37540296D01*
X39341221Y37559348D01*
X39309983Y37584983D01*
X39284348Y37616221D01*
X39265296Y37651863D01*
X39253565Y37690534D01*
X39249000Y37736888D01*
X39249000Y38388112D01*
X39253565Y38434466D01*
X39265296Y38473137D01*
X39284348Y38508779D01*
X39309983Y38540017D01*
X39341221Y38565652D01*
X39376863Y38584704D01*
X39415534Y38596435D01*
X39461888Y38601000D01*
X40538112Y38601000D01*
X40584466Y38596435D01*
X40584466Y38596435D01*
G37*
G36*
X14268604Y39571653D02*
X14305145Y39560568D01*
X14338820Y39542569D01*
X14368341Y39518341D01*
X14392569Y39488820D01*
X14410568Y39455145D01*
X14421653Y39418604D01*
X14426000Y39374462D01*
X14426000Y38425538D01*
X14421653Y38381396D01*
X14410568Y38344855D01*
X14392569Y38311180D01*
X14368341Y38281659D01*
X14338820Y38257431D01*
X14305145Y38239432D01*
X14268604Y38228347D01*
X14224462Y38224000D01*
X12775538Y38224000D01*
X12731396Y38228347D01*
X12694855Y38239432D01*
X12661180Y38257431D01*
X12631659Y38281659D01*
X12607431Y38311180D01*
X12589432Y38344855D01*
X12578347Y38381396D01*
X12574000Y38425538D01*
X12574000Y39374462D01*
X12578347Y39418604D01*
X12589432Y39455145D01*
X12607431Y39488820D01*
X12631659Y39518341D01*
X12661180Y39542569D01*
X12694855Y39560568D01*
X12731396Y39571653D01*
X12775538Y39576000D01*
X14224462Y39576000D01*
X14268604Y39571653D01*
X14268604Y39571653D01*
G37*
G36*
X44268604Y39571653D02*
X44305145Y39560568D01*
X44338820Y39542569D01*
X44368341Y39518341D01*
X44392569Y39488820D01*
X44410568Y39455145D01*
X44421653Y39418604D01*
X44426000Y39374462D01*
X44426000Y38425538D01*
X44421653Y38381396D01*
X44410568Y38344855D01*
X44392569Y38311180D01*
X44368341Y38281659D01*
X44338820Y38257431D01*
X44305145Y38239432D01*
X44268604Y38228347D01*
X44224462Y38224000D01*
X42775538Y38224000D01*
X42731396Y38228347D01*
X42694855Y38239432D01*
X42661180Y38257431D01*
X42631659Y38281659D01*
X42607431Y38311180D01*
X42589432Y38344855D01*
X42578347Y38381396D01*
X42574000Y38425538D01*
X42574000Y39374462D01*
X42578347Y39418604D01*
X42589432Y39455145D01*
X42607431Y39488820D01*
X42631659Y39518341D01*
X42661180Y39542569D01*
X42694855Y39560568D01*
X42731396Y39571653D01*
X42775538Y39576000D01*
X44224462Y39576000D01*
X44268604Y39571653D01*
X44268604Y39571653D01*
G37*
G36*
X20934466Y40746435D02*
X20973137Y40734704D01*
X21008779Y40715652D01*
X21040017Y40690017D01*
X21065652Y40658779D01*
X21084704Y40623137D01*
X21096435Y40584466D01*
X21101000Y40538112D01*
X21101000Y39461888D01*
X21096435Y39415534D01*
X21084704Y39376863D01*
X21065652Y39341221D01*
X21040017Y39309983D01*
X21008779Y39284348D01*
X20973137Y39265296D01*
X20934466Y39253565D01*
X20888112Y39249000D01*
X20236888Y39249000D01*
X20190534Y39253565D01*
X20151863Y39265296D01*
X20116221Y39284348D01*
X20084983Y39309983D01*
X20059348Y39341221D01*
X20040296Y39376863D01*
X20028565Y39415534D01*
X20024000Y39461888D01*
X20024000Y40538112D01*
X20028565Y40584466D01*
X20040296Y40623137D01*
X20059348Y40658779D01*
X20084983Y40690017D01*
X20116221Y40715652D01*
X20151863Y40734704D01*
X20190534Y40746435D01*
X20236888Y40751000D01*
X20888112Y40751000D01*
X20934466Y40746435D01*
X20934466Y40746435D01*
G37*
G36*
X22809466Y40746435D02*
X22848137Y40734704D01*
X22883779Y40715652D01*
X22915017Y40690017D01*
X22940652Y40658779D01*
X22959704Y40623137D01*
X22971435Y40584466D01*
X22976000Y40538112D01*
X22976000Y39461888D01*
X22971435Y39415534D01*
X22959704Y39376863D01*
X22940652Y39341221D01*
X22915017Y39309983D01*
X22883779Y39284348D01*
X22848137Y39265296D01*
X22809466Y39253565D01*
X22763112Y39249000D01*
X22111888Y39249000D01*
X22065534Y39253565D01*
X22026863Y39265296D01*
X21991221Y39284348D01*
X21959983Y39309983D01*
X21934348Y39341221D01*
X21915296Y39376863D01*
X21903565Y39415534D01*
X21899000Y39461888D01*
X21899000Y40538112D01*
X21903565Y40584466D01*
X21915296Y40623137D01*
X21934348Y40658779D01*
X21959983Y40690017D01*
X21991221Y40715652D01*
X22026863Y40734704D01*
X22065534Y40746435D01*
X22111888Y40751000D01*
X22763112Y40751000D01*
X22809466Y40746435D01*
X22809466Y40746435D01*
G37*
G36*
X50934466Y40746435D02*
X50973137Y40734704D01*
X51008779Y40715652D01*
X51040017Y40690017D01*
X51065652Y40658779D01*
X51084704Y40623137D01*
X51096435Y40584466D01*
X51101000Y40538112D01*
X51101000Y39461888D01*
X51096435Y39415534D01*
X51084704Y39376863D01*
X51065652Y39341221D01*
X51040017Y39309983D01*
X51008779Y39284348D01*
X50973137Y39265296D01*
X50934466Y39253565D01*
X50888112Y39249000D01*
X50236888Y39249000D01*
X50190534Y39253565D01*
X50151863Y39265296D01*
X50116221Y39284348D01*
X50084983Y39309983D01*
X50059348Y39341221D01*
X50040296Y39376863D01*
X50028565Y39415534D01*
X50024000Y39461888D01*
X50024000Y40538112D01*
X50028565Y40584466D01*
X50040296Y40623137D01*
X50059348Y40658779D01*
X50084983Y40690017D01*
X50116221Y40715652D01*
X50151863Y40734704D01*
X50190534Y40746435D01*
X50236888Y40751000D01*
X50888112Y40751000D01*
X50934466Y40746435D01*
X50934466Y40746435D01*
G37*
G36*
X52809466Y40746435D02*
X52848137Y40734704D01*
X52883779Y40715652D01*
X52915017Y40690017D01*
X52940652Y40658779D01*
X52959704Y40623137D01*
X52971435Y40584466D01*
X52976000Y40538112D01*
X52976000Y39461888D01*
X52971435Y39415534D01*
X52959704Y39376863D01*
X52940652Y39341221D01*
X52915017Y39309983D01*
X52883779Y39284348D01*
X52848137Y39265296D01*
X52809466Y39253565D01*
X52763112Y39249000D01*
X52111888Y39249000D01*
X52065534Y39253565D01*
X52026863Y39265296D01*
X51991221Y39284348D01*
X51959983Y39309983D01*
X51934348Y39341221D01*
X51915296Y39376863D01*
X51903565Y39415534D01*
X51899000Y39461888D01*
X51899000Y40538112D01*
X51903565Y40584466D01*
X51915296Y40623137D01*
X51934348Y40658779D01*
X51959983Y40690017D01*
X51991221Y40715652D01*
X52026863Y40734704D01*
X52065534Y40746435D01*
X52111888Y40751000D01*
X52763112Y40751000D01*
X52809466Y40746435D01*
X52809466Y40746435D01*
G37*
G36*
X30584466Y40471435D02*
X30623137Y40459704D01*
X30658779Y40440652D01*
X30690017Y40415017D01*
X30715652Y40383779D01*
X30734704Y40348137D01*
X30746435Y40309466D01*
X30751000Y40263112D01*
X30751000Y39611888D01*
X30746435Y39565534D01*
X30734704Y39526863D01*
X30715652Y39491221D01*
X30690017Y39459983D01*
X30658779Y39434348D01*
X30623137Y39415296D01*
X30584466Y39403565D01*
X30538112Y39399000D01*
X29461888Y39399000D01*
X29415534Y39403565D01*
X29376863Y39415296D01*
X29341221Y39434348D01*
X29309983Y39459983D01*
X29284348Y39491221D01*
X29265296Y39526863D01*
X29253565Y39565534D01*
X29249000Y39611888D01*
X29249000Y40263112D01*
X29253565Y40309466D01*
X29265296Y40348137D01*
X29284348Y40383779D01*
X29309983Y40415017D01*
X29341221Y40440652D01*
X29376863Y40459704D01*
X29415534Y40471435D01*
X29461888Y40476000D01*
X30538112Y40476000D01*
X30584466Y40471435D01*
X30584466Y40471435D01*
G37*
G36*
X40584466Y40471435D02*
X40623137Y40459704D01*
X40658779Y40440652D01*
X40690017Y40415017D01*
X40715652Y40383779D01*
X40734704Y40348137D01*
X40746435Y40309466D01*
X40751000Y40263112D01*
X40751000Y39611888D01*
X40746435Y39565534D01*
X40734704Y39526863D01*
X40715652Y39491221D01*
X40690017Y39459983D01*
X40658779Y39434348D01*
X40623137Y39415296D01*
X40584466Y39403565D01*
X40538112Y39399000D01*
X39461888Y39399000D01*
X39415534Y39403565D01*
X39376863Y39415296D01*
X39341221Y39434348D01*
X39309983Y39459983D01*
X39284348Y39491221D01*
X39265296Y39526863D01*
X39253565Y39565534D01*
X39249000Y39611888D01*
X39249000Y40263112D01*
X39253565Y40309466D01*
X39265296Y40348137D01*
X39284348Y40383779D01*
X39309983Y40415017D01*
X39341221Y40440652D01*
X39376863Y40459704D01*
X39415534Y40471435D01*
X39461888Y40476000D01*
X40538112Y40476000D01*
X40584466Y40471435D01*
X40584466Y40471435D01*
G37*
G36*
X38268604Y41571653D02*
X38305145Y41560568D01*
X38338820Y41542569D01*
X38368341Y41518341D01*
X38392569Y41488820D01*
X38410568Y41455145D01*
X38421653Y41418604D01*
X38426000Y41374462D01*
X38426000Y40425538D01*
X38421653Y40381396D01*
X38410568Y40344855D01*
X38392569Y40311180D01*
X38368341Y40281659D01*
X38338820Y40257431D01*
X38305145Y40239432D01*
X38268604Y40228347D01*
X38224462Y40224000D01*
X36775538Y40224000D01*
X36731396Y40228347D01*
X36694855Y40239432D01*
X36661180Y40257431D01*
X36631659Y40281659D01*
X36607431Y40311180D01*
X36589432Y40344855D01*
X36578347Y40381396D01*
X36574000Y40425538D01*
X36574000Y41374462D01*
X36578347Y41418604D01*
X36589432Y41455145D01*
X36607431Y41488820D01*
X36631659Y41518341D01*
X36661180Y41542569D01*
X36694855Y41560568D01*
X36731396Y41571653D01*
X36775538Y41576000D01*
X38224462Y41576000D01*
X38268604Y41571653D01*
X38268604Y41571653D01*
G37*
G36*
X33268604Y41571653D02*
X33305145Y41560568D01*
X33338820Y41542569D01*
X33368341Y41518341D01*
X33392569Y41488820D01*
X33410568Y41455145D01*
X33421653Y41418604D01*
X33426000Y41374462D01*
X33426000Y40425538D01*
X33421653Y40381396D01*
X33410568Y40344855D01*
X33392569Y40311180D01*
X33368341Y40281659D01*
X33338820Y40257431D01*
X33305145Y40239432D01*
X33268604Y40228347D01*
X33224462Y40224000D01*
X31775538Y40224000D01*
X31731396Y40228347D01*
X31694855Y40239432D01*
X31661180Y40257431D01*
X31631659Y40281659D01*
X31607431Y40311180D01*
X31589432Y40344855D01*
X31578347Y40381396D01*
X31574000Y40425538D01*
X31574000Y41374462D01*
X31578347Y41418604D01*
X31589432Y41455145D01*
X31607431Y41488820D01*
X31631659Y41518341D01*
X31661180Y41542569D01*
X31694855Y41560568D01*
X31731396Y41571653D01*
X31775538Y41576000D01*
X33224462Y41576000D01*
X33268604Y41571653D01*
X33268604Y41571653D01*
G37*
G36*
X5548156Y49327206D02*
X6269140Y49183794D01*
X7060972Y48855807D01*
X7773601Y48379643D01*
X8379643Y47773601D01*
X8855807Y47060972D01*
X9183794Y46269140D01*
X9326640Y45551000D01*
X9338497Y45491396D01*
X9351000Y45428536D01*
X9351000Y44571464D01*
X9183794Y43730860D01*
X8855807Y42939028D01*
X8379643Y42226399D01*
X7773601Y41620357D01*
X7060972Y41144193D01*
X6269140Y40816206D01*
X5548156Y40672794D01*
X5428537Y40649000D01*
X4571463Y40649000D01*
X4451844Y40672794D01*
X3730860Y40816206D01*
X2939028Y41144193D01*
X2226399Y41620357D01*
X1620357Y42226399D01*
X1144193Y42939028D01*
X816206Y43730860D01*
X649000Y44571464D01*
X649000Y45428536D01*
X661504Y45491396D01*
X673360Y45551000D01*
X816206Y46269140D01*
X1144193Y47060972D01*
X1620357Y47773601D01*
X2226399Y48379643D01*
X2939028Y48855807D01*
X3730860Y49183794D01*
X4451844Y49327206D01*
X4571463Y49351000D01*
X5428537Y49351000D01*
X5548156Y49327206D01*
X5548156Y49327206D01*
G37*
G36*
X65548156Y49327206D02*
X66269140Y49183794D01*
X67060972Y48855807D01*
X67773601Y48379643D01*
X68379643Y47773601D01*
X68855807Y47060972D01*
X69183794Y46269140D01*
X69326640Y45551000D01*
X69338497Y45491396D01*
X69351000Y45428536D01*
X69351000Y44571464D01*
X69183794Y43730860D01*
X68855807Y42939028D01*
X68379643Y42226399D01*
X67773601Y41620357D01*
X67060972Y41144193D01*
X66269140Y40816206D01*
X65548156Y40672794D01*
X65428537Y40649000D01*
X64571463Y40649000D01*
X64451844Y40672794D01*
X63730860Y40816206D01*
X62939028Y41144193D01*
X62226399Y41620357D01*
X61620357Y42226399D01*
X61144193Y42939028D01*
X60816206Y43730860D01*
X60649000Y44571464D01*
X60649000Y45428536D01*
X60661504Y45491396D01*
X60673360Y45551000D01*
X60816206Y46269140D01*
X61144193Y47060972D01*
X61620357Y47773601D01*
X62226399Y48379643D01*
X62939028Y48855807D01*
X63730860Y49183794D01*
X64451844Y49327206D01*
X64571463Y49351000D01*
X65428537Y49351000D01*
X65548156Y49327206D01*
X65548156Y49327206D01*
G37*
G36*
X20186425Y42937240D02*
X20186428Y42937239D01*
X20186429Y42937239D01*
X20365693Y42882860D01*
X20365695Y42882859D01*
X20530905Y42794552D01*
X20675712Y42675712D01*
X20794552Y42530905D01*
X20794553Y42530903D01*
X20882860Y42365693D01*
X20925114Y42226399D01*
X20937240Y42186425D01*
X20955601Y42000000D01*
X20937240Y41813575D01*
X20882859Y41634305D01*
X20794552Y41469095D01*
X20675712Y41324288D01*
X20530905Y41205448D01*
X20530903Y41205447D01*
X20365693Y41117140D01*
X20186429Y41062761D01*
X20186428Y41062761D01*
X20186425Y41062760D01*
X20046718Y41049000D01*
X19953282Y41049000D01*
X19813575Y41062760D01*
X19813572Y41062761D01*
X19813571Y41062761D01*
X19634307Y41117140D01*
X19469097Y41205447D01*
X19469095Y41205448D01*
X19324288Y41324288D01*
X19205448Y41469095D01*
X19117141Y41634305D01*
X19062760Y41813575D01*
X19044399Y42000000D01*
X19062760Y42186425D01*
X19074886Y42226399D01*
X19117140Y42365693D01*
X19205447Y42530903D01*
X19205448Y42530905D01*
X19324288Y42675712D01*
X19469095Y42794552D01*
X19634305Y42882859D01*
X19634307Y42882860D01*
X19813571Y42937239D01*
X19813572Y42937239D01*
X19813575Y42937240D01*
X19953282Y42951000D01*
X20046718Y42951000D01*
X20186425Y42937240D01*
X20186425Y42937240D01*
G37*
G36*
X47551000Y41049000D02*
X45649000Y41049000D01*
X45649000Y42951000D01*
X47551000Y42951000D01*
X47551000Y41049000D01*
X47551000Y41049000D01*
G37*
G36*
X53586425Y42937240D02*
X53586428Y42937239D01*
X53586429Y42937239D01*
X53765693Y42882860D01*
X53765695Y42882859D01*
X53930905Y42794552D01*
X54075712Y42675712D01*
X54194552Y42530905D01*
X54194553Y42530903D01*
X54282860Y42365693D01*
X54325114Y42226399D01*
X54337240Y42186425D01*
X54355601Y42000000D01*
X54337240Y41813575D01*
X54282859Y41634305D01*
X54194552Y41469095D01*
X54075712Y41324288D01*
X53930905Y41205448D01*
X53930903Y41205447D01*
X53765693Y41117140D01*
X53586429Y41062761D01*
X53586428Y41062761D01*
X53586425Y41062760D01*
X53446718Y41049000D01*
X53353282Y41049000D01*
X53213575Y41062760D01*
X53213572Y41062761D01*
X53213571Y41062761D01*
X53034307Y41117140D01*
X52869097Y41205447D01*
X52869095Y41205448D01*
X52724288Y41324288D01*
X52605448Y41469095D01*
X52517141Y41634305D01*
X52462760Y41813575D01*
X52444399Y42000000D01*
X52462760Y42186425D01*
X52474886Y42226399D01*
X52517140Y42365693D01*
X52605447Y42530903D01*
X52605448Y42530905D01*
X52724288Y42675712D01*
X52869095Y42794552D01*
X53034305Y42882859D01*
X53034307Y42882860D01*
X53213571Y42937239D01*
X53213572Y42937239D01*
X53213575Y42937240D01*
X53353282Y42951000D01*
X53446718Y42951000D01*
X53586425Y42937240D01*
X53586425Y42937240D01*
G37*
G36*
X23586425Y42937240D02*
X23586428Y42937239D01*
X23586429Y42937239D01*
X23765693Y42882860D01*
X23765695Y42882859D01*
X23930905Y42794552D01*
X24075712Y42675712D01*
X24194552Y42530905D01*
X24194553Y42530903D01*
X24282860Y42365693D01*
X24325114Y42226399D01*
X24337240Y42186425D01*
X24355601Y42000000D01*
X24337240Y41813575D01*
X24282859Y41634305D01*
X24194552Y41469095D01*
X24075712Y41324288D01*
X23930905Y41205448D01*
X23930903Y41205447D01*
X23765693Y41117140D01*
X23586429Y41062761D01*
X23586428Y41062761D01*
X23586425Y41062760D01*
X23446718Y41049000D01*
X23353282Y41049000D01*
X23213575Y41062760D01*
X23213572Y41062761D01*
X23213571Y41062761D01*
X23034307Y41117140D01*
X22869097Y41205447D01*
X22869095Y41205448D01*
X22724288Y41324288D01*
X22605448Y41469095D01*
X22517141Y41634305D01*
X22462760Y41813575D01*
X22444399Y42000000D01*
X22462760Y42186425D01*
X22474886Y42226399D01*
X22517140Y42365693D01*
X22605447Y42530903D01*
X22605448Y42530905D01*
X22724288Y42675712D01*
X22869095Y42794552D01*
X23034305Y42882859D01*
X23034307Y42882860D01*
X23213571Y42937239D01*
X23213572Y42937239D01*
X23213575Y42937240D01*
X23353282Y42951000D01*
X23446718Y42951000D01*
X23586425Y42937240D01*
X23586425Y42937240D01*
G37*
G36*
X17551000Y41049000D02*
X15649000Y41049000D01*
X15649000Y42951000D01*
X17551000Y42951000D01*
X17551000Y41049000D01*
X17551000Y41049000D01*
G37*
G36*
X50186425Y42937240D02*
X50186428Y42937239D01*
X50186429Y42937239D01*
X50365693Y42882860D01*
X50365695Y42882859D01*
X50530905Y42794552D01*
X50675712Y42675712D01*
X50794552Y42530905D01*
X50794553Y42530903D01*
X50882860Y42365693D01*
X50925114Y42226399D01*
X50937240Y42186425D01*
X50955601Y42000000D01*
X50937240Y41813575D01*
X50882859Y41634305D01*
X50794552Y41469095D01*
X50675712Y41324288D01*
X50530905Y41205448D01*
X50530903Y41205447D01*
X50365693Y41117140D01*
X50186429Y41062761D01*
X50186428Y41062761D01*
X50186425Y41062760D01*
X50046718Y41049000D01*
X49953282Y41049000D01*
X49813575Y41062760D01*
X49813572Y41062761D01*
X49813571Y41062761D01*
X49634307Y41117140D01*
X49469097Y41205447D01*
X49469095Y41205448D01*
X49324288Y41324288D01*
X49205448Y41469095D01*
X49117141Y41634305D01*
X49062760Y41813575D01*
X49044399Y42000000D01*
X49062760Y42186425D01*
X49074886Y42226399D01*
X49117140Y42365693D01*
X49205447Y42530903D01*
X49205448Y42530905D01*
X49324288Y42675712D01*
X49469095Y42794552D01*
X49634305Y42882859D01*
X49634307Y42882860D01*
X49813571Y42937239D01*
X49813572Y42937239D01*
X49813575Y42937240D01*
X49953282Y42951000D01*
X50046718Y42951000D01*
X50186425Y42937240D01*
X50186425Y42937240D01*
G37*
G36*
X34051000Y42449000D02*
X30949000Y42449000D01*
X30949000Y45551000D01*
X34051000Y45551000D01*
X34051000Y42449000D01*
X34051000Y42449000D01*
G37*
G36*
X37920929Y45513571D02*
X38032410Y45491396D01*
X38314674Y45374479D01*
X38568705Y45204741D01*
X38784741Y44988705D01*
X38954479Y44734674D01*
X39071396Y44452410D01*
X39131000Y44152760D01*
X39131000Y43847240D01*
X39071396Y43547590D01*
X38954479Y43265326D01*
X38784741Y43011295D01*
X38568705Y42795259D01*
X38314674Y42625521D01*
X38032410Y42508604D01*
X37932527Y42488736D01*
X37732762Y42449000D01*
X37427238Y42449000D01*
X37227473Y42488736D01*
X37127590Y42508604D01*
X36845326Y42625521D01*
X36591295Y42795259D01*
X36375259Y43011295D01*
X36205521Y43265326D01*
X36088604Y43547590D01*
X36029000Y43847240D01*
X36029000Y44152760D01*
X36088604Y44452410D01*
X36205521Y44734674D01*
X36375259Y44988705D01*
X36591295Y45204741D01*
X36845326Y45374479D01*
X37127590Y45491396D01*
X37239071Y45513571D01*
X37427238Y45551000D01*
X37732762Y45551000D01*
X37920929Y45513571D01*
X37920929Y45513571D01*
G37*
G36*
X51886425Y46637240D02*
X51886428Y46637239D01*
X51886429Y46637239D01*
X52065693Y46582860D01*
X52065695Y46582859D01*
X52230905Y46494552D01*
X52375712Y46375712D01*
X52494552Y46230905D01*
X52582859Y46065695D01*
X52637240Y45886425D01*
X52655601Y45700000D01*
X52637240Y45513575D01*
X52637239Y45513572D01*
X52637239Y45513571D01*
X52633426Y45501000D01*
X52582859Y45334305D01*
X52494552Y45169095D01*
X52375712Y45024288D01*
X52230905Y44905448D01*
X52065695Y44817141D01*
X52065693Y44817140D01*
X51886429Y44762761D01*
X51886428Y44762761D01*
X51886425Y44762760D01*
X51746718Y44749000D01*
X51653282Y44749000D01*
X51513575Y44762760D01*
X51513572Y44762761D01*
X51513571Y44762761D01*
X51334307Y44817140D01*
X51334305Y44817141D01*
X51169095Y44905448D01*
X51024288Y45024288D01*
X50905448Y45169095D01*
X50817141Y45334305D01*
X50766575Y45501000D01*
X50762761Y45513571D01*
X50762761Y45513572D01*
X50762760Y45513575D01*
X50744399Y45700000D01*
X50762760Y45886425D01*
X50817141Y46065695D01*
X50905448Y46230905D01*
X51024288Y46375712D01*
X51169095Y46494552D01*
X51334305Y46582859D01*
X51334307Y46582860D01*
X51513571Y46637239D01*
X51513572Y46637239D01*
X51513575Y46637240D01*
X51653282Y46651000D01*
X51746718Y46651000D01*
X51886425Y46637240D01*
X51886425Y46637240D01*
G37*
G36*
X18486425Y46637240D02*
X18486428Y46637239D01*
X18486429Y46637239D01*
X18665693Y46582860D01*
X18665695Y46582859D01*
X18830905Y46494552D01*
X18975712Y46375712D01*
X19094552Y46230905D01*
X19182859Y46065695D01*
X19237240Y45886425D01*
X19255601Y45700000D01*
X19237240Y45513575D01*
X19237239Y45513572D01*
X19237239Y45513571D01*
X19233426Y45501000D01*
X19182859Y45334305D01*
X19094552Y45169095D01*
X18975712Y45024288D01*
X18830905Y44905448D01*
X18665695Y44817141D01*
X18665693Y44817140D01*
X18486429Y44762761D01*
X18486428Y44762761D01*
X18486425Y44762760D01*
X18346718Y44749000D01*
X18253282Y44749000D01*
X18113575Y44762760D01*
X18113572Y44762761D01*
X18113571Y44762761D01*
X17934307Y44817140D01*
X17934305Y44817141D01*
X17769095Y44905448D01*
X17624288Y45024288D01*
X17505448Y45169095D01*
X17417141Y45334305D01*
X17366575Y45501000D01*
X17362761Y45513571D01*
X17362761Y45513572D01*
X17362760Y45513575D01*
X17344399Y45700000D01*
X17362760Y45886425D01*
X17417141Y46065695D01*
X17505448Y46230905D01*
X17624288Y46375712D01*
X17769095Y46494552D01*
X17934305Y46582859D01*
X17934307Y46582860D01*
X18113571Y46637239D01*
X18113572Y46637239D01*
X18113575Y46637240D01*
X18253282Y46651000D01*
X18346718Y46651000D01*
X18486425Y46637240D01*
X18486425Y46637240D01*
G37*
G36*
X21886425Y46637240D02*
X21886428Y46637239D01*
X21886429Y46637239D01*
X22065693Y46582860D01*
X22065695Y46582859D01*
X22230905Y46494552D01*
X22375712Y46375712D01*
X22494552Y46230905D01*
X22582859Y46065695D01*
X22637240Y45886425D01*
X22655601Y45700000D01*
X22637240Y45513575D01*
X22637239Y45513572D01*
X22637239Y45513571D01*
X22633426Y45501000D01*
X22582859Y45334305D01*
X22494552Y45169095D01*
X22375712Y45024288D01*
X22230905Y44905448D01*
X22065695Y44817141D01*
X22065693Y44817140D01*
X21886429Y44762761D01*
X21886428Y44762761D01*
X21886425Y44762760D01*
X21746718Y44749000D01*
X21653282Y44749000D01*
X21513575Y44762760D01*
X21513572Y44762761D01*
X21513571Y44762761D01*
X21334307Y44817140D01*
X21334305Y44817141D01*
X21169095Y44905448D01*
X21024288Y45024288D01*
X20905448Y45169095D01*
X20817141Y45334305D01*
X20766575Y45501000D01*
X20762761Y45513571D01*
X20762761Y45513572D01*
X20762760Y45513575D01*
X20744399Y45700000D01*
X20762760Y45886425D01*
X20817141Y46065695D01*
X20905448Y46230905D01*
X21024288Y46375712D01*
X21169095Y46494552D01*
X21334305Y46582859D01*
X21334307Y46582860D01*
X21513571Y46637239D01*
X21513572Y46637239D01*
X21513575Y46637240D01*
X21653282Y46651000D01*
X21746718Y46651000D01*
X21886425Y46637240D01*
X21886425Y46637240D01*
G37*
G36*
X48486425Y46637240D02*
X48486428Y46637239D01*
X48486429Y46637239D01*
X48665693Y46582860D01*
X48665695Y46582859D01*
X48830905Y46494552D01*
X48975712Y46375712D01*
X49094552Y46230905D01*
X49182859Y46065695D01*
X49237240Y45886425D01*
X49255601Y45700000D01*
X49237240Y45513575D01*
X49237239Y45513572D01*
X49237239Y45513571D01*
X49233426Y45501000D01*
X49182859Y45334305D01*
X49094552Y45169095D01*
X48975712Y45024288D01*
X48830905Y44905448D01*
X48665695Y44817141D01*
X48665693Y44817140D01*
X48486429Y44762761D01*
X48486428Y44762761D01*
X48486425Y44762760D01*
X48346718Y44749000D01*
X48253282Y44749000D01*
X48113575Y44762760D01*
X48113572Y44762761D01*
X48113571Y44762761D01*
X47934307Y44817140D01*
X47934305Y44817141D01*
X47769095Y44905448D01*
X47624288Y45024288D01*
X47505448Y45169095D01*
X47417141Y45334305D01*
X47366575Y45501000D01*
X47362761Y45513571D01*
X47362761Y45513572D01*
X47362760Y45513575D01*
X47344399Y45700000D01*
X47362760Y45886425D01*
X47417141Y46065695D01*
X47505448Y46230905D01*
X47624288Y46375712D01*
X47769095Y46494552D01*
X47934305Y46582859D01*
X47934307Y46582860D01*
X48113571Y46637239D01*
X48113572Y46637239D01*
X48113575Y46637240D01*
X48253282Y46651000D01*
X48346718Y46651000D01*
X48486425Y46637240D01*
X48486425Y46637240D01*
G37*
G36*
X19118604Y48921653D02*
X19155145Y48910568D01*
X19188820Y48892569D01*
X19218341Y48868341D01*
X19242569Y48838820D01*
X19260568Y48805145D01*
X19271653Y48768604D01*
X19276000Y48724462D01*
X19276000Y47275538D01*
X19271653Y47231396D01*
X19260568Y47194855D01*
X19242569Y47161180D01*
X19218341Y47131659D01*
X19188820Y47107431D01*
X19155145Y47089432D01*
X19118604Y47078347D01*
X19074462Y47074000D01*
X18125538Y47074000D01*
X18081396Y47078347D01*
X18044855Y47089432D01*
X18011180Y47107431D01*
X17981659Y47131659D01*
X17957431Y47161180D01*
X17939432Y47194855D01*
X17928347Y47231396D01*
X17924000Y47275538D01*
X17924000Y48724462D01*
X17928347Y48768604D01*
X17939432Y48805145D01*
X17957431Y48838820D01*
X17981659Y48868341D01*
X18011180Y48892569D01*
X18044855Y48910568D01*
X18081396Y48921653D01*
X18125538Y48926000D01*
X19074462Y48926000D01*
X19118604Y48921653D01*
X19118604Y48921653D01*
G37*
G36*
X21918604Y48921653D02*
X21955145Y48910568D01*
X21988820Y48892569D01*
X22018341Y48868341D01*
X22042569Y48838820D01*
X22060568Y48805145D01*
X22071653Y48768604D01*
X22076000Y48724462D01*
X22076000Y47275538D01*
X22071653Y47231396D01*
X22060568Y47194855D01*
X22042569Y47161180D01*
X22018341Y47131659D01*
X21988820Y47107431D01*
X21955145Y47089432D01*
X21918604Y47078347D01*
X21874462Y47074000D01*
X20925538Y47074000D01*
X20881396Y47078347D01*
X20844855Y47089432D01*
X20811180Y47107431D01*
X20781659Y47131659D01*
X20757431Y47161180D01*
X20739432Y47194855D01*
X20728347Y47231396D01*
X20724000Y47275538D01*
X20724000Y48724462D01*
X20728347Y48768604D01*
X20739432Y48805145D01*
X20757431Y48838820D01*
X20781659Y48868341D01*
X20811180Y48892569D01*
X20844855Y48910568D01*
X20881396Y48921653D01*
X20925538Y48926000D01*
X21874462Y48926000D01*
X21918604Y48921653D01*
X21918604Y48921653D01*
G37*
G36*
X49118604Y48921653D02*
X49155145Y48910568D01*
X49188820Y48892569D01*
X49218341Y48868341D01*
X49242569Y48838820D01*
X49260568Y48805145D01*
X49271653Y48768604D01*
X49276000Y48724462D01*
X49276000Y47275538D01*
X49271653Y47231396D01*
X49260568Y47194855D01*
X49242569Y47161180D01*
X49218341Y47131659D01*
X49188820Y47107431D01*
X49155145Y47089432D01*
X49118604Y47078347D01*
X49074462Y47074000D01*
X48125538Y47074000D01*
X48081396Y47078347D01*
X48044855Y47089432D01*
X48011180Y47107431D01*
X47981659Y47131659D01*
X47957431Y47161180D01*
X47939432Y47194855D01*
X47928347Y47231396D01*
X47924000Y47275538D01*
X47924000Y48724462D01*
X47928347Y48768604D01*
X47939432Y48805145D01*
X47957431Y48838820D01*
X47981659Y48868341D01*
X48011180Y48892569D01*
X48044855Y48910568D01*
X48081396Y48921653D01*
X48125538Y48926000D01*
X49074462Y48926000D01*
X49118604Y48921653D01*
X49118604Y48921653D01*
G37*
G36*
X51918604Y48921653D02*
X51955145Y48910568D01*
X51988820Y48892569D01*
X52018341Y48868341D01*
X52042569Y48838820D01*
X52060568Y48805145D01*
X52071653Y48768604D01*
X52076000Y48724462D01*
X52076000Y47275538D01*
X52071653Y47231396D01*
X52060568Y47194855D01*
X52042569Y47161180D01*
X52018341Y47131659D01*
X51988820Y47107431D01*
X51955145Y47089432D01*
X51918604Y47078347D01*
X51874462Y47074000D01*
X50925538Y47074000D01*
X50881396Y47078347D01*
X50844855Y47089432D01*
X50811180Y47107431D01*
X50781659Y47131659D01*
X50757431Y47161180D01*
X50739432Y47194855D01*
X50728347Y47231396D01*
X50724000Y47275538D01*
X50724000Y48724462D01*
X50728347Y48768604D01*
X50739432Y48805145D01*
X50757431Y48838820D01*
X50781659Y48868341D01*
X50811180Y48892569D01*
X50844855Y48910568D01*
X50881396Y48921653D01*
X50925538Y48926000D01*
X51874462Y48926000D01*
X51918604Y48921653D01*
X51918604Y48921653D01*
G37*
M02*
