G04 #@! TF.GenerationSoftware,KiCad,Pcbnew,(5.0.1)-3*
G04 #@! TF.CreationDate,2019-12-23T10:27:59+01:00*
G04 #@! TF.ProjectId,TDA2050 64W,54444132303530203634572E6B696361,rev?*
G04 #@! TF.SameCoordinates,PX68e7780PY7365040*
G04 #@! TF.FileFunction,Paste,Bot*
G04 #@! TF.FilePolarity,Positive*
%FSLAX46Y46*%
G04 Gerber Fmt 4.6, Leading zero omitted, Abs format (unit mm)*
G04 Created by KiCad (PCBNEW (5.0.1)-3) date 23/12/2019 10:27:59*
%MOMM*%
%LPD*%
G01*
G04 APERTURE LIST*
%ADD10C,0.050800*%
%ADD11C,0.975000*%
%ADD12R,2.500000X1.800000*%
%ADD13C,1.250000*%
G04 APERTURE END LIST*
D10*
G04 #@! TO.C,C3*
G36*
X18205142Y30698826D02*
X18228803Y30695316D01*
X18252007Y30689504D01*
X18274529Y30681446D01*
X18296153Y30671218D01*
X18316670Y30658921D01*
X18335883Y30644671D01*
X18353607Y30628607D01*
X18369671Y30610883D01*
X18383921Y30591670D01*
X18396218Y30571153D01*
X18406446Y30549529D01*
X18414504Y30527007D01*
X18420316Y30503803D01*
X18423826Y30480142D01*
X18425000Y30456250D01*
X18425000Y29543750D01*
X18423826Y29519858D01*
X18420316Y29496197D01*
X18414504Y29472993D01*
X18406446Y29450471D01*
X18396218Y29428847D01*
X18383921Y29408330D01*
X18369671Y29389117D01*
X18353607Y29371393D01*
X18335883Y29355329D01*
X18316670Y29341079D01*
X18296153Y29328782D01*
X18274529Y29318554D01*
X18252007Y29310496D01*
X18228803Y29304684D01*
X18205142Y29301174D01*
X18181250Y29300000D01*
X17693750Y29300000D01*
X17669858Y29301174D01*
X17646197Y29304684D01*
X17622993Y29310496D01*
X17600471Y29318554D01*
X17578847Y29328782D01*
X17558330Y29341079D01*
X17539117Y29355329D01*
X17521393Y29371393D01*
X17505329Y29389117D01*
X17491079Y29408330D01*
X17478782Y29428847D01*
X17468554Y29450471D01*
X17460496Y29472993D01*
X17454684Y29496197D01*
X17451174Y29519858D01*
X17450000Y29543750D01*
X17450000Y30456250D01*
X17451174Y30480142D01*
X17454684Y30503803D01*
X17460496Y30527007D01*
X17468554Y30549529D01*
X17478782Y30571153D01*
X17491079Y30591670D01*
X17505329Y30610883D01*
X17521393Y30628607D01*
X17539117Y30644671D01*
X17558330Y30658921D01*
X17578847Y30671218D01*
X17600471Y30681446D01*
X17622993Y30689504D01*
X17646197Y30695316D01*
X17669858Y30698826D01*
X17693750Y30700000D01*
X18181250Y30700000D01*
X18205142Y30698826D01*
X18205142Y30698826D01*
G37*
D11*
X17937500Y30000000D03*
D10*
G36*
X16330142Y30698826D02*
X16353803Y30695316D01*
X16377007Y30689504D01*
X16399529Y30681446D01*
X16421153Y30671218D01*
X16441670Y30658921D01*
X16460883Y30644671D01*
X16478607Y30628607D01*
X16494671Y30610883D01*
X16508921Y30591670D01*
X16521218Y30571153D01*
X16531446Y30549529D01*
X16539504Y30527007D01*
X16545316Y30503803D01*
X16548826Y30480142D01*
X16550000Y30456250D01*
X16550000Y29543750D01*
X16548826Y29519858D01*
X16545316Y29496197D01*
X16539504Y29472993D01*
X16531446Y29450471D01*
X16521218Y29428847D01*
X16508921Y29408330D01*
X16494671Y29389117D01*
X16478607Y29371393D01*
X16460883Y29355329D01*
X16441670Y29341079D01*
X16421153Y29328782D01*
X16399529Y29318554D01*
X16377007Y29310496D01*
X16353803Y29304684D01*
X16330142Y29301174D01*
X16306250Y29300000D01*
X15818750Y29300000D01*
X15794858Y29301174D01*
X15771197Y29304684D01*
X15747993Y29310496D01*
X15725471Y29318554D01*
X15703847Y29328782D01*
X15683330Y29341079D01*
X15664117Y29355329D01*
X15646393Y29371393D01*
X15630329Y29389117D01*
X15616079Y29408330D01*
X15603782Y29428847D01*
X15593554Y29450471D01*
X15585496Y29472993D01*
X15579684Y29496197D01*
X15576174Y29519858D01*
X15575000Y29543750D01*
X15575000Y30456250D01*
X15576174Y30480142D01*
X15579684Y30503803D01*
X15585496Y30527007D01*
X15593554Y30549529D01*
X15603782Y30571153D01*
X15616079Y30591670D01*
X15630329Y30610883D01*
X15646393Y30628607D01*
X15664117Y30644671D01*
X15683330Y30658921D01*
X15703847Y30671218D01*
X15725471Y30681446D01*
X15747993Y30689504D01*
X15771197Y30695316D01*
X15794858Y30698826D01*
X15818750Y30700000D01*
X16306250Y30700000D01*
X16330142Y30698826D01*
X16330142Y30698826D01*
G37*
D11*
X16062500Y30000000D03*
G04 #@! TD*
D10*
G04 #@! TO.C,C5*
G36*
X36480142Y14923826D02*
X36503803Y14920316D01*
X36527007Y14914504D01*
X36549529Y14906446D01*
X36571153Y14896218D01*
X36591670Y14883921D01*
X36610883Y14869671D01*
X36628607Y14853607D01*
X36644671Y14835883D01*
X36658921Y14816670D01*
X36671218Y14796153D01*
X36681446Y14774529D01*
X36689504Y14752007D01*
X36695316Y14728803D01*
X36698826Y14705142D01*
X36700000Y14681250D01*
X36700000Y14193750D01*
X36698826Y14169858D01*
X36695316Y14146197D01*
X36689504Y14122993D01*
X36681446Y14100471D01*
X36671218Y14078847D01*
X36658921Y14058330D01*
X36644671Y14039117D01*
X36628607Y14021393D01*
X36610883Y14005329D01*
X36591670Y13991079D01*
X36571153Y13978782D01*
X36549529Y13968554D01*
X36527007Y13960496D01*
X36503803Y13954684D01*
X36480142Y13951174D01*
X36456250Y13950000D01*
X35543750Y13950000D01*
X35519858Y13951174D01*
X35496197Y13954684D01*
X35472993Y13960496D01*
X35450471Y13968554D01*
X35428847Y13978782D01*
X35408330Y13991079D01*
X35389117Y14005329D01*
X35371393Y14021393D01*
X35355329Y14039117D01*
X35341079Y14058330D01*
X35328782Y14078847D01*
X35318554Y14100471D01*
X35310496Y14122993D01*
X35304684Y14146197D01*
X35301174Y14169858D01*
X35300000Y14193750D01*
X35300000Y14681250D01*
X35301174Y14705142D01*
X35304684Y14728803D01*
X35310496Y14752007D01*
X35318554Y14774529D01*
X35328782Y14796153D01*
X35341079Y14816670D01*
X35355329Y14835883D01*
X35371393Y14853607D01*
X35389117Y14869671D01*
X35408330Y14883921D01*
X35428847Y14896218D01*
X35450471Y14906446D01*
X35472993Y14914504D01*
X35496197Y14920316D01*
X35519858Y14923826D01*
X35543750Y14925000D01*
X36456250Y14925000D01*
X36480142Y14923826D01*
X36480142Y14923826D01*
G37*
D11*
X36000000Y14437500D03*
D10*
G36*
X36480142Y13048826D02*
X36503803Y13045316D01*
X36527007Y13039504D01*
X36549529Y13031446D01*
X36571153Y13021218D01*
X36591670Y13008921D01*
X36610883Y12994671D01*
X36628607Y12978607D01*
X36644671Y12960883D01*
X36658921Y12941670D01*
X36671218Y12921153D01*
X36681446Y12899529D01*
X36689504Y12877007D01*
X36695316Y12853803D01*
X36698826Y12830142D01*
X36700000Y12806250D01*
X36700000Y12318750D01*
X36698826Y12294858D01*
X36695316Y12271197D01*
X36689504Y12247993D01*
X36681446Y12225471D01*
X36671218Y12203847D01*
X36658921Y12183330D01*
X36644671Y12164117D01*
X36628607Y12146393D01*
X36610883Y12130329D01*
X36591670Y12116079D01*
X36571153Y12103782D01*
X36549529Y12093554D01*
X36527007Y12085496D01*
X36503803Y12079684D01*
X36480142Y12076174D01*
X36456250Y12075000D01*
X35543750Y12075000D01*
X35519858Y12076174D01*
X35496197Y12079684D01*
X35472993Y12085496D01*
X35450471Y12093554D01*
X35428847Y12103782D01*
X35408330Y12116079D01*
X35389117Y12130329D01*
X35371393Y12146393D01*
X35355329Y12164117D01*
X35341079Y12183330D01*
X35328782Y12203847D01*
X35318554Y12225471D01*
X35310496Y12247993D01*
X35304684Y12271197D01*
X35301174Y12294858D01*
X35300000Y12318750D01*
X35300000Y12806250D01*
X35301174Y12830142D01*
X35304684Y12853803D01*
X35310496Y12877007D01*
X35318554Y12899529D01*
X35328782Y12921153D01*
X35341079Y12941670D01*
X35355329Y12960883D01*
X35371393Y12978607D01*
X35389117Y12994671D01*
X35408330Y13008921D01*
X35428847Y13021218D01*
X35450471Y13031446D01*
X35472993Y13039504D01*
X35496197Y13045316D01*
X35519858Y13048826D01*
X35543750Y13050000D01*
X36456250Y13050000D01*
X36480142Y13048826D01*
X36480142Y13048826D01*
G37*
D11*
X36000000Y12562500D03*
G04 #@! TD*
D10*
G04 #@! TO.C,C8*
G36*
X30480142Y38548826D02*
X30503803Y38545316D01*
X30527007Y38539504D01*
X30549529Y38531446D01*
X30571153Y38521218D01*
X30591670Y38508921D01*
X30610883Y38494671D01*
X30628607Y38478607D01*
X30644671Y38460883D01*
X30658921Y38441670D01*
X30671218Y38421153D01*
X30681446Y38399529D01*
X30689504Y38377007D01*
X30695316Y38353803D01*
X30698826Y38330142D01*
X30700000Y38306250D01*
X30700000Y37818750D01*
X30698826Y37794858D01*
X30695316Y37771197D01*
X30689504Y37747993D01*
X30681446Y37725471D01*
X30671218Y37703847D01*
X30658921Y37683330D01*
X30644671Y37664117D01*
X30628607Y37646393D01*
X30610883Y37630329D01*
X30591670Y37616079D01*
X30571153Y37603782D01*
X30549529Y37593554D01*
X30527007Y37585496D01*
X30503803Y37579684D01*
X30480142Y37576174D01*
X30456250Y37575000D01*
X29543750Y37575000D01*
X29519858Y37576174D01*
X29496197Y37579684D01*
X29472993Y37585496D01*
X29450471Y37593554D01*
X29428847Y37603782D01*
X29408330Y37616079D01*
X29389117Y37630329D01*
X29371393Y37646393D01*
X29355329Y37664117D01*
X29341079Y37683330D01*
X29328782Y37703847D01*
X29318554Y37725471D01*
X29310496Y37747993D01*
X29304684Y37771197D01*
X29301174Y37794858D01*
X29300000Y37818750D01*
X29300000Y38306250D01*
X29301174Y38330142D01*
X29304684Y38353803D01*
X29310496Y38377007D01*
X29318554Y38399529D01*
X29328782Y38421153D01*
X29341079Y38441670D01*
X29355329Y38460883D01*
X29371393Y38478607D01*
X29389117Y38494671D01*
X29408330Y38508921D01*
X29428847Y38521218D01*
X29450471Y38531446D01*
X29472993Y38539504D01*
X29496197Y38545316D01*
X29519858Y38548826D01*
X29543750Y38550000D01*
X30456250Y38550000D01*
X30480142Y38548826D01*
X30480142Y38548826D01*
G37*
D11*
X30000000Y38062500D03*
D10*
G36*
X30480142Y40423826D02*
X30503803Y40420316D01*
X30527007Y40414504D01*
X30549529Y40406446D01*
X30571153Y40396218D01*
X30591670Y40383921D01*
X30610883Y40369671D01*
X30628607Y40353607D01*
X30644671Y40335883D01*
X30658921Y40316670D01*
X30671218Y40296153D01*
X30681446Y40274529D01*
X30689504Y40252007D01*
X30695316Y40228803D01*
X30698826Y40205142D01*
X30700000Y40181250D01*
X30700000Y39693750D01*
X30698826Y39669858D01*
X30695316Y39646197D01*
X30689504Y39622993D01*
X30681446Y39600471D01*
X30671218Y39578847D01*
X30658921Y39558330D01*
X30644671Y39539117D01*
X30628607Y39521393D01*
X30610883Y39505329D01*
X30591670Y39491079D01*
X30571153Y39478782D01*
X30549529Y39468554D01*
X30527007Y39460496D01*
X30503803Y39454684D01*
X30480142Y39451174D01*
X30456250Y39450000D01*
X29543750Y39450000D01*
X29519858Y39451174D01*
X29496197Y39454684D01*
X29472993Y39460496D01*
X29450471Y39468554D01*
X29428847Y39478782D01*
X29408330Y39491079D01*
X29389117Y39505329D01*
X29371393Y39521393D01*
X29355329Y39539117D01*
X29341079Y39558330D01*
X29328782Y39578847D01*
X29318554Y39600471D01*
X29310496Y39622993D01*
X29304684Y39646197D01*
X29301174Y39669858D01*
X29300000Y39693750D01*
X29300000Y40181250D01*
X29301174Y40205142D01*
X29304684Y40228803D01*
X29310496Y40252007D01*
X29318554Y40274529D01*
X29328782Y40296153D01*
X29341079Y40316670D01*
X29355329Y40335883D01*
X29371393Y40353607D01*
X29389117Y40369671D01*
X29408330Y40383921D01*
X29428847Y40396218D01*
X29450471Y40406446D01*
X29472993Y40414504D01*
X29496197Y40420316D01*
X29519858Y40423826D01*
X29543750Y40425000D01*
X30456250Y40425000D01*
X30480142Y40423826D01*
X30480142Y40423826D01*
G37*
D11*
X30000000Y39937500D03*
G04 #@! TD*
D10*
G04 #@! TO.C,C9*
G36*
X40480142Y40423826D02*
X40503803Y40420316D01*
X40527007Y40414504D01*
X40549529Y40406446D01*
X40571153Y40396218D01*
X40591670Y40383921D01*
X40610883Y40369671D01*
X40628607Y40353607D01*
X40644671Y40335883D01*
X40658921Y40316670D01*
X40671218Y40296153D01*
X40681446Y40274529D01*
X40689504Y40252007D01*
X40695316Y40228803D01*
X40698826Y40205142D01*
X40700000Y40181250D01*
X40700000Y39693750D01*
X40698826Y39669858D01*
X40695316Y39646197D01*
X40689504Y39622993D01*
X40681446Y39600471D01*
X40671218Y39578847D01*
X40658921Y39558330D01*
X40644671Y39539117D01*
X40628607Y39521393D01*
X40610883Y39505329D01*
X40591670Y39491079D01*
X40571153Y39478782D01*
X40549529Y39468554D01*
X40527007Y39460496D01*
X40503803Y39454684D01*
X40480142Y39451174D01*
X40456250Y39450000D01*
X39543750Y39450000D01*
X39519858Y39451174D01*
X39496197Y39454684D01*
X39472993Y39460496D01*
X39450471Y39468554D01*
X39428847Y39478782D01*
X39408330Y39491079D01*
X39389117Y39505329D01*
X39371393Y39521393D01*
X39355329Y39539117D01*
X39341079Y39558330D01*
X39328782Y39578847D01*
X39318554Y39600471D01*
X39310496Y39622993D01*
X39304684Y39646197D01*
X39301174Y39669858D01*
X39300000Y39693750D01*
X39300000Y40181250D01*
X39301174Y40205142D01*
X39304684Y40228803D01*
X39310496Y40252007D01*
X39318554Y40274529D01*
X39328782Y40296153D01*
X39341079Y40316670D01*
X39355329Y40335883D01*
X39371393Y40353607D01*
X39389117Y40369671D01*
X39408330Y40383921D01*
X39428847Y40396218D01*
X39450471Y40406446D01*
X39472993Y40414504D01*
X39496197Y40420316D01*
X39519858Y40423826D01*
X39543750Y40425000D01*
X40456250Y40425000D01*
X40480142Y40423826D01*
X40480142Y40423826D01*
G37*
D11*
X40000000Y39937500D03*
D10*
G36*
X40480142Y38548826D02*
X40503803Y38545316D01*
X40527007Y38539504D01*
X40549529Y38531446D01*
X40571153Y38521218D01*
X40591670Y38508921D01*
X40610883Y38494671D01*
X40628607Y38478607D01*
X40644671Y38460883D01*
X40658921Y38441670D01*
X40671218Y38421153D01*
X40681446Y38399529D01*
X40689504Y38377007D01*
X40695316Y38353803D01*
X40698826Y38330142D01*
X40700000Y38306250D01*
X40700000Y37818750D01*
X40698826Y37794858D01*
X40695316Y37771197D01*
X40689504Y37747993D01*
X40681446Y37725471D01*
X40671218Y37703847D01*
X40658921Y37683330D01*
X40644671Y37664117D01*
X40628607Y37646393D01*
X40610883Y37630329D01*
X40591670Y37616079D01*
X40571153Y37603782D01*
X40549529Y37593554D01*
X40527007Y37585496D01*
X40503803Y37579684D01*
X40480142Y37576174D01*
X40456250Y37575000D01*
X39543750Y37575000D01*
X39519858Y37576174D01*
X39496197Y37579684D01*
X39472993Y37585496D01*
X39450471Y37593554D01*
X39428847Y37603782D01*
X39408330Y37616079D01*
X39389117Y37630329D01*
X39371393Y37646393D01*
X39355329Y37664117D01*
X39341079Y37683330D01*
X39328782Y37703847D01*
X39318554Y37725471D01*
X39310496Y37747993D01*
X39304684Y37771197D01*
X39301174Y37794858D01*
X39300000Y37818750D01*
X39300000Y38306250D01*
X39301174Y38330142D01*
X39304684Y38353803D01*
X39310496Y38377007D01*
X39318554Y38399529D01*
X39328782Y38421153D01*
X39341079Y38441670D01*
X39355329Y38460883D01*
X39371393Y38478607D01*
X39389117Y38494671D01*
X39408330Y38508921D01*
X39428847Y38521218D01*
X39450471Y38531446D01*
X39472993Y38539504D01*
X39496197Y38545316D01*
X39519858Y38548826D01*
X39543750Y38550000D01*
X40456250Y38550000D01*
X40480142Y38548826D01*
X40480142Y38548826D01*
G37*
D11*
X40000000Y38062500D03*
G04 #@! TD*
D10*
G04 #@! TO.C,C12*
G36*
X22705142Y40698826D02*
X22728803Y40695316D01*
X22752007Y40689504D01*
X22774529Y40681446D01*
X22796153Y40671218D01*
X22816670Y40658921D01*
X22835883Y40644671D01*
X22853607Y40628607D01*
X22869671Y40610883D01*
X22883921Y40591670D01*
X22896218Y40571153D01*
X22906446Y40549529D01*
X22914504Y40527007D01*
X22920316Y40503803D01*
X22923826Y40480142D01*
X22925000Y40456250D01*
X22925000Y39543750D01*
X22923826Y39519858D01*
X22920316Y39496197D01*
X22914504Y39472993D01*
X22906446Y39450471D01*
X22896218Y39428847D01*
X22883921Y39408330D01*
X22869671Y39389117D01*
X22853607Y39371393D01*
X22835883Y39355329D01*
X22816670Y39341079D01*
X22796153Y39328782D01*
X22774529Y39318554D01*
X22752007Y39310496D01*
X22728803Y39304684D01*
X22705142Y39301174D01*
X22681250Y39300000D01*
X22193750Y39300000D01*
X22169858Y39301174D01*
X22146197Y39304684D01*
X22122993Y39310496D01*
X22100471Y39318554D01*
X22078847Y39328782D01*
X22058330Y39341079D01*
X22039117Y39355329D01*
X22021393Y39371393D01*
X22005329Y39389117D01*
X21991079Y39408330D01*
X21978782Y39428847D01*
X21968554Y39450471D01*
X21960496Y39472993D01*
X21954684Y39496197D01*
X21951174Y39519858D01*
X21950000Y39543750D01*
X21950000Y40456250D01*
X21951174Y40480142D01*
X21954684Y40503803D01*
X21960496Y40527007D01*
X21968554Y40549529D01*
X21978782Y40571153D01*
X21991079Y40591670D01*
X22005329Y40610883D01*
X22021393Y40628607D01*
X22039117Y40644671D01*
X22058330Y40658921D01*
X22078847Y40671218D01*
X22100471Y40681446D01*
X22122993Y40689504D01*
X22146197Y40695316D01*
X22169858Y40698826D01*
X22193750Y40700000D01*
X22681250Y40700000D01*
X22705142Y40698826D01*
X22705142Y40698826D01*
G37*
D11*
X22437500Y40000000D03*
D10*
G36*
X20830142Y40698826D02*
X20853803Y40695316D01*
X20877007Y40689504D01*
X20899529Y40681446D01*
X20921153Y40671218D01*
X20941670Y40658921D01*
X20960883Y40644671D01*
X20978607Y40628607D01*
X20994671Y40610883D01*
X21008921Y40591670D01*
X21021218Y40571153D01*
X21031446Y40549529D01*
X21039504Y40527007D01*
X21045316Y40503803D01*
X21048826Y40480142D01*
X21050000Y40456250D01*
X21050000Y39543750D01*
X21048826Y39519858D01*
X21045316Y39496197D01*
X21039504Y39472993D01*
X21031446Y39450471D01*
X21021218Y39428847D01*
X21008921Y39408330D01*
X20994671Y39389117D01*
X20978607Y39371393D01*
X20960883Y39355329D01*
X20941670Y39341079D01*
X20921153Y39328782D01*
X20899529Y39318554D01*
X20877007Y39310496D01*
X20853803Y39304684D01*
X20830142Y39301174D01*
X20806250Y39300000D01*
X20318750Y39300000D01*
X20294858Y39301174D01*
X20271197Y39304684D01*
X20247993Y39310496D01*
X20225471Y39318554D01*
X20203847Y39328782D01*
X20183330Y39341079D01*
X20164117Y39355329D01*
X20146393Y39371393D01*
X20130329Y39389117D01*
X20116079Y39408330D01*
X20103782Y39428847D01*
X20093554Y39450471D01*
X20085496Y39472993D01*
X20079684Y39496197D01*
X20076174Y39519858D01*
X20075000Y39543750D01*
X20075000Y40456250D01*
X20076174Y40480142D01*
X20079684Y40503803D01*
X20085496Y40527007D01*
X20093554Y40549529D01*
X20103782Y40571153D01*
X20116079Y40591670D01*
X20130329Y40610883D01*
X20146393Y40628607D01*
X20164117Y40644671D01*
X20183330Y40658921D01*
X20203847Y40671218D01*
X20225471Y40681446D01*
X20247993Y40689504D01*
X20271197Y40695316D01*
X20294858Y40698826D01*
X20318750Y40700000D01*
X20806250Y40700000D01*
X20830142Y40698826D01*
X20830142Y40698826D01*
G37*
D11*
X20562500Y40000000D03*
G04 #@! TD*
D10*
G04 #@! TO.C,C13*
G36*
X28480142Y25548826D02*
X28503803Y25545316D01*
X28527007Y25539504D01*
X28549529Y25531446D01*
X28571153Y25521218D01*
X28591670Y25508921D01*
X28610883Y25494671D01*
X28628607Y25478607D01*
X28644671Y25460883D01*
X28658921Y25441670D01*
X28671218Y25421153D01*
X28681446Y25399529D01*
X28689504Y25377007D01*
X28695316Y25353803D01*
X28698826Y25330142D01*
X28700000Y25306250D01*
X28700000Y24818750D01*
X28698826Y24794858D01*
X28695316Y24771197D01*
X28689504Y24747993D01*
X28681446Y24725471D01*
X28671218Y24703847D01*
X28658921Y24683330D01*
X28644671Y24664117D01*
X28628607Y24646393D01*
X28610883Y24630329D01*
X28591670Y24616079D01*
X28571153Y24603782D01*
X28549529Y24593554D01*
X28527007Y24585496D01*
X28503803Y24579684D01*
X28480142Y24576174D01*
X28456250Y24575000D01*
X27543750Y24575000D01*
X27519858Y24576174D01*
X27496197Y24579684D01*
X27472993Y24585496D01*
X27450471Y24593554D01*
X27428847Y24603782D01*
X27408330Y24616079D01*
X27389117Y24630329D01*
X27371393Y24646393D01*
X27355329Y24664117D01*
X27341079Y24683330D01*
X27328782Y24703847D01*
X27318554Y24725471D01*
X27310496Y24747993D01*
X27304684Y24771197D01*
X27301174Y24794858D01*
X27300000Y24818750D01*
X27300000Y25306250D01*
X27301174Y25330142D01*
X27304684Y25353803D01*
X27310496Y25377007D01*
X27318554Y25399529D01*
X27328782Y25421153D01*
X27341079Y25441670D01*
X27355329Y25460883D01*
X27371393Y25478607D01*
X27389117Y25494671D01*
X27408330Y25508921D01*
X27428847Y25521218D01*
X27450471Y25531446D01*
X27472993Y25539504D01*
X27496197Y25545316D01*
X27519858Y25548826D01*
X27543750Y25550000D01*
X28456250Y25550000D01*
X28480142Y25548826D01*
X28480142Y25548826D01*
G37*
D11*
X28000000Y25062500D03*
D10*
G36*
X28480142Y27423826D02*
X28503803Y27420316D01*
X28527007Y27414504D01*
X28549529Y27406446D01*
X28571153Y27396218D01*
X28591670Y27383921D01*
X28610883Y27369671D01*
X28628607Y27353607D01*
X28644671Y27335883D01*
X28658921Y27316670D01*
X28671218Y27296153D01*
X28681446Y27274529D01*
X28689504Y27252007D01*
X28695316Y27228803D01*
X28698826Y27205142D01*
X28700000Y27181250D01*
X28700000Y26693750D01*
X28698826Y26669858D01*
X28695316Y26646197D01*
X28689504Y26622993D01*
X28681446Y26600471D01*
X28671218Y26578847D01*
X28658921Y26558330D01*
X28644671Y26539117D01*
X28628607Y26521393D01*
X28610883Y26505329D01*
X28591670Y26491079D01*
X28571153Y26478782D01*
X28549529Y26468554D01*
X28527007Y26460496D01*
X28503803Y26454684D01*
X28480142Y26451174D01*
X28456250Y26450000D01*
X27543750Y26450000D01*
X27519858Y26451174D01*
X27496197Y26454684D01*
X27472993Y26460496D01*
X27450471Y26468554D01*
X27428847Y26478782D01*
X27408330Y26491079D01*
X27389117Y26505329D01*
X27371393Y26521393D01*
X27355329Y26539117D01*
X27341079Y26558330D01*
X27328782Y26578847D01*
X27318554Y26600471D01*
X27310496Y26622993D01*
X27304684Y26646197D01*
X27301174Y26669858D01*
X27300000Y26693750D01*
X27300000Y27181250D01*
X27301174Y27205142D01*
X27304684Y27228803D01*
X27310496Y27252007D01*
X27318554Y27274529D01*
X27328782Y27296153D01*
X27341079Y27316670D01*
X27355329Y27335883D01*
X27371393Y27353607D01*
X27389117Y27369671D01*
X27408330Y27383921D01*
X27428847Y27396218D01*
X27450471Y27406446D01*
X27472993Y27414504D01*
X27496197Y27420316D01*
X27519858Y27423826D01*
X27543750Y27425000D01*
X28456250Y27425000D01*
X28480142Y27423826D01*
X28480142Y27423826D01*
G37*
D11*
X28000000Y26937500D03*
G04 #@! TD*
D10*
G04 #@! TO.C,C14*
G36*
X52705142Y40698826D02*
X52728803Y40695316D01*
X52752007Y40689504D01*
X52774529Y40681446D01*
X52796153Y40671218D01*
X52816670Y40658921D01*
X52835883Y40644671D01*
X52853607Y40628607D01*
X52869671Y40610883D01*
X52883921Y40591670D01*
X52896218Y40571153D01*
X52906446Y40549529D01*
X52914504Y40527007D01*
X52920316Y40503803D01*
X52923826Y40480142D01*
X52925000Y40456250D01*
X52925000Y39543750D01*
X52923826Y39519858D01*
X52920316Y39496197D01*
X52914504Y39472993D01*
X52906446Y39450471D01*
X52896218Y39428847D01*
X52883921Y39408330D01*
X52869671Y39389117D01*
X52853607Y39371393D01*
X52835883Y39355329D01*
X52816670Y39341079D01*
X52796153Y39328782D01*
X52774529Y39318554D01*
X52752007Y39310496D01*
X52728803Y39304684D01*
X52705142Y39301174D01*
X52681250Y39300000D01*
X52193750Y39300000D01*
X52169858Y39301174D01*
X52146197Y39304684D01*
X52122993Y39310496D01*
X52100471Y39318554D01*
X52078847Y39328782D01*
X52058330Y39341079D01*
X52039117Y39355329D01*
X52021393Y39371393D01*
X52005329Y39389117D01*
X51991079Y39408330D01*
X51978782Y39428847D01*
X51968554Y39450471D01*
X51960496Y39472993D01*
X51954684Y39496197D01*
X51951174Y39519858D01*
X51950000Y39543750D01*
X51950000Y40456250D01*
X51951174Y40480142D01*
X51954684Y40503803D01*
X51960496Y40527007D01*
X51968554Y40549529D01*
X51978782Y40571153D01*
X51991079Y40591670D01*
X52005329Y40610883D01*
X52021393Y40628607D01*
X52039117Y40644671D01*
X52058330Y40658921D01*
X52078847Y40671218D01*
X52100471Y40681446D01*
X52122993Y40689504D01*
X52146197Y40695316D01*
X52169858Y40698826D01*
X52193750Y40700000D01*
X52681250Y40700000D01*
X52705142Y40698826D01*
X52705142Y40698826D01*
G37*
D11*
X52437500Y40000000D03*
D10*
G36*
X50830142Y40698826D02*
X50853803Y40695316D01*
X50877007Y40689504D01*
X50899529Y40681446D01*
X50921153Y40671218D01*
X50941670Y40658921D01*
X50960883Y40644671D01*
X50978607Y40628607D01*
X50994671Y40610883D01*
X51008921Y40591670D01*
X51021218Y40571153D01*
X51031446Y40549529D01*
X51039504Y40527007D01*
X51045316Y40503803D01*
X51048826Y40480142D01*
X51050000Y40456250D01*
X51050000Y39543750D01*
X51048826Y39519858D01*
X51045316Y39496197D01*
X51039504Y39472993D01*
X51031446Y39450471D01*
X51021218Y39428847D01*
X51008921Y39408330D01*
X50994671Y39389117D01*
X50978607Y39371393D01*
X50960883Y39355329D01*
X50941670Y39341079D01*
X50921153Y39328782D01*
X50899529Y39318554D01*
X50877007Y39310496D01*
X50853803Y39304684D01*
X50830142Y39301174D01*
X50806250Y39300000D01*
X50318750Y39300000D01*
X50294858Y39301174D01*
X50271197Y39304684D01*
X50247993Y39310496D01*
X50225471Y39318554D01*
X50203847Y39328782D01*
X50183330Y39341079D01*
X50164117Y39355329D01*
X50146393Y39371393D01*
X50130329Y39389117D01*
X50116079Y39408330D01*
X50103782Y39428847D01*
X50093554Y39450471D01*
X50085496Y39472993D01*
X50079684Y39496197D01*
X50076174Y39519858D01*
X50075000Y39543750D01*
X50075000Y40456250D01*
X50076174Y40480142D01*
X50079684Y40503803D01*
X50085496Y40527007D01*
X50093554Y40549529D01*
X50103782Y40571153D01*
X50116079Y40591670D01*
X50130329Y40610883D01*
X50146393Y40628607D01*
X50164117Y40644671D01*
X50183330Y40658921D01*
X50203847Y40671218D01*
X50225471Y40681446D01*
X50247993Y40689504D01*
X50271197Y40695316D01*
X50294858Y40698826D01*
X50318750Y40700000D01*
X50806250Y40700000D01*
X50830142Y40698826D01*
X50830142Y40698826D01*
G37*
D11*
X50562500Y40000000D03*
G04 #@! TD*
D12*
G04 #@! TO.C,D2*
X52000000Y4000000D03*
X56000000Y4000000D03*
G04 #@! TD*
D10*
G04 #@! TO.C,R1*
G36*
X33799504Y23373796D02*
X33823773Y23370196D01*
X33847571Y23364235D01*
X33870671Y23355970D01*
X33892849Y23345480D01*
X33913893Y23332867D01*
X33933598Y23318253D01*
X33951777Y23301777D01*
X33968253Y23283598D01*
X33982867Y23263893D01*
X33995480Y23242849D01*
X34005970Y23220671D01*
X34014235Y23197571D01*
X34020196Y23173773D01*
X34023796Y23149504D01*
X34025000Y23125000D01*
X34025000Y21875000D01*
X34023796Y21850496D01*
X34020196Y21826227D01*
X34014235Y21802429D01*
X34005970Y21779329D01*
X33995480Y21757151D01*
X33982867Y21736107D01*
X33968253Y21716402D01*
X33951777Y21698223D01*
X33933598Y21681747D01*
X33913893Y21667133D01*
X33892849Y21654520D01*
X33870671Y21644030D01*
X33847571Y21635765D01*
X33823773Y21629804D01*
X33799504Y21626204D01*
X33775000Y21625000D01*
X33025000Y21625000D01*
X33000496Y21626204D01*
X32976227Y21629804D01*
X32952429Y21635765D01*
X32929329Y21644030D01*
X32907151Y21654520D01*
X32886107Y21667133D01*
X32866402Y21681747D01*
X32848223Y21698223D01*
X32831747Y21716402D01*
X32817133Y21736107D01*
X32804520Y21757151D01*
X32794030Y21779329D01*
X32785765Y21802429D01*
X32779804Y21826227D01*
X32776204Y21850496D01*
X32775000Y21875000D01*
X32775000Y23125000D01*
X32776204Y23149504D01*
X32779804Y23173773D01*
X32785765Y23197571D01*
X32794030Y23220671D01*
X32804520Y23242849D01*
X32817133Y23263893D01*
X32831747Y23283598D01*
X32848223Y23301777D01*
X32866402Y23318253D01*
X32886107Y23332867D01*
X32907151Y23345480D01*
X32929329Y23355970D01*
X32952429Y23364235D01*
X32976227Y23370196D01*
X33000496Y23373796D01*
X33025000Y23375000D01*
X33775000Y23375000D01*
X33799504Y23373796D01*
X33799504Y23373796D01*
G37*
D13*
X33400000Y22500000D03*
D10*
G36*
X30999504Y23373796D02*
X31023773Y23370196D01*
X31047571Y23364235D01*
X31070671Y23355970D01*
X31092849Y23345480D01*
X31113893Y23332867D01*
X31133598Y23318253D01*
X31151777Y23301777D01*
X31168253Y23283598D01*
X31182867Y23263893D01*
X31195480Y23242849D01*
X31205970Y23220671D01*
X31214235Y23197571D01*
X31220196Y23173773D01*
X31223796Y23149504D01*
X31225000Y23125000D01*
X31225000Y21875000D01*
X31223796Y21850496D01*
X31220196Y21826227D01*
X31214235Y21802429D01*
X31205970Y21779329D01*
X31195480Y21757151D01*
X31182867Y21736107D01*
X31168253Y21716402D01*
X31151777Y21698223D01*
X31133598Y21681747D01*
X31113893Y21667133D01*
X31092849Y21654520D01*
X31070671Y21644030D01*
X31047571Y21635765D01*
X31023773Y21629804D01*
X30999504Y21626204D01*
X30975000Y21625000D01*
X30225000Y21625000D01*
X30200496Y21626204D01*
X30176227Y21629804D01*
X30152429Y21635765D01*
X30129329Y21644030D01*
X30107151Y21654520D01*
X30086107Y21667133D01*
X30066402Y21681747D01*
X30048223Y21698223D01*
X30031747Y21716402D01*
X30017133Y21736107D01*
X30004520Y21757151D01*
X29994030Y21779329D01*
X29985765Y21802429D01*
X29979804Y21826227D01*
X29976204Y21850496D01*
X29975000Y21875000D01*
X29975000Y23125000D01*
X29976204Y23149504D01*
X29979804Y23173773D01*
X29985765Y23197571D01*
X29994030Y23220671D01*
X30004520Y23242849D01*
X30017133Y23263893D01*
X30031747Y23283598D01*
X30048223Y23301777D01*
X30066402Y23318253D01*
X30086107Y23332867D01*
X30107151Y23345480D01*
X30129329Y23355970D01*
X30152429Y23364235D01*
X30176227Y23370196D01*
X30200496Y23373796D01*
X30225000Y23375000D01*
X30975000Y23375000D01*
X30999504Y23373796D01*
X30999504Y23373796D01*
G37*
D13*
X30600000Y22500000D03*
G04 #@! TD*
D10*
G04 #@! TO.C,R2*
G36*
X27999504Y32873796D02*
X28023773Y32870196D01*
X28047571Y32864235D01*
X28070671Y32855970D01*
X28092849Y32845480D01*
X28113893Y32832867D01*
X28133598Y32818253D01*
X28151777Y32801777D01*
X28168253Y32783598D01*
X28182867Y32763893D01*
X28195480Y32742849D01*
X28205970Y32720671D01*
X28214235Y32697571D01*
X28220196Y32673773D01*
X28223796Y32649504D01*
X28225000Y32625000D01*
X28225000Y31375000D01*
X28223796Y31350496D01*
X28220196Y31326227D01*
X28214235Y31302429D01*
X28205970Y31279329D01*
X28195480Y31257151D01*
X28182867Y31236107D01*
X28168253Y31216402D01*
X28151777Y31198223D01*
X28133598Y31181747D01*
X28113893Y31167133D01*
X28092849Y31154520D01*
X28070671Y31144030D01*
X28047571Y31135765D01*
X28023773Y31129804D01*
X27999504Y31126204D01*
X27975000Y31125000D01*
X27225000Y31125000D01*
X27200496Y31126204D01*
X27176227Y31129804D01*
X27152429Y31135765D01*
X27129329Y31144030D01*
X27107151Y31154520D01*
X27086107Y31167133D01*
X27066402Y31181747D01*
X27048223Y31198223D01*
X27031747Y31216402D01*
X27017133Y31236107D01*
X27004520Y31257151D01*
X26994030Y31279329D01*
X26985765Y31302429D01*
X26979804Y31326227D01*
X26976204Y31350496D01*
X26975000Y31375000D01*
X26975000Y32625000D01*
X26976204Y32649504D01*
X26979804Y32673773D01*
X26985765Y32697571D01*
X26994030Y32720671D01*
X27004520Y32742849D01*
X27017133Y32763893D01*
X27031747Y32783598D01*
X27048223Y32801777D01*
X27066402Y32818253D01*
X27086107Y32832867D01*
X27107151Y32845480D01*
X27129329Y32855970D01*
X27152429Y32864235D01*
X27176227Y32870196D01*
X27200496Y32873796D01*
X27225000Y32875000D01*
X27975000Y32875000D01*
X27999504Y32873796D01*
X27999504Y32873796D01*
G37*
D13*
X27600000Y32000000D03*
D10*
G36*
X30799504Y32873796D02*
X30823773Y32870196D01*
X30847571Y32864235D01*
X30870671Y32855970D01*
X30892849Y32845480D01*
X30913893Y32832867D01*
X30933598Y32818253D01*
X30951777Y32801777D01*
X30968253Y32783598D01*
X30982867Y32763893D01*
X30995480Y32742849D01*
X31005970Y32720671D01*
X31014235Y32697571D01*
X31020196Y32673773D01*
X31023796Y32649504D01*
X31025000Y32625000D01*
X31025000Y31375000D01*
X31023796Y31350496D01*
X31020196Y31326227D01*
X31014235Y31302429D01*
X31005970Y31279329D01*
X30995480Y31257151D01*
X30982867Y31236107D01*
X30968253Y31216402D01*
X30951777Y31198223D01*
X30933598Y31181747D01*
X30913893Y31167133D01*
X30892849Y31154520D01*
X30870671Y31144030D01*
X30847571Y31135765D01*
X30823773Y31129804D01*
X30799504Y31126204D01*
X30775000Y31125000D01*
X30025000Y31125000D01*
X30000496Y31126204D01*
X29976227Y31129804D01*
X29952429Y31135765D01*
X29929329Y31144030D01*
X29907151Y31154520D01*
X29886107Y31167133D01*
X29866402Y31181747D01*
X29848223Y31198223D01*
X29831747Y31216402D01*
X29817133Y31236107D01*
X29804520Y31257151D01*
X29794030Y31279329D01*
X29785765Y31302429D01*
X29779804Y31326227D01*
X29776204Y31350496D01*
X29775000Y31375000D01*
X29775000Y32625000D01*
X29776204Y32649504D01*
X29779804Y32673773D01*
X29785765Y32697571D01*
X29794030Y32720671D01*
X29804520Y32742849D01*
X29817133Y32763893D01*
X29831747Y32783598D01*
X29848223Y32801777D01*
X29866402Y32818253D01*
X29886107Y32832867D01*
X29907151Y32845480D01*
X29929329Y32855970D01*
X29952429Y32864235D01*
X29976227Y32870196D01*
X30000496Y32873796D01*
X30025000Y32875000D01*
X30775000Y32875000D01*
X30799504Y32873796D01*
X30799504Y32873796D01*
G37*
D13*
X30400000Y32000000D03*
G04 #@! TD*
D10*
G04 #@! TO.C,R3*
G36*
X36799504Y5873796D02*
X36823773Y5870196D01*
X36847571Y5864235D01*
X36870671Y5855970D01*
X36892849Y5845480D01*
X36913893Y5832867D01*
X36933598Y5818253D01*
X36951777Y5801777D01*
X36968253Y5783598D01*
X36982867Y5763893D01*
X36995480Y5742849D01*
X37005970Y5720671D01*
X37014235Y5697571D01*
X37020196Y5673773D01*
X37023796Y5649504D01*
X37025000Y5625000D01*
X37025000Y4375000D01*
X37023796Y4350496D01*
X37020196Y4326227D01*
X37014235Y4302429D01*
X37005970Y4279329D01*
X36995480Y4257151D01*
X36982867Y4236107D01*
X36968253Y4216402D01*
X36951777Y4198223D01*
X36933598Y4181747D01*
X36913893Y4167133D01*
X36892849Y4154520D01*
X36870671Y4144030D01*
X36847571Y4135765D01*
X36823773Y4129804D01*
X36799504Y4126204D01*
X36775000Y4125000D01*
X36025000Y4125000D01*
X36000496Y4126204D01*
X35976227Y4129804D01*
X35952429Y4135765D01*
X35929329Y4144030D01*
X35907151Y4154520D01*
X35886107Y4167133D01*
X35866402Y4181747D01*
X35848223Y4198223D01*
X35831747Y4216402D01*
X35817133Y4236107D01*
X35804520Y4257151D01*
X35794030Y4279329D01*
X35785765Y4302429D01*
X35779804Y4326227D01*
X35776204Y4350496D01*
X35775000Y4375000D01*
X35775000Y5625000D01*
X35776204Y5649504D01*
X35779804Y5673773D01*
X35785765Y5697571D01*
X35794030Y5720671D01*
X35804520Y5742849D01*
X35817133Y5763893D01*
X35831747Y5783598D01*
X35848223Y5801777D01*
X35866402Y5818253D01*
X35886107Y5832867D01*
X35907151Y5845480D01*
X35929329Y5855970D01*
X35952429Y5864235D01*
X35976227Y5870196D01*
X36000496Y5873796D01*
X36025000Y5875000D01*
X36775000Y5875000D01*
X36799504Y5873796D01*
X36799504Y5873796D01*
G37*
D13*
X36400000Y5000000D03*
D10*
G36*
X33999504Y5873796D02*
X34023773Y5870196D01*
X34047571Y5864235D01*
X34070671Y5855970D01*
X34092849Y5845480D01*
X34113893Y5832867D01*
X34133598Y5818253D01*
X34151777Y5801777D01*
X34168253Y5783598D01*
X34182867Y5763893D01*
X34195480Y5742849D01*
X34205970Y5720671D01*
X34214235Y5697571D01*
X34220196Y5673773D01*
X34223796Y5649504D01*
X34225000Y5625000D01*
X34225000Y4375000D01*
X34223796Y4350496D01*
X34220196Y4326227D01*
X34214235Y4302429D01*
X34205970Y4279329D01*
X34195480Y4257151D01*
X34182867Y4236107D01*
X34168253Y4216402D01*
X34151777Y4198223D01*
X34133598Y4181747D01*
X34113893Y4167133D01*
X34092849Y4154520D01*
X34070671Y4144030D01*
X34047571Y4135765D01*
X34023773Y4129804D01*
X33999504Y4126204D01*
X33975000Y4125000D01*
X33225000Y4125000D01*
X33200496Y4126204D01*
X33176227Y4129804D01*
X33152429Y4135765D01*
X33129329Y4144030D01*
X33107151Y4154520D01*
X33086107Y4167133D01*
X33066402Y4181747D01*
X33048223Y4198223D01*
X33031747Y4216402D01*
X33017133Y4236107D01*
X33004520Y4257151D01*
X32994030Y4279329D01*
X32985765Y4302429D01*
X32979804Y4326227D01*
X32976204Y4350496D01*
X32975000Y4375000D01*
X32975000Y5625000D01*
X32976204Y5649504D01*
X32979804Y5673773D01*
X32985765Y5697571D01*
X32994030Y5720671D01*
X33004520Y5742849D01*
X33017133Y5763893D01*
X33031747Y5783598D01*
X33048223Y5801777D01*
X33066402Y5818253D01*
X33086107Y5832867D01*
X33107151Y5845480D01*
X33129329Y5855970D01*
X33152429Y5864235D01*
X33176227Y5870196D01*
X33200496Y5873796D01*
X33225000Y5875000D01*
X33975000Y5875000D01*
X33999504Y5873796D01*
X33999504Y5873796D01*
G37*
D13*
X33600000Y5000000D03*
G04 #@! TD*
D10*
G04 #@! TO.C,R5*
G36*
X31499504Y17373796D02*
X31523773Y17370196D01*
X31547571Y17364235D01*
X31570671Y17355970D01*
X31592849Y17345480D01*
X31613893Y17332867D01*
X31633598Y17318253D01*
X31651777Y17301777D01*
X31668253Y17283598D01*
X31682867Y17263893D01*
X31695480Y17242849D01*
X31705970Y17220671D01*
X31714235Y17197571D01*
X31720196Y17173773D01*
X31723796Y17149504D01*
X31725000Y17125000D01*
X31725000Y15875000D01*
X31723796Y15850496D01*
X31720196Y15826227D01*
X31714235Y15802429D01*
X31705970Y15779329D01*
X31695480Y15757151D01*
X31682867Y15736107D01*
X31668253Y15716402D01*
X31651777Y15698223D01*
X31633598Y15681747D01*
X31613893Y15667133D01*
X31592849Y15654520D01*
X31570671Y15644030D01*
X31547571Y15635765D01*
X31523773Y15629804D01*
X31499504Y15626204D01*
X31475000Y15625000D01*
X30725000Y15625000D01*
X30700496Y15626204D01*
X30676227Y15629804D01*
X30652429Y15635765D01*
X30629329Y15644030D01*
X30607151Y15654520D01*
X30586107Y15667133D01*
X30566402Y15681747D01*
X30548223Y15698223D01*
X30531747Y15716402D01*
X30517133Y15736107D01*
X30504520Y15757151D01*
X30494030Y15779329D01*
X30485765Y15802429D01*
X30479804Y15826227D01*
X30476204Y15850496D01*
X30475000Y15875000D01*
X30475000Y17125000D01*
X30476204Y17149504D01*
X30479804Y17173773D01*
X30485765Y17197571D01*
X30494030Y17220671D01*
X30504520Y17242849D01*
X30517133Y17263893D01*
X30531747Y17283598D01*
X30548223Y17301777D01*
X30566402Y17318253D01*
X30586107Y17332867D01*
X30607151Y17345480D01*
X30629329Y17355970D01*
X30652429Y17364235D01*
X30676227Y17370196D01*
X30700496Y17373796D01*
X30725000Y17375000D01*
X31475000Y17375000D01*
X31499504Y17373796D01*
X31499504Y17373796D01*
G37*
D13*
X31100000Y16500000D03*
D10*
G36*
X34299504Y17373796D02*
X34323773Y17370196D01*
X34347571Y17364235D01*
X34370671Y17355970D01*
X34392849Y17345480D01*
X34413893Y17332867D01*
X34433598Y17318253D01*
X34451777Y17301777D01*
X34468253Y17283598D01*
X34482867Y17263893D01*
X34495480Y17242849D01*
X34505970Y17220671D01*
X34514235Y17197571D01*
X34520196Y17173773D01*
X34523796Y17149504D01*
X34525000Y17125000D01*
X34525000Y15875000D01*
X34523796Y15850496D01*
X34520196Y15826227D01*
X34514235Y15802429D01*
X34505970Y15779329D01*
X34495480Y15757151D01*
X34482867Y15736107D01*
X34468253Y15716402D01*
X34451777Y15698223D01*
X34433598Y15681747D01*
X34413893Y15667133D01*
X34392849Y15654520D01*
X34370671Y15644030D01*
X34347571Y15635765D01*
X34323773Y15629804D01*
X34299504Y15626204D01*
X34275000Y15625000D01*
X33525000Y15625000D01*
X33500496Y15626204D01*
X33476227Y15629804D01*
X33452429Y15635765D01*
X33429329Y15644030D01*
X33407151Y15654520D01*
X33386107Y15667133D01*
X33366402Y15681747D01*
X33348223Y15698223D01*
X33331747Y15716402D01*
X33317133Y15736107D01*
X33304520Y15757151D01*
X33294030Y15779329D01*
X33285765Y15802429D01*
X33279804Y15826227D01*
X33276204Y15850496D01*
X33275000Y15875000D01*
X33275000Y17125000D01*
X33276204Y17149504D01*
X33279804Y17173773D01*
X33285765Y17197571D01*
X33294030Y17220671D01*
X33304520Y17242849D01*
X33317133Y17263893D01*
X33331747Y17283598D01*
X33348223Y17301777D01*
X33366402Y17318253D01*
X33386107Y17332867D01*
X33407151Y17345480D01*
X33429329Y17355970D01*
X33452429Y17364235D01*
X33476227Y17370196D01*
X33500496Y17373796D01*
X33525000Y17375000D01*
X34275000Y17375000D01*
X34299504Y17373796D01*
X34299504Y17373796D01*
G37*
D13*
X33900000Y16500000D03*
G04 #@! TD*
D10*
G04 #@! TO.C,R6*
G36*
X31499504Y13873796D02*
X31523773Y13870196D01*
X31547571Y13864235D01*
X31570671Y13855970D01*
X31592849Y13845480D01*
X31613893Y13832867D01*
X31633598Y13818253D01*
X31651777Y13801777D01*
X31668253Y13783598D01*
X31682867Y13763893D01*
X31695480Y13742849D01*
X31705970Y13720671D01*
X31714235Y13697571D01*
X31720196Y13673773D01*
X31723796Y13649504D01*
X31725000Y13625000D01*
X31725000Y12375000D01*
X31723796Y12350496D01*
X31720196Y12326227D01*
X31714235Y12302429D01*
X31705970Y12279329D01*
X31695480Y12257151D01*
X31682867Y12236107D01*
X31668253Y12216402D01*
X31651777Y12198223D01*
X31633598Y12181747D01*
X31613893Y12167133D01*
X31592849Y12154520D01*
X31570671Y12144030D01*
X31547571Y12135765D01*
X31523773Y12129804D01*
X31499504Y12126204D01*
X31475000Y12125000D01*
X30725000Y12125000D01*
X30700496Y12126204D01*
X30676227Y12129804D01*
X30652429Y12135765D01*
X30629329Y12144030D01*
X30607151Y12154520D01*
X30586107Y12167133D01*
X30566402Y12181747D01*
X30548223Y12198223D01*
X30531747Y12216402D01*
X30517133Y12236107D01*
X30504520Y12257151D01*
X30494030Y12279329D01*
X30485765Y12302429D01*
X30479804Y12326227D01*
X30476204Y12350496D01*
X30475000Y12375000D01*
X30475000Y13625000D01*
X30476204Y13649504D01*
X30479804Y13673773D01*
X30485765Y13697571D01*
X30494030Y13720671D01*
X30504520Y13742849D01*
X30517133Y13763893D01*
X30531747Y13783598D01*
X30548223Y13801777D01*
X30566402Y13818253D01*
X30586107Y13832867D01*
X30607151Y13845480D01*
X30629329Y13855970D01*
X30652429Y13864235D01*
X30676227Y13870196D01*
X30700496Y13873796D01*
X30725000Y13875000D01*
X31475000Y13875000D01*
X31499504Y13873796D01*
X31499504Y13873796D01*
G37*
D13*
X31100000Y13000000D03*
D10*
G36*
X34299504Y13873796D02*
X34323773Y13870196D01*
X34347571Y13864235D01*
X34370671Y13855970D01*
X34392849Y13845480D01*
X34413893Y13832867D01*
X34433598Y13818253D01*
X34451777Y13801777D01*
X34468253Y13783598D01*
X34482867Y13763893D01*
X34495480Y13742849D01*
X34505970Y13720671D01*
X34514235Y13697571D01*
X34520196Y13673773D01*
X34523796Y13649504D01*
X34525000Y13625000D01*
X34525000Y12375000D01*
X34523796Y12350496D01*
X34520196Y12326227D01*
X34514235Y12302429D01*
X34505970Y12279329D01*
X34495480Y12257151D01*
X34482867Y12236107D01*
X34468253Y12216402D01*
X34451777Y12198223D01*
X34433598Y12181747D01*
X34413893Y12167133D01*
X34392849Y12154520D01*
X34370671Y12144030D01*
X34347571Y12135765D01*
X34323773Y12129804D01*
X34299504Y12126204D01*
X34275000Y12125000D01*
X33525000Y12125000D01*
X33500496Y12126204D01*
X33476227Y12129804D01*
X33452429Y12135765D01*
X33429329Y12144030D01*
X33407151Y12154520D01*
X33386107Y12167133D01*
X33366402Y12181747D01*
X33348223Y12198223D01*
X33331747Y12216402D01*
X33317133Y12236107D01*
X33304520Y12257151D01*
X33294030Y12279329D01*
X33285765Y12302429D01*
X33279804Y12326227D01*
X33276204Y12350496D01*
X33275000Y12375000D01*
X33275000Y13625000D01*
X33276204Y13649504D01*
X33279804Y13673773D01*
X33285765Y13697571D01*
X33294030Y13720671D01*
X33304520Y13742849D01*
X33317133Y13763893D01*
X33331747Y13783598D01*
X33348223Y13801777D01*
X33366402Y13818253D01*
X33386107Y13832867D01*
X33407151Y13845480D01*
X33429329Y13855970D01*
X33452429Y13864235D01*
X33476227Y13870196D01*
X33500496Y13873796D01*
X33525000Y13875000D01*
X34275000Y13875000D01*
X34299504Y13873796D01*
X34299504Y13873796D01*
G37*
D13*
X33900000Y13000000D03*
G04 #@! TD*
D10*
G04 #@! TO.C,R7*
G36*
X39299504Y17373796D02*
X39323773Y17370196D01*
X39347571Y17364235D01*
X39370671Y17355970D01*
X39392849Y17345480D01*
X39413893Y17332867D01*
X39433598Y17318253D01*
X39451777Y17301777D01*
X39468253Y17283598D01*
X39482867Y17263893D01*
X39495480Y17242849D01*
X39505970Y17220671D01*
X39514235Y17197571D01*
X39520196Y17173773D01*
X39523796Y17149504D01*
X39525000Y17125000D01*
X39525000Y15875000D01*
X39523796Y15850496D01*
X39520196Y15826227D01*
X39514235Y15802429D01*
X39505970Y15779329D01*
X39495480Y15757151D01*
X39482867Y15736107D01*
X39468253Y15716402D01*
X39451777Y15698223D01*
X39433598Y15681747D01*
X39413893Y15667133D01*
X39392849Y15654520D01*
X39370671Y15644030D01*
X39347571Y15635765D01*
X39323773Y15629804D01*
X39299504Y15626204D01*
X39275000Y15625000D01*
X38525000Y15625000D01*
X38500496Y15626204D01*
X38476227Y15629804D01*
X38452429Y15635765D01*
X38429329Y15644030D01*
X38407151Y15654520D01*
X38386107Y15667133D01*
X38366402Y15681747D01*
X38348223Y15698223D01*
X38331747Y15716402D01*
X38317133Y15736107D01*
X38304520Y15757151D01*
X38294030Y15779329D01*
X38285765Y15802429D01*
X38279804Y15826227D01*
X38276204Y15850496D01*
X38275000Y15875000D01*
X38275000Y17125000D01*
X38276204Y17149504D01*
X38279804Y17173773D01*
X38285765Y17197571D01*
X38294030Y17220671D01*
X38304520Y17242849D01*
X38317133Y17263893D01*
X38331747Y17283598D01*
X38348223Y17301777D01*
X38366402Y17318253D01*
X38386107Y17332867D01*
X38407151Y17345480D01*
X38429329Y17355970D01*
X38452429Y17364235D01*
X38476227Y17370196D01*
X38500496Y17373796D01*
X38525000Y17375000D01*
X39275000Y17375000D01*
X39299504Y17373796D01*
X39299504Y17373796D01*
G37*
D13*
X38900000Y16500000D03*
D10*
G36*
X36499504Y17373796D02*
X36523773Y17370196D01*
X36547571Y17364235D01*
X36570671Y17355970D01*
X36592849Y17345480D01*
X36613893Y17332867D01*
X36633598Y17318253D01*
X36651777Y17301777D01*
X36668253Y17283598D01*
X36682867Y17263893D01*
X36695480Y17242849D01*
X36705970Y17220671D01*
X36714235Y17197571D01*
X36720196Y17173773D01*
X36723796Y17149504D01*
X36725000Y17125000D01*
X36725000Y15875000D01*
X36723796Y15850496D01*
X36720196Y15826227D01*
X36714235Y15802429D01*
X36705970Y15779329D01*
X36695480Y15757151D01*
X36682867Y15736107D01*
X36668253Y15716402D01*
X36651777Y15698223D01*
X36633598Y15681747D01*
X36613893Y15667133D01*
X36592849Y15654520D01*
X36570671Y15644030D01*
X36547571Y15635765D01*
X36523773Y15629804D01*
X36499504Y15626204D01*
X36475000Y15625000D01*
X35725000Y15625000D01*
X35700496Y15626204D01*
X35676227Y15629804D01*
X35652429Y15635765D01*
X35629329Y15644030D01*
X35607151Y15654520D01*
X35586107Y15667133D01*
X35566402Y15681747D01*
X35548223Y15698223D01*
X35531747Y15716402D01*
X35517133Y15736107D01*
X35504520Y15757151D01*
X35494030Y15779329D01*
X35485765Y15802429D01*
X35479804Y15826227D01*
X35476204Y15850496D01*
X35475000Y15875000D01*
X35475000Y17125000D01*
X35476204Y17149504D01*
X35479804Y17173773D01*
X35485765Y17197571D01*
X35494030Y17220671D01*
X35504520Y17242849D01*
X35517133Y17263893D01*
X35531747Y17283598D01*
X35548223Y17301777D01*
X35566402Y17318253D01*
X35586107Y17332867D01*
X35607151Y17345480D01*
X35629329Y17355970D01*
X35652429Y17364235D01*
X35676227Y17370196D01*
X35700496Y17373796D01*
X35725000Y17375000D01*
X36475000Y17375000D01*
X36499504Y17373796D01*
X36499504Y17373796D01*
G37*
D13*
X36100000Y16500000D03*
G04 #@! TD*
D10*
G04 #@! TO.C,R8*
G36*
X42799504Y31873796D02*
X42823773Y31870196D01*
X42847571Y31864235D01*
X42870671Y31855970D01*
X42892849Y31845480D01*
X42913893Y31832867D01*
X42933598Y31818253D01*
X42951777Y31801777D01*
X42968253Y31783598D01*
X42982867Y31763893D01*
X42995480Y31742849D01*
X43005970Y31720671D01*
X43014235Y31697571D01*
X43020196Y31673773D01*
X43023796Y31649504D01*
X43025000Y31625000D01*
X43025000Y30375000D01*
X43023796Y30350496D01*
X43020196Y30326227D01*
X43014235Y30302429D01*
X43005970Y30279329D01*
X42995480Y30257151D01*
X42982867Y30236107D01*
X42968253Y30216402D01*
X42951777Y30198223D01*
X42933598Y30181747D01*
X42913893Y30167133D01*
X42892849Y30154520D01*
X42870671Y30144030D01*
X42847571Y30135765D01*
X42823773Y30129804D01*
X42799504Y30126204D01*
X42775000Y30125000D01*
X42025000Y30125000D01*
X42000496Y30126204D01*
X41976227Y30129804D01*
X41952429Y30135765D01*
X41929329Y30144030D01*
X41907151Y30154520D01*
X41886107Y30167133D01*
X41866402Y30181747D01*
X41848223Y30198223D01*
X41831747Y30216402D01*
X41817133Y30236107D01*
X41804520Y30257151D01*
X41794030Y30279329D01*
X41785765Y30302429D01*
X41779804Y30326227D01*
X41776204Y30350496D01*
X41775000Y30375000D01*
X41775000Y31625000D01*
X41776204Y31649504D01*
X41779804Y31673773D01*
X41785765Y31697571D01*
X41794030Y31720671D01*
X41804520Y31742849D01*
X41817133Y31763893D01*
X41831747Y31783598D01*
X41848223Y31801777D01*
X41866402Y31818253D01*
X41886107Y31832867D01*
X41907151Y31845480D01*
X41929329Y31855970D01*
X41952429Y31864235D01*
X41976227Y31870196D01*
X42000496Y31873796D01*
X42025000Y31875000D01*
X42775000Y31875000D01*
X42799504Y31873796D01*
X42799504Y31873796D01*
G37*
D13*
X42400000Y31000000D03*
D10*
G36*
X39999504Y31873796D02*
X40023773Y31870196D01*
X40047571Y31864235D01*
X40070671Y31855970D01*
X40092849Y31845480D01*
X40113893Y31832867D01*
X40133598Y31818253D01*
X40151777Y31801777D01*
X40168253Y31783598D01*
X40182867Y31763893D01*
X40195480Y31742849D01*
X40205970Y31720671D01*
X40214235Y31697571D01*
X40220196Y31673773D01*
X40223796Y31649504D01*
X40225000Y31625000D01*
X40225000Y30375000D01*
X40223796Y30350496D01*
X40220196Y30326227D01*
X40214235Y30302429D01*
X40205970Y30279329D01*
X40195480Y30257151D01*
X40182867Y30236107D01*
X40168253Y30216402D01*
X40151777Y30198223D01*
X40133598Y30181747D01*
X40113893Y30167133D01*
X40092849Y30154520D01*
X40070671Y30144030D01*
X40047571Y30135765D01*
X40023773Y30129804D01*
X39999504Y30126204D01*
X39975000Y30125000D01*
X39225000Y30125000D01*
X39200496Y30126204D01*
X39176227Y30129804D01*
X39152429Y30135765D01*
X39129329Y30144030D01*
X39107151Y30154520D01*
X39086107Y30167133D01*
X39066402Y30181747D01*
X39048223Y30198223D01*
X39031747Y30216402D01*
X39017133Y30236107D01*
X39004520Y30257151D01*
X38994030Y30279329D01*
X38985765Y30302429D01*
X38979804Y30326227D01*
X38976204Y30350496D01*
X38975000Y30375000D01*
X38975000Y31625000D01*
X38976204Y31649504D01*
X38979804Y31673773D01*
X38985765Y31697571D01*
X38994030Y31720671D01*
X39004520Y31742849D01*
X39017133Y31763893D01*
X39031747Y31783598D01*
X39048223Y31801777D01*
X39066402Y31818253D01*
X39086107Y31832867D01*
X39107151Y31845480D01*
X39129329Y31855970D01*
X39152429Y31864235D01*
X39176227Y31870196D01*
X39200496Y31873796D01*
X39225000Y31875000D01*
X39975000Y31875000D01*
X39999504Y31873796D01*
X39999504Y31873796D01*
G37*
D13*
X39600000Y31000000D03*
G04 #@! TD*
D10*
G04 #@! TO.C,R9*
G36*
X14149504Y39523796D02*
X14173773Y39520196D01*
X14197571Y39514235D01*
X14220671Y39505970D01*
X14242849Y39495480D01*
X14263893Y39482867D01*
X14283598Y39468253D01*
X14301777Y39451777D01*
X14318253Y39433598D01*
X14332867Y39413893D01*
X14345480Y39392849D01*
X14355970Y39370671D01*
X14364235Y39347571D01*
X14370196Y39323773D01*
X14373796Y39299504D01*
X14375000Y39275000D01*
X14375000Y38525000D01*
X14373796Y38500496D01*
X14370196Y38476227D01*
X14364235Y38452429D01*
X14355970Y38429329D01*
X14345480Y38407151D01*
X14332867Y38386107D01*
X14318253Y38366402D01*
X14301777Y38348223D01*
X14283598Y38331747D01*
X14263893Y38317133D01*
X14242849Y38304520D01*
X14220671Y38294030D01*
X14197571Y38285765D01*
X14173773Y38279804D01*
X14149504Y38276204D01*
X14125000Y38275000D01*
X12875000Y38275000D01*
X12850496Y38276204D01*
X12826227Y38279804D01*
X12802429Y38285765D01*
X12779329Y38294030D01*
X12757151Y38304520D01*
X12736107Y38317133D01*
X12716402Y38331747D01*
X12698223Y38348223D01*
X12681747Y38366402D01*
X12667133Y38386107D01*
X12654520Y38407151D01*
X12644030Y38429329D01*
X12635765Y38452429D01*
X12629804Y38476227D01*
X12626204Y38500496D01*
X12625000Y38525000D01*
X12625000Y39275000D01*
X12626204Y39299504D01*
X12629804Y39323773D01*
X12635765Y39347571D01*
X12644030Y39370671D01*
X12654520Y39392849D01*
X12667133Y39413893D01*
X12681747Y39433598D01*
X12698223Y39451777D01*
X12716402Y39468253D01*
X12736107Y39482867D01*
X12757151Y39495480D01*
X12779329Y39505970D01*
X12802429Y39514235D01*
X12826227Y39520196D01*
X12850496Y39523796D01*
X12875000Y39525000D01*
X14125000Y39525000D01*
X14149504Y39523796D01*
X14149504Y39523796D01*
G37*
D13*
X13500000Y38900000D03*
D10*
G36*
X14149504Y36723796D02*
X14173773Y36720196D01*
X14197571Y36714235D01*
X14220671Y36705970D01*
X14242849Y36695480D01*
X14263893Y36682867D01*
X14283598Y36668253D01*
X14301777Y36651777D01*
X14318253Y36633598D01*
X14332867Y36613893D01*
X14345480Y36592849D01*
X14355970Y36570671D01*
X14364235Y36547571D01*
X14370196Y36523773D01*
X14373796Y36499504D01*
X14375000Y36475000D01*
X14375000Y35725000D01*
X14373796Y35700496D01*
X14370196Y35676227D01*
X14364235Y35652429D01*
X14355970Y35629329D01*
X14345480Y35607151D01*
X14332867Y35586107D01*
X14318253Y35566402D01*
X14301777Y35548223D01*
X14283598Y35531747D01*
X14263893Y35517133D01*
X14242849Y35504520D01*
X14220671Y35494030D01*
X14197571Y35485765D01*
X14173773Y35479804D01*
X14149504Y35476204D01*
X14125000Y35475000D01*
X12875000Y35475000D01*
X12850496Y35476204D01*
X12826227Y35479804D01*
X12802429Y35485765D01*
X12779329Y35494030D01*
X12757151Y35504520D01*
X12736107Y35517133D01*
X12716402Y35531747D01*
X12698223Y35548223D01*
X12681747Y35566402D01*
X12667133Y35586107D01*
X12654520Y35607151D01*
X12644030Y35629329D01*
X12635765Y35652429D01*
X12629804Y35676227D01*
X12626204Y35700496D01*
X12625000Y35725000D01*
X12625000Y36475000D01*
X12626204Y36499504D01*
X12629804Y36523773D01*
X12635765Y36547571D01*
X12644030Y36570671D01*
X12654520Y36592849D01*
X12667133Y36613893D01*
X12681747Y36633598D01*
X12698223Y36651777D01*
X12716402Y36668253D01*
X12736107Y36682867D01*
X12757151Y36695480D01*
X12779329Y36705970D01*
X12802429Y36714235D01*
X12826227Y36720196D01*
X12850496Y36723796D01*
X12875000Y36725000D01*
X14125000Y36725000D01*
X14149504Y36723796D01*
X14149504Y36723796D01*
G37*
D13*
X13500000Y36100000D03*
G04 #@! TD*
D10*
G04 #@! TO.C,R10*
G36*
X44149504Y36723796D02*
X44173773Y36720196D01*
X44197571Y36714235D01*
X44220671Y36705970D01*
X44242849Y36695480D01*
X44263893Y36682867D01*
X44283598Y36668253D01*
X44301777Y36651777D01*
X44318253Y36633598D01*
X44332867Y36613893D01*
X44345480Y36592849D01*
X44355970Y36570671D01*
X44364235Y36547571D01*
X44370196Y36523773D01*
X44373796Y36499504D01*
X44375000Y36475000D01*
X44375000Y35725000D01*
X44373796Y35700496D01*
X44370196Y35676227D01*
X44364235Y35652429D01*
X44355970Y35629329D01*
X44345480Y35607151D01*
X44332867Y35586107D01*
X44318253Y35566402D01*
X44301777Y35548223D01*
X44283598Y35531747D01*
X44263893Y35517133D01*
X44242849Y35504520D01*
X44220671Y35494030D01*
X44197571Y35485765D01*
X44173773Y35479804D01*
X44149504Y35476204D01*
X44125000Y35475000D01*
X42875000Y35475000D01*
X42850496Y35476204D01*
X42826227Y35479804D01*
X42802429Y35485765D01*
X42779329Y35494030D01*
X42757151Y35504520D01*
X42736107Y35517133D01*
X42716402Y35531747D01*
X42698223Y35548223D01*
X42681747Y35566402D01*
X42667133Y35586107D01*
X42654520Y35607151D01*
X42644030Y35629329D01*
X42635765Y35652429D01*
X42629804Y35676227D01*
X42626204Y35700496D01*
X42625000Y35725000D01*
X42625000Y36475000D01*
X42626204Y36499504D01*
X42629804Y36523773D01*
X42635765Y36547571D01*
X42644030Y36570671D01*
X42654520Y36592849D01*
X42667133Y36613893D01*
X42681747Y36633598D01*
X42698223Y36651777D01*
X42716402Y36668253D01*
X42736107Y36682867D01*
X42757151Y36695480D01*
X42779329Y36705970D01*
X42802429Y36714235D01*
X42826227Y36720196D01*
X42850496Y36723796D01*
X42875000Y36725000D01*
X44125000Y36725000D01*
X44149504Y36723796D01*
X44149504Y36723796D01*
G37*
D13*
X43500000Y36100000D03*
D10*
G36*
X44149504Y39523796D02*
X44173773Y39520196D01*
X44197571Y39514235D01*
X44220671Y39505970D01*
X44242849Y39495480D01*
X44263893Y39482867D01*
X44283598Y39468253D01*
X44301777Y39451777D01*
X44318253Y39433598D01*
X44332867Y39413893D01*
X44345480Y39392849D01*
X44355970Y39370671D01*
X44364235Y39347571D01*
X44370196Y39323773D01*
X44373796Y39299504D01*
X44375000Y39275000D01*
X44375000Y38525000D01*
X44373796Y38500496D01*
X44370196Y38476227D01*
X44364235Y38452429D01*
X44355970Y38429329D01*
X44345480Y38407151D01*
X44332867Y38386107D01*
X44318253Y38366402D01*
X44301777Y38348223D01*
X44283598Y38331747D01*
X44263893Y38317133D01*
X44242849Y38304520D01*
X44220671Y38294030D01*
X44197571Y38285765D01*
X44173773Y38279804D01*
X44149504Y38276204D01*
X44125000Y38275000D01*
X42875000Y38275000D01*
X42850496Y38276204D01*
X42826227Y38279804D01*
X42802429Y38285765D01*
X42779329Y38294030D01*
X42757151Y38304520D01*
X42736107Y38317133D01*
X42716402Y38331747D01*
X42698223Y38348223D01*
X42681747Y38366402D01*
X42667133Y38386107D01*
X42654520Y38407151D01*
X42644030Y38429329D01*
X42635765Y38452429D01*
X42629804Y38476227D01*
X42626204Y38500496D01*
X42625000Y38525000D01*
X42625000Y39275000D01*
X42626204Y39299504D01*
X42629804Y39323773D01*
X42635765Y39347571D01*
X42644030Y39370671D01*
X42654520Y39392849D01*
X42667133Y39413893D01*
X42681747Y39433598D01*
X42698223Y39451777D01*
X42716402Y39468253D01*
X42736107Y39482867D01*
X42757151Y39495480D01*
X42779329Y39505970D01*
X42802429Y39514235D01*
X42826227Y39520196D01*
X42850496Y39523796D01*
X42875000Y39525000D01*
X44125000Y39525000D01*
X44149504Y39523796D01*
X44149504Y39523796D01*
G37*
D13*
X43500000Y38900000D03*
G04 #@! TD*
D10*
G04 #@! TO.C,R11*
G36*
X18999504Y48873796D02*
X19023773Y48870196D01*
X19047571Y48864235D01*
X19070671Y48855970D01*
X19092849Y48845480D01*
X19113893Y48832867D01*
X19133598Y48818253D01*
X19151777Y48801777D01*
X19168253Y48783598D01*
X19182867Y48763893D01*
X19195480Y48742849D01*
X19205970Y48720671D01*
X19214235Y48697571D01*
X19220196Y48673773D01*
X19223796Y48649504D01*
X19225000Y48625000D01*
X19225000Y47375000D01*
X19223796Y47350496D01*
X19220196Y47326227D01*
X19214235Y47302429D01*
X19205970Y47279329D01*
X19195480Y47257151D01*
X19182867Y47236107D01*
X19168253Y47216402D01*
X19151777Y47198223D01*
X19133598Y47181747D01*
X19113893Y47167133D01*
X19092849Y47154520D01*
X19070671Y47144030D01*
X19047571Y47135765D01*
X19023773Y47129804D01*
X18999504Y47126204D01*
X18975000Y47125000D01*
X18225000Y47125000D01*
X18200496Y47126204D01*
X18176227Y47129804D01*
X18152429Y47135765D01*
X18129329Y47144030D01*
X18107151Y47154520D01*
X18086107Y47167133D01*
X18066402Y47181747D01*
X18048223Y47198223D01*
X18031747Y47216402D01*
X18017133Y47236107D01*
X18004520Y47257151D01*
X17994030Y47279329D01*
X17985765Y47302429D01*
X17979804Y47326227D01*
X17976204Y47350496D01*
X17975000Y47375000D01*
X17975000Y48625000D01*
X17976204Y48649504D01*
X17979804Y48673773D01*
X17985765Y48697571D01*
X17994030Y48720671D01*
X18004520Y48742849D01*
X18017133Y48763893D01*
X18031747Y48783598D01*
X18048223Y48801777D01*
X18066402Y48818253D01*
X18086107Y48832867D01*
X18107151Y48845480D01*
X18129329Y48855970D01*
X18152429Y48864235D01*
X18176227Y48870196D01*
X18200496Y48873796D01*
X18225000Y48875000D01*
X18975000Y48875000D01*
X18999504Y48873796D01*
X18999504Y48873796D01*
G37*
D13*
X18600000Y48000000D03*
D10*
G36*
X21799504Y48873796D02*
X21823773Y48870196D01*
X21847571Y48864235D01*
X21870671Y48855970D01*
X21892849Y48845480D01*
X21913893Y48832867D01*
X21933598Y48818253D01*
X21951777Y48801777D01*
X21968253Y48783598D01*
X21982867Y48763893D01*
X21995480Y48742849D01*
X22005970Y48720671D01*
X22014235Y48697571D01*
X22020196Y48673773D01*
X22023796Y48649504D01*
X22025000Y48625000D01*
X22025000Y47375000D01*
X22023796Y47350496D01*
X22020196Y47326227D01*
X22014235Y47302429D01*
X22005970Y47279329D01*
X21995480Y47257151D01*
X21982867Y47236107D01*
X21968253Y47216402D01*
X21951777Y47198223D01*
X21933598Y47181747D01*
X21913893Y47167133D01*
X21892849Y47154520D01*
X21870671Y47144030D01*
X21847571Y47135765D01*
X21823773Y47129804D01*
X21799504Y47126204D01*
X21775000Y47125000D01*
X21025000Y47125000D01*
X21000496Y47126204D01*
X20976227Y47129804D01*
X20952429Y47135765D01*
X20929329Y47144030D01*
X20907151Y47154520D01*
X20886107Y47167133D01*
X20866402Y47181747D01*
X20848223Y47198223D01*
X20831747Y47216402D01*
X20817133Y47236107D01*
X20804520Y47257151D01*
X20794030Y47279329D01*
X20785765Y47302429D01*
X20779804Y47326227D01*
X20776204Y47350496D01*
X20775000Y47375000D01*
X20775000Y48625000D01*
X20776204Y48649504D01*
X20779804Y48673773D01*
X20785765Y48697571D01*
X20794030Y48720671D01*
X20804520Y48742849D01*
X20817133Y48763893D01*
X20831747Y48783598D01*
X20848223Y48801777D01*
X20866402Y48818253D01*
X20886107Y48832867D01*
X20907151Y48845480D01*
X20929329Y48855970D01*
X20952429Y48864235D01*
X20976227Y48870196D01*
X21000496Y48873796D01*
X21025000Y48875000D01*
X21775000Y48875000D01*
X21799504Y48873796D01*
X21799504Y48873796D01*
G37*
D13*
X21400000Y48000000D03*
G04 #@! TD*
D10*
G04 #@! TO.C,R12*
G36*
X33149504Y38723796D02*
X33173773Y38720196D01*
X33197571Y38714235D01*
X33220671Y38705970D01*
X33242849Y38695480D01*
X33263893Y38682867D01*
X33283598Y38668253D01*
X33301777Y38651777D01*
X33318253Y38633598D01*
X33332867Y38613893D01*
X33345480Y38592849D01*
X33355970Y38570671D01*
X33364235Y38547571D01*
X33370196Y38523773D01*
X33373796Y38499504D01*
X33375000Y38475000D01*
X33375000Y37725000D01*
X33373796Y37700496D01*
X33370196Y37676227D01*
X33364235Y37652429D01*
X33355970Y37629329D01*
X33345480Y37607151D01*
X33332867Y37586107D01*
X33318253Y37566402D01*
X33301777Y37548223D01*
X33283598Y37531747D01*
X33263893Y37517133D01*
X33242849Y37504520D01*
X33220671Y37494030D01*
X33197571Y37485765D01*
X33173773Y37479804D01*
X33149504Y37476204D01*
X33125000Y37475000D01*
X31875000Y37475000D01*
X31850496Y37476204D01*
X31826227Y37479804D01*
X31802429Y37485765D01*
X31779329Y37494030D01*
X31757151Y37504520D01*
X31736107Y37517133D01*
X31716402Y37531747D01*
X31698223Y37548223D01*
X31681747Y37566402D01*
X31667133Y37586107D01*
X31654520Y37607151D01*
X31644030Y37629329D01*
X31635765Y37652429D01*
X31629804Y37676227D01*
X31626204Y37700496D01*
X31625000Y37725000D01*
X31625000Y38475000D01*
X31626204Y38499504D01*
X31629804Y38523773D01*
X31635765Y38547571D01*
X31644030Y38570671D01*
X31654520Y38592849D01*
X31667133Y38613893D01*
X31681747Y38633598D01*
X31698223Y38651777D01*
X31716402Y38668253D01*
X31736107Y38682867D01*
X31757151Y38695480D01*
X31779329Y38705970D01*
X31802429Y38714235D01*
X31826227Y38720196D01*
X31850496Y38723796D01*
X31875000Y38725000D01*
X33125000Y38725000D01*
X33149504Y38723796D01*
X33149504Y38723796D01*
G37*
D13*
X32500000Y38100000D03*
D10*
G36*
X33149504Y41523796D02*
X33173773Y41520196D01*
X33197571Y41514235D01*
X33220671Y41505970D01*
X33242849Y41495480D01*
X33263893Y41482867D01*
X33283598Y41468253D01*
X33301777Y41451777D01*
X33318253Y41433598D01*
X33332867Y41413893D01*
X33345480Y41392849D01*
X33355970Y41370671D01*
X33364235Y41347571D01*
X33370196Y41323773D01*
X33373796Y41299504D01*
X33375000Y41275000D01*
X33375000Y40525000D01*
X33373796Y40500496D01*
X33370196Y40476227D01*
X33364235Y40452429D01*
X33355970Y40429329D01*
X33345480Y40407151D01*
X33332867Y40386107D01*
X33318253Y40366402D01*
X33301777Y40348223D01*
X33283598Y40331747D01*
X33263893Y40317133D01*
X33242849Y40304520D01*
X33220671Y40294030D01*
X33197571Y40285765D01*
X33173773Y40279804D01*
X33149504Y40276204D01*
X33125000Y40275000D01*
X31875000Y40275000D01*
X31850496Y40276204D01*
X31826227Y40279804D01*
X31802429Y40285765D01*
X31779329Y40294030D01*
X31757151Y40304520D01*
X31736107Y40317133D01*
X31716402Y40331747D01*
X31698223Y40348223D01*
X31681747Y40366402D01*
X31667133Y40386107D01*
X31654520Y40407151D01*
X31644030Y40429329D01*
X31635765Y40452429D01*
X31629804Y40476227D01*
X31626204Y40500496D01*
X31625000Y40525000D01*
X31625000Y41275000D01*
X31626204Y41299504D01*
X31629804Y41323773D01*
X31635765Y41347571D01*
X31644030Y41370671D01*
X31654520Y41392849D01*
X31667133Y41413893D01*
X31681747Y41433598D01*
X31698223Y41451777D01*
X31716402Y41468253D01*
X31736107Y41482867D01*
X31757151Y41495480D01*
X31779329Y41505970D01*
X31802429Y41514235D01*
X31826227Y41520196D01*
X31850496Y41523796D01*
X31875000Y41525000D01*
X33125000Y41525000D01*
X33149504Y41523796D01*
X33149504Y41523796D01*
G37*
D13*
X32500000Y40900000D03*
G04 #@! TD*
D10*
G04 #@! TO.C,R13*
G36*
X38149504Y38723796D02*
X38173773Y38720196D01*
X38197571Y38714235D01*
X38220671Y38705970D01*
X38242849Y38695480D01*
X38263893Y38682867D01*
X38283598Y38668253D01*
X38301777Y38651777D01*
X38318253Y38633598D01*
X38332867Y38613893D01*
X38345480Y38592849D01*
X38355970Y38570671D01*
X38364235Y38547571D01*
X38370196Y38523773D01*
X38373796Y38499504D01*
X38375000Y38475000D01*
X38375000Y37725000D01*
X38373796Y37700496D01*
X38370196Y37676227D01*
X38364235Y37652429D01*
X38355970Y37629329D01*
X38345480Y37607151D01*
X38332867Y37586107D01*
X38318253Y37566402D01*
X38301777Y37548223D01*
X38283598Y37531747D01*
X38263893Y37517133D01*
X38242849Y37504520D01*
X38220671Y37494030D01*
X38197571Y37485765D01*
X38173773Y37479804D01*
X38149504Y37476204D01*
X38125000Y37475000D01*
X36875000Y37475000D01*
X36850496Y37476204D01*
X36826227Y37479804D01*
X36802429Y37485765D01*
X36779329Y37494030D01*
X36757151Y37504520D01*
X36736107Y37517133D01*
X36716402Y37531747D01*
X36698223Y37548223D01*
X36681747Y37566402D01*
X36667133Y37586107D01*
X36654520Y37607151D01*
X36644030Y37629329D01*
X36635765Y37652429D01*
X36629804Y37676227D01*
X36626204Y37700496D01*
X36625000Y37725000D01*
X36625000Y38475000D01*
X36626204Y38499504D01*
X36629804Y38523773D01*
X36635765Y38547571D01*
X36644030Y38570671D01*
X36654520Y38592849D01*
X36667133Y38613893D01*
X36681747Y38633598D01*
X36698223Y38651777D01*
X36716402Y38668253D01*
X36736107Y38682867D01*
X36757151Y38695480D01*
X36779329Y38705970D01*
X36802429Y38714235D01*
X36826227Y38720196D01*
X36850496Y38723796D01*
X36875000Y38725000D01*
X38125000Y38725000D01*
X38149504Y38723796D01*
X38149504Y38723796D01*
G37*
D13*
X37500000Y38100000D03*
D10*
G36*
X38149504Y41523796D02*
X38173773Y41520196D01*
X38197571Y41514235D01*
X38220671Y41505970D01*
X38242849Y41495480D01*
X38263893Y41482867D01*
X38283598Y41468253D01*
X38301777Y41451777D01*
X38318253Y41433598D01*
X38332867Y41413893D01*
X38345480Y41392849D01*
X38355970Y41370671D01*
X38364235Y41347571D01*
X38370196Y41323773D01*
X38373796Y41299504D01*
X38375000Y41275000D01*
X38375000Y40525000D01*
X38373796Y40500496D01*
X38370196Y40476227D01*
X38364235Y40452429D01*
X38355970Y40429329D01*
X38345480Y40407151D01*
X38332867Y40386107D01*
X38318253Y40366402D01*
X38301777Y40348223D01*
X38283598Y40331747D01*
X38263893Y40317133D01*
X38242849Y40304520D01*
X38220671Y40294030D01*
X38197571Y40285765D01*
X38173773Y40279804D01*
X38149504Y40276204D01*
X38125000Y40275000D01*
X36875000Y40275000D01*
X36850496Y40276204D01*
X36826227Y40279804D01*
X36802429Y40285765D01*
X36779329Y40294030D01*
X36757151Y40304520D01*
X36736107Y40317133D01*
X36716402Y40331747D01*
X36698223Y40348223D01*
X36681747Y40366402D01*
X36667133Y40386107D01*
X36654520Y40407151D01*
X36644030Y40429329D01*
X36635765Y40452429D01*
X36629804Y40476227D01*
X36626204Y40500496D01*
X36625000Y40525000D01*
X36625000Y41275000D01*
X36626204Y41299504D01*
X36629804Y41323773D01*
X36635765Y41347571D01*
X36644030Y41370671D01*
X36654520Y41392849D01*
X36667133Y41413893D01*
X36681747Y41433598D01*
X36698223Y41451777D01*
X36716402Y41468253D01*
X36736107Y41482867D01*
X36757151Y41495480D01*
X36779329Y41505970D01*
X36802429Y41514235D01*
X36826227Y41520196D01*
X36850496Y41523796D01*
X36875000Y41525000D01*
X38125000Y41525000D01*
X38149504Y41523796D01*
X38149504Y41523796D01*
G37*
D13*
X37500000Y40900000D03*
G04 #@! TD*
D10*
G04 #@! TO.C,R14*
G36*
X48999504Y48873796D02*
X49023773Y48870196D01*
X49047571Y48864235D01*
X49070671Y48855970D01*
X49092849Y48845480D01*
X49113893Y48832867D01*
X49133598Y48818253D01*
X49151777Y48801777D01*
X49168253Y48783598D01*
X49182867Y48763893D01*
X49195480Y48742849D01*
X49205970Y48720671D01*
X49214235Y48697571D01*
X49220196Y48673773D01*
X49223796Y48649504D01*
X49225000Y48625000D01*
X49225000Y47375000D01*
X49223796Y47350496D01*
X49220196Y47326227D01*
X49214235Y47302429D01*
X49205970Y47279329D01*
X49195480Y47257151D01*
X49182867Y47236107D01*
X49168253Y47216402D01*
X49151777Y47198223D01*
X49133598Y47181747D01*
X49113893Y47167133D01*
X49092849Y47154520D01*
X49070671Y47144030D01*
X49047571Y47135765D01*
X49023773Y47129804D01*
X48999504Y47126204D01*
X48975000Y47125000D01*
X48225000Y47125000D01*
X48200496Y47126204D01*
X48176227Y47129804D01*
X48152429Y47135765D01*
X48129329Y47144030D01*
X48107151Y47154520D01*
X48086107Y47167133D01*
X48066402Y47181747D01*
X48048223Y47198223D01*
X48031747Y47216402D01*
X48017133Y47236107D01*
X48004520Y47257151D01*
X47994030Y47279329D01*
X47985765Y47302429D01*
X47979804Y47326227D01*
X47976204Y47350496D01*
X47975000Y47375000D01*
X47975000Y48625000D01*
X47976204Y48649504D01*
X47979804Y48673773D01*
X47985765Y48697571D01*
X47994030Y48720671D01*
X48004520Y48742849D01*
X48017133Y48763893D01*
X48031747Y48783598D01*
X48048223Y48801777D01*
X48066402Y48818253D01*
X48086107Y48832867D01*
X48107151Y48845480D01*
X48129329Y48855970D01*
X48152429Y48864235D01*
X48176227Y48870196D01*
X48200496Y48873796D01*
X48225000Y48875000D01*
X48975000Y48875000D01*
X48999504Y48873796D01*
X48999504Y48873796D01*
G37*
D13*
X48600000Y48000000D03*
D10*
G36*
X51799504Y48873796D02*
X51823773Y48870196D01*
X51847571Y48864235D01*
X51870671Y48855970D01*
X51892849Y48845480D01*
X51913893Y48832867D01*
X51933598Y48818253D01*
X51951777Y48801777D01*
X51968253Y48783598D01*
X51982867Y48763893D01*
X51995480Y48742849D01*
X52005970Y48720671D01*
X52014235Y48697571D01*
X52020196Y48673773D01*
X52023796Y48649504D01*
X52025000Y48625000D01*
X52025000Y47375000D01*
X52023796Y47350496D01*
X52020196Y47326227D01*
X52014235Y47302429D01*
X52005970Y47279329D01*
X51995480Y47257151D01*
X51982867Y47236107D01*
X51968253Y47216402D01*
X51951777Y47198223D01*
X51933598Y47181747D01*
X51913893Y47167133D01*
X51892849Y47154520D01*
X51870671Y47144030D01*
X51847571Y47135765D01*
X51823773Y47129804D01*
X51799504Y47126204D01*
X51775000Y47125000D01*
X51025000Y47125000D01*
X51000496Y47126204D01*
X50976227Y47129804D01*
X50952429Y47135765D01*
X50929329Y47144030D01*
X50907151Y47154520D01*
X50886107Y47167133D01*
X50866402Y47181747D01*
X50848223Y47198223D01*
X50831747Y47216402D01*
X50817133Y47236107D01*
X50804520Y47257151D01*
X50794030Y47279329D01*
X50785765Y47302429D01*
X50779804Y47326227D01*
X50776204Y47350496D01*
X50775000Y47375000D01*
X50775000Y48625000D01*
X50776204Y48649504D01*
X50779804Y48673773D01*
X50785765Y48697571D01*
X50794030Y48720671D01*
X50804520Y48742849D01*
X50817133Y48763893D01*
X50831747Y48783598D01*
X50848223Y48801777D01*
X50866402Y48818253D01*
X50886107Y48832867D01*
X50907151Y48845480D01*
X50929329Y48855970D01*
X50952429Y48864235D01*
X50976227Y48870196D01*
X51000496Y48873796D01*
X51025000Y48875000D01*
X51775000Y48875000D01*
X51799504Y48873796D01*
X51799504Y48873796D01*
G37*
D13*
X51400000Y48000000D03*
G04 #@! TD*
D10*
G04 #@! TO.C,R15*
G36*
X45799504Y8873796D02*
X45823773Y8870196D01*
X45847571Y8864235D01*
X45870671Y8855970D01*
X45892849Y8845480D01*
X45913893Y8832867D01*
X45933598Y8818253D01*
X45951777Y8801777D01*
X45968253Y8783598D01*
X45982867Y8763893D01*
X45995480Y8742849D01*
X46005970Y8720671D01*
X46014235Y8697571D01*
X46020196Y8673773D01*
X46023796Y8649504D01*
X46025000Y8625000D01*
X46025000Y7375000D01*
X46023796Y7350496D01*
X46020196Y7326227D01*
X46014235Y7302429D01*
X46005970Y7279329D01*
X45995480Y7257151D01*
X45982867Y7236107D01*
X45968253Y7216402D01*
X45951777Y7198223D01*
X45933598Y7181747D01*
X45913893Y7167133D01*
X45892849Y7154520D01*
X45870671Y7144030D01*
X45847571Y7135765D01*
X45823773Y7129804D01*
X45799504Y7126204D01*
X45775000Y7125000D01*
X45025000Y7125000D01*
X45000496Y7126204D01*
X44976227Y7129804D01*
X44952429Y7135765D01*
X44929329Y7144030D01*
X44907151Y7154520D01*
X44886107Y7167133D01*
X44866402Y7181747D01*
X44848223Y7198223D01*
X44831747Y7216402D01*
X44817133Y7236107D01*
X44804520Y7257151D01*
X44794030Y7279329D01*
X44785765Y7302429D01*
X44779804Y7326227D01*
X44776204Y7350496D01*
X44775000Y7375000D01*
X44775000Y8625000D01*
X44776204Y8649504D01*
X44779804Y8673773D01*
X44785765Y8697571D01*
X44794030Y8720671D01*
X44804520Y8742849D01*
X44817133Y8763893D01*
X44831747Y8783598D01*
X44848223Y8801777D01*
X44866402Y8818253D01*
X44886107Y8832867D01*
X44907151Y8845480D01*
X44929329Y8855970D01*
X44952429Y8864235D01*
X44976227Y8870196D01*
X45000496Y8873796D01*
X45025000Y8875000D01*
X45775000Y8875000D01*
X45799504Y8873796D01*
X45799504Y8873796D01*
G37*
D13*
X45400000Y8000000D03*
D10*
G36*
X42999504Y8873796D02*
X43023773Y8870196D01*
X43047571Y8864235D01*
X43070671Y8855970D01*
X43092849Y8845480D01*
X43113893Y8832867D01*
X43133598Y8818253D01*
X43151777Y8801777D01*
X43168253Y8783598D01*
X43182867Y8763893D01*
X43195480Y8742849D01*
X43205970Y8720671D01*
X43214235Y8697571D01*
X43220196Y8673773D01*
X43223796Y8649504D01*
X43225000Y8625000D01*
X43225000Y7375000D01*
X43223796Y7350496D01*
X43220196Y7326227D01*
X43214235Y7302429D01*
X43205970Y7279329D01*
X43195480Y7257151D01*
X43182867Y7236107D01*
X43168253Y7216402D01*
X43151777Y7198223D01*
X43133598Y7181747D01*
X43113893Y7167133D01*
X43092849Y7154520D01*
X43070671Y7144030D01*
X43047571Y7135765D01*
X43023773Y7129804D01*
X42999504Y7126204D01*
X42975000Y7125000D01*
X42225000Y7125000D01*
X42200496Y7126204D01*
X42176227Y7129804D01*
X42152429Y7135765D01*
X42129329Y7144030D01*
X42107151Y7154520D01*
X42086107Y7167133D01*
X42066402Y7181747D01*
X42048223Y7198223D01*
X42031747Y7216402D01*
X42017133Y7236107D01*
X42004520Y7257151D01*
X41994030Y7279329D01*
X41985765Y7302429D01*
X41979804Y7326227D01*
X41976204Y7350496D01*
X41975000Y7375000D01*
X41975000Y8625000D01*
X41976204Y8649504D01*
X41979804Y8673773D01*
X41985765Y8697571D01*
X41994030Y8720671D01*
X42004520Y8742849D01*
X42017133Y8763893D01*
X42031747Y8783598D01*
X42048223Y8801777D01*
X42066402Y8818253D01*
X42086107Y8832867D01*
X42107151Y8845480D01*
X42129329Y8855970D01*
X42152429Y8864235D01*
X42176227Y8870196D01*
X42200496Y8873796D01*
X42225000Y8875000D01*
X42975000Y8875000D01*
X42999504Y8873796D01*
X42999504Y8873796D01*
G37*
D13*
X42600000Y8000000D03*
G04 #@! TD*
D10*
G04 #@! TO.C,R17*
G36*
X20649504Y34723796D02*
X20673773Y34720196D01*
X20697571Y34714235D01*
X20720671Y34705970D01*
X20742849Y34695480D01*
X20763893Y34682867D01*
X20783598Y34668253D01*
X20801777Y34651777D01*
X20818253Y34633598D01*
X20832867Y34613893D01*
X20845480Y34592849D01*
X20855970Y34570671D01*
X20864235Y34547571D01*
X20870196Y34523773D01*
X20873796Y34499504D01*
X20875000Y34475000D01*
X20875000Y33725000D01*
X20873796Y33700496D01*
X20870196Y33676227D01*
X20864235Y33652429D01*
X20855970Y33629329D01*
X20845480Y33607151D01*
X20832867Y33586107D01*
X20818253Y33566402D01*
X20801777Y33548223D01*
X20783598Y33531747D01*
X20763893Y33517133D01*
X20742849Y33504520D01*
X20720671Y33494030D01*
X20697571Y33485765D01*
X20673773Y33479804D01*
X20649504Y33476204D01*
X20625000Y33475000D01*
X19375000Y33475000D01*
X19350496Y33476204D01*
X19326227Y33479804D01*
X19302429Y33485765D01*
X19279329Y33494030D01*
X19257151Y33504520D01*
X19236107Y33517133D01*
X19216402Y33531747D01*
X19198223Y33548223D01*
X19181747Y33566402D01*
X19167133Y33586107D01*
X19154520Y33607151D01*
X19144030Y33629329D01*
X19135765Y33652429D01*
X19129804Y33676227D01*
X19126204Y33700496D01*
X19125000Y33725000D01*
X19125000Y34475000D01*
X19126204Y34499504D01*
X19129804Y34523773D01*
X19135765Y34547571D01*
X19144030Y34570671D01*
X19154520Y34592849D01*
X19167133Y34613893D01*
X19181747Y34633598D01*
X19198223Y34651777D01*
X19216402Y34668253D01*
X19236107Y34682867D01*
X19257151Y34695480D01*
X19279329Y34705970D01*
X19302429Y34714235D01*
X19326227Y34720196D01*
X19350496Y34723796D01*
X19375000Y34725000D01*
X20625000Y34725000D01*
X20649504Y34723796D01*
X20649504Y34723796D01*
G37*
D13*
X20000000Y34100000D03*
D10*
G36*
X20649504Y37523796D02*
X20673773Y37520196D01*
X20697571Y37514235D01*
X20720671Y37505970D01*
X20742849Y37495480D01*
X20763893Y37482867D01*
X20783598Y37468253D01*
X20801777Y37451777D01*
X20818253Y37433598D01*
X20832867Y37413893D01*
X20845480Y37392849D01*
X20855970Y37370671D01*
X20864235Y37347571D01*
X20870196Y37323773D01*
X20873796Y37299504D01*
X20875000Y37275000D01*
X20875000Y36525000D01*
X20873796Y36500496D01*
X20870196Y36476227D01*
X20864235Y36452429D01*
X20855970Y36429329D01*
X20845480Y36407151D01*
X20832867Y36386107D01*
X20818253Y36366402D01*
X20801777Y36348223D01*
X20783598Y36331747D01*
X20763893Y36317133D01*
X20742849Y36304520D01*
X20720671Y36294030D01*
X20697571Y36285765D01*
X20673773Y36279804D01*
X20649504Y36276204D01*
X20625000Y36275000D01*
X19375000Y36275000D01*
X19350496Y36276204D01*
X19326227Y36279804D01*
X19302429Y36285765D01*
X19279329Y36294030D01*
X19257151Y36304520D01*
X19236107Y36317133D01*
X19216402Y36331747D01*
X19198223Y36348223D01*
X19181747Y36366402D01*
X19167133Y36386107D01*
X19154520Y36407151D01*
X19144030Y36429329D01*
X19135765Y36452429D01*
X19129804Y36476227D01*
X19126204Y36500496D01*
X19125000Y36525000D01*
X19125000Y37275000D01*
X19126204Y37299504D01*
X19129804Y37323773D01*
X19135765Y37347571D01*
X19144030Y37370671D01*
X19154520Y37392849D01*
X19167133Y37413893D01*
X19181747Y37433598D01*
X19198223Y37451777D01*
X19216402Y37468253D01*
X19236107Y37482867D01*
X19257151Y37495480D01*
X19279329Y37505970D01*
X19302429Y37514235D01*
X19326227Y37520196D01*
X19350496Y37523796D01*
X19375000Y37525000D01*
X20625000Y37525000D01*
X20649504Y37523796D01*
X20649504Y37523796D01*
G37*
D13*
X20000000Y36900000D03*
G04 #@! TD*
D10*
G04 #@! TO.C,R18*
G36*
X39299504Y35373796D02*
X39323773Y35370196D01*
X39347571Y35364235D01*
X39370671Y35355970D01*
X39392849Y35345480D01*
X39413893Y35332867D01*
X39433598Y35318253D01*
X39451777Y35301777D01*
X39468253Y35283598D01*
X39482867Y35263893D01*
X39495480Y35242849D01*
X39505970Y35220671D01*
X39514235Y35197571D01*
X39520196Y35173773D01*
X39523796Y35149504D01*
X39525000Y35125000D01*
X39525000Y33875000D01*
X39523796Y33850496D01*
X39520196Y33826227D01*
X39514235Y33802429D01*
X39505970Y33779329D01*
X39495480Y33757151D01*
X39482867Y33736107D01*
X39468253Y33716402D01*
X39451777Y33698223D01*
X39433598Y33681747D01*
X39413893Y33667133D01*
X39392849Y33654520D01*
X39370671Y33644030D01*
X39347571Y33635765D01*
X39323773Y33629804D01*
X39299504Y33626204D01*
X39275000Y33625000D01*
X38525000Y33625000D01*
X38500496Y33626204D01*
X38476227Y33629804D01*
X38452429Y33635765D01*
X38429329Y33644030D01*
X38407151Y33654520D01*
X38386107Y33667133D01*
X38366402Y33681747D01*
X38348223Y33698223D01*
X38331747Y33716402D01*
X38317133Y33736107D01*
X38304520Y33757151D01*
X38294030Y33779329D01*
X38285765Y33802429D01*
X38279804Y33826227D01*
X38276204Y33850496D01*
X38275000Y33875000D01*
X38275000Y35125000D01*
X38276204Y35149504D01*
X38279804Y35173773D01*
X38285765Y35197571D01*
X38294030Y35220671D01*
X38304520Y35242849D01*
X38317133Y35263893D01*
X38331747Y35283598D01*
X38348223Y35301777D01*
X38366402Y35318253D01*
X38386107Y35332867D01*
X38407151Y35345480D01*
X38429329Y35355970D01*
X38452429Y35364235D01*
X38476227Y35370196D01*
X38500496Y35373796D01*
X38525000Y35375000D01*
X39275000Y35375000D01*
X39299504Y35373796D01*
X39299504Y35373796D01*
G37*
D13*
X38900000Y34500000D03*
D10*
G36*
X36499504Y35373796D02*
X36523773Y35370196D01*
X36547571Y35364235D01*
X36570671Y35355970D01*
X36592849Y35345480D01*
X36613893Y35332867D01*
X36633598Y35318253D01*
X36651777Y35301777D01*
X36668253Y35283598D01*
X36682867Y35263893D01*
X36695480Y35242849D01*
X36705970Y35220671D01*
X36714235Y35197571D01*
X36720196Y35173773D01*
X36723796Y35149504D01*
X36725000Y35125000D01*
X36725000Y33875000D01*
X36723796Y33850496D01*
X36720196Y33826227D01*
X36714235Y33802429D01*
X36705970Y33779329D01*
X36695480Y33757151D01*
X36682867Y33736107D01*
X36668253Y33716402D01*
X36651777Y33698223D01*
X36633598Y33681747D01*
X36613893Y33667133D01*
X36592849Y33654520D01*
X36570671Y33644030D01*
X36547571Y33635765D01*
X36523773Y33629804D01*
X36499504Y33626204D01*
X36475000Y33625000D01*
X35725000Y33625000D01*
X35700496Y33626204D01*
X35676227Y33629804D01*
X35652429Y33635765D01*
X35629329Y33644030D01*
X35607151Y33654520D01*
X35586107Y33667133D01*
X35566402Y33681747D01*
X35548223Y33698223D01*
X35531747Y33716402D01*
X35517133Y33736107D01*
X35504520Y33757151D01*
X35494030Y33779329D01*
X35485765Y33802429D01*
X35479804Y33826227D01*
X35476204Y33850496D01*
X35475000Y33875000D01*
X35475000Y35125000D01*
X35476204Y35149504D01*
X35479804Y35173773D01*
X35485765Y35197571D01*
X35494030Y35220671D01*
X35504520Y35242849D01*
X35517133Y35263893D01*
X35531747Y35283598D01*
X35548223Y35301777D01*
X35566402Y35318253D01*
X35586107Y35332867D01*
X35607151Y35345480D01*
X35629329Y35355970D01*
X35652429Y35364235D01*
X35676227Y35370196D01*
X35700496Y35373796D01*
X35725000Y35375000D01*
X36475000Y35375000D01*
X36499504Y35373796D01*
X36499504Y35373796D01*
G37*
D13*
X36100000Y34500000D03*
G04 #@! TD*
D10*
G04 #@! TO.C,R19*
G36*
X50649504Y34723796D02*
X50673773Y34720196D01*
X50697571Y34714235D01*
X50720671Y34705970D01*
X50742849Y34695480D01*
X50763893Y34682867D01*
X50783598Y34668253D01*
X50801777Y34651777D01*
X50818253Y34633598D01*
X50832867Y34613893D01*
X50845480Y34592849D01*
X50855970Y34570671D01*
X50864235Y34547571D01*
X50870196Y34523773D01*
X50873796Y34499504D01*
X50875000Y34475000D01*
X50875000Y33725000D01*
X50873796Y33700496D01*
X50870196Y33676227D01*
X50864235Y33652429D01*
X50855970Y33629329D01*
X50845480Y33607151D01*
X50832867Y33586107D01*
X50818253Y33566402D01*
X50801777Y33548223D01*
X50783598Y33531747D01*
X50763893Y33517133D01*
X50742849Y33504520D01*
X50720671Y33494030D01*
X50697571Y33485765D01*
X50673773Y33479804D01*
X50649504Y33476204D01*
X50625000Y33475000D01*
X49375000Y33475000D01*
X49350496Y33476204D01*
X49326227Y33479804D01*
X49302429Y33485765D01*
X49279329Y33494030D01*
X49257151Y33504520D01*
X49236107Y33517133D01*
X49216402Y33531747D01*
X49198223Y33548223D01*
X49181747Y33566402D01*
X49167133Y33586107D01*
X49154520Y33607151D01*
X49144030Y33629329D01*
X49135765Y33652429D01*
X49129804Y33676227D01*
X49126204Y33700496D01*
X49125000Y33725000D01*
X49125000Y34475000D01*
X49126204Y34499504D01*
X49129804Y34523773D01*
X49135765Y34547571D01*
X49144030Y34570671D01*
X49154520Y34592849D01*
X49167133Y34613893D01*
X49181747Y34633598D01*
X49198223Y34651777D01*
X49216402Y34668253D01*
X49236107Y34682867D01*
X49257151Y34695480D01*
X49279329Y34705970D01*
X49302429Y34714235D01*
X49326227Y34720196D01*
X49350496Y34723796D01*
X49375000Y34725000D01*
X50625000Y34725000D01*
X50649504Y34723796D01*
X50649504Y34723796D01*
G37*
D13*
X50000000Y34100000D03*
D10*
G36*
X50649504Y37523796D02*
X50673773Y37520196D01*
X50697571Y37514235D01*
X50720671Y37505970D01*
X50742849Y37495480D01*
X50763893Y37482867D01*
X50783598Y37468253D01*
X50801777Y37451777D01*
X50818253Y37433598D01*
X50832867Y37413893D01*
X50845480Y37392849D01*
X50855970Y37370671D01*
X50864235Y37347571D01*
X50870196Y37323773D01*
X50873796Y37299504D01*
X50875000Y37275000D01*
X50875000Y36525000D01*
X50873796Y36500496D01*
X50870196Y36476227D01*
X50864235Y36452429D01*
X50855970Y36429329D01*
X50845480Y36407151D01*
X50832867Y36386107D01*
X50818253Y36366402D01*
X50801777Y36348223D01*
X50783598Y36331747D01*
X50763893Y36317133D01*
X50742849Y36304520D01*
X50720671Y36294030D01*
X50697571Y36285765D01*
X50673773Y36279804D01*
X50649504Y36276204D01*
X50625000Y36275000D01*
X49375000Y36275000D01*
X49350496Y36276204D01*
X49326227Y36279804D01*
X49302429Y36285765D01*
X49279329Y36294030D01*
X49257151Y36304520D01*
X49236107Y36317133D01*
X49216402Y36331747D01*
X49198223Y36348223D01*
X49181747Y36366402D01*
X49167133Y36386107D01*
X49154520Y36407151D01*
X49144030Y36429329D01*
X49135765Y36452429D01*
X49129804Y36476227D01*
X49126204Y36500496D01*
X49125000Y36525000D01*
X49125000Y37275000D01*
X49126204Y37299504D01*
X49129804Y37323773D01*
X49135765Y37347571D01*
X49144030Y37370671D01*
X49154520Y37392849D01*
X49167133Y37413893D01*
X49181747Y37433598D01*
X49198223Y37451777D01*
X49216402Y37468253D01*
X49236107Y37482867D01*
X49257151Y37495480D01*
X49279329Y37505970D01*
X49302429Y37514235D01*
X49326227Y37520196D01*
X49350496Y37523796D01*
X49375000Y37525000D01*
X50625000Y37525000D01*
X50649504Y37523796D01*
X50649504Y37523796D01*
G37*
D13*
X50000000Y36900000D03*
G04 #@! TD*
D10*
G04 #@! TO.C,R20*
G36*
X45799504Y11873796D02*
X45823773Y11870196D01*
X45847571Y11864235D01*
X45870671Y11855970D01*
X45892849Y11845480D01*
X45913893Y11832867D01*
X45933598Y11818253D01*
X45951777Y11801777D01*
X45968253Y11783598D01*
X45982867Y11763893D01*
X45995480Y11742849D01*
X46005970Y11720671D01*
X46014235Y11697571D01*
X46020196Y11673773D01*
X46023796Y11649504D01*
X46025000Y11625000D01*
X46025000Y10375000D01*
X46023796Y10350496D01*
X46020196Y10326227D01*
X46014235Y10302429D01*
X46005970Y10279329D01*
X45995480Y10257151D01*
X45982867Y10236107D01*
X45968253Y10216402D01*
X45951777Y10198223D01*
X45933598Y10181747D01*
X45913893Y10167133D01*
X45892849Y10154520D01*
X45870671Y10144030D01*
X45847571Y10135765D01*
X45823773Y10129804D01*
X45799504Y10126204D01*
X45775000Y10125000D01*
X45025000Y10125000D01*
X45000496Y10126204D01*
X44976227Y10129804D01*
X44952429Y10135765D01*
X44929329Y10144030D01*
X44907151Y10154520D01*
X44886107Y10167133D01*
X44866402Y10181747D01*
X44848223Y10198223D01*
X44831747Y10216402D01*
X44817133Y10236107D01*
X44804520Y10257151D01*
X44794030Y10279329D01*
X44785765Y10302429D01*
X44779804Y10326227D01*
X44776204Y10350496D01*
X44775000Y10375000D01*
X44775000Y11625000D01*
X44776204Y11649504D01*
X44779804Y11673773D01*
X44785765Y11697571D01*
X44794030Y11720671D01*
X44804520Y11742849D01*
X44817133Y11763893D01*
X44831747Y11783598D01*
X44848223Y11801777D01*
X44866402Y11818253D01*
X44886107Y11832867D01*
X44907151Y11845480D01*
X44929329Y11855970D01*
X44952429Y11864235D01*
X44976227Y11870196D01*
X45000496Y11873796D01*
X45025000Y11875000D01*
X45775000Y11875000D01*
X45799504Y11873796D01*
X45799504Y11873796D01*
G37*
D13*
X45400000Y11000000D03*
D10*
G36*
X42999504Y11873796D02*
X43023773Y11870196D01*
X43047571Y11864235D01*
X43070671Y11855970D01*
X43092849Y11845480D01*
X43113893Y11832867D01*
X43133598Y11818253D01*
X43151777Y11801777D01*
X43168253Y11783598D01*
X43182867Y11763893D01*
X43195480Y11742849D01*
X43205970Y11720671D01*
X43214235Y11697571D01*
X43220196Y11673773D01*
X43223796Y11649504D01*
X43225000Y11625000D01*
X43225000Y10375000D01*
X43223796Y10350496D01*
X43220196Y10326227D01*
X43214235Y10302429D01*
X43205970Y10279329D01*
X43195480Y10257151D01*
X43182867Y10236107D01*
X43168253Y10216402D01*
X43151777Y10198223D01*
X43133598Y10181747D01*
X43113893Y10167133D01*
X43092849Y10154520D01*
X43070671Y10144030D01*
X43047571Y10135765D01*
X43023773Y10129804D01*
X42999504Y10126204D01*
X42975000Y10125000D01*
X42225000Y10125000D01*
X42200496Y10126204D01*
X42176227Y10129804D01*
X42152429Y10135765D01*
X42129329Y10144030D01*
X42107151Y10154520D01*
X42086107Y10167133D01*
X42066402Y10181747D01*
X42048223Y10198223D01*
X42031747Y10216402D01*
X42017133Y10236107D01*
X42004520Y10257151D01*
X41994030Y10279329D01*
X41985765Y10302429D01*
X41979804Y10326227D01*
X41976204Y10350496D01*
X41975000Y10375000D01*
X41975000Y11625000D01*
X41976204Y11649504D01*
X41979804Y11673773D01*
X41985765Y11697571D01*
X41994030Y11720671D01*
X42004520Y11742849D01*
X42017133Y11763893D01*
X42031747Y11783598D01*
X42048223Y11801777D01*
X42066402Y11818253D01*
X42086107Y11832867D01*
X42107151Y11845480D01*
X42129329Y11855970D01*
X42152429Y11864235D01*
X42176227Y11870196D01*
X42200496Y11873796D01*
X42225000Y11875000D01*
X42975000Y11875000D01*
X42999504Y11873796D01*
X42999504Y11873796D01*
G37*
D13*
X42600000Y11000000D03*
G04 #@! TD*
M02*
