G04 #@! TF.GenerationSoftware,KiCad,Pcbnew,(5.0.1)-3*
G04 #@! TF.CreationDate,2019-12-23T10:27:59+01:00*
G04 #@! TF.ProjectId,TDA2050 64W,54444132303530203634572E6B696361,rev?*
G04 #@! TF.SameCoordinates,PX68e7780PY7365040*
G04 #@! TF.FileFunction,Legend,Top*
G04 #@! TF.FilePolarity,Positive*
%FSLAX46Y46*%
G04 Gerber Fmt 4.6, Leading zero omitted, Abs format (unit mm)*
G04 Created by KiCad (PCBNEW (5.0.1)-3) date 23/12/2019 10:27:59*
%MOMM*%
%LPD*%
G01*
G04 APERTURE LIST*
%ADD10C,0.300000*%
%ADD11C,0.200000*%
%ADD12C,0.120000*%
%ADD13C,0.150000*%
G04 APERTURE END LIST*
D10*
X59107142Y39321429D02*
X59107142Y37821429D01*
X59107142Y39250000D02*
X59250000Y39321429D01*
X59535714Y39321429D01*
X59678571Y39250000D01*
X59750000Y39178572D01*
X59821428Y39035715D01*
X59821428Y38607143D01*
X59750000Y38464286D01*
X59678571Y38392858D01*
X59535714Y38321429D01*
X59250000Y38321429D01*
X59107142Y38392858D01*
X60678571Y38321429D02*
X60535714Y38392858D01*
X60464285Y38464286D01*
X60392857Y38607143D01*
X60392857Y39035715D01*
X60464285Y39178572D01*
X60535714Y39250000D01*
X60678571Y39321429D01*
X60892857Y39321429D01*
X61035714Y39250000D01*
X61107142Y39178572D01*
X61178571Y39035715D01*
X61178571Y38607143D01*
X61107142Y38464286D01*
X61035714Y38392858D01*
X60892857Y38321429D01*
X60678571Y38321429D01*
X61678571Y39321429D02*
X61964285Y38321429D01*
X62250000Y39035715D01*
X62535714Y38321429D01*
X62821428Y39321429D01*
X63964285Y38392858D02*
X63821428Y38321429D01*
X63535714Y38321429D01*
X63392857Y38392858D01*
X63321428Y38535715D01*
X63321428Y39107143D01*
X63392857Y39250000D01*
X63535714Y39321429D01*
X63821428Y39321429D01*
X63964285Y39250000D01*
X64035714Y39107143D01*
X64035714Y38964286D01*
X63321428Y38821429D01*
X64678571Y38321429D02*
X64678571Y39321429D01*
X64678571Y39035715D02*
X64750000Y39178572D01*
X64821428Y39250000D01*
X64964285Y39321429D01*
X65107142Y39321429D01*
D11*
X25452380Y24357143D02*
X24928571Y24357143D01*
X24833333Y24309524D01*
X24785714Y24214286D01*
X24785714Y24023810D01*
X24833333Y23928572D01*
X25404761Y24357143D02*
X25452380Y24261905D01*
X25452380Y24023810D01*
X25404761Y23928572D01*
X25309523Y23880953D01*
X25214285Y23880953D01*
X25119047Y23928572D01*
X25071428Y24023810D01*
X25071428Y24261905D01*
X25023809Y24357143D01*
X24785714Y25261905D02*
X25452380Y25261905D01*
X24785714Y24833334D02*
X25309523Y24833334D01*
X25404761Y24880953D01*
X25452380Y24976191D01*
X25452380Y25119048D01*
X25404761Y25214286D01*
X25357142Y25261905D01*
X25452380Y25642858D02*
X24785714Y26166667D01*
X24785714Y25642858D02*
X25452380Y26166667D01*
X19785714Y22976191D02*
X20785714Y22976191D01*
X19833333Y22976191D02*
X19785714Y23071429D01*
X19785714Y23261905D01*
X19833333Y23357143D01*
X19880952Y23404762D01*
X19976190Y23452381D01*
X20261904Y23452381D01*
X20357142Y23404762D01*
X20404761Y23357143D01*
X20452380Y23261905D01*
X20452380Y23071429D01*
X20404761Y22976191D01*
X20452380Y23880953D02*
X19452380Y23880953D01*
X20452380Y24309524D02*
X19928571Y24309524D01*
X19833333Y24261905D01*
X19785714Y24166667D01*
X19785714Y24023810D01*
X19833333Y23928572D01*
X19880952Y23880953D01*
X20452380Y24928572D02*
X20404761Y24833334D01*
X20357142Y24785715D01*
X20261904Y24738096D01*
X19976190Y24738096D01*
X19880952Y24785715D01*
X19833333Y24833334D01*
X19785714Y24928572D01*
X19785714Y25071429D01*
X19833333Y25166667D01*
X19880952Y25214286D01*
X19976190Y25261905D01*
X20261904Y25261905D01*
X20357142Y25214286D01*
X20404761Y25166667D01*
X20452380Y25071429D01*
X20452380Y24928572D01*
X19785714Y25690477D02*
X20452380Y25690477D01*
X19880952Y25690477D02*
X19833333Y25738096D01*
X19785714Y25833334D01*
X19785714Y25976191D01*
X19833333Y26071429D01*
X19928571Y26119048D01*
X20452380Y26119048D01*
X20452380Y26738096D02*
X20404761Y26642858D01*
X20357142Y26595239D01*
X20261904Y26547620D01*
X19976190Y26547620D01*
X19880952Y26595239D01*
X19833333Y26642858D01*
X19785714Y26738096D01*
X19785714Y26880953D01*
X19833333Y26976191D01*
X19880952Y27023810D01*
X19976190Y27071429D01*
X20261904Y27071429D01*
X20357142Y27023810D01*
X20404761Y26976191D01*
X20452380Y26880953D01*
X20452380Y26738096D01*
D10*
X31214285Y1892858D02*
X32357142Y1892858D01*
X31785714Y1321429D02*
X31785714Y2464286D01*
X34214285Y1321429D02*
X34214285Y2821429D01*
X34928571Y1321429D02*
X34928571Y2821429D01*
X35785714Y1321429D01*
X35785714Y2821429D01*
X37642857Y1892858D02*
X38785714Y1892858D01*
X30214285Y37892858D02*
X31357142Y37892858D01*
X30785714Y37321429D02*
X30785714Y38464286D01*
X33500000Y38821429D02*
X33785714Y38821429D01*
X33928571Y38750000D01*
X34071428Y38607143D01*
X34142857Y38321429D01*
X34142857Y37821429D01*
X34071428Y37535715D01*
X33928571Y37392858D01*
X33785714Y37321429D01*
X33500000Y37321429D01*
X33357142Y37392858D01*
X33214285Y37535715D01*
X33142857Y37821429D01*
X33142857Y38321429D01*
X33214285Y38607143D01*
X33357142Y38750000D01*
X33500000Y38821429D01*
X34785714Y38821429D02*
X34785714Y37607143D01*
X34857142Y37464286D01*
X34928571Y37392858D01*
X35071428Y37321429D01*
X35357142Y37321429D01*
X35500000Y37392858D01*
X35571428Y37464286D01*
X35642857Y37607143D01*
X35642857Y38821429D01*
X36142857Y38821429D02*
X37000000Y38821429D01*
X36571428Y37321429D02*
X36571428Y38821429D01*
X38642857Y37892858D02*
X39785714Y37892858D01*
X49857142Y1892858D02*
X51000000Y1892858D01*
X52857142Y1321429D02*
X52857142Y2821429D01*
X53214285Y2821429D01*
X53428571Y2750000D01*
X53571428Y2607143D01*
X53642857Y2464286D01*
X53714285Y2178572D01*
X53714285Y1964286D01*
X53642857Y1678572D01*
X53571428Y1535715D01*
X53428571Y1392858D01*
X53214285Y1321429D01*
X52857142Y1321429D01*
X55214285Y1464286D02*
X55142857Y1392858D01*
X54928571Y1321429D01*
X54785714Y1321429D01*
X54571428Y1392858D01*
X54428571Y1535715D01*
X54357142Y1678572D01*
X54285714Y1964286D01*
X54285714Y2178572D01*
X54357142Y2464286D01*
X54428571Y2607143D01*
X54571428Y2750000D01*
X54785714Y2821429D01*
X54928571Y2821429D01*
X55142857Y2750000D01*
X55214285Y2678572D01*
X57000000Y1892858D02*
X58142857Y1892858D01*
X57571428Y1321429D02*
X57571428Y2464286D01*
D12*
G04 #@! TO.C,J1*
X26410000Y28670000D02*
X26410000Y31330000D01*
X21270000Y28670000D02*
X26410000Y28670000D01*
X21270000Y31330000D02*
X26410000Y31330000D01*
X21270000Y28670000D02*
X21270000Y31330000D01*
X20000000Y28670000D02*
X18670000Y28670000D01*
X18670000Y28670000D02*
X18670000Y30000000D01*
G04 #@! TO.C,J2*
X30380000Y10540000D02*
X40540000Y10540000D01*
X30380000Y11810000D02*
X30380000Y4190000D01*
X30380000Y4190000D02*
X40540000Y4190000D01*
X40540000Y4190000D02*
X40540000Y11810000D01*
X40540000Y11810000D02*
X30380000Y11810000D01*
G04 #@! TO.C,J3*
X40120000Y41460000D02*
X29960000Y41460000D01*
X40120000Y40190000D02*
X40120000Y47810000D01*
X40120000Y47810000D02*
X29960000Y47810000D01*
X29960000Y47810000D02*
X29960000Y40190000D01*
X29960000Y40190000D02*
X40120000Y40190000D01*
G04 #@! TO.C,J4*
X48460000Y4190000D02*
X58620000Y4190000D01*
X48460000Y11810000D02*
X48460000Y4190000D01*
X58620000Y11810000D02*
X48460000Y11810000D01*
X58620000Y4190000D02*
X58620000Y11810000D01*
X58620000Y5460000D02*
X48460000Y5460000D01*
G04 #@! TO.C,RV1*
X29070000Y10820000D02*
X29070000Y80000D01*
X10930000Y10820000D02*
X10930000Y80000D01*
X29070000Y10820000D02*
X10930000Y10820000D01*
X29070000Y80000D02*
X10930000Y80000D01*
X23620000Y80000D02*
X23620000Y-4920000D01*
X16380000Y80000D02*
X16380000Y-4920000D01*
X23620000Y80000D02*
X16380000Y80000D01*
X23620000Y-4920000D02*
X16380000Y-4920000D01*
X23120000Y-4920000D02*
X23120000Y-14920000D01*
X16879000Y-4920000D02*
X16879000Y-14920000D01*
X23120000Y-4920000D02*
X16879000Y-4920000D01*
X23120000Y-14920000D02*
X16879000Y-14920000D01*
G04 #@! TO.C,RV2*
X30115000Y34530000D02*
X39885000Y34530000D01*
X30115000Y29460000D02*
X39885000Y29460000D01*
X30115000Y34530000D02*
X30115000Y29460000D01*
X39885000Y34530000D02*
X39885000Y29460000D01*
G04 #@! TO.C,U1*
X29670000Y24310000D02*
G75*
G02X29670000Y22310000I0J-1000000D01*
G01*
X29670000Y22310000D02*
X29670000Y21060000D01*
X29670000Y21060000D02*
X39950000Y21060000D01*
X39950000Y21060000D02*
X39950000Y25560000D01*
X39950000Y25560000D02*
X29670000Y25560000D01*
X29670000Y25560000D02*
X29670000Y24310000D01*
G04 #@! TO.C,U2*
X14879000Y50320000D02*
X25120000Y50320000D01*
X14879000Y45679000D02*
X17235000Y45679000D01*
X19365000Y45679000D02*
X20635000Y45679000D01*
X22765000Y45679000D02*
X25120000Y45679000D01*
X14879000Y50320000D02*
X14879000Y45679000D01*
X25120000Y50320000D02*
X25120000Y45679000D01*
X14879000Y48811000D02*
X25120000Y48811000D01*
X18150000Y50320000D02*
X18150000Y48811000D01*
X21850000Y50320000D02*
X21850000Y48811000D01*
X16600000Y45679000D02*
X16600000Y43049000D01*
X20000000Y45679000D02*
X20000000Y43065000D01*
X23400000Y45679000D02*
X23400000Y43065000D01*
G04 #@! TO.C,U3*
X53400000Y45679000D02*
X53400000Y43065000D01*
X50000000Y45679000D02*
X50000000Y43065000D01*
X46600000Y45679000D02*
X46600000Y43049000D01*
X51850000Y50320000D02*
X51850000Y48811000D01*
X48150000Y50320000D02*
X48150000Y48811000D01*
X44879000Y48811000D02*
X55120000Y48811000D01*
X55120000Y50320000D02*
X55120000Y45679000D01*
X44879000Y50320000D02*
X44879000Y45679000D01*
X52765000Y45679000D02*
X55120000Y45679000D01*
X49365000Y45679000D02*
X50635000Y45679000D01*
X44879000Y45679000D02*
X47235000Y45679000D01*
X44879000Y50320000D02*
X55120000Y50320000D01*
G04 #@! TO.C,D1*
X63400000Y34865000D02*
X67285000Y34865000D01*
X67285000Y34865000D02*
X67285000Y37135000D01*
X67285000Y37135000D02*
X63400000Y37135000D01*
G04 #@! TO.C,R4*
X26602064Y19910000D02*
X25397936Y19910000D01*
X26602064Y18090000D02*
X25397936Y18090000D01*
G04 #@! TO.C,R16*
X58397936Y35090000D02*
X59602064Y35090000D01*
X58397936Y36910000D02*
X59602064Y36910000D01*
G04 #@! TO.C,C1*
X16725000Y17304775D02*
X16225000Y17304775D01*
X16475000Y17554775D02*
X16475000Y17054775D01*
X15284000Y12149000D02*
X14716000Y12149000D01*
X15518000Y12189000D02*
X14482000Y12189000D01*
X15677000Y12229000D02*
X14323000Y12229000D01*
X15805000Y12269000D02*
X14195000Y12269000D01*
X15915000Y12309000D02*
X14085000Y12309000D01*
X16011000Y12349000D02*
X13989000Y12349000D01*
X16098000Y12389000D02*
X13902000Y12389000D01*
X16178000Y12429000D02*
X13822000Y12429000D01*
X13960000Y12469000D02*
X13749000Y12469000D01*
X16251000Y12469000D02*
X16040000Y12469000D01*
X13960000Y12509000D02*
X13681000Y12509000D01*
X16319000Y12509000D02*
X16040000Y12509000D01*
X13960000Y12549000D02*
X13617000Y12549000D01*
X16383000Y12549000D02*
X16040000Y12549000D01*
X13960000Y12589000D02*
X13557000Y12589000D01*
X16443000Y12589000D02*
X16040000Y12589000D01*
X13960000Y12629000D02*
X13500000Y12629000D01*
X16500000Y12629000D02*
X16040000Y12629000D01*
X13960000Y12669000D02*
X13446000Y12669000D01*
X16554000Y12669000D02*
X16040000Y12669000D01*
X13960000Y12709000D02*
X13395000Y12709000D01*
X16605000Y12709000D02*
X16040000Y12709000D01*
X13960000Y12749000D02*
X13347000Y12749000D01*
X16653000Y12749000D02*
X16040000Y12749000D01*
X13960000Y12789000D02*
X13301000Y12789000D01*
X16699000Y12789000D02*
X16040000Y12789000D01*
X13960000Y12829000D02*
X13257000Y12829000D01*
X16743000Y12829000D02*
X16040000Y12829000D01*
X13960000Y12869000D02*
X13215000Y12869000D01*
X16785000Y12869000D02*
X16040000Y12869000D01*
X13960000Y12909000D02*
X13174000Y12909000D01*
X16826000Y12909000D02*
X16040000Y12909000D01*
X13960000Y12949000D02*
X13136000Y12949000D01*
X16864000Y12949000D02*
X16040000Y12949000D01*
X13960000Y12989000D02*
X13099000Y12989000D01*
X16901000Y12989000D02*
X16040000Y12989000D01*
X13960000Y13029000D02*
X13063000Y13029000D01*
X16937000Y13029000D02*
X16040000Y13029000D01*
X13960000Y13069000D02*
X13029000Y13069000D01*
X16971000Y13069000D02*
X16040000Y13069000D01*
X13960000Y13109000D02*
X12996000Y13109000D01*
X17004000Y13109000D02*
X16040000Y13109000D01*
X13960000Y13149000D02*
X12965000Y13149000D01*
X17035000Y13149000D02*
X16040000Y13149000D01*
X13960000Y13189000D02*
X12935000Y13189000D01*
X17065000Y13189000D02*
X16040000Y13189000D01*
X13960000Y13229000D02*
X12905000Y13229000D01*
X17095000Y13229000D02*
X16040000Y13229000D01*
X13960000Y13269000D02*
X12878000Y13269000D01*
X17122000Y13269000D02*
X16040000Y13269000D01*
X13960000Y13309000D02*
X12851000Y13309000D01*
X17149000Y13309000D02*
X16040000Y13309000D01*
X13960000Y13349000D02*
X12825000Y13349000D01*
X17175000Y13349000D02*
X16040000Y13349000D01*
X13960000Y13389000D02*
X12800000Y13389000D01*
X17200000Y13389000D02*
X16040000Y13389000D01*
X13960000Y13429000D02*
X12776000Y13429000D01*
X17224000Y13429000D02*
X16040000Y13429000D01*
X13960000Y13469000D02*
X12753000Y13469000D01*
X17247000Y13469000D02*
X16040000Y13469000D01*
X13960000Y13509000D02*
X12732000Y13509000D01*
X17268000Y13509000D02*
X16040000Y13509000D01*
X13960000Y13549000D02*
X12710000Y13549000D01*
X17290000Y13549000D02*
X16040000Y13549000D01*
X13960000Y13589000D02*
X12690000Y13589000D01*
X17310000Y13589000D02*
X16040000Y13589000D01*
X13960000Y13629000D02*
X12671000Y13629000D01*
X17329000Y13629000D02*
X16040000Y13629000D01*
X13960000Y13669000D02*
X12652000Y13669000D01*
X17348000Y13669000D02*
X16040000Y13669000D01*
X13960000Y13709000D02*
X12635000Y13709000D01*
X17365000Y13709000D02*
X16040000Y13709000D01*
X13960000Y13749000D02*
X12618000Y13749000D01*
X17382000Y13749000D02*
X16040000Y13749000D01*
X13960000Y13789000D02*
X12602000Y13789000D01*
X17398000Y13789000D02*
X16040000Y13789000D01*
X13960000Y13829000D02*
X12586000Y13829000D01*
X17414000Y13829000D02*
X16040000Y13829000D01*
X13960000Y13869000D02*
X12572000Y13869000D01*
X17428000Y13869000D02*
X16040000Y13869000D01*
X13960000Y13909000D02*
X12558000Y13909000D01*
X17442000Y13909000D02*
X16040000Y13909000D01*
X13960000Y13949000D02*
X12545000Y13949000D01*
X17455000Y13949000D02*
X16040000Y13949000D01*
X13960000Y13989000D02*
X12532000Y13989000D01*
X17468000Y13989000D02*
X16040000Y13989000D01*
X13960000Y14029000D02*
X12520000Y14029000D01*
X17480000Y14029000D02*
X16040000Y14029000D01*
X13960000Y14070000D02*
X12509000Y14070000D01*
X17491000Y14070000D02*
X16040000Y14070000D01*
X13960000Y14110000D02*
X12499000Y14110000D01*
X17501000Y14110000D02*
X16040000Y14110000D01*
X13960000Y14150000D02*
X12489000Y14150000D01*
X17511000Y14150000D02*
X16040000Y14150000D01*
X13960000Y14190000D02*
X12480000Y14190000D01*
X17520000Y14190000D02*
X16040000Y14190000D01*
X13960000Y14230000D02*
X12472000Y14230000D01*
X17528000Y14230000D02*
X16040000Y14230000D01*
X13960000Y14270000D02*
X12464000Y14270000D01*
X17536000Y14270000D02*
X16040000Y14270000D01*
X13960000Y14310000D02*
X12457000Y14310000D01*
X17543000Y14310000D02*
X16040000Y14310000D01*
X13960000Y14350000D02*
X12450000Y14350000D01*
X17550000Y14350000D02*
X16040000Y14350000D01*
X13960000Y14390000D02*
X12444000Y14390000D01*
X17556000Y14390000D02*
X16040000Y14390000D01*
X13960000Y14430000D02*
X12439000Y14430000D01*
X17561000Y14430000D02*
X16040000Y14430000D01*
X13960000Y14470000D02*
X12435000Y14470000D01*
X17565000Y14470000D02*
X16040000Y14470000D01*
X13960000Y14510000D02*
X12431000Y14510000D01*
X17569000Y14510000D02*
X16040000Y14510000D01*
X17573000Y14550000D02*
X12427000Y14550000D01*
X17576000Y14590000D02*
X12424000Y14590000D01*
X17578000Y14630000D02*
X12422000Y14630000D01*
X17579000Y14670000D02*
X12421000Y14670000D01*
X17580000Y14710000D02*
X12420000Y14710000D01*
X17580000Y14750000D02*
X12420000Y14750000D01*
X17620000Y14750000D02*
G75*
G03X17620000Y14750000I-2620000J0D01*
G01*
G04 #@! TO.C,C2*
X29620000Y14750000D02*
G75*
G03X29620000Y14750000I-2620000J0D01*
G01*
X29580000Y14750000D02*
X24420000Y14750000D01*
X29580000Y14710000D02*
X24420000Y14710000D01*
X29579000Y14670000D02*
X24421000Y14670000D01*
X29578000Y14630000D02*
X24422000Y14630000D01*
X29576000Y14590000D02*
X24424000Y14590000D01*
X29573000Y14550000D02*
X24427000Y14550000D01*
X29569000Y14510000D02*
X28040000Y14510000D01*
X25960000Y14510000D02*
X24431000Y14510000D01*
X29565000Y14470000D02*
X28040000Y14470000D01*
X25960000Y14470000D02*
X24435000Y14470000D01*
X29561000Y14430000D02*
X28040000Y14430000D01*
X25960000Y14430000D02*
X24439000Y14430000D01*
X29556000Y14390000D02*
X28040000Y14390000D01*
X25960000Y14390000D02*
X24444000Y14390000D01*
X29550000Y14350000D02*
X28040000Y14350000D01*
X25960000Y14350000D02*
X24450000Y14350000D01*
X29543000Y14310000D02*
X28040000Y14310000D01*
X25960000Y14310000D02*
X24457000Y14310000D01*
X29536000Y14270000D02*
X28040000Y14270000D01*
X25960000Y14270000D02*
X24464000Y14270000D01*
X29528000Y14230000D02*
X28040000Y14230000D01*
X25960000Y14230000D02*
X24472000Y14230000D01*
X29520000Y14190000D02*
X28040000Y14190000D01*
X25960000Y14190000D02*
X24480000Y14190000D01*
X29511000Y14150000D02*
X28040000Y14150000D01*
X25960000Y14150000D02*
X24489000Y14150000D01*
X29501000Y14110000D02*
X28040000Y14110000D01*
X25960000Y14110000D02*
X24499000Y14110000D01*
X29491000Y14070000D02*
X28040000Y14070000D01*
X25960000Y14070000D02*
X24509000Y14070000D01*
X29480000Y14029000D02*
X28040000Y14029000D01*
X25960000Y14029000D02*
X24520000Y14029000D01*
X29468000Y13989000D02*
X28040000Y13989000D01*
X25960000Y13989000D02*
X24532000Y13989000D01*
X29455000Y13949000D02*
X28040000Y13949000D01*
X25960000Y13949000D02*
X24545000Y13949000D01*
X29442000Y13909000D02*
X28040000Y13909000D01*
X25960000Y13909000D02*
X24558000Y13909000D01*
X29428000Y13869000D02*
X28040000Y13869000D01*
X25960000Y13869000D02*
X24572000Y13869000D01*
X29414000Y13829000D02*
X28040000Y13829000D01*
X25960000Y13829000D02*
X24586000Y13829000D01*
X29398000Y13789000D02*
X28040000Y13789000D01*
X25960000Y13789000D02*
X24602000Y13789000D01*
X29382000Y13749000D02*
X28040000Y13749000D01*
X25960000Y13749000D02*
X24618000Y13749000D01*
X29365000Y13709000D02*
X28040000Y13709000D01*
X25960000Y13709000D02*
X24635000Y13709000D01*
X29348000Y13669000D02*
X28040000Y13669000D01*
X25960000Y13669000D02*
X24652000Y13669000D01*
X29329000Y13629000D02*
X28040000Y13629000D01*
X25960000Y13629000D02*
X24671000Y13629000D01*
X29310000Y13589000D02*
X28040000Y13589000D01*
X25960000Y13589000D02*
X24690000Y13589000D01*
X29290000Y13549000D02*
X28040000Y13549000D01*
X25960000Y13549000D02*
X24710000Y13549000D01*
X29268000Y13509000D02*
X28040000Y13509000D01*
X25960000Y13509000D02*
X24732000Y13509000D01*
X29247000Y13469000D02*
X28040000Y13469000D01*
X25960000Y13469000D02*
X24753000Y13469000D01*
X29224000Y13429000D02*
X28040000Y13429000D01*
X25960000Y13429000D02*
X24776000Y13429000D01*
X29200000Y13389000D02*
X28040000Y13389000D01*
X25960000Y13389000D02*
X24800000Y13389000D01*
X29175000Y13349000D02*
X28040000Y13349000D01*
X25960000Y13349000D02*
X24825000Y13349000D01*
X29149000Y13309000D02*
X28040000Y13309000D01*
X25960000Y13309000D02*
X24851000Y13309000D01*
X29122000Y13269000D02*
X28040000Y13269000D01*
X25960000Y13269000D02*
X24878000Y13269000D01*
X29095000Y13229000D02*
X28040000Y13229000D01*
X25960000Y13229000D02*
X24905000Y13229000D01*
X29065000Y13189000D02*
X28040000Y13189000D01*
X25960000Y13189000D02*
X24935000Y13189000D01*
X29035000Y13149000D02*
X28040000Y13149000D01*
X25960000Y13149000D02*
X24965000Y13149000D01*
X29004000Y13109000D02*
X28040000Y13109000D01*
X25960000Y13109000D02*
X24996000Y13109000D01*
X28971000Y13069000D02*
X28040000Y13069000D01*
X25960000Y13069000D02*
X25029000Y13069000D01*
X28937000Y13029000D02*
X28040000Y13029000D01*
X25960000Y13029000D02*
X25063000Y13029000D01*
X28901000Y12989000D02*
X28040000Y12989000D01*
X25960000Y12989000D02*
X25099000Y12989000D01*
X28864000Y12949000D02*
X28040000Y12949000D01*
X25960000Y12949000D02*
X25136000Y12949000D01*
X28826000Y12909000D02*
X28040000Y12909000D01*
X25960000Y12909000D02*
X25174000Y12909000D01*
X28785000Y12869000D02*
X28040000Y12869000D01*
X25960000Y12869000D02*
X25215000Y12869000D01*
X28743000Y12829000D02*
X28040000Y12829000D01*
X25960000Y12829000D02*
X25257000Y12829000D01*
X28699000Y12789000D02*
X28040000Y12789000D01*
X25960000Y12789000D02*
X25301000Y12789000D01*
X28653000Y12749000D02*
X28040000Y12749000D01*
X25960000Y12749000D02*
X25347000Y12749000D01*
X28605000Y12709000D02*
X28040000Y12709000D01*
X25960000Y12709000D02*
X25395000Y12709000D01*
X28554000Y12669000D02*
X28040000Y12669000D01*
X25960000Y12669000D02*
X25446000Y12669000D01*
X28500000Y12629000D02*
X28040000Y12629000D01*
X25960000Y12629000D02*
X25500000Y12629000D01*
X28443000Y12589000D02*
X28040000Y12589000D01*
X25960000Y12589000D02*
X25557000Y12589000D01*
X28383000Y12549000D02*
X28040000Y12549000D01*
X25960000Y12549000D02*
X25617000Y12549000D01*
X28319000Y12509000D02*
X28040000Y12509000D01*
X25960000Y12509000D02*
X25681000Y12509000D01*
X28251000Y12469000D02*
X28040000Y12469000D01*
X25960000Y12469000D02*
X25749000Y12469000D01*
X28178000Y12429000D02*
X25822000Y12429000D01*
X28098000Y12389000D02*
X25902000Y12389000D01*
X28011000Y12349000D02*
X25989000Y12349000D01*
X27915000Y12309000D02*
X26085000Y12309000D01*
X27805000Y12269000D02*
X26195000Y12269000D01*
X27677000Y12229000D02*
X26323000Y12229000D01*
X27518000Y12189000D02*
X26482000Y12189000D01*
X27284000Y12149000D02*
X26716000Y12149000D01*
X28475000Y17554775D02*
X28475000Y17054775D01*
X28725000Y17304775D02*
X28225000Y17304775D01*
G04 #@! TO.C,C4*
X23620000Y14750000D02*
G75*
G03X23620000Y14750000I-2620000J0D01*
G01*
X23580000Y14750000D02*
X18420000Y14750000D01*
X23580000Y14710000D02*
X18420000Y14710000D01*
X23579000Y14670000D02*
X18421000Y14670000D01*
X23578000Y14630000D02*
X18422000Y14630000D01*
X23576000Y14590000D02*
X18424000Y14590000D01*
X23573000Y14550000D02*
X18427000Y14550000D01*
X23569000Y14510000D02*
X22040000Y14510000D01*
X19960000Y14510000D02*
X18431000Y14510000D01*
X23565000Y14470000D02*
X22040000Y14470000D01*
X19960000Y14470000D02*
X18435000Y14470000D01*
X23561000Y14430000D02*
X22040000Y14430000D01*
X19960000Y14430000D02*
X18439000Y14430000D01*
X23556000Y14390000D02*
X22040000Y14390000D01*
X19960000Y14390000D02*
X18444000Y14390000D01*
X23550000Y14350000D02*
X22040000Y14350000D01*
X19960000Y14350000D02*
X18450000Y14350000D01*
X23543000Y14310000D02*
X22040000Y14310000D01*
X19960000Y14310000D02*
X18457000Y14310000D01*
X23536000Y14270000D02*
X22040000Y14270000D01*
X19960000Y14270000D02*
X18464000Y14270000D01*
X23528000Y14230000D02*
X22040000Y14230000D01*
X19960000Y14230000D02*
X18472000Y14230000D01*
X23520000Y14190000D02*
X22040000Y14190000D01*
X19960000Y14190000D02*
X18480000Y14190000D01*
X23511000Y14150000D02*
X22040000Y14150000D01*
X19960000Y14150000D02*
X18489000Y14150000D01*
X23501000Y14110000D02*
X22040000Y14110000D01*
X19960000Y14110000D02*
X18499000Y14110000D01*
X23491000Y14070000D02*
X22040000Y14070000D01*
X19960000Y14070000D02*
X18509000Y14070000D01*
X23480000Y14029000D02*
X22040000Y14029000D01*
X19960000Y14029000D02*
X18520000Y14029000D01*
X23468000Y13989000D02*
X22040000Y13989000D01*
X19960000Y13989000D02*
X18532000Y13989000D01*
X23455000Y13949000D02*
X22040000Y13949000D01*
X19960000Y13949000D02*
X18545000Y13949000D01*
X23442000Y13909000D02*
X22040000Y13909000D01*
X19960000Y13909000D02*
X18558000Y13909000D01*
X23428000Y13869000D02*
X22040000Y13869000D01*
X19960000Y13869000D02*
X18572000Y13869000D01*
X23414000Y13829000D02*
X22040000Y13829000D01*
X19960000Y13829000D02*
X18586000Y13829000D01*
X23398000Y13789000D02*
X22040000Y13789000D01*
X19960000Y13789000D02*
X18602000Y13789000D01*
X23382000Y13749000D02*
X22040000Y13749000D01*
X19960000Y13749000D02*
X18618000Y13749000D01*
X23365000Y13709000D02*
X22040000Y13709000D01*
X19960000Y13709000D02*
X18635000Y13709000D01*
X23348000Y13669000D02*
X22040000Y13669000D01*
X19960000Y13669000D02*
X18652000Y13669000D01*
X23329000Y13629000D02*
X22040000Y13629000D01*
X19960000Y13629000D02*
X18671000Y13629000D01*
X23310000Y13589000D02*
X22040000Y13589000D01*
X19960000Y13589000D02*
X18690000Y13589000D01*
X23290000Y13549000D02*
X22040000Y13549000D01*
X19960000Y13549000D02*
X18710000Y13549000D01*
X23268000Y13509000D02*
X22040000Y13509000D01*
X19960000Y13509000D02*
X18732000Y13509000D01*
X23247000Y13469000D02*
X22040000Y13469000D01*
X19960000Y13469000D02*
X18753000Y13469000D01*
X23224000Y13429000D02*
X22040000Y13429000D01*
X19960000Y13429000D02*
X18776000Y13429000D01*
X23200000Y13389000D02*
X22040000Y13389000D01*
X19960000Y13389000D02*
X18800000Y13389000D01*
X23175000Y13349000D02*
X22040000Y13349000D01*
X19960000Y13349000D02*
X18825000Y13349000D01*
X23149000Y13309000D02*
X22040000Y13309000D01*
X19960000Y13309000D02*
X18851000Y13309000D01*
X23122000Y13269000D02*
X22040000Y13269000D01*
X19960000Y13269000D02*
X18878000Y13269000D01*
X23095000Y13229000D02*
X22040000Y13229000D01*
X19960000Y13229000D02*
X18905000Y13229000D01*
X23065000Y13189000D02*
X22040000Y13189000D01*
X19960000Y13189000D02*
X18935000Y13189000D01*
X23035000Y13149000D02*
X22040000Y13149000D01*
X19960000Y13149000D02*
X18965000Y13149000D01*
X23004000Y13109000D02*
X22040000Y13109000D01*
X19960000Y13109000D02*
X18996000Y13109000D01*
X22971000Y13069000D02*
X22040000Y13069000D01*
X19960000Y13069000D02*
X19029000Y13069000D01*
X22937000Y13029000D02*
X22040000Y13029000D01*
X19960000Y13029000D02*
X19063000Y13029000D01*
X22901000Y12989000D02*
X22040000Y12989000D01*
X19960000Y12989000D02*
X19099000Y12989000D01*
X22864000Y12949000D02*
X22040000Y12949000D01*
X19960000Y12949000D02*
X19136000Y12949000D01*
X22826000Y12909000D02*
X22040000Y12909000D01*
X19960000Y12909000D02*
X19174000Y12909000D01*
X22785000Y12869000D02*
X22040000Y12869000D01*
X19960000Y12869000D02*
X19215000Y12869000D01*
X22743000Y12829000D02*
X22040000Y12829000D01*
X19960000Y12829000D02*
X19257000Y12829000D01*
X22699000Y12789000D02*
X22040000Y12789000D01*
X19960000Y12789000D02*
X19301000Y12789000D01*
X22653000Y12749000D02*
X22040000Y12749000D01*
X19960000Y12749000D02*
X19347000Y12749000D01*
X22605000Y12709000D02*
X22040000Y12709000D01*
X19960000Y12709000D02*
X19395000Y12709000D01*
X22554000Y12669000D02*
X22040000Y12669000D01*
X19960000Y12669000D02*
X19446000Y12669000D01*
X22500000Y12629000D02*
X22040000Y12629000D01*
X19960000Y12629000D02*
X19500000Y12629000D01*
X22443000Y12589000D02*
X22040000Y12589000D01*
X19960000Y12589000D02*
X19557000Y12589000D01*
X22383000Y12549000D02*
X22040000Y12549000D01*
X19960000Y12549000D02*
X19617000Y12549000D01*
X22319000Y12509000D02*
X22040000Y12509000D01*
X19960000Y12509000D02*
X19681000Y12509000D01*
X22251000Y12469000D02*
X22040000Y12469000D01*
X19960000Y12469000D02*
X19749000Y12469000D01*
X22178000Y12429000D02*
X19822000Y12429000D01*
X22098000Y12389000D02*
X19902000Y12389000D01*
X22011000Y12349000D02*
X19989000Y12349000D01*
X21915000Y12309000D02*
X20085000Y12309000D01*
X21805000Y12269000D02*
X20195000Y12269000D01*
X21677000Y12229000D02*
X20323000Y12229000D01*
X21518000Y12189000D02*
X20482000Y12189000D01*
X21284000Y12149000D02*
X20716000Y12149000D01*
X22475000Y17554775D02*
X22475000Y17054775D01*
X22725000Y17304775D02*
X22225000Y17304775D01*
G04 #@! TO.C,C6*
X41695225Y21725000D02*
X41695225Y21225000D01*
X41445225Y21475000D02*
X41945225Y21475000D01*
X46851000Y20284000D02*
X46851000Y19716000D01*
X46811000Y20518000D02*
X46811000Y19482000D01*
X46771000Y20677000D02*
X46771000Y19323000D01*
X46731000Y20805000D02*
X46731000Y19195000D01*
X46691000Y20915000D02*
X46691000Y19085000D01*
X46651000Y21011000D02*
X46651000Y18989000D01*
X46611000Y21098000D02*
X46611000Y18902000D01*
X46571000Y21178000D02*
X46571000Y18822000D01*
X46531000Y18960000D02*
X46531000Y18749000D01*
X46531000Y21251000D02*
X46531000Y21040000D01*
X46491000Y18960000D02*
X46491000Y18681000D01*
X46491000Y21319000D02*
X46491000Y21040000D01*
X46451000Y18960000D02*
X46451000Y18617000D01*
X46451000Y21383000D02*
X46451000Y21040000D01*
X46411000Y18960000D02*
X46411000Y18557000D01*
X46411000Y21443000D02*
X46411000Y21040000D01*
X46371000Y18960000D02*
X46371000Y18500000D01*
X46371000Y21500000D02*
X46371000Y21040000D01*
X46331000Y18960000D02*
X46331000Y18446000D01*
X46331000Y21554000D02*
X46331000Y21040000D01*
X46291000Y18960000D02*
X46291000Y18395000D01*
X46291000Y21605000D02*
X46291000Y21040000D01*
X46251000Y18960000D02*
X46251000Y18347000D01*
X46251000Y21653000D02*
X46251000Y21040000D01*
X46211000Y18960000D02*
X46211000Y18301000D01*
X46211000Y21699000D02*
X46211000Y21040000D01*
X46171000Y18960000D02*
X46171000Y18257000D01*
X46171000Y21743000D02*
X46171000Y21040000D01*
X46131000Y18960000D02*
X46131000Y18215000D01*
X46131000Y21785000D02*
X46131000Y21040000D01*
X46091000Y18960000D02*
X46091000Y18174000D01*
X46091000Y21826000D02*
X46091000Y21040000D01*
X46051000Y18960000D02*
X46051000Y18136000D01*
X46051000Y21864000D02*
X46051000Y21040000D01*
X46011000Y18960000D02*
X46011000Y18099000D01*
X46011000Y21901000D02*
X46011000Y21040000D01*
X45971000Y18960000D02*
X45971000Y18063000D01*
X45971000Y21937000D02*
X45971000Y21040000D01*
X45931000Y18960000D02*
X45931000Y18029000D01*
X45931000Y21971000D02*
X45931000Y21040000D01*
X45891000Y18960000D02*
X45891000Y17996000D01*
X45891000Y22004000D02*
X45891000Y21040000D01*
X45851000Y18960000D02*
X45851000Y17965000D01*
X45851000Y22035000D02*
X45851000Y21040000D01*
X45811000Y18960000D02*
X45811000Y17935000D01*
X45811000Y22065000D02*
X45811000Y21040000D01*
X45771000Y18960000D02*
X45771000Y17905000D01*
X45771000Y22095000D02*
X45771000Y21040000D01*
X45731000Y18960000D02*
X45731000Y17878000D01*
X45731000Y22122000D02*
X45731000Y21040000D01*
X45691000Y18960000D02*
X45691000Y17851000D01*
X45691000Y22149000D02*
X45691000Y21040000D01*
X45651000Y18960000D02*
X45651000Y17825000D01*
X45651000Y22175000D02*
X45651000Y21040000D01*
X45611000Y18960000D02*
X45611000Y17800000D01*
X45611000Y22200000D02*
X45611000Y21040000D01*
X45571000Y18960000D02*
X45571000Y17776000D01*
X45571000Y22224000D02*
X45571000Y21040000D01*
X45531000Y18960000D02*
X45531000Y17753000D01*
X45531000Y22247000D02*
X45531000Y21040000D01*
X45491000Y18960000D02*
X45491000Y17732000D01*
X45491000Y22268000D02*
X45491000Y21040000D01*
X45451000Y18960000D02*
X45451000Y17710000D01*
X45451000Y22290000D02*
X45451000Y21040000D01*
X45411000Y18960000D02*
X45411000Y17690000D01*
X45411000Y22310000D02*
X45411000Y21040000D01*
X45371000Y18960000D02*
X45371000Y17671000D01*
X45371000Y22329000D02*
X45371000Y21040000D01*
X45331000Y18960000D02*
X45331000Y17652000D01*
X45331000Y22348000D02*
X45331000Y21040000D01*
X45291000Y18960000D02*
X45291000Y17635000D01*
X45291000Y22365000D02*
X45291000Y21040000D01*
X45251000Y18960000D02*
X45251000Y17618000D01*
X45251000Y22382000D02*
X45251000Y21040000D01*
X45211000Y18960000D02*
X45211000Y17602000D01*
X45211000Y22398000D02*
X45211000Y21040000D01*
X45171000Y18960000D02*
X45171000Y17586000D01*
X45171000Y22414000D02*
X45171000Y21040000D01*
X45131000Y18960000D02*
X45131000Y17572000D01*
X45131000Y22428000D02*
X45131000Y21040000D01*
X45091000Y18960000D02*
X45091000Y17558000D01*
X45091000Y22442000D02*
X45091000Y21040000D01*
X45051000Y18960000D02*
X45051000Y17545000D01*
X45051000Y22455000D02*
X45051000Y21040000D01*
X45011000Y18960000D02*
X45011000Y17532000D01*
X45011000Y22468000D02*
X45011000Y21040000D01*
X44971000Y18960000D02*
X44971000Y17520000D01*
X44971000Y22480000D02*
X44971000Y21040000D01*
X44930000Y18960000D02*
X44930000Y17509000D01*
X44930000Y22491000D02*
X44930000Y21040000D01*
X44890000Y18960000D02*
X44890000Y17499000D01*
X44890000Y22501000D02*
X44890000Y21040000D01*
X44850000Y18960000D02*
X44850000Y17489000D01*
X44850000Y22511000D02*
X44850000Y21040000D01*
X44810000Y18960000D02*
X44810000Y17480000D01*
X44810000Y22520000D02*
X44810000Y21040000D01*
X44770000Y18960000D02*
X44770000Y17472000D01*
X44770000Y22528000D02*
X44770000Y21040000D01*
X44730000Y18960000D02*
X44730000Y17464000D01*
X44730000Y22536000D02*
X44730000Y21040000D01*
X44690000Y18960000D02*
X44690000Y17457000D01*
X44690000Y22543000D02*
X44690000Y21040000D01*
X44650000Y18960000D02*
X44650000Y17450000D01*
X44650000Y22550000D02*
X44650000Y21040000D01*
X44610000Y18960000D02*
X44610000Y17444000D01*
X44610000Y22556000D02*
X44610000Y21040000D01*
X44570000Y18960000D02*
X44570000Y17439000D01*
X44570000Y22561000D02*
X44570000Y21040000D01*
X44530000Y18960000D02*
X44530000Y17435000D01*
X44530000Y22565000D02*
X44530000Y21040000D01*
X44490000Y18960000D02*
X44490000Y17431000D01*
X44490000Y22569000D02*
X44490000Y21040000D01*
X44450000Y22573000D02*
X44450000Y17427000D01*
X44410000Y22576000D02*
X44410000Y17424000D01*
X44370000Y22578000D02*
X44370000Y17422000D01*
X44330000Y22579000D02*
X44330000Y17421000D01*
X44290000Y22580000D02*
X44290000Y17420000D01*
X44250000Y22580000D02*
X44250000Y17420000D01*
X46870000Y20000000D02*
G75*
G03X46870000Y20000000I-2620000J0D01*
G01*
G04 #@! TO.C,C7*
X41695225Y27725000D02*
X41695225Y27225000D01*
X41445225Y27475000D02*
X41945225Y27475000D01*
X46851000Y26284000D02*
X46851000Y25716000D01*
X46811000Y26518000D02*
X46811000Y25482000D01*
X46771000Y26677000D02*
X46771000Y25323000D01*
X46731000Y26805000D02*
X46731000Y25195000D01*
X46691000Y26915000D02*
X46691000Y25085000D01*
X46651000Y27011000D02*
X46651000Y24989000D01*
X46611000Y27098000D02*
X46611000Y24902000D01*
X46571000Y27178000D02*
X46571000Y24822000D01*
X46531000Y24960000D02*
X46531000Y24749000D01*
X46531000Y27251000D02*
X46531000Y27040000D01*
X46491000Y24960000D02*
X46491000Y24681000D01*
X46491000Y27319000D02*
X46491000Y27040000D01*
X46451000Y24960000D02*
X46451000Y24617000D01*
X46451000Y27383000D02*
X46451000Y27040000D01*
X46411000Y24960000D02*
X46411000Y24557000D01*
X46411000Y27443000D02*
X46411000Y27040000D01*
X46371000Y24960000D02*
X46371000Y24500000D01*
X46371000Y27500000D02*
X46371000Y27040000D01*
X46331000Y24960000D02*
X46331000Y24446000D01*
X46331000Y27554000D02*
X46331000Y27040000D01*
X46291000Y24960000D02*
X46291000Y24395000D01*
X46291000Y27605000D02*
X46291000Y27040000D01*
X46251000Y24960000D02*
X46251000Y24347000D01*
X46251000Y27653000D02*
X46251000Y27040000D01*
X46211000Y24960000D02*
X46211000Y24301000D01*
X46211000Y27699000D02*
X46211000Y27040000D01*
X46171000Y24960000D02*
X46171000Y24257000D01*
X46171000Y27743000D02*
X46171000Y27040000D01*
X46131000Y24960000D02*
X46131000Y24215000D01*
X46131000Y27785000D02*
X46131000Y27040000D01*
X46091000Y24960000D02*
X46091000Y24174000D01*
X46091000Y27826000D02*
X46091000Y27040000D01*
X46051000Y24960000D02*
X46051000Y24136000D01*
X46051000Y27864000D02*
X46051000Y27040000D01*
X46011000Y24960000D02*
X46011000Y24099000D01*
X46011000Y27901000D02*
X46011000Y27040000D01*
X45971000Y24960000D02*
X45971000Y24063000D01*
X45971000Y27937000D02*
X45971000Y27040000D01*
X45931000Y24960000D02*
X45931000Y24029000D01*
X45931000Y27971000D02*
X45931000Y27040000D01*
X45891000Y24960000D02*
X45891000Y23996000D01*
X45891000Y28004000D02*
X45891000Y27040000D01*
X45851000Y24960000D02*
X45851000Y23965000D01*
X45851000Y28035000D02*
X45851000Y27040000D01*
X45811000Y24960000D02*
X45811000Y23935000D01*
X45811000Y28065000D02*
X45811000Y27040000D01*
X45771000Y24960000D02*
X45771000Y23905000D01*
X45771000Y28095000D02*
X45771000Y27040000D01*
X45731000Y24960000D02*
X45731000Y23878000D01*
X45731000Y28122000D02*
X45731000Y27040000D01*
X45691000Y24960000D02*
X45691000Y23851000D01*
X45691000Y28149000D02*
X45691000Y27040000D01*
X45651000Y24960000D02*
X45651000Y23825000D01*
X45651000Y28175000D02*
X45651000Y27040000D01*
X45611000Y24960000D02*
X45611000Y23800000D01*
X45611000Y28200000D02*
X45611000Y27040000D01*
X45571000Y24960000D02*
X45571000Y23776000D01*
X45571000Y28224000D02*
X45571000Y27040000D01*
X45531000Y24960000D02*
X45531000Y23753000D01*
X45531000Y28247000D02*
X45531000Y27040000D01*
X45491000Y24960000D02*
X45491000Y23732000D01*
X45491000Y28268000D02*
X45491000Y27040000D01*
X45451000Y24960000D02*
X45451000Y23710000D01*
X45451000Y28290000D02*
X45451000Y27040000D01*
X45411000Y24960000D02*
X45411000Y23690000D01*
X45411000Y28310000D02*
X45411000Y27040000D01*
X45371000Y24960000D02*
X45371000Y23671000D01*
X45371000Y28329000D02*
X45371000Y27040000D01*
X45331000Y24960000D02*
X45331000Y23652000D01*
X45331000Y28348000D02*
X45331000Y27040000D01*
X45291000Y24960000D02*
X45291000Y23635000D01*
X45291000Y28365000D02*
X45291000Y27040000D01*
X45251000Y24960000D02*
X45251000Y23618000D01*
X45251000Y28382000D02*
X45251000Y27040000D01*
X45211000Y24960000D02*
X45211000Y23602000D01*
X45211000Y28398000D02*
X45211000Y27040000D01*
X45171000Y24960000D02*
X45171000Y23586000D01*
X45171000Y28414000D02*
X45171000Y27040000D01*
X45131000Y24960000D02*
X45131000Y23572000D01*
X45131000Y28428000D02*
X45131000Y27040000D01*
X45091000Y24960000D02*
X45091000Y23558000D01*
X45091000Y28442000D02*
X45091000Y27040000D01*
X45051000Y24960000D02*
X45051000Y23545000D01*
X45051000Y28455000D02*
X45051000Y27040000D01*
X45011000Y24960000D02*
X45011000Y23532000D01*
X45011000Y28468000D02*
X45011000Y27040000D01*
X44971000Y24960000D02*
X44971000Y23520000D01*
X44971000Y28480000D02*
X44971000Y27040000D01*
X44930000Y24960000D02*
X44930000Y23509000D01*
X44930000Y28491000D02*
X44930000Y27040000D01*
X44890000Y24960000D02*
X44890000Y23499000D01*
X44890000Y28501000D02*
X44890000Y27040000D01*
X44850000Y24960000D02*
X44850000Y23489000D01*
X44850000Y28511000D02*
X44850000Y27040000D01*
X44810000Y24960000D02*
X44810000Y23480000D01*
X44810000Y28520000D02*
X44810000Y27040000D01*
X44770000Y24960000D02*
X44770000Y23472000D01*
X44770000Y28528000D02*
X44770000Y27040000D01*
X44730000Y24960000D02*
X44730000Y23464000D01*
X44730000Y28536000D02*
X44730000Y27040000D01*
X44690000Y24960000D02*
X44690000Y23457000D01*
X44690000Y28543000D02*
X44690000Y27040000D01*
X44650000Y24960000D02*
X44650000Y23450000D01*
X44650000Y28550000D02*
X44650000Y27040000D01*
X44610000Y24960000D02*
X44610000Y23444000D01*
X44610000Y28556000D02*
X44610000Y27040000D01*
X44570000Y24960000D02*
X44570000Y23439000D01*
X44570000Y28561000D02*
X44570000Y27040000D01*
X44530000Y24960000D02*
X44530000Y23435000D01*
X44530000Y28565000D02*
X44530000Y27040000D01*
X44490000Y24960000D02*
X44490000Y23431000D01*
X44490000Y28569000D02*
X44490000Y27040000D01*
X44450000Y28573000D02*
X44450000Y23427000D01*
X44410000Y28576000D02*
X44410000Y23424000D01*
X44370000Y28578000D02*
X44370000Y23422000D01*
X44330000Y28579000D02*
X44330000Y23421000D01*
X44290000Y28580000D02*
X44290000Y23420000D01*
X44250000Y28580000D02*
X44250000Y23420000D01*
X46870000Y26000000D02*
G75*
G03X46870000Y26000000I-2620000J0D01*
G01*
G04 #@! TO.C,C10*
X18725000Y38304775D02*
X18225000Y38304775D01*
X18475000Y38554775D02*
X18475000Y38054775D01*
X17284000Y33149000D02*
X16716000Y33149000D01*
X17518000Y33189000D02*
X16482000Y33189000D01*
X17677000Y33229000D02*
X16323000Y33229000D01*
X17805000Y33269000D02*
X16195000Y33269000D01*
X17915000Y33309000D02*
X16085000Y33309000D01*
X18011000Y33349000D02*
X15989000Y33349000D01*
X18098000Y33389000D02*
X15902000Y33389000D01*
X18178000Y33429000D02*
X15822000Y33429000D01*
X15960000Y33469000D02*
X15749000Y33469000D01*
X18251000Y33469000D02*
X18040000Y33469000D01*
X15960000Y33509000D02*
X15681000Y33509000D01*
X18319000Y33509000D02*
X18040000Y33509000D01*
X15960000Y33549000D02*
X15617000Y33549000D01*
X18383000Y33549000D02*
X18040000Y33549000D01*
X15960000Y33589000D02*
X15557000Y33589000D01*
X18443000Y33589000D02*
X18040000Y33589000D01*
X15960000Y33629000D02*
X15500000Y33629000D01*
X18500000Y33629000D02*
X18040000Y33629000D01*
X15960000Y33669000D02*
X15446000Y33669000D01*
X18554000Y33669000D02*
X18040000Y33669000D01*
X15960000Y33709000D02*
X15395000Y33709000D01*
X18605000Y33709000D02*
X18040000Y33709000D01*
X15960000Y33749000D02*
X15347000Y33749000D01*
X18653000Y33749000D02*
X18040000Y33749000D01*
X15960000Y33789000D02*
X15301000Y33789000D01*
X18699000Y33789000D02*
X18040000Y33789000D01*
X15960000Y33829000D02*
X15257000Y33829000D01*
X18743000Y33829000D02*
X18040000Y33829000D01*
X15960000Y33869000D02*
X15215000Y33869000D01*
X18785000Y33869000D02*
X18040000Y33869000D01*
X15960000Y33909000D02*
X15174000Y33909000D01*
X18826000Y33909000D02*
X18040000Y33909000D01*
X15960000Y33949000D02*
X15136000Y33949000D01*
X18864000Y33949000D02*
X18040000Y33949000D01*
X15960000Y33989000D02*
X15099000Y33989000D01*
X18901000Y33989000D02*
X18040000Y33989000D01*
X15960000Y34029000D02*
X15063000Y34029000D01*
X18937000Y34029000D02*
X18040000Y34029000D01*
X15960000Y34069000D02*
X15029000Y34069000D01*
X18971000Y34069000D02*
X18040000Y34069000D01*
X15960000Y34109000D02*
X14996000Y34109000D01*
X19004000Y34109000D02*
X18040000Y34109000D01*
X15960000Y34149000D02*
X14965000Y34149000D01*
X19035000Y34149000D02*
X18040000Y34149000D01*
X15960000Y34189000D02*
X14935000Y34189000D01*
X19065000Y34189000D02*
X18040000Y34189000D01*
X15960000Y34229000D02*
X14905000Y34229000D01*
X19095000Y34229000D02*
X18040000Y34229000D01*
X15960000Y34269000D02*
X14878000Y34269000D01*
X19122000Y34269000D02*
X18040000Y34269000D01*
X15960000Y34309000D02*
X14851000Y34309000D01*
X19149000Y34309000D02*
X18040000Y34309000D01*
X15960000Y34349000D02*
X14825000Y34349000D01*
X19175000Y34349000D02*
X18040000Y34349000D01*
X15960000Y34389000D02*
X14800000Y34389000D01*
X19200000Y34389000D02*
X18040000Y34389000D01*
X15960000Y34429000D02*
X14776000Y34429000D01*
X19224000Y34429000D02*
X18040000Y34429000D01*
X15960000Y34469000D02*
X14753000Y34469000D01*
X19247000Y34469000D02*
X18040000Y34469000D01*
X15960000Y34509000D02*
X14732000Y34509000D01*
X19268000Y34509000D02*
X18040000Y34509000D01*
X15960000Y34549000D02*
X14710000Y34549000D01*
X19290000Y34549000D02*
X18040000Y34549000D01*
X15960000Y34589000D02*
X14690000Y34589000D01*
X19310000Y34589000D02*
X18040000Y34589000D01*
X15960000Y34629000D02*
X14671000Y34629000D01*
X19329000Y34629000D02*
X18040000Y34629000D01*
X15960000Y34669000D02*
X14652000Y34669000D01*
X19348000Y34669000D02*
X18040000Y34669000D01*
X15960000Y34709000D02*
X14635000Y34709000D01*
X19365000Y34709000D02*
X18040000Y34709000D01*
X15960000Y34749000D02*
X14618000Y34749000D01*
X19382000Y34749000D02*
X18040000Y34749000D01*
X15960000Y34789000D02*
X14602000Y34789000D01*
X19398000Y34789000D02*
X18040000Y34789000D01*
X15960000Y34829000D02*
X14586000Y34829000D01*
X19414000Y34829000D02*
X18040000Y34829000D01*
X15960000Y34869000D02*
X14572000Y34869000D01*
X19428000Y34869000D02*
X18040000Y34869000D01*
X15960000Y34909000D02*
X14558000Y34909000D01*
X19442000Y34909000D02*
X18040000Y34909000D01*
X15960000Y34949000D02*
X14545000Y34949000D01*
X19455000Y34949000D02*
X18040000Y34949000D01*
X15960000Y34989000D02*
X14532000Y34989000D01*
X19468000Y34989000D02*
X18040000Y34989000D01*
X15960000Y35029000D02*
X14520000Y35029000D01*
X19480000Y35029000D02*
X18040000Y35029000D01*
X15960000Y35070000D02*
X14509000Y35070000D01*
X19491000Y35070000D02*
X18040000Y35070000D01*
X15960000Y35110000D02*
X14499000Y35110000D01*
X19501000Y35110000D02*
X18040000Y35110000D01*
X15960000Y35150000D02*
X14489000Y35150000D01*
X19511000Y35150000D02*
X18040000Y35150000D01*
X15960000Y35190000D02*
X14480000Y35190000D01*
X19520000Y35190000D02*
X18040000Y35190000D01*
X15960000Y35230000D02*
X14472000Y35230000D01*
X19528000Y35230000D02*
X18040000Y35230000D01*
X15960000Y35270000D02*
X14464000Y35270000D01*
X19536000Y35270000D02*
X18040000Y35270000D01*
X15960000Y35310000D02*
X14457000Y35310000D01*
X19543000Y35310000D02*
X18040000Y35310000D01*
X15960000Y35350000D02*
X14450000Y35350000D01*
X19550000Y35350000D02*
X18040000Y35350000D01*
X15960000Y35390000D02*
X14444000Y35390000D01*
X19556000Y35390000D02*
X18040000Y35390000D01*
X15960000Y35430000D02*
X14439000Y35430000D01*
X19561000Y35430000D02*
X18040000Y35430000D01*
X15960000Y35470000D02*
X14435000Y35470000D01*
X19565000Y35470000D02*
X18040000Y35470000D01*
X15960000Y35510000D02*
X14431000Y35510000D01*
X19569000Y35510000D02*
X18040000Y35510000D01*
X19573000Y35550000D02*
X14427000Y35550000D01*
X19576000Y35590000D02*
X14424000Y35590000D01*
X19578000Y35630000D02*
X14422000Y35630000D01*
X19579000Y35670000D02*
X14421000Y35670000D01*
X19580000Y35710000D02*
X14420000Y35710000D01*
X19580000Y35750000D02*
X14420000Y35750000D01*
X19620000Y35750000D02*
G75*
G03X19620000Y35750000I-2620000J0D01*
G01*
G04 #@! TO.C,C11*
X49620000Y35750000D02*
G75*
G03X49620000Y35750000I-2620000J0D01*
G01*
X49580000Y35750000D02*
X44420000Y35750000D01*
X49580000Y35710000D02*
X44420000Y35710000D01*
X49579000Y35670000D02*
X44421000Y35670000D01*
X49578000Y35630000D02*
X44422000Y35630000D01*
X49576000Y35590000D02*
X44424000Y35590000D01*
X49573000Y35550000D02*
X44427000Y35550000D01*
X49569000Y35510000D02*
X48040000Y35510000D01*
X45960000Y35510000D02*
X44431000Y35510000D01*
X49565000Y35470000D02*
X48040000Y35470000D01*
X45960000Y35470000D02*
X44435000Y35470000D01*
X49561000Y35430000D02*
X48040000Y35430000D01*
X45960000Y35430000D02*
X44439000Y35430000D01*
X49556000Y35390000D02*
X48040000Y35390000D01*
X45960000Y35390000D02*
X44444000Y35390000D01*
X49550000Y35350000D02*
X48040000Y35350000D01*
X45960000Y35350000D02*
X44450000Y35350000D01*
X49543000Y35310000D02*
X48040000Y35310000D01*
X45960000Y35310000D02*
X44457000Y35310000D01*
X49536000Y35270000D02*
X48040000Y35270000D01*
X45960000Y35270000D02*
X44464000Y35270000D01*
X49528000Y35230000D02*
X48040000Y35230000D01*
X45960000Y35230000D02*
X44472000Y35230000D01*
X49520000Y35190000D02*
X48040000Y35190000D01*
X45960000Y35190000D02*
X44480000Y35190000D01*
X49511000Y35150000D02*
X48040000Y35150000D01*
X45960000Y35150000D02*
X44489000Y35150000D01*
X49501000Y35110000D02*
X48040000Y35110000D01*
X45960000Y35110000D02*
X44499000Y35110000D01*
X49491000Y35070000D02*
X48040000Y35070000D01*
X45960000Y35070000D02*
X44509000Y35070000D01*
X49480000Y35029000D02*
X48040000Y35029000D01*
X45960000Y35029000D02*
X44520000Y35029000D01*
X49468000Y34989000D02*
X48040000Y34989000D01*
X45960000Y34989000D02*
X44532000Y34989000D01*
X49455000Y34949000D02*
X48040000Y34949000D01*
X45960000Y34949000D02*
X44545000Y34949000D01*
X49442000Y34909000D02*
X48040000Y34909000D01*
X45960000Y34909000D02*
X44558000Y34909000D01*
X49428000Y34869000D02*
X48040000Y34869000D01*
X45960000Y34869000D02*
X44572000Y34869000D01*
X49414000Y34829000D02*
X48040000Y34829000D01*
X45960000Y34829000D02*
X44586000Y34829000D01*
X49398000Y34789000D02*
X48040000Y34789000D01*
X45960000Y34789000D02*
X44602000Y34789000D01*
X49382000Y34749000D02*
X48040000Y34749000D01*
X45960000Y34749000D02*
X44618000Y34749000D01*
X49365000Y34709000D02*
X48040000Y34709000D01*
X45960000Y34709000D02*
X44635000Y34709000D01*
X49348000Y34669000D02*
X48040000Y34669000D01*
X45960000Y34669000D02*
X44652000Y34669000D01*
X49329000Y34629000D02*
X48040000Y34629000D01*
X45960000Y34629000D02*
X44671000Y34629000D01*
X49310000Y34589000D02*
X48040000Y34589000D01*
X45960000Y34589000D02*
X44690000Y34589000D01*
X49290000Y34549000D02*
X48040000Y34549000D01*
X45960000Y34549000D02*
X44710000Y34549000D01*
X49268000Y34509000D02*
X48040000Y34509000D01*
X45960000Y34509000D02*
X44732000Y34509000D01*
X49247000Y34469000D02*
X48040000Y34469000D01*
X45960000Y34469000D02*
X44753000Y34469000D01*
X49224000Y34429000D02*
X48040000Y34429000D01*
X45960000Y34429000D02*
X44776000Y34429000D01*
X49200000Y34389000D02*
X48040000Y34389000D01*
X45960000Y34389000D02*
X44800000Y34389000D01*
X49175000Y34349000D02*
X48040000Y34349000D01*
X45960000Y34349000D02*
X44825000Y34349000D01*
X49149000Y34309000D02*
X48040000Y34309000D01*
X45960000Y34309000D02*
X44851000Y34309000D01*
X49122000Y34269000D02*
X48040000Y34269000D01*
X45960000Y34269000D02*
X44878000Y34269000D01*
X49095000Y34229000D02*
X48040000Y34229000D01*
X45960000Y34229000D02*
X44905000Y34229000D01*
X49065000Y34189000D02*
X48040000Y34189000D01*
X45960000Y34189000D02*
X44935000Y34189000D01*
X49035000Y34149000D02*
X48040000Y34149000D01*
X45960000Y34149000D02*
X44965000Y34149000D01*
X49004000Y34109000D02*
X48040000Y34109000D01*
X45960000Y34109000D02*
X44996000Y34109000D01*
X48971000Y34069000D02*
X48040000Y34069000D01*
X45960000Y34069000D02*
X45029000Y34069000D01*
X48937000Y34029000D02*
X48040000Y34029000D01*
X45960000Y34029000D02*
X45063000Y34029000D01*
X48901000Y33989000D02*
X48040000Y33989000D01*
X45960000Y33989000D02*
X45099000Y33989000D01*
X48864000Y33949000D02*
X48040000Y33949000D01*
X45960000Y33949000D02*
X45136000Y33949000D01*
X48826000Y33909000D02*
X48040000Y33909000D01*
X45960000Y33909000D02*
X45174000Y33909000D01*
X48785000Y33869000D02*
X48040000Y33869000D01*
X45960000Y33869000D02*
X45215000Y33869000D01*
X48743000Y33829000D02*
X48040000Y33829000D01*
X45960000Y33829000D02*
X45257000Y33829000D01*
X48699000Y33789000D02*
X48040000Y33789000D01*
X45960000Y33789000D02*
X45301000Y33789000D01*
X48653000Y33749000D02*
X48040000Y33749000D01*
X45960000Y33749000D02*
X45347000Y33749000D01*
X48605000Y33709000D02*
X48040000Y33709000D01*
X45960000Y33709000D02*
X45395000Y33709000D01*
X48554000Y33669000D02*
X48040000Y33669000D01*
X45960000Y33669000D02*
X45446000Y33669000D01*
X48500000Y33629000D02*
X48040000Y33629000D01*
X45960000Y33629000D02*
X45500000Y33629000D01*
X48443000Y33589000D02*
X48040000Y33589000D01*
X45960000Y33589000D02*
X45557000Y33589000D01*
X48383000Y33549000D02*
X48040000Y33549000D01*
X45960000Y33549000D02*
X45617000Y33549000D01*
X48319000Y33509000D02*
X48040000Y33509000D01*
X45960000Y33509000D02*
X45681000Y33509000D01*
X48251000Y33469000D02*
X48040000Y33469000D01*
X45960000Y33469000D02*
X45749000Y33469000D01*
X48178000Y33429000D02*
X45822000Y33429000D01*
X48098000Y33389000D02*
X45902000Y33389000D01*
X48011000Y33349000D02*
X45989000Y33349000D01*
X47915000Y33309000D02*
X46085000Y33309000D01*
X47805000Y33269000D02*
X46195000Y33269000D01*
X47677000Y33229000D02*
X46323000Y33229000D01*
X47518000Y33189000D02*
X46482000Y33189000D01*
X47284000Y33149000D02*
X46716000Y33149000D01*
X48475000Y38554775D02*
X48475000Y38054775D01*
X48725000Y38304775D02*
X48225000Y38304775D01*
G04 #@! TO.C,C15*
X68870000Y25000000D02*
G75*
G03X68870000Y25000000I-8120000J0D01*
G01*
X60750000Y33081000D02*
X60750000Y16919000D01*
X60790000Y33080000D02*
X60790000Y16920000D01*
X60830000Y33080000D02*
X60830000Y16920000D01*
X60870000Y33080000D02*
X60870000Y16920000D01*
X60910000Y33079000D02*
X60910000Y16921000D01*
X60950000Y33078000D02*
X60950000Y16922000D01*
X60990000Y33077000D02*
X60990000Y16923000D01*
X61030000Y33076000D02*
X61030000Y16924000D01*
X61070000Y33074000D02*
X61070000Y16926000D01*
X61110000Y33073000D02*
X61110000Y16927000D01*
X61150000Y33071000D02*
X61150000Y16929000D01*
X61190000Y33069000D02*
X61190000Y16931000D01*
X61230000Y33066000D02*
X61230000Y16934000D01*
X61270000Y33064000D02*
X61270000Y16936000D01*
X61310000Y33061000D02*
X61310000Y16939000D01*
X61350000Y33058000D02*
X61350000Y16942000D01*
X61390000Y33055000D02*
X61390000Y16945000D01*
X61430000Y33052000D02*
X61430000Y16948000D01*
X61471000Y33049000D02*
X61471000Y16951000D01*
X61511000Y33045000D02*
X61511000Y16955000D01*
X61551000Y33041000D02*
X61551000Y16959000D01*
X61591000Y33037000D02*
X61591000Y16963000D01*
X61631000Y33033000D02*
X61631000Y16967000D01*
X61671000Y33028000D02*
X61671000Y16972000D01*
X61711000Y33024000D02*
X61711000Y16976000D01*
X61751000Y33019000D02*
X61751000Y16981000D01*
X61791000Y33014000D02*
X61791000Y16986000D01*
X61831000Y33008000D02*
X61831000Y16992000D01*
X61871000Y33003000D02*
X61871000Y16997000D01*
X61911000Y32997000D02*
X61911000Y17003000D01*
X61951000Y32991000D02*
X61951000Y17009000D01*
X61991000Y32985000D02*
X61991000Y17015000D01*
X62031000Y32979000D02*
X62031000Y17021000D01*
X62071000Y32972000D02*
X62071000Y17028000D01*
X62111000Y32966000D02*
X62111000Y17034000D01*
X62151000Y32959000D02*
X62151000Y17041000D01*
X62191000Y32952000D02*
X62191000Y17048000D01*
X62231000Y32944000D02*
X62231000Y17056000D01*
X62271000Y32937000D02*
X62271000Y17063000D01*
X62311000Y32929000D02*
X62311000Y17071000D01*
X62351000Y32921000D02*
X62351000Y17079000D01*
X62391000Y32913000D02*
X62391000Y17087000D01*
X62431000Y32905000D02*
X62431000Y17095000D01*
X62471000Y32896000D02*
X62471000Y17104000D01*
X62511000Y32887000D02*
X62511000Y17113000D01*
X62551000Y32878000D02*
X62551000Y17122000D01*
X62591000Y32869000D02*
X62591000Y17131000D01*
X62631000Y32860000D02*
X62631000Y17140000D01*
X62671000Y32850000D02*
X62671000Y17150000D01*
X62711000Y32840000D02*
X62711000Y17160000D01*
X62751000Y32830000D02*
X62751000Y17170000D01*
X62791000Y32820000D02*
X62791000Y17180000D01*
X62831000Y32810000D02*
X62831000Y17190000D01*
X62871000Y32799000D02*
X62871000Y17201000D01*
X62911000Y32788000D02*
X62911000Y17212000D01*
X62951000Y32777000D02*
X62951000Y17223000D01*
X62991000Y32765000D02*
X62991000Y17235000D01*
X63031000Y32754000D02*
X63031000Y17246000D01*
X63071000Y32742000D02*
X63071000Y26440000D01*
X63071000Y23560000D02*
X63071000Y17258000D01*
X63111000Y32730000D02*
X63111000Y26440000D01*
X63111000Y23560000D02*
X63111000Y17270000D01*
X63151000Y32718000D02*
X63151000Y26440000D01*
X63151000Y23560000D02*
X63151000Y17282000D01*
X63191000Y32705000D02*
X63191000Y26440000D01*
X63191000Y23560000D02*
X63191000Y17295000D01*
X63231000Y32693000D02*
X63231000Y26440000D01*
X63231000Y23560000D02*
X63231000Y17307000D01*
X63271000Y32680000D02*
X63271000Y26440000D01*
X63271000Y23560000D02*
X63271000Y17320000D01*
X63311000Y32666000D02*
X63311000Y26440000D01*
X63311000Y23560000D02*
X63311000Y17334000D01*
X63351000Y32653000D02*
X63351000Y26440000D01*
X63351000Y23560000D02*
X63351000Y17347000D01*
X63391000Y32639000D02*
X63391000Y26440000D01*
X63391000Y23560000D02*
X63391000Y17361000D01*
X63431000Y32625000D02*
X63431000Y26440000D01*
X63431000Y23560000D02*
X63431000Y17375000D01*
X63471000Y32611000D02*
X63471000Y26440000D01*
X63471000Y23560000D02*
X63471000Y17389000D01*
X63511000Y32597000D02*
X63511000Y26440000D01*
X63511000Y23560000D02*
X63511000Y17403000D01*
X63551000Y32582000D02*
X63551000Y26440000D01*
X63551000Y23560000D02*
X63551000Y17418000D01*
X63591000Y32568000D02*
X63591000Y26440000D01*
X63591000Y23560000D02*
X63591000Y17432000D01*
X63631000Y32553000D02*
X63631000Y26440000D01*
X63631000Y23560000D02*
X63631000Y17447000D01*
X63671000Y32537000D02*
X63671000Y26440000D01*
X63671000Y23560000D02*
X63671000Y17463000D01*
X63711000Y32522000D02*
X63711000Y26440000D01*
X63711000Y23560000D02*
X63711000Y17478000D01*
X63751000Y32506000D02*
X63751000Y26440000D01*
X63751000Y23560000D02*
X63751000Y17494000D01*
X63791000Y32490000D02*
X63791000Y26440000D01*
X63791000Y23560000D02*
X63791000Y17510000D01*
X63831000Y32474000D02*
X63831000Y26440000D01*
X63831000Y23560000D02*
X63831000Y17526000D01*
X63871000Y32457000D02*
X63871000Y26440000D01*
X63871000Y23560000D02*
X63871000Y17543000D01*
X63911000Y32440000D02*
X63911000Y26440000D01*
X63911000Y23560000D02*
X63911000Y17560000D01*
X63951000Y32423000D02*
X63951000Y26440000D01*
X63951000Y23560000D02*
X63951000Y17577000D01*
X63991000Y32406000D02*
X63991000Y26440000D01*
X63991000Y23560000D02*
X63991000Y17594000D01*
X64031000Y32389000D02*
X64031000Y26440000D01*
X64031000Y23560000D02*
X64031000Y17611000D01*
X64071000Y32371000D02*
X64071000Y26440000D01*
X64071000Y23560000D02*
X64071000Y17629000D01*
X64111000Y32353000D02*
X64111000Y26440000D01*
X64111000Y23560000D02*
X64111000Y17647000D01*
X64151000Y32334000D02*
X64151000Y26440000D01*
X64151000Y23560000D02*
X64151000Y17666000D01*
X64191000Y32316000D02*
X64191000Y26440000D01*
X64191000Y23560000D02*
X64191000Y17684000D01*
X64231000Y32297000D02*
X64231000Y26440000D01*
X64231000Y23560000D02*
X64231000Y17703000D01*
X64271000Y32278000D02*
X64271000Y26440000D01*
X64271000Y23560000D02*
X64271000Y17722000D01*
X64311000Y32258000D02*
X64311000Y26440000D01*
X64311000Y23560000D02*
X64311000Y17742000D01*
X64351000Y32239000D02*
X64351000Y26440000D01*
X64351000Y23560000D02*
X64351000Y17761000D01*
X64391000Y32219000D02*
X64391000Y26440000D01*
X64391000Y23560000D02*
X64391000Y17781000D01*
X64431000Y32199000D02*
X64431000Y26440000D01*
X64431000Y23560000D02*
X64431000Y17801000D01*
X64471000Y32178000D02*
X64471000Y26440000D01*
X64471000Y23560000D02*
X64471000Y17822000D01*
X64511000Y32157000D02*
X64511000Y26440000D01*
X64511000Y23560000D02*
X64511000Y17843000D01*
X64551000Y32136000D02*
X64551000Y26440000D01*
X64551000Y23560000D02*
X64551000Y17864000D01*
X64591000Y32115000D02*
X64591000Y26440000D01*
X64591000Y23560000D02*
X64591000Y17885000D01*
X64631000Y32094000D02*
X64631000Y26440000D01*
X64631000Y23560000D02*
X64631000Y17906000D01*
X64671000Y32072000D02*
X64671000Y26440000D01*
X64671000Y23560000D02*
X64671000Y17928000D01*
X64711000Y32049000D02*
X64711000Y26440000D01*
X64711000Y23560000D02*
X64711000Y17951000D01*
X64751000Y32027000D02*
X64751000Y26440000D01*
X64751000Y23560000D02*
X64751000Y17973000D01*
X64791000Y32004000D02*
X64791000Y26440000D01*
X64791000Y23560000D02*
X64791000Y17996000D01*
X64831000Y31981000D02*
X64831000Y26440000D01*
X64831000Y23560000D02*
X64831000Y18019000D01*
X64871000Y31958000D02*
X64871000Y26440000D01*
X64871000Y23560000D02*
X64871000Y18042000D01*
X64911000Y31934000D02*
X64911000Y26440000D01*
X64911000Y23560000D02*
X64911000Y18066000D01*
X64951000Y31910000D02*
X64951000Y26440000D01*
X64951000Y23560000D02*
X64951000Y18090000D01*
X64991000Y31886000D02*
X64991000Y26440000D01*
X64991000Y23560000D02*
X64991000Y18114000D01*
X65031000Y31861000D02*
X65031000Y26440000D01*
X65031000Y23560000D02*
X65031000Y18139000D01*
X65071000Y31836000D02*
X65071000Y26440000D01*
X65071000Y23560000D02*
X65071000Y18164000D01*
X65111000Y31811000D02*
X65111000Y26440000D01*
X65111000Y23560000D02*
X65111000Y18189000D01*
X65151000Y31785000D02*
X65151000Y26440000D01*
X65151000Y23560000D02*
X65151000Y18215000D01*
X65191000Y31759000D02*
X65191000Y26440000D01*
X65191000Y23560000D02*
X65191000Y18241000D01*
X65231000Y31733000D02*
X65231000Y26440000D01*
X65231000Y23560000D02*
X65231000Y18267000D01*
X65271000Y31706000D02*
X65271000Y26440000D01*
X65271000Y23560000D02*
X65271000Y18294000D01*
X65311000Y31679000D02*
X65311000Y26440000D01*
X65311000Y23560000D02*
X65311000Y18321000D01*
X65351000Y31652000D02*
X65351000Y26440000D01*
X65351000Y23560000D02*
X65351000Y18348000D01*
X65391000Y31624000D02*
X65391000Y26440000D01*
X65391000Y23560000D02*
X65391000Y18376000D01*
X65431000Y31596000D02*
X65431000Y26440000D01*
X65431000Y23560000D02*
X65431000Y18404000D01*
X65471000Y31568000D02*
X65471000Y26440000D01*
X65471000Y23560000D02*
X65471000Y18432000D01*
X65511000Y31539000D02*
X65511000Y26440000D01*
X65511000Y23560000D02*
X65511000Y18461000D01*
X65551000Y31510000D02*
X65551000Y26440000D01*
X65551000Y23560000D02*
X65551000Y18490000D01*
X65591000Y31480000D02*
X65591000Y26440000D01*
X65591000Y23560000D02*
X65591000Y18520000D01*
X65631000Y31450000D02*
X65631000Y26440000D01*
X65631000Y23560000D02*
X65631000Y18550000D01*
X65671000Y31420000D02*
X65671000Y26440000D01*
X65671000Y23560000D02*
X65671000Y18580000D01*
X65711000Y31390000D02*
X65711000Y26440000D01*
X65711000Y23560000D02*
X65711000Y18610000D01*
X65751000Y31358000D02*
X65751000Y26440000D01*
X65751000Y23560000D02*
X65751000Y18642000D01*
X65791000Y31327000D02*
X65791000Y26440000D01*
X65791000Y23560000D02*
X65791000Y18673000D01*
X65831000Y31295000D02*
X65831000Y26440000D01*
X65831000Y23560000D02*
X65831000Y18705000D01*
X65871000Y31263000D02*
X65871000Y26440000D01*
X65871000Y23560000D02*
X65871000Y18737000D01*
X65911000Y31230000D02*
X65911000Y26440000D01*
X65911000Y23560000D02*
X65911000Y18770000D01*
X65951000Y31197000D02*
X65951000Y18803000D01*
X65991000Y31163000D02*
X65991000Y18837000D01*
X66031000Y31129000D02*
X66031000Y18871000D01*
X66071000Y31095000D02*
X66071000Y18905000D01*
X66111000Y31060000D02*
X66111000Y18940000D01*
X66151000Y31025000D02*
X66151000Y18975000D01*
X66191000Y30989000D02*
X66191000Y19011000D01*
X66231000Y30952000D02*
X66231000Y19048000D01*
X66271000Y30916000D02*
X66271000Y19084000D01*
X66311000Y30878000D02*
X66311000Y19122000D01*
X66351000Y30840000D02*
X66351000Y19160000D01*
X66391000Y30802000D02*
X66391000Y19198000D01*
X66431000Y30763000D02*
X66431000Y19237000D01*
X66471000Y30724000D02*
X66471000Y19276000D01*
X66511000Y30684000D02*
X66511000Y19316000D01*
X66551000Y30643000D02*
X66551000Y19357000D01*
X66591000Y30602000D02*
X66591000Y19398000D01*
X66631000Y30560000D02*
X66631000Y19440000D01*
X66671000Y30518000D02*
X66671000Y19482000D01*
X66711000Y30475000D02*
X66711000Y19525000D01*
X66751000Y30432000D02*
X66751000Y19568000D01*
X66791000Y30388000D02*
X66791000Y19612000D01*
X66831000Y30343000D02*
X66831000Y19657000D01*
X66871000Y30297000D02*
X66871000Y19703000D01*
X66911000Y30251000D02*
X66911000Y19749000D01*
X66951000Y30204000D02*
X66951000Y19796000D01*
X66991000Y30156000D02*
X66991000Y19844000D01*
X67031000Y30108000D02*
X67031000Y19892000D01*
X67071000Y30059000D02*
X67071000Y19941000D01*
X67111000Y30009000D02*
X67111000Y19991000D01*
X67151000Y29958000D02*
X67151000Y20042000D01*
X67191000Y29906000D02*
X67191000Y20094000D01*
X67231000Y29854000D02*
X67231000Y20146000D01*
X67271000Y29800000D02*
X67271000Y20200000D01*
X67311000Y29746000D02*
X67311000Y20254000D01*
X67351000Y29691000D02*
X67351000Y20309000D01*
X67391000Y29634000D02*
X67391000Y20366000D01*
X67431000Y29577000D02*
X67431000Y20423000D01*
X67471000Y29519000D02*
X67471000Y20481000D01*
X67511000Y29459000D02*
X67511000Y20541000D01*
X67551000Y29398000D02*
X67551000Y20602000D01*
X67591000Y29336000D02*
X67591000Y20664000D01*
X67631000Y29273000D02*
X67631000Y20727000D01*
X67671000Y29209000D02*
X67671000Y20791000D01*
X67711000Y29143000D02*
X67711000Y20857000D01*
X67751000Y29076000D02*
X67751000Y20924000D01*
X67791000Y29007000D02*
X67791000Y20993000D01*
X67831000Y28936000D02*
X67831000Y21064000D01*
X67871000Y28864000D02*
X67871000Y21136000D01*
X67911000Y28790000D02*
X67911000Y21210000D01*
X67951000Y28715000D02*
X67951000Y21285000D01*
X67991000Y28637000D02*
X67991000Y21363000D01*
X68031000Y28557000D02*
X68031000Y21443000D01*
X68071000Y28475000D02*
X68071000Y21525000D01*
X68111000Y28390000D02*
X68111000Y21610000D01*
X68151000Y28303000D02*
X68151000Y21697000D01*
X68191000Y28213000D02*
X68191000Y21787000D01*
X68231000Y28120000D02*
X68231000Y21880000D01*
X68271000Y28024000D02*
X68271000Y21976000D01*
X68311000Y27924000D02*
X68311000Y22076000D01*
X68351000Y27820000D02*
X68351000Y22180000D01*
X68391000Y27711000D02*
X68391000Y22289000D01*
X68431000Y27597000D02*
X68431000Y22403000D01*
X68471000Y27478000D02*
X68471000Y22522000D01*
X68511000Y27351000D02*
X68511000Y22649000D01*
X68551000Y27218000D02*
X68551000Y22782000D01*
X68591000Y27074000D02*
X68591000Y22926000D01*
X68631000Y26920000D02*
X68631000Y23080000D01*
X68671000Y26752000D02*
X68671000Y23248000D01*
X68711000Y26564000D02*
X68711000Y23436000D01*
X68751000Y26351000D02*
X68751000Y23649000D01*
X68791000Y26098000D02*
X68791000Y23902000D01*
X68831000Y25765000D02*
X68831000Y24235000D01*
X52060509Y29555000D02*
X53660509Y29555000D01*
X52860509Y30355000D02*
X52860509Y28755000D01*
G04 #@! TO.C,C16*
X17139491Y19645000D02*
X17139491Y21245000D01*
X17939491Y20445000D02*
X16339491Y20445000D01*
X1169000Y24235000D02*
X1169000Y25765000D01*
X1209000Y23902000D02*
X1209000Y26098000D01*
X1249000Y23649000D02*
X1249000Y26351000D01*
X1289000Y23436000D02*
X1289000Y26564000D01*
X1329000Y23248000D02*
X1329000Y26752000D01*
X1369000Y23080000D02*
X1369000Y26920000D01*
X1409000Y22926000D02*
X1409000Y27074000D01*
X1449000Y22782000D02*
X1449000Y27218000D01*
X1489000Y22649000D02*
X1489000Y27351000D01*
X1529000Y22522000D02*
X1529000Y27478000D01*
X1569000Y22403000D02*
X1569000Y27597000D01*
X1609000Y22289000D02*
X1609000Y27711000D01*
X1649000Y22180000D02*
X1649000Y27820000D01*
X1689000Y22076000D02*
X1689000Y27924000D01*
X1729000Y21976000D02*
X1729000Y28024000D01*
X1769000Y21880000D02*
X1769000Y28120000D01*
X1809000Y21787000D02*
X1809000Y28213000D01*
X1849000Y21697000D02*
X1849000Y28303000D01*
X1889000Y21610000D02*
X1889000Y28390000D01*
X1929000Y21525000D02*
X1929000Y28475000D01*
X1969000Y21443000D02*
X1969000Y28557000D01*
X2009000Y21363000D02*
X2009000Y28637000D01*
X2049000Y21285000D02*
X2049000Y28715000D01*
X2089000Y21210000D02*
X2089000Y28790000D01*
X2129000Y21136000D02*
X2129000Y28864000D01*
X2169000Y21064000D02*
X2169000Y28936000D01*
X2209000Y20993000D02*
X2209000Y29007000D01*
X2249000Y20924000D02*
X2249000Y29076000D01*
X2289000Y20857000D02*
X2289000Y29143000D01*
X2329000Y20791000D02*
X2329000Y29209000D01*
X2369000Y20727000D02*
X2369000Y29273000D01*
X2409000Y20664000D02*
X2409000Y29336000D01*
X2449000Y20602000D02*
X2449000Y29398000D01*
X2489000Y20541000D02*
X2489000Y29459000D01*
X2529000Y20481000D02*
X2529000Y29519000D01*
X2569000Y20423000D02*
X2569000Y29577000D01*
X2609000Y20366000D02*
X2609000Y29634000D01*
X2649000Y20309000D02*
X2649000Y29691000D01*
X2689000Y20254000D02*
X2689000Y29746000D01*
X2729000Y20200000D02*
X2729000Y29800000D01*
X2769000Y20146000D02*
X2769000Y29854000D01*
X2809000Y20094000D02*
X2809000Y29906000D01*
X2849000Y20042000D02*
X2849000Y29958000D01*
X2889000Y19991000D02*
X2889000Y30009000D01*
X2929000Y19941000D02*
X2929000Y30059000D01*
X2969000Y19892000D02*
X2969000Y30108000D01*
X3009000Y19844000D02*
X3009000Y30156000D01*
X3049000Y19796000D02*
X3049000Y30204000D01*
X3089000Y19749000D02*
X3089000Y30251000D01*
X3129000Y19703000D02*
X3129000Y30297000D01*
X3169000Y19657000D02*
X3169000Y30343000D01*
X3209000Y19612000D02*
X3209000Y30388000D01*
X3249000Y19568000D02*
X3249000Y30432000D01*
X3289000Y19525000D02*
X3289000Y30475000D01*
X3329000Y19482000D02*
X3329000Y30518000D01*
X3369000Y19440000D02*
X3369000Y30560000D01*
X3409000Y19398000D02*
X3409000Y30602000D01*
X3449000Y19357000D02*
X3449000Y30643000D01*
X3489000Y19316000D02*
X3489000Y30684000D01*
X3529000Y19276000D02*
X3529000Y30724000D01*
X3569000Y19237000D02*
X3569000Y30763000D01*
X3609000Y19198000D02*
X3609000Y30802000D01*
X3649000Y19160000D02*
X3649000Y30840000D01*
X3689000Y19122000D02*
X3689000Y30878000D01*
X3729000Y19084000D02*
X3729000Y30916000D01*
X3769000Y19048000D02*
X3769000Y30952000D01*
X3809000Y19011000D02*
X3809000Y30989000D01*
X3849000Y18975000D02*
X3849000Y31025000D01*
X3889000Y18940000D02*
X3889000Y31060000D01*
X3929000Y18905000D02*
X3929000Y31095000D01*
X3969000Y18871000D02*
X3969000Y31129000D01*
X4009000Y18837000D02*
X4009000Y31163000D01*
X4049000Y18803000D02*
X4049000Y31197000D01*
X4089000Y26440000D02*
X4089000Y31230000D01*
X4089000Y18770000D02*
X4089000Y23560000D01*
X4129000Y26440000D02*
X4129000Y31263000D01*
X4129000Y18737000D02*
X4129000Y23560000D01*
X4169000Y26440000D02*
X4169000Y31295000D01*
X4169000Y18705000D02*
X4169000Y23560000D01*
X4209000Y26440000D02*
X4209000Y31327000D01*
X4209000Y18673000D02*
X4209000Y23560000D01*
X4249000Y26440000D02*
X4249000Y31358000D01*
X4249000Y18642000D02*
X4249000Y23560000D01*
X4289000Y26440000D02*
X4289000Y31390000D01*
X4289000Y18610000D02*
X4289000Y23560000D01*
X4329000Y26440000D02*
X4329000Y31420000D01*
X4329000Y18580000D02*
X4329000Y23560000D01*
X4369000Y26440000D02*
X4369000Y31450000D01*
X4369000Y18550000D02*
X4369000Y23560000D01*
X4409000Y26440000D02*
X4409000Y31480000D01*
X4409000Y18520000D02*
X4409000Y23560000D01*
X4449000Y26440000D02*
X4449000Y31510000D01*
X4449000Y18490000D02*
X4449000Y23560000D01*
X4489000Y26440000D02*
X4489000Y31539000D01*
X4489000Y18461000D02*
X4489000Y23560000D01*
X4529000Y26440000D02*
X4529000Y31568000D01*
X4529000Y18432000D02*
X4529000Y23560000D01*
X4569000Y26440000D02*
X4569000Y31596000D01*
X4569000Y18404000D02*
X4569000Y23560000D01*
X4609000Y26440000D02*
X4609000Y31624000D01*
X4609000Y18376000D02*
X4609000Y23560000D01*
X4649000Y26440000D02*
X4649000Y31652000D01*
X4649000Y18348000D02*
X4649000Y23560000D01*
X4689000Y26440000D02*
X4689000Y31679000D01*
X4689000Y18321000D02*
X4689000Y23560000D01*
X4729000Y26440000D02*
X4729000Y31706000D01*
X4729000Y18294000D02*
X4729000Y23560000D01*
X4769000Y26440000D02*
X4769000Y31733000D01*
X4769000Y18267000D02*
X4769000Y23560000D01*
X4809000Y26440000D02*
X4809000Y31759000D01*
X4809000Y18241000D02*
X4809000Y23560000D01*
X4849000Y26440000D02*
X4849000Y31785000D01*
X4849000Y18215000D02*
X4849000Y23560000D01*
X4889000Y26440000D02*
X4889000Y31811000D01*
X4889000Y18189000D02*
X4889000Y23560000D01*
X4929000Y26440000D02*
X4929000Y31836000D01*
X4929000Y18164000D02*
X4929000Y23560000D01*
X4969000Y26440000D02*
X4969000Y31861000D01*
X4969000Y18139000D02*
X4969000Y23560000D01*
X5009000Y26440000D02*
X5009000Y31886000D01*
X5009000Y18114000D02*
X5009000Y23560000D01*
X5049000Y26440000D02*
X5049000Y31910000D01*
X5049000Y18090000D02*
X5049000Y23560000D01*
X5089000Y26440000D02*
X5089000Y31934000D01*
X5089000Y18066000D02*
X5089000Y23560000D01*
X5129000Y26440000D02*
X5129000Y31958000D01*
X5129000Y18042000D02*
X5129000Y23560000D01*
X5169000Y26440000D02*
X5169000Y31981000D01*
X5169000Y18019000D02*
X5169000Y23560000D01*
X5209000Y26440000D02*
X5209000Y32004000D01*
X5209000Y17996000D02*
X5209000Y23560000D01*
X5249000Y26440000D02*
X5249000Y32027000D01*
X5249000Y17973000D02*
X5249000Y23560000D01*
X5289000Y26440000D02*
X5289000Y32049000D01*
X5289000Y17951000D02*
X5289000Y23560000D01*
X5329000Y26440000D02*
X5329000Y32072000D01*
X5329000Y17928000D02*
X5329000Y23560000D01*
X5369000Y26440000D02*
X5369000Y32094000D01*
X5369000Y17906000D02*
X5369000Y23560000D01*
X5409000Y26440000D02*
X5409000Y32115000D01*
X5409000Y17885000D02*
X5409000Y23560000D01*
X5449000Y26440000D02*
X5449000Y32136000D01*
X5449000Y17864000D02*
X5449000Y23560000D01*
X5489000Y26440000D02*
X5489000Y32157000D01*
X5489000Y17843000D02*
X5489000Y23560000D01*
X5529000Y26440000D02*
X5529000Y32178000D01*
X5529000Y17822000D02*
X5529000Y23560000D01*
X5569000Y26440000D02*
X5569000Y32199000D01*
X5569000Y17801000D02*
X5569000Y23560000D01*
X5609000Y26440000D02*
X5609000Y32219000D01*
X5609000Y17781000D02*
X5609000Y23560000D01*
X5649000Y26440000D02*
X5649000Y32239000D01*
X5649000Y17761000D02*
X5649000Y23560000D01*
X5689000Y26440000D02*
X5689000Y32258000D01*
X5689000Y17742000D02*
X5689000Y23560000D01*
X5729000Y26440000D02*
X5729000Y32278000D01*
X5729000Y17722000D02*
X5729000Y23560000D01*
X5769000Y26440000D02*
X5769000Y32297000D01*
X5769000Y17703000D02*
X5769000Y23560000D01*
X5809000Y26440000D02*
X5809000Y32316000D01*
X5809000Y17684000D02*
X5809000Y23560000D01*
X5849000Y26440000D02*
X5849000Y32334000D01*
X5849000Y17666000D02*
X5849000Y23560000D01*
X5889000Y26440000D02*
X5889000Y32353000D01*
X5889000Y17647000D02*
X5889000Y23560000D01*
X5929000Y26440000D02*
X5929000Y32371000D01*
X5929000Y17629000D02*
X5929000Y23560000D01*
X5969000Y26440000D02*
X5969000Y32389000D01*
X5969000Y17611000D02*
X5969000Y23560000D01*
X6009000Y26440000D02*
X6009000Y32406000D01*
X6009000Y17594000D02*
X6009000Y23560000D01*
X6049000Y26440000D02*
X6049000Y32423000D01*
X6049000Y17577000D02*
X6049000Y23560000D01*
X6089000Y26440000D02*
X6089000Y32440000D01*
X6089000Y17560000D02*
X6089000Y23560000D01*
X6129000Y26440000D02*
X6129000Y32457000D01*
X6129000Y17543000D02*
X6129000Y23560000D01*
X6169000Y26440000D02*
X6169000Y32474000D01*
X6169000Y17526000D02*
X6169000Y23560000D01*
X6209000Y26440000D02*
X6209000Y32490000D01*
X6209000Y17510000D02*
X6209000Y23560000D01*
X6249000Y26440000D02*
X6249000Y32506000D01*
X6249000Y17494000D02*
X6249000Y23560000D01*
X6289000Y26440000D02*
X6289000Y32522000D01*
X6289000Y17478000D02*
X6289000Y23560000D01*
X6329000Y26440000D02*
X6329000Y32537000D01*
X6329000Y17463000D02*
X6329000Y23560000D01*
X6369000Y26440000D02*
X6369000Y32553000D01*
X6369000Y17447000D02*
X6369000Y23560000D01*
X6409000Y26440000D02*
X6409000Y32568000D01*
X6409000Y17432000D02*
X6409000Y23560000D01*
X6449000Y26440000D02*
X6449000Y32582000D01*
X6449000Y17418000D02*
X6449000Y23560000D01*
X6489000Y26440000D02*
X6489000Y32597000D01*
X6489000Y17403000D02*
X6489000Y23560000D01*
X6529000Y26440000D02*
X6529000Y32611000D01*
X6529000Y17389000D02*
X6529000Y23560000D01*
X6569000Y26440000D02*
X6569000Y32625000D01*
X6569000Y17375000D02*
X6569000Y23560000D01*
X6609000Y26440000D02*
X6609000Y32639000D01*
X6609000Y17361000D02*
X6609000Y23560000D01*
X6649000Y26440000D02*
X6649000Y32653000D01*
X6649000Y17347000D02*
X6649000Y23560000D01*
X6689000Y26440000D02*
X6689000Y32666000D01*
X6689000Y17334000D02*
X6689000Y23560000D01*
X6729000Y26440000D02*
X6729000Y32680000D01*
X6729000Y17320000D02*
X6729000Y23560000D01*
X6769000Y26440000D02*
X6769000Y32693000D01*
X6769000Y17307000D02*
X6769000Y23560000D01*
X6809000Y26440000D02*
X6809000Y32705000D01*
X6809000Y17295000D02*
X6809000Y23560000D01*
X6849000Y26440000D02*
X6849000Y32718000D01*
X6849000Y17282000D02*
X6849000Y23560000D01*
X6889000Y26440000D02*
X6889000Y32730000D01*
X6889000Y17270000D02*
X6889000Y23560000D01*
X6929000Y26440000D02*
X6929000Y32742000D01*
X6929000Y17258000D02*
X6929000Y23560000D01*
X6969000Y17246000D02*
X6969000Y32754000D01*
X7009000Y17235000D02*
X7009000Y32765000D01*
X7049000Y17223000D02*
X7049000Y32777000D01*
X7089000Y17212000D02*
X7089000Y32788000D01*
X7129000Y17201000D02*
X7129000Y32799000D01*
X7169000Y17190000D02*
X7169000Y32810000D01*
X7209000Y17180000D02*
X7209000Y32820000D01*
X7249000Y17170000D02*
X7249000Y32830000D01*
X7289000Y17160000D02*
X7289000Y32840000D01*
X7329000Y17150000D02*
X7329000Y32850000D01*
X7369000Y17140000D02*
X7369000Y32860000D01*
X7409000Y17131000D02*
X7409000Y32869000D01*
X7449000Y17122000D02*
X7449000Y32878000D01*
X7489000Y17113000D02*
X7489000Y32887000D01*
X7529000Y17104000D02*
X7529000Y32896000D01*
X7569000Y17095000D02*
X7569000Y32905000D01*
X7609000Y17087000D02*
X7609000Y32913000D01*
X7649000Y17079000D02*
X7649000Y32921000D01*
X7689000Y17071000D02*
X7689000Y32929000D01*
X7729000Y17063000D02*
X7729000Y32937000D01*
X7769000Y17056000D02*
X7769000Y32944000D01*
X7809000Y17048000D02*
X7809000Y32952000D01*
X7849000Y17041000D02*
X7849000Y32959000D01*
X7889000Y17034000D02*
X7889000Y32966000D01*
X7929000Y17028000D02*
X7929000Y32972000D01*
X7969000Y17021000D02*
X7969000Y32979000D01*
X8009000Y17015000D02*
X8009000Y32985000D01*
X8049000Y17009000D02*
X8049000Y32991000D01*
X8089000Y17003000D02*
X8089000Y32997000D01*
X8129000Y16997000D02*
X8129000Y33003000D01*
X8169000Y16992000D02*
X8169000Y33008000D01*
X8209000Y16986000D02*
X8209000Y33014000D01*
X8249000Y16981000D02*
X8249000Y33019000D01*
X8289000Y16976000D02*
X8289000Y33024000D01*
X8329000Y16972000D02*
X8329000Y33028000D01*
X8369000Y16967000D02*
X8369000Y33033000D01*
X8409000Y16963000D02*
X8409000Y33037000D01*
X8449000Y16959000D02*
X8449000Y33041000D01*
X8489000Y16955000D02*
X8489000Y33045000D01*
X8529000Y16951000D02*
X8529000Y33049000D01*
X8570000Y16948000D02*
X8570000Y33052000D01*
X8610000Y16945000D02*
X8610000Y33055000D01*
X8650000Y16942000D02*
X8650000Y33058000D01*
X8690000Y16939000D02*
X8690000Y33061000D01*
X8730000Y16936000D02*
X8730000Y33064000D01*
X8770000Y16934000D02*
X8770000Y33066000D01*
X8810000Y16931000D02*
X8810000Y33069000D01*
X8850000Y16929000D02*
X8850000Y33071000D01*
X8890000Y16927000D02*
X8890000Y33073000D01*
X8930000Y16926000D02*
X8930000Y33074000D01*
X8970000Y16924000D02*
X8970000Y33076000D01*
X9010000Y16923000D02*
X9010000Y33077000D01*
X9050000Y16922000D02*
X9050000Y33078000D01*
X9090000Y16921000D02*
X9090000Y33079000D01*
X9130000Y16920000D02*
X9130000Y33080000D01*
X9170000Y16920000D02*
X9170000Y33080000D01*
X9210000Y16920000D02*
X9210000Y33080000D01*
X9250000Y16919000D02*
X9250000Y33081000D01*
X17370000Y25000000D02*
G75*
G03X17370000Y25000000I-8120000J0D01*
G01*
G04 #@! TO.C,C19*
X46870000Y14000000D02*
G75*
G03X46870000Y14000000I-2620000J0D01*
G01*
X44250000Y16580000D02*
X44250000Y11420000D01*
X44290000Y16580000D02*
X44290000Y11420000D01*
X44330000Y16579000D02*
X44330000Y11421000D01*
X44370000Y16578000D02*
X44370000Y11422000D01*
X44410000Y16576000D02*
X44410000Y11424000D01*
X44450000Y16573000D02*
X44450000Y11427000D01*
X44490000Y16569000D02*
X44490000Y15040000D01*
X44490000Y12960000D02*
X44490000Y11431000D01*
X44530000Y16565000D02*
X44530000Y15040000D01*
X44530000Y12960000D02*
X44530000Y11435000D01*
X44570000Y16561000D02*
X44570000Y15040000D01*
X44570000Y12960000D02*
X44570000Y11439000D01*
X44610000Y16556000D02*
X44610000Y15040000D01*
X44610000Y12960000D02*
X44610000Y11444000D01*
X44650000Y16550000D02*
X44650000Y15040000D01*
X44650000Y12960000D02*
X44650000Y11450000D01*
X44690000Y16543000D02*
X44690000Y15040000D01*
X44690000Y12960000D02*
X44690000Y11457000D01*
X44730000Y16536000D02*
X44730000Y15040000D01*
X44730000Y12960000D02*
X44730000Y11464000D01*
X44770000Y16528000D02*
X44770000Y15040000D01*
X44770000Y12960000D02*
X44770000Y11472000D01*
X44810000Y16520000D02*
X44810000Y15040000D01*
X44810000Y12960000D02*
X44810000Y11480000D01*
X44850000Y16511000D02*
X44850000Y15040000D01*
X44850000Y12960000D02*
X44850000Y11489000D01*
X44890000Y16501000D02*
X44890000Y15040000D01*
X44890000Y12960000D02*
X44890000Y11499000D01*
X44930000Y16491000D02*
X44930000Y15040000D01*
X44930000Y12960000D02*
X44930000Y11509000D01*
X44971000Y16480000D02*
X44971000Y15040000D01*
X44971000Y12960000D02*
X44971000Y11520000D01*
X45011000Y16468000D02*
X45011000Y15040000D01*
X45011000Y12960000D02*
X45011000Y11532000D01*
X45051000Y16455000D02*
X45051000Y15040000D01*
X45051000Y12960000D02*
X45051000Y11545000D01*
X45091000Y16442000D02*
X45091000Y15040000D01*
X45091000Y12960000D02*
X45091000Y11558000D01*
X45131000Y16428000D02*
X45131000Y15040000D01*
X45131000Y12960000D02*
X45131000Y11572000D01*
X45171000Y16414000D02*
X45171000Y15040000D01*
X45171000Y12960000D02*
X45171000Y11586000D01*
X45211000Y16398000D02*
X45211000Y15040000D01*
X45211000Y12960000D02*
X45211000Y11602000D01*
X45251000Y16382000D02*
X45251000Y15040000D01*
X45251000Y12960000D02*
X45251000Y11618000D01*
X45291000Y16365000D02*
X45291000Y15040000D01*
X45291000Y12960000D02*
X45291000Y11635000D01*
X45331000Y16348000D02*
X45331000Y15040000D01*
X45331000Y12960000D02*
X45331000Y11652000D01*
X45371000Y16329000D02*
X45371000Y15040000D01*
X45371000Y12960000D02*
X45371000Y11671000D01*
X45411000Y16310000D02*
X45411000Y15040000D01*
X45411000Y12960000D02*
X45411000Y11690000D01*
X45451000Y16290000D02*
X45451000Y15040000D01*
X45451000Y12960000D02*
X45451000Y11710000D01*
X45491000Y16268000D02*
X45491000Y15040000D01*
X45491000Y12960000D02*
X45491000Y11732000D01*
X45531000Y16247000D02*
X45531000Y15040000D01*
X45531000Y12960000D02*
X45531000Y11753000D01*
X45571000Y16224000D02*
X45571000Y15040000D01*
X45571000Y12960000D02*
X45571000Y11776000D01*
X45611000Y16200000D02*
X45611000Y15040000D01*
X45611000Y12960000D02*
X45611000Y11800000D01*
X45651000Y16175000D02*
X45651000Y15040000D01*
X45651000Y12960000D02*
X45651000Y11825000D01*
X45691000Y16149000D02*
X45691000Y15040000D01*
X45691000Y12960000D02*
X45691000Y11851000D01*
X45731000Y16122000D02*
X45731000Y15040000D01*
X45731000Y12960000D02*
X45731000Y11878000D01*
X45771000Y16095000D02*
X45771000Y15040000D01*
X45771000Y12960000D02*
X45771000Y11905000D01*
X45811000Y16065000D02*
X45811000Y15040000D01*
X45811000Y12960000D02*
X45811000Y11935000D01*
X45851000Y16035000D02*
X45851000Y15040000D01*
X45851000Y12960000D02*
X45851000Y11965000D01*
X45891000Y16004000D02*
X45891000Y15040000D01*
X45891000Y12960000D02*
X45891000Y11996000D01*
X45931000Y15971000D02*
X45931000Y15040000D01*
X45931000Y12960000D02*
X45931000Y12029000D01*
X45971000Y15937000D02*
X45971000Y15040000D01*
X45971000Y12960000D02*
X45971000Y12063000D01*
X46011000Y15901000D02*
X46011000Y15040000D01*
X46011000Y12960000D02*
X46011000Y12099000D01*
X46051000Y15864000D02*
X46051000Y15040000D01*
X46051000Y12960000D02*
X46051000Y12136000D01*
X46091000Y15826000D02*
X46091000Y15040000D01*
X46091000Y12960000D02*
X46091000Y12174000D01*
X46131000Y15785000D02*
X46131000Y15040000D01*
X46131000Y12960000D02*
X46131000Y12215000D01*
X46171000Y15743000D02*
X46171000Y15040000D01*
X46171000Y12960000D02*
X46171000Y12257000D01*
X46211000Y15699000D02*
X46211000Y15040000D01*
X46211000Y12960000D02*
X46211000Y12301000D01*
X46251000Y15653000D02*
X46251000Y15040000D01*
X46251000Y12960000D02*
X46251000Y12347000D01*
X46291000Y15605000D02*
X46291000Y15040000D01*
X46291000Y12960000D02*
X46291000Y12395000D01*
X46331000Y15554000D02*
X46331000Y15040000D01*
X46331000Y12960000D02*
X46331000Y12446000D01*
X46371000Y15500000D02*
X46371000Y15040000D01*
X46371000Y12960000D02*
X46371000Y12500000D01*
X46411000Y15443000D02*
X46411000Y15040000D01*
X46411000Y12960000D02*
X46411000Y12557000D01*
X46451000Y15383000D02*
X46451000Y15040000D01*
X46451000Y12960000D02*
X46451000Y12617000D01*
X46491000Y15319000D02*
X46491000Y15040000D01*
X46491000Y12960000D02*
X46491000Y12681000D01*
X46531000Y15251000D02*
X46531000Y15040000D01*
X46531000Y12960000D02*
X46531000Y12749000D01*
X46571000Y15178000D02*
X46571000Y12822000D01*
X46611000Y15098000D02*
X46611000Y12902000D01*
X46651000Y15011000D02*
X46651000Y12989000D01*
X46691000Y14915000D02*
X46691000Y13085000D01*
X46731000Y14805000D02*
X46731000Y13195000D01*
X46771000Y14677000D02*
X46771000Y13323000D01*
X46811000Y14518000D02*
X46811000Y13482000D01*
X46851000Y14284000D02*
X46851000Y13716000D01*
X41445225Y15475000D02*
X41945225Y15475000D01*
X41695225Y15725000D02*
X41695225Y15225000D01*
G04 #@! TO.C,J1*
D13*
X17122380Y29666667D02*
X17836666Y29666667D01*
X17979523Y29619048D01*
X18074761Y29523810D01*
X18122380Y29380953D01*
X18122380Y29285715D01*
X18122380Y30666667D02*
X18122380Y30095239D01*
X18122380Y30380953D02*
X17122380Y30380953D01*
X17265238Y30285715D01*
X17360476Y30190477D01*
X17408095Y30095239D01*
G04 #@! TO.C,J2*
X34666666Y10547620D02*
X34666666Y9833334D01*
X34619047Y9690477D01*
X34523809Y9595239D01*
X34380952Y9547620D01*
X34285714Y9547620D01*
X35095238Y10452381D02*
X35142857Y10500000D01*
X35238095Y10547620D01*
X35476190Y10547620D01*
X35571428Y10500000D01*
X35619047Y10452381D01*
X35666666Y10357143D01*
X35666666Y10261905D01*
X35619047Y10119048D01*
X35047619Y9547620D01*
X35666666Y9547620D01*
G04 #@! TO.C,J3*
X34666666Y47547620D02*
X34666666Y46833334D01*
X34619047Y46690477D01*
X34523809Y46595239D01*
X34380952Y46547620D01*
X34285714Y46547620D01*
X35047619Y47547620D02*
X35666666Y47547620D01*
X35333333Y47166667D01*
X35476190Y47166667D01*
X35571428Y47119048D01*
X35619047Y47071429D01*
X35666666Y46976191D01*
X35666666Y46738096D01*
X35619047Y46642858D01*
X35571428Y46595239D01*
X35476190Y46547620D01*
X35190476Y46547620D01*
X35095238Y46595239D01*
X35047619Y46642858D01*
G04 #@! TO.C,J4*
X53206666Y11547620D02*
X53206666Y10833334D01*
X53159047Y10690477D01*
X53063809Y10595239D01*
X52920952Y10547620D01*
X52825714Y10547620D01*
X54111428Y11214286D02*
X54111428Y10547620D01*
X53873333Y11595239D02*
X53635238Y10880953D01*
X54254285Y10880953D01*
G04 #@! TO.C,RV1*
X19404761Y7547620D02*
X19071428Y8023810D01*
X18833333Y7547620D02*
X18833333Y8547620D01*
X19214285Y8547620D01*
X19309523Y8500000D01*
X19357142Y8452381D01*
X19404761Y8357143D01*
X19404761Y8214286D01*
X19357142Y8119048D01*
X19309523Y8071429D01*
X19214285Y8023810D01*
X18833333Y8023810D01*
X19690476Y8547620D02*
X20023809Y7547620D01*
X20357142Y8547620D01*
X21214285Y7547620D02*
X20642857Y7547620D01*
X20928571Y7547620D02*
X20928571Y8547620D01*
X20833333Y8404762D01*
X20738095Y8309524D01*
X20642857Y8261905D01*
G04 #@! TO.C,RV2*
X34404761Y33547620D02*
X34071428Y34023810D01*
X33833333Y33547620D02*
X33833333Y34547620D01*
X34214285Y34547620D01*
X34309523Y34500000D01*
X34357142Y34452381D01*
X34404761Y34357143D01*
X34404761Y34214286D01*
X34357142Y34119048D01*
X34309523Y34071429D01*
X34214285Y34023810D01*
X33833333Y34023810D01*
X34690476Y34547620D02*
X35023809Y33547620D01*
X35357142Y34547620D01*
X35642857Y34452381D02*
X35690476Y34500000D01*
X35785714Y34547620D01*
X36023809Y34547620D01*
X36119047Y34500000D01*
X36166666Y34452381D01*
X36214285Y34357143D01*
X36214285Y34261905D01*
X36166666Y34119048D01*
X35595238Y33547620D01*
X36214285Y33547620D01*
G04 #@! TO.C,U1*
X34238095Y23857620D02*
X34238095Y23048096D01*
X34285714Y22952858D01*
X34333333Y22905239D01*
X34428571Y22857620D01*
X34619047Y22857620D01*
X34714285Y22905239D01*
X34761904Y22952858D01*
X34809523Y23048096D01*
X34809523Y23857620D01*
X35809523Y22857620D02*
X35238095Y22857620D01*
X35523809Y22857620D02*
X35523809Y23857620D01*
X35428571Y23714762D01*
X35333333Y23619524D01*
X35238095Y23571905D01*
G04 #@! TO.C,U2*
X19238095Y44547620D02*
X19238095Y43738096D01*
X19285714Y43642858D01*
X19333333Y43595239D01*
X19428571Y43547620D01*
X19619047Y43547620D01*
X19714285Y43595239D01*
X19761904Y43642858D01*
X19809523Y43738096D01*
X19809523Y44547620D01*
X20238095Y44452381D02*
X20285714Y44500000D01*
X20380952Y44547620D01*
X20619047Y44547620D01*
X20714285Y44500000D01*
X20761904Y44452381D01*
X20809523Y44357143D01*
X20809523Y44261905D01*
X20761904Y44119048D01*
X20190476Y43547620D01*
X20809523Y43547620D01*
G04 #@! TO.C,U3*
X49238095Y44547620D02*
X49238095Y43738096D01*
X49285714Y43642858D01*
X49333333Y43595239D01*
X49428571Y43547620D01*
X49619047Y43547620D01*
X49714285Y43595239D01*
X49761904Y43642858D01*
X49809523Y43738096D01*
X49809523Y44547620D01*
X50190476Y44547620D02*
X50809523Y44547620D01*
X50476190Y44166667D01*
X50619047Y44166667D01*
X50714285Y44119048D01*
X50761904Y44071429D01*
X50809523Y43976191D01*
X50809523Y43738096D01*
X50761904Y43642858D01*
X50714285Y43595239D01*
X50619047Y43547620D01*
X50333333Y43547620D01*
X50238095Y43595239D01*
X50190476Y43642858D01*
G04 #@! TO.C,D1*
X64261904Y33727620D02*
X64261904Y34727620D01*
X64500000Y34727620D01*
X64642857Y34680000D01*
X64738095Y34584762D01*
X64785714Y34489524D01*
X64833333Y34299048D01*
X64833333Y34156191D01*
X64785714Y33965715D01*
X64738095Y33870477D01*
X64642857Y33775239D01*
X64500000Y33727620D01*
X64261904Y33727620D01*
X65785714Y33727620D02*
X65214285Y33727620D01*
X65500000Y33727620D02*
X65500000Y34727620D01*
X65404761Y34584762D01*
X65309523Y34489524D01*
X65214285Y34441905D01*
G04 #@! TO.C,R4*
X25833333Y20547620D02*
X25500000Y21023810D01*
X25261904Y20547620D02*
X25261904Y21547620D01*
X25642857Y21547620D01*
X25738095Y21500000D01*
X25785714Y21452381D01*
X25833333Y21357143D01*
X25833333Y21214286D01*
X25785714Y21119048D01*
X25738095Y21071429D01*
X25642857Y21023810D01*
X25261904Y21023810D01*
X26690476Y21214286D02*
X26690476Y20547620D01*
X26452380Y21595239D02*
X26214285Y20880953D01*
X26833333Y20880953D01*
G04 #@! TO.C,R16*
X58357142Y33547620D02*
X58023809Y34023810D01*
X57785714Y33547620D02*
X57785714Y34547620D01*
X58166666Y34547620D01*
X58261904Y34500000D01*
X58309523Y34452381D01*
X58357142Y34357143D01*
X58357142Y34214286D01*
X58309523Y34119048D01*
X58261904Y34071429D01*
X58166666Y34023810D01*
X57785714Y34023810D01*
X59309523Y33547620D02*
X58738095Y33547620D01*
X59023809Y33547620D02*
X59023809Y34547620D01*
X58928571Y34404762D01*
X58833333Y34309524D01*
X58738095Y34261905D01*
X60166666Y34547620D02*
X59976190Y34547620D01*
X59880952Y34500000D01*
X59833333Y34452381D01*
X59738095Y34309524D01*
X59690476Y34119048D01*
X59690476Y33738096D01*
X59738095Y33642858D01*
X59785714Y33595239D01*
X59880952Y33547620D01*
X60071428Y33547620D01*
X60166666Y33595239D01*
X60214285Y33642858D01*
X60261904Y33738096D01*
X60261904Y33976191D01*
X60214285Y34071429D01*
X60166666Y34119048D01*
X60071428Y34166667D01*
X59880952Y34166667D01*
X59785714Y34119048D01*
X59738095Y34071429D01*
X59690476Y33976191D01*
G04 #@! TO.C,C1*
X14833333Y10642858D02*
X14785714Y10595239D01*
X14642857Y10547620D01*
X14547619Y10547620D01*
X14404761Y10595239D01*
X14309523Y10690477D01*
X14261904Y10785715D01*
X14214285Y10976191D01*
X14214285Y11119048D01*
X14261904Y11309524D01*
X14309523Y11404762D01*
X14404761Y11500000D01*
X14547619Y11547620D01*
X14642857Y11547620D01*
X14785714Y11500000D01*
X14833333Y11452381D01*
X15785714Y10547620D02*
X15214285Y10547620D01*
X15500000Y10547620D02*
X15500000Y11547620D01*
X15404761Y11404762D01*
X15309523Y11309524D01*
X15214285Y11261905D01*
G04 #@! TO.C,C2*
X26833333Y10642858D02*
X26785714Y10595239D01*
X26642857Y10547620D01*
X26547619Y10547620D01*
X26404761Y10595239D01*
X26309523Y10690477D01*
X26261904Y10785715D01*
X26214285Y10976191D01*
X26214285Y11119048D01*
X26261904Y11309524D01*
X26309523Y11404762D01*
X26404761Y11500000D01*
X26547619Y11547620D01*
X26642857Y11547620D01*
X26785714Y11500000D01*
X26833333Y11452381D01*
X27214285Y11452381D02*
X27261904Y11500000D01*
X27357142Y11547620D01*
X27595238Y11547620D01*
X27690476Y11500000D01*
X27738095Y11452381D01*
X27785714Y11357143D01*
X27785714Y11261905D01*
X27738095Y11119048D01*
X27166666Y10547620D01*
X27785714Y10547620D01*
G04 #@! TO.C,C4*
X20833333Y10642858D02*
X20785714Y10595239D01*
X20642857Y10547620D01*
X20547619Y10547620D01*
X20404761Y10595239D01*
X20309523Y10690477D01*
X20261904Y10785715D01*
X20214285Y10976191D01*
X20214285Y11119048D01*
X20261904Y11309524D01*
X20309523Y11404762D01*
X20404761Y11500000D01*
X20547619Y11547620D01*
X20642857Y11547620D01*
X20785714Y11500000D01*
X20833333Y11452381D01*
X21690476Y11214286D02*
X21690476Y10547620D01*
X21452380Y11595239D02*
X21214285Y10880953D01*
X21833333Y10880953D01*
G04 #@! TO.C,C6*
X47833333Y19642858D02*
X47785714Y19595239D01*
X47642857Y19547620D01*
X47547619Y19547620D01*
X47404761Y19595239D01*
X47309523Y19690477D01*
X47261904Y19785715D01*
X47214285Y19976191D01*
X47214285Y20119048D01*
X47261904Y20309524D01*
X47309523Y20404762D01*
X47404761Y20500000D01*
X47547619Y20547620D01*
X47642857Y20547620D01*
X47785714Y20500000D01*
X47833333Y20452381D01*
X48690476Y20547620D02*
X48500000Y20547620D01*
X48404761Y20500000D01*
X48357142Y20452381D01*
X48261904Y20309524D01*
X48214285Y20119048D01*
X48214285Y19738096D01*
X48261904Y19642858D01*
X48309523Y19595239D01*
X48404761Y19547620D01*
X48595238Y19547620D01*
X48690476Y19595239D01*
X48738095Y19642858D01*
X48785714Y19738096D01*
X48785714Y19976191D01*
X48738095Y20071429D01*
X48690476Y20119048D01*
X48595238Y20166667D01*
X48404761Y20166667D01*
X48309523Y20119048D01*
X48261904Y20071429D01*
X48214285Y19976191D01*
G04 #@! TO.C,C7*
X47833333Y25642858D02*
X47785714Y25595239D01*
X47642857Y25547620D01*
X47547619Y25547620D01*
X47404761Y25595239D01*
X47309523Y25690477D01*
X47261904Y25785715D01*
X47214285Y25976191D01*
X47214285Y26119048D01*
X47261904Y26309524D01*
X47309523Y26404762D01*
X47404761Y26500000D01*
X47547619Y26547620D01*
X47642857Y26547620D01*
X47785714Y26500000D01*
X47833333Y26452381D01*
X48166666Y26547620D02*
X48833333Y26547620D01*
X48404761Y25547620D01*
G04 #@! TO.C,C10*
X21357142Y35392858D02*
X21309523Y35345239D01*
X21166666Y35297620D01*
X21071428Y35297620D01*
X20928571Y35345239D01*
X20833333Y35440477D01*
X20785714Y35535715D01*
X20738095Y35726191D01*
X20738095Y35869048D01*
X20785714Y36059524D01*
X20833333Y36154762D01*
X20928571Y36250000D01*
X21071428Y36297620D01*
X21166666Y36297620D01*
X21309523Y36250000D01*
X21357142Y36202381D01*
X22309523Y35297620D02*
X21738095Y35297620D01*
X22023809Y35297620D02*
X22023809Y36297620D01*
X21928571Y36154762D01*
X21833333Y36059524D01*
X21738095Y36011905D01*
X22928571Y36297620D02*
X23023809Y36297620D01*
X23119047Y36250000D01*
X23166666Y36202381D01*
X23214285Y36107143D01*
X23261904Y35916667D01*
X23261904Y35678572D01*
X23214285Y35488096D01*
X23166666Y35392858D01*
X23119047Y35345239D01*
X23023809Y35297620D01*
X22928571Y35297620D01*
X22833333Y35345239D01*
X22785714Y35392858D01*
X22738095Y35488096D01*
X22690476Y35678572D01*
X22690476Y35916667D01*
X22738095Y36107143D01*
X22785714Y36202381D01*
X22833333Y36250000D01*
X22928571Y36297620D01*
G04 #@! TO.C,C11*
X47357142Y31642858D02*
X47309523Y31595239D01*
X47166666Y31547620D01*
X47071428Y31547620D01*
X46928571Y31595239D01*
X46833333Y31690477D01*
X46785714Y31785715D01*
X46738095Y31976191D01*
X46738095Y32119048D01*
X46785714Y32309524D01*
X46833333Y32404762D01*
X46928571Y32500000D01*
X47071428Y32547620D01*
X47166666Y32547620D01*
X47309523Y32500000D01*
X47357142Y32452381D01*
X48309523Y31547620D02*
X47738095Y31547620D01*
X48023809Y31547620D02*
X48023809Y32547620D01*
X47928571Y32404762D01*
X47833333Y32309524D01*
X47738095Y32261905D01*
X49261904Y31547620D02*
X48690476Y31547620D01*
X48976190Y31547620D02*
X48976190Y32547620D01*
X48880952Y32404762D01*
X48785714Y32309524D01*
X48690476Y32261905D01*
G04 #@! TO.C,C15*
X57357142Y27642858D02*
X57309523Y27595239D01*
X57166666Y27547620D01*
X57071428Y27547620D01*
X56928571Y27595239D01*
X56833333Y27690477D01*
X56785714Y27785715D01*
X56738095Y27976191D01*
X56738095Y28119048D01*
X56785714Y28309524D01*
X56833333Y28404762D01*
X56928571Y28500000D01*
X57071428Y28547620D01*
X57166666Y28547620D01*
X57309523Y28500000D01*
X57357142Y28452381D01*
X58309523Y27547620D02*
X57738095Y27547620D01*
X58023809Y27547620D02*
X58023809Y28547620D01*
X57928571Y28404762D01*
X57833333Y28309524D01*
X57738095Y28261905D01*
X59214285Y28547620D02*
X58738095Y28547620D01*
X58690476Y28071429D01*
X58738095Y28119048D01*
X58833333Y28166667D01*
X59071428Y28166667D01*
X59166666Y28119048D01*
X59214285Y28071429D01*
X59261904Y27976191D01*
X59261904Y27738096D01*
X59214285Y27642858D01*
X59166666Y27595239D01*
X59071428Y27547620D01*
X58833333Y27547620D01*
X58738095Y27595239D01*
X58690476Y27642858D01*
G04 #@! TO.C,C16*
X12357142Y20642858D02*
X12309523Y20595239D01*
X12166666Y20547620D01*
X12071428Y20547620D01*
X11928571Y20595239D01*
X11833333Y20690477D01*
X11785714Y20785715D01*
X11738095Y20976191D01*
X11738095Y21119048D01*
X11785714Y21309524D01*
X11833333Y21404762D01*
X11928571Y21500000D01*
X12071428Y21547620D01*
X12166666Y21547620D01*
X12309523Y21500000D01*
X12357142Y21452381D01*
X13309523Y20547620D02*
X12738095Y20547620D01*
X13023809Y20547620D02*
X13023809Y21547620D01*
X12928571Y21404762D01*
X12833333Y21309524D01*
X12738095Y21261905D01*
X14166666Y21547620D02*
X13976190Y21547620D01*
X13880952Y21500000D01*
X13833333Y21452381D01*
X13738095Y21309524D01*
X13690476Y21119048D01*
X13690476Y20738096D01*
X13738095Y20642858D01*
X13785714Y20595239D01*
X13880952Y20547620D01*
X14071428Y20547620D01*
X14166666Y20595239D01*
X14214285Y20642858D01*
X14261904Y20738096D01*
X14261904Y20976191D01*
X14214285Y21071429D01*
X14166666Y21119048D01*
X14071428Y21166667D01*
X13880952Y21166667D01*
X13785714Y21119048D01*
X13738095Y21071429D01*
X13690476Y20976191D01*
G04 #@! TO.C,C19*
X48357142Y13642858D02*
X48309523Y13595239D01*
X48166666Y13547620D01*
X48071428Y13547620D01*
X47928571Y13595239D01*
X47833333Y13690477D01*
X47785714Y13785715D01*
X47738095Y13976191D01*
X47738095Y14119048D01*
X47785714Y14309524D01*
X47833333Y14404762D01*
X47928571Y14500000D01*
X48071428Y14547620D01*
X48166666Y14547620D01*
X48309523Y14500000D01*
X48357142Y14452381D01*
X49309523Y13547620D02*
X48738095Y13547620D01*
X49023809Y13547620D02*
X49023809Y14547620D01*
X48928571Y14404762D01*
X48833333Y14309524D01*
X48738095Y14261905D01*
X49785714Y13547620D02*
X49976190Y13547620D01*
X50071428Y13595239D01*
X50119047Y13642858D01*
X50214285Y13785715D01*
X50261904Y13976191D01*
X50261904Y14357143D01*
X50214285Y14452381D01*
X50166666Y14500000D01*
X50071428Y14547620D01*
X49880952Y14547620D01*
X49785714Y14500000D01*
X49738095Y14452381D01*
X49690476Y14357143D01*
X49690476Y14119048D01*
X49738095Y14023810D01*
X49785714Y13976191D01*
X49880952Y13928572D01*
X50071428Y13928572D01*
X50166666Y13976191D01*
X50214285Y14023810D01*
X50261904Y14119048D01*
G04 #@! TD*
M02*
