G04 #@! TF.GenerationSoftware,KiCad,Pcbnew,(5.0.1)-3*
G04 #@! TF.CreationDate,2019-12-23T10:27:59+01:00*
G04 #@! TF.ProjectId,TDA2050 64W,54444132303530203634572E6B696361,rev?*
G04 #@! TF.SameCoordinates,PX68e7780PY7365040*
G04 #@! TF.FileFunction,Soldermask,Top*
G04 #@! TF.FilePolarity,Negative*
%FSLAX46Y46*%
G04 Gerber Fmt 4.6, Leading zero omitted, Abs format (unit mm)*
G04 Created by KiCad (PCBNEW (5.0.1)-3) date 23/12/2019 10:27:59*
%MOMM*%
%LPD*%
G01*
G04 APERTURE LIST*
%ADD10C,0.050800*%
G04 APERTURE END LIST*
D10*
G36*
X65548156Y9327206D02*
X66269140Y9183794D01*
X67060972Y8855807D01*
X67773601Y8379643D01*
X68379643Y7773601D01*
X68855807Y7060972D01*
X69183794Y6269140D01*
X69351000Y5428536D01*
X69351000Y4571464D01*
X69183794Y3730860D01*
X68855807Y2939028D01*
X68379643Y2226399D01*
X67773601Y1620357D01*
X67060972Y1144193D01*
X66269140Y816206D01*
X65548156Y672794D01*
X65428537Y649000D01*
X64571463Y649000D01*
X64451844Y672794D01*
X63730860Y816206D01*
X62939028Y1144193D01*
X62226399Y1620357D01*
X61620357Y2226399D01*
X61144193Y2939028D01*
X60816206Y3730860D01*
X60649000Y4571464D01*
X60649000Y5428536D01*
X60816206Y6269140D01*
X61144193Y7060972D01*
X61620357Y7773601D01*
X62226399Y8379643D01*
X62939028Y8855807D01*
X63730860Y9183794D01*
X64451844Y9327206D01*
X64571463Y9351000D01*
X65428537Y9351000D01*
X65548156Y9327206D01*
X65548156Y9327206D01*
G37*
G36*
X5548156Y9327206D02*
X6269140Y9183794D01*
X7060972Y8855807D01*
X7773601Y8379643D01*
X8379643Y7773601D01*
X8855807Y7060972D01*
X9183794Y6269140D01*
X9351000Y5428536D01*
X9351000Y4571464D01*
X9183794Y3730860D01*
X8855807Y2939028D01*
X8379643Y2226399D01*
X7773601Y1620357D01*
X7060972Y1144193D01*
X6269140Y816206D01*
X5548156Y672794D01*
X5428537Y649000D01*
X4571463Y649000D01*
X4451844Y672794D01*
X3730860Y816206D01*
X2939028Y1144193D01*
X2226399Y1620357D01*
X1620357Y2226399D01*
X1144193Y2939028D01*
X816206Y3730860D01*
X649000Y4571464D01*
X649000Y5428536D01*
X816206Y6269140D01*
X1144193Y7060972D01*
X1620357Y7773601D01*
X2226399Y8379643D01*
X2939028Y8855807D01*
X3730860Y9183794D01*
X4451844Y9327206D01*
X4571463Y9351000D01*
X5428537Y9351000D01*
X5548156Y9327206D01*
X5548156Y9327206D01*
G37*
G36*
X15356153Y5174078D02*
X15423610Y5146136D01*
X15578359Y5082037D01*
X15778345Y4948411D01*
X15948411Y4778345D01*
X16082037Y4578359D01*
X16174078Y4356152D01*
X16221000Y4120259D01*
X16221000Y3879741D01*
X16174078Y3643848D01*
X16082037Y3421641D01*
X15948411Y3221655D01*
X15778345Y3051589D01*
X15578359Y2917963D01*
X15452226Y2865717D01*
X15356153Y2825922D01*
X15120259Y2779000D01*
X14879741Y2779000D01*
X14643847Y2825922D01*
X14547774Y2865717D01*
X14421641Y2917963D01*
X14221655Y3051589D01*
X14051589Y3221655D01*
X13917963Y3421641D01*
X13825922Y3643848D01*
X13779000Y3879741D01*
X13779000Y4120259D01*
X13825922Y4356152D01*
X13917963Y4578359D01*
X14051589Y4778345D01*
X14221655Y4948411D01*
X14421641Y5082037D01*
X14576390Y5146136D01*
X14643847Y5174078D01*
X14879741Y5221000D01*
X15120259Y5221000D01*
X15356153Y5174078D01*
X15356153Y5174078D01*
G37*
G36*
X25356153Y5174078D02*
X25423610Y5146136D01*
X25578359Y5082037D01*
X25778345Y4948411D01*
X25948411Y4778345D01*
X26082037Y4578359D01*
X26174078Y4356152D01*
X26221000Y4120259D01*
X26221000Y3879741D01*
X26174078Y3643848D01*
X26082037Y3421641D01*
X25948411Y3221655D01*
X25778345Y3051589D01*
X25578359Y2917963D01*
X25452226Y2865717D01*
X25356153Y2825922D01*
X25120259Y2779000D01*
X24879741Y2779000D01*
X24643847Y2825922D01*
X24547774Y2865717D01*
X24421641Y2917963D01*
X24221655Y3051589D01*
X24051589Y3221655D01*
X23917963Y3421641D01*
X23825922Y3643848D01*
X23779000Y3879741D01*
X23779000Y4120259D01*
X23825922Y4356152D01*
X23917963Y4578359D01*
X24051589Y4778345D01*
X24221655Y4948411D01*
X24421641Y5082037D01*
X24576390Y5146136D01*
X24643847Y5174078D01*
X24879741Y5221000D01*
X25120259Y5221000D01*
X25356153Y5174078D01*
X25356153Y5174078D01*
G37*
G36*
X20356153Y5174078D02*
X20423610Y5146136D01*
X20578359Y5082037D01*
X20778345Y4948411D01*
X20948411Y4778345D01*
X21082037Y4578359D01*
X21174078Y4356152D01*
X21221000Y4120259D01*
X21221000Y3879741D01*
X21174078Y3643848D01*
X21082037Y3421641D01*
X20948411Y3221655D01*
X20778345Y3051589D01*
X20578359Y2917963D01*
X20452226Y2865717D01*
X20356153Y2825922D01*
X20120259Y2779000D01*
X19879741Y2779000D01*
X19643847Y2825922D01*
X19547774Y2865717D01*
X19421641Y2917963D01*
X19221655Y3051589D01*
X19051589Y3221655D01*
X18917963Y3421641D01*
X18825922Y3643848D01*
X18779000Y3879741D01*
X18779000Y4120259D01*
X18825922Y4356152D01*
X18917963Y4578359D01*
X19051589Y4778345D01*
X19221655Y4948411D01*
X19421641Y5082037D01*
X19576390Y5146136D01*
X19643847Y5174078D01*
X19879741Y5221000D01*
X20120259Y5221000D01*
X20356153Y5174078D01*
X20356153Y5174078D01*
G37*
G36*
X39551000Y6449000D02*
X36449000Y6449000D01*
X36449000Y9551000D01*
X39551000Y9551000D01*
X39551000Y6449000D01*
X39551000Y6449000D01*
G37*
G36*
X33272527Y9511264D02*
X33372410Y9491396D01*
X33654674Y9374479D01*
X33908705Y9204741D01*
X34124741Y8988705D01*
X34294479Y8734674D01*
X34407294Y8462312D01*
X34411396Y8452409D01*
X34471000Y8152762D01*
X34471000Y7847238D01*
X34431264Y7647473D01*
X34411396Y7547590D01*
X34294479Y7265326D01*
X34124741Y7011295D01*
X33908705Y6795259D01*
X33654674Y6625521D01*
X33372410Y6508604D01*
X33272527Y6488736D01*
X33072762Y6449000D01*
X32767238Y6449000D01*
X32567473Y6488736D01*
X32467590Y6508604D01*
X32185326Y6625521D01*
X31931295Y6795259D01*
X31715259Y7011295D01*
X31545521Y7265326D01*
X31428604Y7547590D01*
X31408736Y7647473D01*
X31369000Y7847238D01*
X31369000Y8152762D01*
X31428604Y8452409D01*
X31432706Y8462312D01*
X31545521Y8734674D01*
X31715259Y8988705D01*
X31931295Y9204741D01*
X32185326Y9374479D01*
X32467590Y9491396D01*
X32567473Y9511264D01*
X32767238Y9551000D01*
X33072762Y9551000D01*
X33272527Y9511264D01*
X33272527Y9511264D01*
G37*
G36*
X56432527Y9511264D02*
X56532410Y9491396D01*
X56814674Y9374479D01*
X57068705Y9204741D01*
X57284741Y8988705D01*
X57454479Y8734674D01*
X57567294Y8462312D01*
X57571396Y8452409D01*
X57631000Y8152762D01*
X57631000Y7847238D01*
X57591264Y7647473D01*
X57571396Y7547590D01*
X57454479Y7265326D01*
X57284741Y7011295D01*
X57068705Y6795259D01*
X56814674Y6625521D01*
X56532410Y6508604D01*
X56432527Y6488736D01*
X56232762Y6449000D01*
X55927238Y6449000D01*
X55727473Y6488736D01*
X55627590Y6508604D01*
X55345326Y6625521D01*
X55091295Y6795259D01*
X54875259Y7011295D01*
X54705521Y7265326D01*
X54588604Y7547590D01*
X54568736Y7647473D01*
X54529000Y7847238D01*
X54529000Y8152762D01*
X54588604Y8452409D01*
X54592706Y8462312D01*
X54705521Y8734674D01*
X54875259Y8988705D01*
X55091295Y9204741D01*
X55345326Y9374479D01*
X55627590Y9491396D01*
X55727473Y9511264D01*
X55927238Y9551000D01*
X56232762Y9551000D01*
X56432527Y9511264D01*
X56432527Y9511264D01*
G37*
G36*
X52551000Y6449000D02*
X49449000Y6449000D01*
X49449000Y9551000D01*
X52551000Y9551000D01*
X52551000Y6449000D01*
X52551000Y6449000D01*
G37*
G36*
X21248228Y14318297D02*
X21403100Y14254147D01*
X21542481Y14161015D01*
X21661015Y14042481D01*
X21754147Y13903100D01*
X21818297Y13748228D01*
X21851000Y13583816D01*
X21851000Y13416184D01*
X21818297Y13251772D01*
X21754147Y13096900D01*
X21661015Y12957519D01*
X21542481Y12838985D01*
X21403100Y12745853D01*
X21248228Y12681703D01*
X21083816Y12649000D01*
X20916184Y12649000D01*
X20751772Y12681703D01*
X20596900Y12745853D01*
X20457519Y12838985D01*
X20338985Y12957519D01*
X20245853Y13096900D01*
X20181703Y13251772D01*
X20149000Y13416184D01*
X20149000Y13583816D01*
X20181703Y13748228D01*
X20245853Y13903100D01*
X20338985Y14042481D01*
X20457519Y14161015D01*
X20596900Y14254147D01*
X20751772Y14318297D01*
X20916184Y14351000D01*
X21083816Y14351000D01*
X21248228Y14318297D01*
X21248228Y14318297D01*
G37*
G36*
X15248228Y14318297D02*
X15403100Y14254147D01*
X15542481Y14161015D01*
X15661015Y14042481D01*
X15754147Y13903100D01*
X15818297Y13748228D01*
X15851000Y13583816D01*
X15851000Y13416184D01*
X15818297Y13251772D01*
X15754147Y13096900D01*
X15661015Y12957519D01*
X15542481Y12838985D01*
X15403100Y12745853D01*
X15248228Y12681703D01*
X15083816Y12649000D01*
X14916184Y12649000D01*
X14751772Y12681703D01*
X14596900Y12745853D01*
X14457519Y12838985D01*
X14338985Y12957519D01*
X14245853Y13096900D01*
X14181703Y13251772D01*
X14149000Y13416184D01*
X14149000Y13583816D01*
X14181703Y13748228D01*
X14245853Y13903100D01*
X14338985Y14042481D01*
X14457519Y14161015D01*
X14596900Y14254147D01*
X14751772Y14318297D01*
X14916184Y14351000D01*
X15083816Y14351000D01*
X15248228Y14318297D01*
X15248228Y14318297D01*
G37*
G36*
X27248228Y14318297D02*
X27403100Y14254147D01*
X27542481Y14161015D01*
X27661015Y14042481D01*
X27754147Y13903100D01*
X27818297Y13748228D01*
X27851000Y13583816D01*
X27851000Y13416184D01*
X27818297Y13251772D01*
X27754147Y13096900D01*
X27661015Y12957519D01*
X27542481Y12838985D01*
X27403100Y12745853D01*
X27248228Y12681703D01*
X27083816Y12649000D01*
X26916184Y12649000D01*
X26751772Y12681703D01*
X26596900Y12745853D01*
X26457519Y12838985D01*
X26338985Y12957519D01*
X26245853Y13096900D01*
X26181703Y13251772D01*
X26149000Y13416184D01*
X26149000Y13583816D01*
X26181703Y13748228D01*
X26245853Y13903100D01*
X26338985Y14042481D01*
X26457519Y14161015D01*
X26596900Y14254147D01*
X26751772Y14318297D01*
X26916184Y14351000D01*
X27083816Y14351000D01*
X27248228Y14318297D01*
X27248228Y14318297D01*
G37*
G36*
X45748228Y14818297D02*
X45903100Y14754147D01*
X46042481Y14661015D01*
X46161015Y14542481D01*
X46254147Y14403100D01*
X46318297Y14248228D01*
X46351000Y14083816D01*
X46351000Y13916184D01*
X46318297Y13751772D01*
X46254147Y13596900D01*
X46161015Y13457519D01*
X46042481Y13338985D01*
X45903100Y13245853D01*
X45748228Y13181703D01*
X45583816Y13149000D01*
X45416184Y13149000D01*
X45251772Y13181703D01*
X45096900Y13245853D01*
X44957519Y13338985D01*
X44838985Y13457519D01*
X44745853Y13596900D01*
X44681703Y13751772D01*
X44649000Y13916184D01*
X44649000Y14083816D01*
X44681703Y14248228D01*
X44745853Y14403100D01*
X44838985Y14542481D01*
X44957519Y14661015D01*
X45096900Y14754147D01*
X45251772Y14818297D01*
X45416184Y14851000D01*
X45583816Y14851000D01*
X45748228Y14818297D01*
X45748228Y14818297D01*
G37*
G36*
X43851000Y13149000D02*
X42149000Y13149000D01*
X42149000Y14851000D01*
X43851000Y14851000D01*
X43851000Y13149000D01*
X43851000Y13149000D01*
G37*
G36*
X21851000Y15149000D02*
X20149000Y15149000D01*
X20149000Y16851000D01*
X21851000Y16851000D01*
X21851000Y15149000D01*
X21851000Y15149000D01*
G37*
G36*
X27851000Y15149000D02*
X26149000Y15149000D01*
X26149000Y16851000D01*
X27851000Y16851000D01*
X27851000Y15149000D01*
X27851000Y15149000D01*
G37*
G36*
X15851000Y15149000D02*
X14149000Y15149000D01*
X14149000Y16851000D01*
X15851000Y16851000D01*
X15851000Y15149000D01*
X15851000Y15149000D01*
G37*
G36*
X25118604Y19921653D02*
X25155145Y19910568D01*
X25188820Y19892569D01*
X25218341Y19868341D01*
X25242569Y19838820D01*
X25260568Y19805145D01*
X25271653Y19768604D01*
X25276000Y19724462D01*
X25276000Y18275538D01*
X25271653Y18231396D01*
X25260568Y18194855D01*
X25242569Y18161180D01*
X25218341Y18131659D01*
X25188820Y18107431D01*
X25155145Y18089432D01*
X25118604Y18078347D01*
X25074462Y18074000D01*
X24125538Y18074000D01*
X24081396Y18078347D01*
X24044855Y18089432D01*
X24011180Y18107431D01*
X23981659Y18131659D01*
X23957431Y18161180D01*
X23939432Y18194855D01*
X23928347Y18231396D01*
X23924000Y18275538D01*
X23924000Y19724462D01*
X23928347Y19768604D01*
X23939432Y19805145D01*
X23957431Y19838820D01*
X23981659Y19868341D01*
X24011180Y19892569D01*
X24044855Y19910568D01*
X24081396Y19921653D01*
X24125538Y19926000D01*
X25074462Y19926000D01*
X25118604Y19921653D01*
X25118604Y19921653D01*
G37*
G36*
X27918604Y19921653D02*
X27955145Y19910568D01*
X27988820Y19892569D01*
X28018341Y19868341D01*
X28042569Y19838820D01*
X28060568Y19805145D01*
X28071653Y19768604D01*
X28076000Y19724462D01*
X28076000Y18275538D01*
X28071653Y18231396D01*
X28060568Y18194855D01*
X28042569Y18161180D01*
X28018341Y18131659D01*
X27988820Y18107431D01*
X27955145Y18089432D01*
X27918604Y18078347D01*
X27874462Y18074000D01*
X26925538Y18074000D01*
X26881396Y18078347D01*
X26844855Y18089432D01*
X26811180Y18107431D01*
X26781659Y18131659D01*
X26757431Y18161180D01*
X26739432Y18194855D01*
X26728347Y18231396D01*
X26724000Y18275538D01*
X26724000Y19724462D01*
X26728347Y19768604D01*
X26739432Y19805145D01*
X26757431Y19838820D01*
X26781659Y19868341D01*
X26811180Y19892569D01*
X26844855Y19910568D01*
X26881396Y19921653D01*
X26925538Y19926000D01*
X27874462Y19926000D01*
X27918604Y19921653D01*
X27918604Y19921653D01*
G37*
G36*
X33706820Y20738687D02*
X33706823Y20738686D01*
X33706824Y20738686D01*
X33867238Y20690025D01*
X33867240Y20690024D01*
X33867243Y20690023D01*
X34015078Y20611005D01*
X34144659Y20504659D01*
X34251005Y20375078D01*
X34330023Y20227244D01*
X34378687Y20066821D01*
X34391000Y19941804D01*
X34391000Y19058197D01*
X34378687Y18933180D01*
X34378686Y18933178D01*
X34378686Y18933175D01*
X34330025Y18772761D01*
X34330023Y18772756D01*
X34251005Y18624922D01*
X34144659Y18495341D01*
X34015078Y18388995D01*
X33867244Y18309977D01*
X33867241Y18309976D01*
X33867239Y18309975D01*
X33706825Y18261314D01*
X33706824Y18261314D01*
X33706821Y18261313D01*
X33540000Y18244883D01*
X33373180Y18261313D01*
X33373177Y18261314D01*
X33373176Y18261314D01*
X33212762Y18309975D01*
X33212760Y18309976D01*
X33212757Y18309977D01*
X33064923Y18388995D01*
X32935342Y18495341D01*
X32828996Y18624922D01*
X32749978Y18772756D01*
X32701314Y18933179D01*
X32689000Y19058197D01*
X32689000Y19941803D01*
X32701313Y20066820D01*
X32701314Y20066824D01*
X32749975Y20227238D01*
X32749976Y20227240D01*
X32749977Y20227243D01*
X32828995Y20375078D01*
X32935341Y20504659D01*
X33064922Y20611005D01*
X33212756Y20690023D01*
X33212759Y20690024D01*
X33212761Y20690025D01*
X33373175Y20738686D01*
X33373176Y20738686D01*
X33373179Y20738687D01*
X33540000Y20755117D01*
X33706820Y20738687D01*
X33706820Y20738687D01*
G37*
G36*
X36246820Y20738687D02*
X36246823Y20738686D01*
X36246824Y20738686D01*
X36407238Y20690025D01*
X36407240Y20690024D01*
X36407243Y20690023D01*
X36555078Y20611005D01*
X36684659Y20504659D01*
X36791005Y20375078D01*
X36870023Y20227244D01*
X36918687Y20066821D01*
X36931000Y19941804D01*
X36931000Y19058197D01*
X36918687Y18933180D01*
X36918686Y18933178D01*
X36918686Y18933175D01*
X36870025Y18772761D01*
X36870023Y18772756D01*
X36791005Y18624922D01*
X36684659Y18495341D01*
X36555078Y18388995D01*
X36407244Y18309977D01*
X36407241Y18309976D01*
X36407239Y18309975D01*
X36246825Y18261314D01*
X36246824Y18261314D01*
X36246821Y18261313D01*
X36080000Y18244883D01*
X35913180Y18261313D01*
X35913177Y18261314D01*
X35913176Y18261314D01*
X35752762Y18309975D01*
X35752760Y18309976D01*
X35752757Y18309977D01*
X35604923Y18388995D01*
X35475342Y18495341D01*
X35368996Y18624922D01*
X35289978Y18772756D01*
X35241314Y18933179D01*
X35229000Y19058197D01*
X35229000Y19941803D01*
X35241313Y20066820D01*
X35241314Y20066824D01*
X35289975Y20227238D01*
X35289976Y20227240D01*
X35289977Y20227243D01*
X35368995Y20375078D01*
X35475341Y20504659D01*
X35604922Y20611005D01*
X35752756Y20690023D01*
X35752759Y20690024D01*
X35752761Y20690025D01*
X35913175Y20738686D01*
X35913176Y20738686D01*
X35913179Y20738687D01*
X36080000Y20755117D01*
X36246820Y20738687D01*
X36246820Y20738687D01*
G37*
G36*
X38786820Y20738687D02*
X38786823Y20738686D01*
X38786824Y20738686D01*
X38947238Y20690025D01*
X38947240Y20690024D01*
X38947243Y20690023D01*
X39095078Y20611005D01*
X39224659Y20504659D01*
X39331005Y20375078D01*
X39410023Y20227244D01*
X39458687Y20066821D01*
X39471000Y19941804D01*
X39471000Y19058197D01*
X39458687Y18933180D01*
X39458686Y18933178D01*
X39458686Y18933175D01*
X39410025Y18772761D01*
X39410023Y18772756D01*
X39331005Y18624922D01*
X39224659Y18495341D01*
X39095078Y18388995D01*
X38947244Y18309977D01*
X38947241Y18309976D01*
X38947239Y18309975D01*
X38786825Y18261314D01*
X38786824Y18261314D01*
X38786821Y18261313D01*
X38620000Y18244883D01*
X38453180Y18261313D01*
X38453177Y18261314D01*
X38453176Y18261314D01*
X38292762Y18309975D01*
X38292760Y18309976D01*
X38292757Y18309977D01*
X38144923Y18388995D01*
X38015342Y18495341D01*
X37908996Y18624922D01*
X37829978Y18772756D01*
X37781314Y18933179D01*
X37769000Y19058197D01*
X37769000Y19941803D01*
X37781313Y20066820D01*
X37781314Y20066824D01*
X37829975Y20227238D01*
X37829976Y20227240D01*
X37829977Y20227243D01*
X37908995Y20375078D01*
X38015341Y20504659D01*
X38144922Y20611005D01*
X38292756Y20690023D01*
X38292759Y20690024D01*
X38292761Y20690025D01*
X38453175Y20738686D01*
X38453176Y20738686D01*
X38453179Y20738687D01*
X38620000Y20755117D01*
X38786820Y20738687D01*
X38786820Y20738687D01*
G37*
G36*
X31851000Y18249000D02*
X30149000Y18249000D01*
X30149000Y20751000D01*
X31851000Y20751000D01*
X31851000Y18249000D01*
X31851000Y18249000D01*
G37*
G36*
X43851000Y19149000D02*
X42149000Y19149000D01*
X42149000Y20851000D01*
X43851000Y20851000D01*
X43851000Y19149000D01*
X43851000Y19149000D01*
G37*
G36*
X45748228Y20818297D02*
X45903100Y20754147D01*
X46042481Y20661015D01*
X46161015Y20542481D01*
X46254147Y20403100D01*
X46318297Y20248228D01*
X46351000Y20083816D01*
X46351000Y19916184D01*
X46318297Y19751772D01*
X46254147Y19596900D01*
X46161015Y19457519D01*
X46042481Y19338985D01*
X45903100Y19245853D01*
X45748228Y19181703D01*
X45583816Y19149000D01*
X45416184Y19149000D01*
X45251772Y19181703D01*
X45096900Y19245853D01*
X44957519Y19338985D01*
X44838985Y19457519D01*
X44745853Y19596900D01*
X44681703Y19751772D01*
X44649000Y19916184D01*
X44649000Y20083816D01*
X44681703Y20248228D01*
X44745853Y20403100D01*
X44838985Y20542481D01*
X44957519Y20661015D01*
X45096900Y20754147D01*
X45251772Y20818297D01*
X45416184Y20851000D01*
X45583816Y20851000D01*
X45748228Y20818297D01*
X45748228Y20818297D01*
G37*
G36*
X58251000Y23749000D02*
X55749000Y23749000D01*
X55749000Y26251000D01*
X58251000Y26251000D01*
X58251000Y23749000D01*
X58251000Y23749000D01*
G37*
G36*
X64683635Y26238981D02*
X64864903Y26202925D01*
X65092571Y26108622D01*
X65296542Y25972332D01*
X65297469Y25971713D01*
X65471713Y25797469D01*
X65471715Y25797466D01*
X65608622Y25592571D01*
X65702925Y25364903D01*
X65751000Y25123213D01*
X65751000Y24876787D01*
X65702925Y24635097D01*
X65608622Y24407429D01*
X65472332Y24203458D01*
X65471713Y24202531D01*
X65297469Y24028287D01*
X65297466Y24028285D01*
X65092571Y23891378D01*
X64864903Y23797075D01*
X64683636Y23761019D01*
X64623214Y23749000D01*
X64376786Y23749000D01*
X64316365Y23761019D01*
X64135097Y23797075D01*
X63907429Y23891378D01*
X63702534Y24028285D01*
X63702531Y24028287D01*
X63528287Y24202531D01*
X63527668Y24203458D01*
X63391378Y24407429D01*
X63297075Y24635097D01*
X63249000Y24876787D01*
X63249000Y25123213D01*
X63297075Y25364903D01*
X63391378Y25592571D01*
X63528285Y25797466D01*
X63528287Y25797469D01*
X63702531Y25971713D01*
X63703458Y25972332D01*
X63907429Y26108622D01*
X64135097Y26202925D01*
X64316365Y26238981D01*
X64376786Y26251000D01*
X64623214Y26251000D01*
X64683635Y26238981D01*
X64683635Y26238981D01*
G37*
G36*
X5683635Y26238981D02*
X5864903Y26202925D01*
X6092571Y26108622D01*
X6296542Y25972332D01*
X6297469Y25971713D01*
X6471713Y25797469D01*
X6471715Y25797466D01*
X6608622Y25592571D01*
X6702925Y25364903D01*
X6751000Y25123213D01*
X6751000Y24876787D01*
X6702925Y24635097D01*
X6608622Y24407429D01*
X6472332Y24203458D01*
X6471713Y24202531D01*
X6297469Y24028287D01*
X6297466Y24028285D01*
X6092571Y23891378D01*
X5864903Y23797075D01*
X5683636Y23761019D01*
X5623214Y23749000D01*
X5376786Y23749000D01*
X5316365Y23761019D01*
X5135097Y23797075D01*
X4907429Y23891378D01*
X4702534Y24028285D01*
X4702531Y24028287D01*
X4528287Y24202531D01*
X4527668Y24203458D01*
X4391378Y24407429D01*
X4297075Y24635097D01*
X4249000Y24876787D01*
X4249000Y25123213D01*
X4297075Y25364903D01*
X4391378Y25592571D01*
X4528285Y25797466D01*
X4528287Y25797469D01*
X4702531Y25971713D01*
X4703458Y25972332D01*
X4907429Y26108622D01*
X5135097Y26202925D01*
X5316365Y26238981D01*
X5376786Y26251000D01*
X5623214Y26251000D01*
X5683635Y26238981D01*
X5683635Y26238981D01*
G37*
G36*
X14251000Y23749000D02*
X11749000Y23749000D01*
X11749000Y26251000D01*
X14251000Y26251000D01*
X14251000Y23749000D01*
X14251000Y23749000D01*
G37*
G36*
X45748228Y26818297D02*
X45903100Y26754147D01*
X46042481Y26661015D01*
X46161015Y26542481D01*
X46254147Y26403100D01*
X46318297Y26248228D01*
X46351000Y26083816D01*
X46351000Y25916184D01*
X46318297Y25751772D01*
X46254147Y25596900D01*
X46161015Y25457519D01*
X46042481Y25338985D01*
X45903100Y25245853D01*
X45748228Y25181703D01*
X45583816Y25149000D01*
X45416184Y25149000D01*
X45251772Y25181703D01*
X45096900Y25245853D01*
X44957519Y25338985D01*
X44838985Y25457519D01*
X44745853Y25596900D01*
X44681703Y25751772D01*
X44649000Y25916184D01*
X44649000Y26083816D01*
X44681703Y26248228D01*
X44745853Y26403100D01*
X44838985Y26542481D01*
X44957519Y26661015D01*
X45096900Y26754147D01*
X45251772Y26818297D01*
X45416184Y26851000D01*
X45583816Y26851000D01*
X45748228Y26818297D01*
X45748228Y26818297D01*
G37*
G36*
X43851000Y25149000D02*
X42149000Y25149000D01*
X42149000Y26851000D01*
X43851000Y26851000D01*
X43851000Y25149000D01*
X43851000Y25149000D01*
G37*
G36*
X36246820Y28358687D02*
X36246823Y28358686D01*
X36246824Y28358686D01*
X36407238Y28310025D01*
X36407240Y28310024D01*
X36407243Y28310023D01*
X36555078Y28231005D01*
X36684659Y28124659D01*
X36791005Y27995078D01*
X36870023Y27847244D01*
X36918687Y27686821D01*
X36931000Y27561804D01*
X36931000Y26678197D01*
X36918687Y26553180D01*
X36918686Y26553178D01*
X36918686Y26553175D01*
X36873161Y26403100D01*
X36870023Y26392756D01*
X36791005Y26244922D01*
X36684659Y26115341D01*
X36555078Y26008995D01*
X36407244Y25929977D01*
X36407241Y25929976D01*
X36407239Y25929975D01*
X36246825Y25881314D01*
X36246824Y25881314D01*
X36246821Y25881313D01*
X36080000Y25864883D01*
X35913180Y25881313D01*
X35913177Y25881314D01*
X35913176Y25881314D01*
X35752762Y25929975D01*
X35752760Y25929976D01*
X35752757Y25929977D01*
X35604923Y26008995D01*
X35475342Y26115341D01*
X35368996Y26244922D01*
X35289978Y26392756D01*
X35241314Y26553179D01*
X35229000Y26678197D01*
X35229000Y27561803D01*
X35241313Y27686820D01*
X35241314Y27686824D01*
X35289975Y27847238D01*
X35289976Y27847240D01*
X35289977Y27847243D01*
X35368995Y27995078D01*
X35475341Y28124659D01*
X35604922Y28231005D01*
X35752756Y28310023D01*
X35752759Y28310024D01*
X35752761Y28310025D01*
X35913175Y28358686D01*
X35913176Y28358686D01*
X35913179Y28358687D01*
X36080000Y28375117D01*
X36246820Y28358687D01*
X36246820Y28358687D01*
G37*
G36*
X38786820Y28358687D02*
X38786823Y28358686D01*
X38786824Y28358686D01*
X38947238Y28310025D01*
X38947240Y28310024D01*
X38947243Y28310023D01*
X39095078Y28231005D01*
X39224659Y28124659D01*
X39331005Y27995078D01*
X39410023Y27847244D01*
X39458687Y27686821D01*
X39471000Y27561804D01*
X39471000Y26678197D01*
X39458687Y26553180D01*
X39458686Y26553178D01*
X39458686Y26553175D01*
X39413161Y26403100D01*
X39410023Y26392756D01*
X39331005Y26244922D01*
X39224659Y26115341D01*
X39095078Y26008995D01*
X38947244Y25929977D01*
X38947241Y25929976D01*
X38947239Y25929975D01*
X38786825Y25881314D01*
X38786824Y25881314D01*
X38786821Y25881313D01*
X38620000Y25864883D01*
X38453180Y25881313D01*
X38453177Y25881314D01*
X38453176Y25881314D01*
X38292762Y25929975D01*
X38292760Y25929976D01*
X38292757Y25929977D01*
X38144923Y26008995D01*
X38015342Y26115341D01*
X37908996Y26244922D01*
X37829978Y26392756D01*
X37781314Y26553179D01*
X37769000Y26678197D01*
X37769000Y27561803D01*
X37781313Y27686820D01*
X37781314Y27686824D01*
X37829975Y27847238D01*
X37829976Y27847240D01*
X37829977Y27847243D01*
X37908995Y27995078D01*
X38015341Y28124659D01*
X38144922Y28231005D01*
X38292756Y28310023D01*
X38292759Y28310024D01*
X38292761Y28310025D01*
X38453175Y28358686D01*
X38453176Y28358686D01*
X38453179Y28358687D01*
X38620000Y28375117D01*
X38786820Y28358687D01*
X38786820Y28358687D01*
G37*
G36*
X31166820Y28358687D02*
X31166823Y28358686D01*
X31166824Y28358686D01*
X31327238Y28310025D01*
X31327240Y28310024D01*
X31327243Y28310023D01*
X31475078Y28231005D01*
X31604659Y28124659D01*
X31711005Y27995078D01*
X31790023Y27847244D01*
X31838687Y27686821D01*
X31851000Y27561804D01*
X31851000Y26678197D01*
X31838687Y26553180D01*
X31838686Y26553178D01*
X31838686Y26553175D01*
X31793161Y26403100D01*
X31790023Y26392756D01*
X31711005Y26244922D01*
X31604659Y26115341D01*
X31475078Y26008995D01*
X31327244Y25929977D01*
X31327241Y25929976D01*
X31327239Y25929975D01*
X31166825Y25881314D01*
X31166824Y25881314D01*
X31166821Y25881313D01*
X31000000Y25864883D01*
X30833180Y25881313D01*
X30833177Y25881314D01*
X30833176Y25881314D01*
X30672762Y25929975D01*
X30672760Y25929976D01*
X30672757Y25929977D01*
X30524923Y26008995D01*
X30395342Y26115341D01*
X30288996Y26244922D01*
X30209978Y26392756D01*
X30161314Y26553179D01*
X30149000Y26678197D01*
X30149000Y27561803D01*
X30161313Y27686820D01*
X30161314Y27686824D01*
X30209975Y27847238D01*
X30209976Y27847240D01*
X30209977Y27847243D01*
X30288995Y27995078D01*
X30395341Y28124659D01*
X30524922Y28231005D01*
X30672756Y28310023D01*
X30672759Y28310024D01*
X30672761Y28310025D01*
X30833175Y28358686D01*
X30833176Y28358686D01*
X30833179Y28358687D01*
X31000000Y28375117D01*
X31166820Y28358687D01*
X31166820Y28358687D01*
G37*
G36*
X33706820Y28358687D02*
X33706823Y28358686D01*
X33706824Y28358686D01*
X33867238Y28310025D01*
X33867240Y28310024D01*
X33867243Y28310023D01*
X34015078Y28231005D01*
X34144659Y28124659D01*
X34251005Y27995078D01*
X34330023Y27847244D01*
X34378687Y27686821D01*
X34391000Y27561804D01*
X34391000Y26678197D01*
X34378687Y26553180D01*
X34378686Y26553178D01*
X34378686Y26553175D01*
X34333161Y26403100D01*
X34330023Y26392756D01*
X34251005Y26244922D01*
X34144659Y26115341D01*
X34015078Y26008995D01*
X33867244Y25929977D01*
X33867241Y25929976D01*
X33867239Y25929975D01*
X33706825Y25881314D01*
X33706824Y25881314D01*
X33706821Y25881313D01*
X33540000Y25864883D01*
X33373180Y25881313D01*
X33373177Y25881314D01*
X33373176Y25881314D01*
X33212762Y25929975D01*
X33212760Y25929976D01*
X33212757Y25929977D01*
X33064923Y26008995D01*
X32935342Y26115341D01*
X32828996Y26244922D01*
X32749978Y26392756D01*
X32701314Y26553179D01*
X32689000Y26678197D01*
X32689000Y27561803D01*
X32701313Y27686820D01*
X32701314Y27686824D01*
X32749975Y27847238D01*
X32749976Y27847240D01*
X32749977Y27847243D01*
X32828995Y27995078D01*
X32935341Y28124659D01*
X33064922Y28231005D01*
X33212756Y28310023D01*
X33212759Y28310024D01*
X33212761Y28310025D01*
X33373175Y28358686D01*
X33373176Y28358686D01*
X33373179Y28358687D01*
X33540000Y28375117D01*
X33706820Y28358687D01*
X33706820Y28358687D01*
G37*
G36*
X22650443Y30894481D02*
X22716627Y30887963D01*
X22829853Y30853616D01*
X22886467Y30836443D01*
X23025087Y30762348D01*
X23042991Y30752778D01*
X23078729Y30723448D01*
X23180186Y30640186D01*
X23263448Y30538729D01*
X23292778Y30502991D01*
X23292779Y30502989D01*
X23376443Y30346467D01*
X23376443Y30346466D01*
X23427963Y30176627D01*
X23445359Y30000000D01*
X23427963Y29823373D01*
X23393616Y29710147D01*
X23376443Y29653533D01*
X23302348Y29514913D01*
X23292778Y29497009D01*
X23263448Y29461271D01*
X23180186Y29359814D01*
X23078729Y29276552D01*
X23042991Y29247222D01*
X23042989Y29247221D01*
X22886467Y29163557D01*
X22829853Y29146384D01*
X22716627Y29112037D01*
X22650442Y29105518D01*
X22584260Y29099000D01*
X22495740Y29099000D01*
X22429558Y29105518D01*
X22363373Y29112037D01*
X22250147Y29146384D01*
X22193533Y29163557D01*
X22037011Y29247221D01*
X22037009Y29247222D01*
X22001271Y29276552D01*
X21899814Y29359814D01*
X21816552Y29461271D01*
X21787222Y29497009D01*
X21777652Y29514913D01*
X21703557Y29653533D01*
X21686384Y29710147D01*
X21652037Y29823373D01*
X21634641Y30000000D01*
X21652037Y30176627D01*
X21703557Y30346466D01*
X21703557Y30346467D01*
X21787221Y30502989D01*
X21787222Y30502991D01*
X21816552Y30538729D01*
X21899814Y30640186D01*
X22001271Y30723448D01*
X22037009Y30752778D01*
X22054913Y30762348D01*
X22193533Y30836443D01*
X22250147Y30853616D01*
X22363373Y30887963D01*
X22429557Y30894481D01*
X22495740Y30901000D01*
X22584260Y30901000D01*
X22650443Y30894481D01*
X22650443Y30894481D01*
G37*
G36*
X20901000Y29099000D02*
X19099000Y29099000D01*
X19099000Y30901000D01*
X20901000Y30901000D01*
X20901000Y29099000D01*
X20901000Y29099000D01*
G37*
G36*
X25190443Y30894481D02*
X25256627Y30887963D01*
X25369853Y30853616D01*
X25426467Y30836443D01*
X25565087Y30762348D01*
X25582991Y30752778D01*
X25618729Y30723448D01*
X25720186Y30640186D01*
X25803448Y30538729D01*
X25832778Y30502991D01*
X25832779Y30502989D01*
X25916443Y30346467D01*
X25916443Y30346466D01*
X25967963Y30176627D01*
X25985359Y30000000D01*
X25967963Y29823373D01*
X25933616Y29710147D01*
X25916443Y29653533D01*
X25842348Y29514913D01*
X25832778Y29497009D01*
X25803448Y29461271D01*
X25720186Y29359814D01*
X25618729Y29276552D01*
X25582991Y29247222D01*
X25582989Y29247221D01*
X25426467Y29163557D01*
X25369853Y29146384D01*
X25256627Y29112037D01*
X25190442Y29105518D01*
X25124260Y29099000D01*
X25035740Y29099000D01*
X24969558Y29105518D01*
X24903373Y29112037D01*
X24790147Y29146384D01*
X24733533Y29163557D01*
X24577011Y29247221D01*
X24577009Y29247222D01*
X24541271Y29276552D01*
X24439814Y29359814D01*
X24356552Y29461271D01*
X24327222Y29497009D01*
X24317652Y29514913D01*
X24243557Y29653533D01*
X24226384Y29710147D01*
X24192037Y29823373D01*
X24174641Y30000000D01*
X24192037Y30176627D01*
X24243557Y30346466D01*
X24243557Y30346467D01*
X24327221Y30502989D01*
X24327222Y30502991D01*
X24356552Y30538729D01*
X24439814Y30640186D01*
X24541271Y30723448D01*
X24577009Y30752778D01*
X24594913Y30762348D01*
X24733533Y30836443D01*
X24790147Y30853616D01*
X24903373Y30887963D01*
X24969557Y30894481D01*
X25035740Y30901000D01*
X25124260Y30901000D01*
X25190443Y30894481D01*
X25190443Y30894481D01*
G37*
G36*
X37665589Y32761124D02*
X37764893Y32741371D01*
X37905206Y32683252D01*
X38031484Y32598875D01*
X38138875Y32491484D01*
X38223252Y32365206D01*
X38281371Y32224893D01*
X38311000Y32075937D01*
X38311000Y31924063D01*
X38281371Y31775107D01*
X38223252Y31634794D01*
X38138875Y31508516D01*
X38031484Y31401125D01*
X37905206Y31316748D01*
X37764893Y31258629D01*
X37665589Y31238876D01*
X37615938Y31229000D01*
X37464062Y31229000D01*
X37414411Y31238876D01*
X37315107Y31258629D01*
X37174794Y31316748D01*
X37048516Y31401125D01*
X36941125Y31508516D01*
X36856748Y31634794D01*
X36798629Y31775107D01*
X36769000Y31924063D01*
X36769000Y32075937D01*
X36798629Y32224893D01*
X36856748Y32365206D01*
X36941125Y32491484D01*
X37048516Y32598875D01*
X37174794Y32683252D01*
X37315107Y32741371D01*
X37414411Y32761124D01*
X37464062Y32771000D01*
X37615938Y32771000D01*
X37665589Y32761124D01*
X37665589Y32761124D01*
G37*
G36*
X35125589Y32761124D02*
X35224893Y32741371D01*
X35365206Y32683252D01*
X35491484Y32598875D01*
X35598875Y32491484D01*
X35683252Y32365206D01*
X35741371Y32224893D01*
X35771000Y32075937D01*
X35771000Y31924063D01*
X35741371Y31775107D01*
X35683252Y31634794D01*
X35598875Y31508516D01*
X35491484Y31401125D01*
X35365206Y31316748D01*
X35224893Y31258629D01*
X35125589Y31238876D01*
X35075938Y31229000D01*
X34924062Y31229000D01*
X34874411Y31238876D01*
X34775107Y31258629D01*
X34634794Y31316748D01*
X34508516Y31401125D01*
X34401125Y31508516D01*
X34316748Y31634794D01*
X34258629Y31775107D01*
X34229000Y31924063D01*
X34229000Y32075937D01*
X34258629Y32224893D01*
X34316748Y32365206D01*
X34401125Y32491484D01*
X34508516Y32598875D01*
X34634794Y32683252D01*
X34775107Y32741371D01*
X34874411Y32761124D01*
X34924062Y32771000D01*
X35075938Y32771000D01*
X35125589Y32761124D01*
X35125589Y32761124D01*
G37*
G36*
X32585589Y32761124D02*
X32684893Y32741371D01*
X32825206Y32683252D01*
X32951484Y32598875D01*
X33058875Y32491484D01*
X33143252Y32365206D01*
X33201371Y32224893D01*
X33231000Y32075937D01*
X33231000Y31924063D01*
X33201371Y31775107D01*
X33143252Y31634794D01*
X33058875Y31508516D01*
X32951484Y31401125D01*
X32825206Y31316748D01*
X32684893Y31258629D01*
X32585589Y31238876D01*
X32535938Y31229000D01*
X32384062Y31229000D01*
X32334411Y31238876D01*
X32235107Y31258629D01*
X32094794Y31316748D01*
X31968516Y31401125D01*
X31861125Y31508516D01*
X31776748Y31634794D01*
X31718629Y31775107D01*
X31689000Y31924063D01*
X31689000Y32075937D01*
X31718629Y32224893D01*
X31776748Y32365206D01*
X31861125Y32491484D01*
X31968516Y32598875D01*
X32094794Y32683252D01*
X32235107Y32741371D01*
X32334411Y32761124D01*
X32384062Y32771000D01*
X32535938Y32771000D01*
X32585589Y32761124D01*
X32585589Y32761124D01*
G37*
G36*
X47248228Y35318297D02*
X47403100Y35254147D01*
X47542481Y35161015D01*
X47661015Y35042481D01*
X47754147Y34903100D01*
X47818297Y34748228D01*
X47851000Y34583816D01*
X47851000Y34416184D01*
X47818297Y34251772D01*
X47754147Y34096900D01*
X47661015Y33957519D01*
X47542481Y33838985D01*
X47403100Y33745853D01*
X47248228Y33681703D01*
X47083816Y33649000D01*
X46916184Y33649000D01*
X46751772Y33681703D01*
X46596900Y33745853D01*
X46457519Y33838985D01*
X46338985Y33957519D01*
X46245853Y34096900D01*
X46181703Y34251772D01*
X46149000Y34416184D01*
X46149000Y34583816D01*
X46181703Y34748228D01*
X46245853Y34903100D01*
X46338985Y35042481D01*
X46457519Y35161015D01*
X46596900Y35254147D01*
X46751772Y35318297D01*
X46916184Y35351000D01*
X47083816Y35351000D01*
X47248228Y35318297D01*
X47248228Y35318297D01*
G37*
G36*
X17248228Y35318297D02*
X17403100Y35254147D01*
X17542481Y35161015D01*
X17661015Y35042481D01*
X17754147Y34903100D01*
X17818297Y34748228D01*
X17851000Y34583816D01*
X17851000Y34416184D01*
X17818297Y34251772D01*
X17754147Y34096900D01*
X17661015Y33957519D01*
X17542481Y33838985D01*
X17403100Y33745853D01*
X17248228Y33681703D01*
X17083816Y33649000D01*
X16916184Y33649000D01*
X16751772Y33681703D01*
X16596900Y33745853D01*
X16457519Y33838985D01*
X16338985Y33957519D01*
X16245853Y34096900D01*
X16181703Y34251772D01*
X16149000Y34416184D01*
X16149000Y34583816D01*
X16181703Y34748228D01*
X16245853Y34903100D01*
X16338985Y35042481D01*
X16457519Y35161015D01*
X16596900Y35254147D01*
X16751772Y35318297D01*
X16916184Y35351000D01*
X17083816Y35351000D01*
X17248228Y35318297D01*
X17248228Y35318297D01*
G37*
G36*
X60918604Y36921653D02*
X60955145Y36910568D01*
X60988820Y36892569D01*
X61018341Y36868341D01*
X61042569Y36838820D01*
X61060568Y36805145D01*
X61071653Y36768604D01*
X61076000Y36724462D01*
X61076000Y35275538D01*
X61071653Y35231396D01*
X61060568Y35194855D01*
X61042569Y35161180D01*
X61018341Y35131659D01*
X60988820Y35107431D01*
X60955145Y35089432D01*
X60918604Y35078347D01*
X60874462Y35074000D01*
X59925538Y35074000D01*
X59881396Y35078347D01*
X59844855Y35089432D01*
X59811180Y35107431D01*
X59781659Y35131659D01*
X59757431Y35161180D01*
X59739432Y35194855D01*
X59728347Y35231396D01*
X59724000Y35275538D01*
X59724000Y36724462D01*
X59728347Y36768604D01*
X59739432Y36805145D01*
X59757431Y36838820D01*
X59781659Y36868341D01*
X59811180Y36892569D01*
X59844855Y36910568D01*
X59881396Y36921653D01*
X59925538Y36926000D01*
X60874462Y36926000D01*
X60918604Y36921653D01*
X60918604Y36921653D01*
G37*
G36*
X66918604Y36921653D02*
X66955145Y36910568D01*
X66988820Y36892569D01*
X67018341Y36868341D01*
X67042569Y36838820D01*
X67060568Y36805145D01*
X67071653Y36768604D01*
X67076000Y36724462D01*
X67076000Y35275538D01*
X67071653Y35231396D01*
X67060568Y35194855D01*
X67042569Y35161180D01*
X67018341Y35131659D01*
X66988820Y35107431D01*
X66955145Y35089432D01*
X66918604Y35078347D01*
X66874462Y35074000D01*
X65925538Y35074000D01*
X65881396Y35078347D01*
X65844855Y35089432D01*
X65811180Y35107431D01*
X65781659Y35131659D01*
X65757431Y35161180D01*
X65739432Y35194855D01*
X65728347Y35231396D01*
X65724000Y35275538D01*
X65724000Y36724462D01*
X65728347Y36768604D01*
X65739432Y36805145D01*
X65757431Y36838820D01*
X65781659Y36868341D01*
X65811180Y36892569D01*
X65844855Y36910568D01*
X65881396Y36921653D01*
X65925538Y36926000D01*
X66874462Y36926000D01*
X66918604Y36921653D01*
X66918604Y36921653D01*
G37*
G36*
X64118604Y36921653D02*
X64155145Y36910568D01*
X64188820Y36892569D01*
X64218341Y36868341D01*
X64242569Y36838820D01*
X64260568Y36805145D01*
X64271653Y36768604D01*
X64276000Y36724462D01*
X64276000Y35275538D01*
X64271653Y35231396D01*
X64260568Y35194855D01*
X64242569Y35161180D01*
X64218341Y35131659D01*
X64188820Y35107431D01*
X64155145Y35089432D01*
X64118604Y35078347D01*
X64074462Y35074000D01*
X63125538Y35074000D01*
X63081396Y35078347D01*
X63044855Y35089432D01*
X63011180Y35107431D01*
X62981659Y35131659D01*
X62957431Y35161180D01*
X62939432Y35194855D01*
X62928347Y35231396D01*
X62924000Y35275538D01*
X62924000Y36724462D01*
X62928347Y36768604D01*
X62939432Y36805145D01*
X62957431Y36838820D01*
X62981659Y36868341D01*
X63011180Y36892569D01*
X63044855Y36910568D01*
X63081396Y36921653D01*
X63125538Y36926000D01*
X64074462Y36926000D01*
X64118604Y36921653D01*
X64118604Y36921653D01*
G37*
G36*
X58118604Y36921653D02*
X58155145Y36910568D01*
X58188820Y36892569D01*
X58218341Y36868341D01*
X58242569Y36838820D01*
X58260568Y36805145D01*
X58271653Y36768604D01*
X58276000Y36724462D01*
X58276000Y35275538D01*
X58271653Y35231396D01*
X58260568Y35194855D01*
X58242569Y35161180D01*
X58218341Y35131659D01*
X58188820Y35107431D01*
X58155145Y35089432D01*
X58118604Y35078347D01*
X58074462Y35074000D01*
X57125538Y35074000D01*
X57081396Y35078347D01*
X57044855Y35089432D01*
X57011180Y35107431D01*
X56981659Y35131659D01*
X56957431Y35161180D01*
X56939432Y35194855D01*
X56928347Y35231396D01*
X56924000Y35275538D01*
X56924000Y36724462D01*
X56928347Y36768604D01*
X56939432Y36805145D01*
X56957431Y36838820D01*
X56981659Y36868341D01*
X57011180Y36892569D01*
X57044855Y36910568D01*
X57081396Y36921653D01*
X57125538Y36926000D01*
X58074462Y36926000D01*
X58118604Y36921653D01*
X58118604Y36921653D01*
G37*
G36*
X17851000Y36149000D02*
X16149000Y36149000D01*
X16149000Y37851000D01*
X17851000Y37851000D01*
X17851000Y36149000D01*
X17851000Y36149000D01*
G37*
G36*
X47851000Y36149000D02*
X46149000Y36149000D01*
X46149000Y37851000D01*
X47851000Y37851000D01*
X47851000Y36149000D01*
X47851000Y36149000D01*
G37*
G36*
X65548156Y49327206D02*
X66269140Y49183794D01*
X67060972Y48855807D01*
X67773601Y48379643D01*
X68379643Y47773601D01*
X68855807Y47060972D01*
X69183794Y46269140D01*
X69326640Y45551000D01*
X69338497Y45491396D01*
X69351000Y45428536D01*
X69351000Y44571464D01*
X69183794Y43730860D01*
X68855807Y42939028D01*
X68379643Y42226399D01*
X67773601Y41620357D01*
X67060972Y41144193D01*
X66269140Y40816206D01*
X65548156Y40672794D01*
X65428537Y40649000D01*
X64571463Y40649000D01*
X64451844Y40672794D01*
X63730860Y40816206D01*
X62939028Y41144193D01*
X62226399Y41620357D01*
X61620357Y42226399D01*
X61144193Y42939028D01*
X60816206Y43730860D01*
X60649000Y44571464D01*
X60649000Y45428536D01*
X60661504Y45491396D01*
X60673360Y45551000D01*
X60816206Y46269140D01*
X61144193Y47060972D01*
X61620357Y47773601D01*
X62226399Y48379643D01*
X62939028Y48855807D01*
X63730860Y49183794D01*
X64451844Y49327206D01*
X64571463Y49351000D01*
X65428537Y49351000D01*
X65548156Y49327206D01*
X65548156Y49327206D01*
G37*
G36*
X5548156Y49327206D02*
X6269140Y49183794D01*
X7060972Y48855807D01*
X7773601Y48379643D01*
X8379643Y47773601D01*
X8855807Y47060972D01*
X9183794Y46269140D01*
X9326640Y45551000D01*
X9338497Y45491396D01*
X9351000Y45428536D01*
X9351000Y44571464D01*
X9183794Y43730860D01*
X8855807Y42939028D01*
X8379643Y42226399D01*
X7773601Y41620357D01*
X7060972Y41144193D01*
X6269140Y40816206D01*
X5548156Y40672794D01*
X5428537Y40649000D01*
X4571463Y40649000D01*
X4451844Y40672794D01*
X3730860Y40816206D01*
X2939028Y41144193D01*
X2226399Y41620357D01*
X1620357Y42226399D01*
X1144193Y42939028D01*
X816206Y43730860D01*
X649000Y44571464D01*
X649000Y45428536D01*
X661504Y45491396D01*
X673360Y45551000D01*
X816206Y46269140D01*
X1144193Y47060972D01*
X1620357Y47773601D01*
X2226399Y48379643D01*
X2939028Y48855807D01*
X3730860Y49183794D01*
X4451844Y49327206D01*
X4571463Y49351000D01*
X5428537Y49351000D01*
X5548156Y49327206D01*
X5548156Y49327206D01*
G37*
G36*
X47551000Y41049000D02*
X45649000Y41049000D01*
X45649000Y42951000D01*
X47551000Y42951000D01*
X47551000Y41049000D01*
X47551000Y41049000D01*
G37*
G36*
X17551000Y41049000D02*
X15649000Y41049000D01*
X15649000Y42951000D01*
X17551000Y42951000D01*
X17551000Y41049000D01*
X17551000Y41049000D01*
G37*
G36*
X53586425Y42937240D02*
X53586428Y42937239D01*
X53586429Y42937239D01*
X53765693Y42882860D01*
X53765695Y42882859D01*
X53930905Y42794552D01*
X54075712Y42675712D01*
X54194552Y42530905D01*
X54194553Y42530903D01*
X54282860Y42365693D01*
X54325114Y42226399D01*
X54337240Y42186425D01*
X54355601Y42000000D01*
X54337240Y41813575D01*
X54282859Y41634305D01*
X54194552Y41469095D01*
X54075712Y41324288D01*
X53930905Y41205448D01*
X53930903Y41205447D01*
X53765693Y41117140D01*
X53586429Y41062761D01*
X53586428Y41062761D01*
X53586425Y41062760D01*
X53446718Y41049000D01*
X53353282Y41049000D01*
X53213575Y41062760D01*
X53213572Y41062761D01*
X53213571Y41062761D01*
X53034307Y41117140D01*
X52869097Y41205447D01*
X52869095Y41205448D01*
X52724288Y41324288D01*
X52605448Y41469095D01*
X52517141Y41634305D01*
X52462760Y41813575D01*
X52444399Y42000000D01*
X52462760Y42186425D01*
X52474886Y42226399D01*
X52517140Y42365693D01*
X52605447Y42530903D01*
X52605448Y42530905D01*
X52724288Y42675712D01*
X52869095Y42794552D01*
X53034305Y42882859D01*
X53034307Y42882860D01*
X53213571Y42937239D01*
X53213572Y42937239D01*
X53213575Y42937240D01*
X53353282Y42951000D01*
X53446718Y42951000D01*
X53586425Y42937240D01*
X53586425Y42937240D01*
G37*
G36*
X50186425Y42937240D02*
X50186428Y42937239D01*
X50186429Y42937239D01*
X50365693Y42882860D01*
X50365695Y42882859D01*
X50530905Y42794552D01*
X50675712Y42675712D01*
X50794552Y42530905D01*
X50794553Y42530903D01*
X50882860Y42365693D01*
X50925114Y42226399D01*
X50937240Y42186425D01*
X50955601Y42000000D01*
X50937240Y41813575D01*
X50882859Y41634305D01*
X50794552Y41469095D01*
X50675712Y41324288D01*
X50530905Y41205448D01*
X50530903Y41205447D01*
X50365693Y41117140D01*
X50186429Y41062761D01*
X50186428Y41062761D01*
X50186425Y41062760D01*
X50046718Y41049000D01*
X49953282Y41049000D01*
X49813575Y41062760D01*
X49813572Y41062761D01*
X49813571Y41062761D01*
X49634307Y41117140D01*
X49469097Y41205447D01*
X49469095Y41205448D01*
X49324288Y41324288D01*
X49205448Y41469095D01*
X49117141Y41634305D01*
X49062760Y41813575D01*
X49044399Y42000000D01*
X49062760Y42186425D01*
X49074886Y42226399D01*
X49117140Y42365693D01*
X49205447Y42530903D01*
X49205448Y42530905D01*
X49324288Y42675712D01*
X49469095Y42794552D01*
X49634305Y42882859D01*
X49634307Y42882860D01*
X49813571Y42937239D01*
X49813572Y42937239D01*
X49813575Y42937240D01*
X49953282Y42951000D01*
X50046718Y42951000D01*
X50186425Y42937240D01*
X50186425Y42937240D01*
G37*
G36*
X20186425Y42937240D02*
X20186428Y42937239D01*
X20186429Y42937239D01*
X20365693Y42882860D01*
X20365695Y42882859D01*
X20530905Y42794552D01*
X20675712Y42675712D01*
X20794552Y42530905D01*
X20794553Y42530903D01*
X20882860Y42365693D01*
X20925114Y42226399D01*
X20937240Y42186425D01*
X20955601Y42000000D01*
X20937240Y41813575D01*
X20882859Y41634305D01*
X20794552Y41469095D01*
X20675712Y41324288D01*
X20530905Y41205448D01*
X20530903Y41205447D01*
X20365693Y41117140D01*
X20186429Y41062761D01*
X20186428Y41062761D01*
X20186425Y41062760D01*
X20046718Y41049000D01*
X19953282Y41049000D01*
X19813575Y41062760D01*
X19813572Y41062761D01*
X19813571Y41062761D01*
X19634307Y41117140D01*
X19469097Y41205447D01*
X19469095Y41205448D01*
X19324288Y41324288D01*
X19205448Y41469095D01*
X19117141Y41634305D01*
X19062760Y41813575D01*
X19044399Y42000000D01*
X19062760Y42186425D01*
X19074886Y42226399D01*
X19117140Y42365693D01*
X19205447Y42530903D01*
X19205448Y42530905D01*
X19324288Y42675712D01*
X19469095Y42794552D01*
X19634305Y42882859D01*
X19634307Y42882860D01*
X19813571Y42937239D01*
X19813572Y42937239D01*
X19813575Y42937240D01*
X19953282Y42951000D01*
X20046718Y42951000D01*
X20186425Y42937240D01*
X20186425Y42937240D01*
G37*
G36*
X23586425Y42937240D02*
X23586428Y42937239D01*
X23586429Y42937239D01*
X23765693Y42882860D01*
X23765695Y42882859D01*
X23930905Y42794552D01*
X24075712Y42675712D01*
X24194552Y42530905D01*
X24194553Y42530903D01*
X24282860Y42365693D01*
X24325114Y42226399D01*
X24337240Y42186425D01*
X24355601Y42000000D01*
X24337240Y41813575D01*
X24282859Y41634305D01*
X24194552Y41469095D01*
X24075712Y41324288D01*
X23930905Y41205448D01*
X23930903Y41205447D01*
X23765693Y41117140D01*
X23586429Y41062761D01*
X23586428Y41062761D01*
X23586425Y41062760D01*
X23446718Y41049000D01*
X23353282Y41049000D01*
X23213575Y41062760D01*
X23213572Y41062761D01*
X23213571Y41062761D01*
X23034307Y41117140D01*
X22869097Y41205447D01*
X22869095Y41205448D01*
X22724288Y41324288D01*
X22605448Y41469095D01*
X22517141Y41634305D01*
X22462760Y41813575D01*
X22444399Y42000000D01*
X22462760Y42186425D01*
X22474886Y42226399D01*
X22517140Y42365693D01*
X22605447Y42530903D01*
X22605448Y42530905D01*
X22724288Y42675712D01*
X22869095Y42794552D01*
X23034305Y42882859D01*
X23034307Y42882860D01*
X23213571Y42937239D01*
X23213572Y42937239D01*
X23213575Y42937240D01*
X23353282Y42951000D01*
X23446718Y42951000D01*
X23586425Y42937240D01*
X23586425Y42937240D01*
G37*
G36*
X37920929Y45513571D02*
X38032410Y45491396D01*
X38314674Y45374479D01*
X38568705Y45204741D01*
X38784741Y44988705D01*
X38954479Y44734674D01*
X39071396Y44452410D01*
X39131000Y44152760D01*
X39131000Y43847240D01*
X39071396Y43547590D01*
X38954479Y43265326D01*
X38784741Y43011295D01*
X38568705Y42795259D01*
X38314674Y42625521D01*
X38032410Y42508604D01*
X37932527Y42488736D01*
X37732762Y42449000D01*
X37427238Y42449000D01*
X37227473Y42488736D01*
X37127590Y42508604D01*
X36845326Y42625521D01*
X36591295Y42795259D01*
X36375259Y43011295D01*
X36205521Y43265326D01*
X36088604Y43547590D01*
X36029000Y43847240D01*
X36029000Y44152760D01*
X36088604Y44452410D01*
X36205521Y44734674D01*
X36375259Y44988705D01*
X36591295Y45204741D01*
X36845326Y45374479D01*
X37127590Y45491396D01*
X37239071Y45513571D01*
X37427238Y45551000D01*
X37732762Y45551000D01*
X37920929Y45513571D01*
X37920929Y45513571D01*
G37*
G36*
X34051000Y42449000D02*
X30949000Y42449000D01*
X30949000Y45551000D01*
X34051000Y45551000D01*
X34051000Y42449000D01*
X34051000Y42449000D01*
G37*
G36*
X21886425Y46637240D02*
X21886428Y46637239D01*
X21886429Y46637239D01*
X22065693Y46582860D01*
X22065695Y46582859D01*
X22230905Y46494552D01*
X22375712Y46375712D01*
X22494552Y46230905D01*
X22582859Y46065695D01*
X22637240Y45886425D01*
X22655601Y45700000D01*
X22637240Y45513575D01*
X22637239Y45513572D01*
X22637239Y45513571D01*
X22633426Y45501000D01*
X22582859Y45334305D01*
X22494552Y45169095D01*
X22375712Y45024288D01*
X22230905Y44905448D01*
X22065695Y44817141D01*
X22065693Y44817140D01*
X21886429Y44762761D01*
X21886428Y44762761D01*
X21886425Y44762760D01*
X21746718Y44749000D01*
X21653282Y44749000D01*
X21513575Y44762760D01*
X21513572Y44762761D01*
X21513571Y44762761D01*
X21334307Y44817140D01*
X21334305Y44817141D01*
X21169095Y44905448D01*
X21024288Y45024288D01*
X20905448Y45169095D01*
X20817141Y45334305D01*
X20766575Y45501000D01*
X20762761Y45513571D01*
X20762761Y45513572D01*
X20762760Y45513575D01*
X20744399Y45700000D01*
X20762760Y45886425D01*
X20817141Y46065695D01*
X20905448Y46230905D01*
X21024288Y46375712D01*
X21169095Y46494552D01*
X21334305Y46582859D01*
X21334307Y46582860D01*
X21513571Y46637239D01*
X21513572Y46637239D01*
X21513575Y46637240D01*
X21653282Y46651000D01*
X21746718Y46651000D01*
X21886425Y46637240D01*
X21886425Y46637240D01*
G37*
G36*
X18486425Y46637240D02*
X18486428Y46637239D01*
X18486429Y46637239D01*
X18665693Y46582860D01*
X18665695Y46582859D01*
X18830905Y46494552D01*
X18975712Y46375712D01*
X19094552Y46230905D01*
X19182859Y46065695D01*
X19237240Y45886425D01*
X19255601Y45700000D01*
X19237240Y45513575D01*
X19237239Y45513572D01*
X19237239Y45513571D01*
X19233426Y45501000D01*
X19182859Y45334305D01*
X19094552Y45169095D01*
X18975712Y45024288D01*
X18830905Y44905448D01*
X18665695Y44817141D01*
X18665693Y44817140D01*
X18486429Y44762761D01*
X18486428Y44762761D01*
X18486425Y44762760D01*
X18346718Y44749000D01*
X18253282Y44749000D01*
X18113575Y44762760D01*
X18113572Y44762761D01*
X18113571Y44762761D01*
X17934307Y44817140D01*
X17934305Y44817141D01*
X17769095Y44905448D01*
X17624288Y45024288D01*
X17505448Y45169095D01*
X17417141Y45334305D01*
X17366575Y45501000D01*
X17362761Y45513571D01*
X17362761Y45513572D01*
X17362760Y45513575D01*
X17344399Y45700000D01*
X17362760Y45886425D01*
X17417141Y46065695D01*
X17505448Y46230905D01*
X17624288Y46375712D01*
X17769095Y46494552D01*
X17934305Y46582859D01*
X17934307Y46582860D01*
X18113571Y46637239D01*
X18113572Y46637239D01*
X18113575Y46637240D01*
X18253282Y46651000D01*
X18346718Y46651000D01*
X18486425Y46637240D01*
X18486425Y46637240D01*
G37*
G36*
X51886425Y46637240D02*
X51886428Y46637239D01*
X51886429Y46637239D01*
X52065693Y46582860D01*
X52065695Y46582859D01*
X52230905Y46494552D01*
X52375712Y46375712D01*
X52494552Y46230905D01*
X52582859Y46065695D01*
X52637240Y45886425D01*
X52655601Y45700000D01*
X52637240Y45513575D01*
X52637239Y45513572D01*
X52637239Y45513571D01*
X52633426Y45501000D01*
X52582859Y45334305D01*
X52494552Y45169095D01*
X52375712Y45024288D01*
X52230905Y44905448D01*
X52065695Y44817141D01*
X52065693Y44817140D01*
X51886429Y44762761D01*
X51886428Y44762761D01*
X51886425Y44762760D01*
X51746718Y44749000D01*
X51653282Y44749000D01*
X51513575Y44762760D01*
X51513572Y44762761D01*
X51513571Y44762761D01*
X51334307Y44817140D01*
X51334305Y44817141D01*
X51169095Y44905448D01*
X51024288Y45024288D01*
X50905448Y45169095D01*
X50817141Y45334305D01*
X50766575Y45501000D01*
X50762761Y45513571D01*
X50762761Y45513572D01*
X50762760Y45513575D01*
X50744399Y45700000D01*
X50762760Y45886425D01*
X50817141Y46065695D01*
X50905448Y46230905D01*
X51024288Y46375712D01*
X51169095Y46494552D01*
X51334305Y46582859D01*
X51334307Y46582860D01*
X51513571Y46637239D01*
X51513572Y46637239D01*
X51513575Y46637240D01*
X51653282Y46651000D01*
X51746718Y46651000D01*
X51886425Y46637240D01*
X51886425Y46637240D01*
G37*
G36*
X48486425Y46637240D02*
X48486428Y46637239D01*
X48486429Y46637239D01*
X48665693Y46582860D01*
X48665695Y46582859D01*
X48830905Y46494552D01*
X48975712Y46375712D01*
X49094552Y46230905D01*
X49182859Y46065695D01*
X49237240Y45886425D01*
X49255601Y45700000D01*
X49237240Y45513575D01*
X49237239Y45513572D01*
X49237239Y45513571D01*
X49233426Y45501000D01*
X49182859Y45334305D01*
X49094552Y45169095D01*
X48975712Y45024288D01*
X48830905Y44905448D01*
X48665695Y44817141D01*
X48665693Y44817140D01*
X48486429Y44762761D01*
X48486428Y44762761D01*
X48486425Y44762760D01*
X48346718Y44749000D01*
X48253282Y44749000D01*
X48113575Y44762760D01*
X48113572Y44762761D01*
X48113571Y44762761D01*
X47934307Y44817140D01*
X47934305Y44817141D01*
X47769095Y44905448D01*
X47624288Y45024288D01*
X47505448Y45169095D01*
X47417141Y45334305D01*
X47366575Y45501000D01*
X47362761Y45513571D01*
X47362761Y45513572D01*
X47362760Y45513575D01*
X47344399Y45700000D01*
X47362760Y45886425D01*
X47417141Y46065695D01*
X47505448Y46230905D01*
X47624288Y46375712D01*
X47769095Y46494552D01*
X47934305Y46582859D01*
X47934307Y46582860D01*
X48113571Y46637239D01*
X48113572Y46637239D01*
X48113575Y46637240D01*
X48253282Y46651000D01*
X48346718Y46651000D01*
X48486425Y46637240D01*
X48486425Y46637240D01*
G37*
M02*
